<?xml version="1.0" encoding="utf-8"?>
<!-- Generator: Adobe Illustrator 16.0.0, SVG Export Plug-In . SVG Version: 6.00 Build 0)  -->
<!DOCTYPE svg PUBLIC "-//W3C//DTD SVG 1.1//EN" "http://www.w3.org/Graphics/SVG/1.1/DTD/svg11.dtd">
<svg version="1.1" id="Capa_1" xmlns="http://www.w3.org/2000/svg" xmlns:xlink="http://www.w3.org/1999/xlink" x="0px" y="0px"
	 width="120px" height="160px" viewBox="0 0 120 160" enable-background="new 0 0 120 160" xml:space="preserve">
<g>
	<g>
		<path fill="#252D38" d="M116.91,91.962c0.008-0.108,0.008-0.218,0-0.326c-0.063-0.141-0.139-0.274-0.226-0.401l-0.226-0.301
			l-44.65-42.667c-0.363-0.355-0.828-0.592-1.33-0.678c-3.826-0.534-7.682-0.819-11.545-0.853c-1.473-1.146-3.191-1.936-5.02-2.309
			c-0.427-4.618,0.075-15.059,8.684-19.677c1.221-0.693,1.646-2.244,0.954-3.463s-2.243-1.647-3.463-0.954
			C48.919,26.38,48.191,38.98,48.442,44.401c-2.239,0.502-4.292,1.624-5.923,3.238c-18.347,2.761-31.9,10.943-39.253,23.743v0.125
			v0.151c-0.125,0.294-0.194,0.609-0.201,0.929v44.826c-0.02,1.227,0.851,2.289,2.058,2.51L113.975,140h0.451
			c1.386,0,2.51-1.124,2.51-2.51V92.514c0,0,0,0,0-0.176C116.937,92.213,116.928,92.087,116.91,91.962z M51.354,49.019
			c3.992-0.014,7.24,3.211,7.253,7.203s-3.211,7.24-7.203,7.253s-7.24-3.211-7.253-7.203c0-0.008,0-0.017,0-0.025
			C44.151,52.265,47.372,49.033,51.354,49.019z M39.533,53.236L39.533,53.236c-0.258,0.975-0.393,1.978-0.401,2.986
			c-0.198,6.762,5.122,12.404,11.883,12.602c6.761,0.198,12.403-5.122,12.602-11.883c0.054-1.808-0.295-3.604-1.019-5.261
			c2.836,0.15,5.02,0.401,6.023,0.527l38.1,36.417L9.892,70.754C16.091,61.819,26.08,55.971,39.533,53.236z M8.16,115.303v-12.047
			l103.831,18.699l0.024,12.523L8.16,115.303z M8.16,98.161v-7.529l103.831,18.698l0.024,7.58L8.16,98.161z M8.16,85.587V75.548
			l77.026,14.23l26.78,5.021l0.049,9.562L8.16,85.587z"/>
	</g>
</g>
</svg>
