<?xml version="1.0" encoding="utf-8"?>
<!-- Generator: Adobe Illustrator 16.0.0, SVG Export Plug-In . SVG Version: 6.00 Build 0)  -->
<!DOCTYPE svg PUBLIC "-//W3C//DTD SVG 1.1//EN" "http://www.w3.org/Graphics/SVG/1.1/DTD/svg11.dtd">
<svg version="1.1" id="Layer_1" xmlns="http://www.w3.org/2000/svg" xmlns:xlink="http://www.w3.org/1999/xlink" x="0px" y="0px"
	 width="512px" height="512px" viewBox="0 0 512 512" enable-background="new 0 0 512 512" xml:space="preserve">
<path fill="#252D32" d="M164.961,300.004h0.023c0.02,0,0.039-0.004,0.059-0.004H437c6.695,0,12.582-4.441,14.422-10.879l60-210
	c1.293-4.527,0.387-9.395-2.444-13.152C506.141,62.211,501.707,60,497,60H130.367l-10.723-48.254C118.117,4.883,112.031,0,105,0H15
	C6.715,0,0,6.715,0,15s6.715,15,15,15h77.969c1.898,8.551,51.313,230.918,54.156,243.711C131.184,280.641,120,296.535,120,315
	c0,24.813,20.188,45,45,45h272c8.285,0,15-6.715,15-15s-6.715-15-15-15H165c-8.27,0-15-6.73-15-15
	C150,306.742,156.707,300.023,164.961,300.004z M477.113,90l-51.431,180H177.031l-40-180H477.113z"/>
<path fill="#252D32" d="M150,405c0,24.813,20.188,45,45,45s45-20.188,45-45s-20.188-45-45-45S150,380.188,150,405z M195,390
	c8.27,0,15,6.73,15,15s-6.73,15-15,15s-15-6.73-15-15S186.73,390,195,390z"/>
<path fill="#252D32" d="M362,405c0,24.813,20.188,45,45,45c24.812,0,45-20.188,45-45s-20.188-45-45-45
	C382.188,360,362,380.188,362,405z M407,390c8.27,0,15,6.73,15,15s-6.73,15-15,15s-15-6.73-15-15S398.73,390,407,390z"/>
</svg>
