<?xml version="1.0" encoding="utf-8"?>
<!-- Generator: Adobe Illustrator 16.0.0, SVG Export Plug-In . SVG Version: 6.00 Build 0)  -->
<!DOCTYPE svg PUBLIC "-//W3C//DTD SVG 1.1//EN" "http://www.w3.org/Graphics/SVG/1.1/DTD/svg11.dtd">
<svg version="1.1" id="Layer_1" xmlns="http://www.w3.org/2000/svg" xmlns:xlink="http://www.w3.org/1999/xlink" x="0px" y="0px"
	 width="512px" height="512px" viewBox="0 0 512 512" enable-background="new 0 0 512 512" xml:space="preserve">
<path fill="#394B54" d="M164.961,331.004h0.023c0.02,0,0.039-0.004,0.059-0.004H437c6.695,0,12.582-4.441,14.422-10.879l60-210
	c1.293-4.527,0.387-9.395-2.444-13.152C506.141,93.211,501.707,91,497,91H130.367l-10.723-48.254C118.117,35.883,112.031,31,105,31
	H15C6.715,31,0,37.715,0,46s6.715,15,15,15h77.969c1.898,8.551,51.313,230.918,54.156,243.711C131.184,311.641,120,327.535,120,346
	c0,24.813,20.188,45,45,45h272c8.285,0,15-6.715,15-15s-6.715-15-15-15H165c-8.27,0-15-6.73-15-15
	C150,337.742,156.707,331.023,164.961,331.004z M477.113,121l-51.432,180h-248.65l-40-180H477.113z"/>
<path fill="#394B54" d="M150,436c0,24.813,20.188,45,45,45s45-20.188,45-45c0-24.813-20.188-45-45-45S150,411.188,150,436z M195,421
	c8.27,0,15,6.73,15,15s-6.73,15-15,15s-15-6.73-15-15S186.73,421,195,421z"/>
<path fill="#394B54" d="M362,436c0,24.813,20.188,45,45,45s45-20.188,45-45c0-24.813-20.188-45-45-45S362,411.188,362,436z M407,421
	c8.27,0,15,6.73,15,15s-6.73,15-15,15s-15-6.73-15-15S398.73,421,407,421z"/>
</svg>
