<?xml version="1.0" encoding="utf-8"?>
<!-- Generator: Adobe Illustrator 16.0.0, SVG Export Plug-In . SVG Version: 6.00 Build 0)  -->
<!DOCTYPE svg PUBLIC "-//W3C//DTD SVG 1.1//EN" "http://www.w3.org/Graphics/SVG/1.1/DTD/svg11.dtd">
<svg version="1.1" id="Layer_1" xmlns="http://www.w3.org/2000/svg" xmlns:xlink="http://www.w3.org/1999/xlink" x="0px" y="0px"
	 width="120px" height="160px" viewBox="0 0 120 160" enable-background="new 0 0 120 160" xml:space="preserve">
<path fill="#252D38" d="M55.372,101.432c0.917-0.918,0.917-2.404,0-3.322c-0.917-0.915-2.403-0.915-3.322,0
	c-0.915,0.918-0.915,2.404,0,3.322C52.969,102.348,54.455,102.348,55.372,101.432z"/>
<path fill="#252D38" d="M44.254,45.707c0,14.239,11.584,25.825,25.824,25.825c14.24,0,25.824-11.586,25.824-25.825
	c0-14.24-11.584-25.824-25.824-25.824C55.839,19.883,44.254,31.467,44.254,45.707z M91.208,45.707
	c0,11.651-9.479,21.129-21.13,21.129c-11.65,0-21.129-9.479-21.129-21.129c0-11.65,9.479-21.129,21.129-21.129
	C81.729,24.578,91.208,34.057,91.208,45.707z"/>
<path fill="#252D38" d="M27.159,139.423c0.91,0.917,2.391,0.928,3.313,0.02l11.382-11.214c1.934-1.934,2.521-4.797,1.671-7.285
	l2.448-2.361c1.318-1.273,3.054-1.975,4.889-1.975h31.209c5.537,0,10.771-2.127,14.738-5.987c0.163-0.159-1.24,1.493,21.291-25.436
	c3.342-3.954,2.842-9.891-1.115-13.236c-3.932-3.314-9.823-2.838-13.174,1.047L89.959,87.234c-1.75-2.152-4.417-3.494-7.299-3.494
	H56.48c-3.726-1.559-7.678-2.348-11.756-2.348c-11.305,0-21.177,5.221-26.474,15.011c-2.232-0.423-4.585,0.253-6.279,1.946
	L0.803,109.551c-0.912,0.914-0.914,2.395-0.004,3.312L27.159,139.423z M44.723,86.088c3.596,0,7.072,0.723,10.335,2.15
	c0.297,0.131,0.617,0.197,0.941,0.197H82.66c2.545,0,4.695,2.076,4.695,4.695c0,2.59-2.106,4.695-4.695,4.695H63.505
	c-1.296,0-2.347,1.051-2.347,2.348s1.051,2.348,2.347,2.348H82.66c5.178,0,9.391-4.213,9.391-9.391c0-0.413-0.029-0.822-0.083-1.228
	c13.401-13.775,15.29-15.711,15.372-15.808c1.672-1.975,4.643-2.225,6.619-0.56c1.978,1.672,2.228,4.641,0.55,6.627l-21.058,25.173
	c-3.074,2.952-7.111,4.576-11.379,4.576H50.863c-3.059,0-5.954,1.17-8.15,3.292l-1.995,1.925L22.326,98.738
	C26.624,90.674,34.69,86.088,44.723,86.088z M15.293,101.667c0.774-0.774,1.963-0.913,2.907-0.33
	c0.406,0.247-0.761-0.814,20.334,20.251c0.938,0.938,0.888,2.434,0.013,3.309l-9.703,9.559L5.776,111.212L15.293,101.667z"/>
<path fill="#252D38" d="M67.262,31.622v2.751c-2.732,0.969-4.695,3.579-4.695,6.64c0,3.883,3.158,7.043,7.043,7.043
	c1.294,0,2.348,1.053,2.348,2.348s-1.054,2.347-2.348,2.347c-1.003,0-2.086-0.63-3.049-1.776c-0.834-0.993-2.315-1.12-3.308-0.286
	c-0.993,0.835-1.121,2.315-0.286,3.308c1.255,1.492,2.73,2.532,4.295,3.057v2.74c0,1.297,1.051,2.347,2.348,2.347
	c1.296,0,2.348-1.05,2.348-2.347v-2.751c2.732-0.97,4.695-3.58,4.695-6.64c0-3.884-3.16-7.043-7.043-7.043
	c-1.295,0-2.348-1.053-2.348-2.347s1.053-2.349,2.348-2.349c0.832,0,1.709,0.425,2.539,1.228c0.932,0.902,2.418,0.877,3.319-0.054
	c0.901-0.932,0.877-2.418-0.054-3.32c-1.191-1.153-2.385-1.805-3.457-2.161v-2.734c0-1.297-1.052-2.348-2.348-2.348
	C68.313,29.273,67.262,30.324,67.262,31.622z"/>
</svg>
