<?xml version="1.0" encoding="utf-8"?>
<!-- Generator: Adobe Illustrator 16.0.0, SVG Export Plug-In . SVG Version: 6.00 Build 0)  -->
<!DOCTYPE svg PUBLIC "-//W3C//DTD SVG 1.1//EN" "http://www.w3.org/Graphics/SVG/1.1/DTD/svg11.dtd">
<svg version="1.1" id="Layer_1" xmlns="http://www.w3.org/2000/svg" xmlns:xlink="http://www.w3.org/1999/xlink" x="0px" y="0px"
	 width="512px" height="512px" viewBox="0 0 512 512" enable-background="new 0 0 512 512" xml:space="preserve">
<path fill="#CBCFD1" d="M163.961,331.004h0.023c0.02,0,0.039-0.004,0.059-0.004H436c6.695,0,12.582-4.441,14.422-10.879l60-210
	c1.293-4.527,0.387-9.395-2.444-13.152C505.141,93.211,500.707,91,496,91H129.367l-10.723-48.254C117.117,35.883,111.031,31,104,31
	H14C5.715,31-1,37.715-1,46s6.715,15,15,15h77.969c1.898,8.551,51.313,230.918,54.156,243.711C130.184,311.641,119,327.535,119,346
	c0,24.813,20.188,45,45,45h272c8.285,0,15-6.715,15-15s-6.715-15-15-15H164c-8.27,0-15-6.73-15-15
	C149,337.742,155.707,331.023,163.961,331.004z M476.113,121l-51.432,180h-248.65l-40-180H476.113z"/>
<path fill="#CBCFD1" d="M149,436c0,24.813,20.188,45,45,45s45-20.188,45-45c0-24.813-20.188-45-45-45S149,411.188,149,436z M194,421
	c8.27,0,15,6.73,15,15s-6.73,15-15,15s-15-6.73-15-15S185.73,421,194,421z"/>
<path fill="#CBCFD1" d="M361,436c0,24.813,20.188,45,45,45s45-20.188,45-45c0-24.813-20.188-45-45-45S361,411.188,361,436z M406,421
	c8.27,0,15,6.73,15,15s-6.73,15-15,15s-15-6.73-15-15S397.73,421,406,421z"/>
</svg>
