<?xml version="1.0" encoding="utf-8"?>
<!-- Generator: Adobe Illustrator 16.0.0, SVG Export Plug-In . SVG Version: 6.00 Build 0)  -->
<!DOCTYPE svg PUBLIC "-//W3C//DTD SVG 1.1//EN" "http://www.w3.org/Graphics/SVG/1.1/DTD/svg11.dtd">
<svg version="1.1" id="Bold" xmlns="http://www.w3.org/2000/svg" xmlns:xlink="http://www.w3.org/1999/xlink" x="0px" y="0px"
	 width="512px" height="512px" viewBox="0 0 512 512" enable-background="new 0 0 512 512" xml:space="preserve">
<path fill="#252D32" d="M256.085,124.544c-72.597,0-131.371,58.837-131.371,131.371c0,72.597,58.837,131.371,131.371,131.371
	c72.597,0,131.371-58.837,131.371-131.371C387.456,183.317,328.619,124.544,256.085,124.544z M256.085,341.184
	c-47.125,0-85.27-38.165-85.27-85.269s38.166-85.269,85.27-85.269s85.269,38.165,85.269,85.269
	C341.376,303.019,303.211,341.184,256.085,341.184z"/>
<path fill="#252D32" d="M361.558,1.621c-47.104-2.197-163.776-2.09-210.923,0C109.205,3.563,72.661,13.568,43.2,43.029
	C-6.037,92.267,0.256,158.613,0.256,255.915c0,99.584-5.546,164.395,42.944,212.885c49.429,49.408,116.736,42.944,212.885,42.944
	c98.645,0,132.694,0.063,167.574-13.44c47.424-18.41,83.221-60.8,86.72-136.938c2.219-47.125,2.091-163.776,0-210.922
	C506.154,60.565,457.92,6.059,361.558,1.621z M436.117,436.224c-32.277,32.277-77.056,29.397-180.65,29.397
	c-106.667,0-149.44,1.579-180.651-29.717c-35.947-35.776-29.44-93.227-29.44-180.331c0-117.867-12.096-202.752,106.197-208.811
	c27.179-0.96,35.179-1.28,103.595-1.28l0.96,0.64c113.686,0,202.88-11.904,208.234,106.368c1.217,26.987,1.494,35.093,1.494,103.403
	C465.835,361.322,467.84,404.352,436.117,436.224L436.117,436.224z"/>
<circle fill="#252D32" cx="392.661" cy="119.36" r="30.699"/>
</svg>
