<?xml version="1.0" encoding="utf-8"?>
<!-- Generator: Adobe Illustrator 16.0.0, SVG Export Plug-In . SVG Version: 6.00 Build 0)  -->
<!DOCTYPE svg PUBLIC "-//W3C//DTD SVG 1.1//EN" "http://www.w3.org/Graphics/SVG/1.1/DTD/svg11.dtd">
<svg version="1.1" id="Layer_1" xmlns="http://www.w3.org/2000/svg" xmlns:xlink="http://www.w3.org/1999/xlink" x="0px" y="0px"
	 width="1920px" height="1080px" viewBox="0 0 1920 1080" enable-background="new 0 0 1920 1080" xml:space="preserve">
<g>
	<g>
		<path fill="#252D32" d="M1413.341,708.896c-66.121,0-131.045-10.342-192.568-30.674c-30.674-10.459-65.596-2.343-85.607,18.048
			l-121.436,91.671c-140.83-75.175-227.578-161.896-301.728-301.669l88.974-118.271c23.116-23.086,31.407-56.808,21.474-88.448
			c-20.419-61.847-30.792-126.739-30.792-192.89C791.661,38.877,752.783,0,704.999,0h-198.34C458.877,0,420,38.877,420,86.659
			C420,634.396,865.606,1080,1413.341,1080c47.785,0,86.662-38.877,86.662-86.661V795.555
			C1500,747.773,1461.123,708.896,1413.341,708.896z M1440.001,993.341c0,14.707-11.953,26.66-26.66,26.66
			c-514.659,0-933.339-418.683-933.339-933.339c0-14.707,11.953-26.66,26.659-26.66h198.341c14.706,0,26.659,11.953,26.659,26.66
			c0,72.568,11.396,143.789,33.691,211.261c3.105,9.962,0.585,20.272-9.492,30.763L652.734,465.264
			c-6.913,9.169-7.999,21.445-2.813,31.669c84.17,165.439,186.446,267.716,353.056,353.087c10.137,5.301,22.56,4.19,31.759-2.754
			l139.717-105.849c7.06-7.06,17.638-9.579,27.188-6.328c67.938,22.441,139.16,33.81,211.699,33.81
			c14.707,0,26.66,11.953,26.66,26.659V993.341z"/>
	</g>
</g>
</svg>
