<?xml version="1.0" encoding="utf-8"?>
<!-- Generator: Adobe Illustrator 16.0.0, SVG Export Plug-In . SVG Version: 6.00 Build 0)  -->
<!DOCTYPE svg PUBLIC "-//W3C//DTD SVG 1.1//EN" "http://www.w3.org/Graphics/SVG/1.1/DTD/svg11.dtd">
<svg version="1.1" id="Capa_1" xmlns="http://www.w3.org/2000/svg" xmlns:xlink="http://www.w3.org/1999/xlink" x="0px" y="0px"
	 width="1920px" height="1080px" viewBox="0 0 1920 1080" enable-background="new 0 0 1920 1080" xml:space="preserve">
<g>
	<g>
		<path fill="#252D32" d="M960,0C750.641,0,580.313,170.328,580.313,379.688c0,70.735,19.594,139.768,56.677,199.656
			l301.398,485.698c5.773,9.305,15.944,14.958,26.884,14.958c0.084,0,0.167,0,0.251,0c11.034-0.086,21.227-5.915,26.895-15.382
			l293.716-490.404c35.036-58.624,53.555-125.89,53.555-194.526C1339.688,170.328,1169.359,0,960,0z M1231.827,541.726
			L964.792,987.58L690.774,546.003c-30.867-49.849-47.603-107.358-47.603-166.315c0-174.466,142.361-316.828,316.828-316.828
			c174.466,0,316.617,142.362,316.617,316.828C1276.617,436.896,1260.984,492.936,1231.827,541.726z"/>
	</g>
</g>
<g>
	<g>
		<path fill="#252D32" d="M960,189.844c-104.68,0-189.844,85.164-189.844,189.844c0,104.011,83.778,189.844,189.844,189.844
			c107.374,0,189.844-86.976,189.844-189.844C1149.844,275.008,1064.68,189.844,960,189.844z M960,506.672
			c-70.151,0-126.984-57.022-126.984-126.984c0-69.786,57.198-126.984,126.984-126.984s126.773,57.198,126.773,126.984
			C1086.773,448.628,1031.263,506.672,960,506.672z"/>
	</g>
</g>
</svg>
