<?xml version="1.0" encoding="utf-8"?>
<!-- Generator: Adobe Illustrator 16.0.0, SVG Export Plug-In . SVG Version: 6.00 Build 0)  -->
<!DOCTYPE svg PUBLIC "-//W3C//DTD SVG 1.1//EN" "http://www.w3.org/Graphics/SVG/1.1/DTD/svg11.dtd">
<svg version="1.1" id="Layer_1" xmlns="http://www.w3.org/2000/svg" xmlns:xlink="http://www.w3.org/1999/xlink" x="0px" y="0px"
	 width="120px" height="160px" viewBox="0 0 120 160" enable-background="new 0 0 120 160" xml:space="preserve">
<g>
	<g>
		<path fill="#252D38" d="M111.6,74.226l-3.107-12.43c0.85-0.18,1.486-0.934,1.486-1.837v-2.004c0-4.351-3.539-7.891-7.891-7.891
			H87.934v-4.134c0-2.141-1.742-3.883-3.883-3.883H11.9c-2.142,0-3.883,1.742-3.883,3.883V80c0,1.037,0.841,1.879,1.879,1.879
			s1.879-0.842,1.879-1.879V45.929c0-0.069,0.056-0.125,0.125-0.125h72.15c0.069,0,0.126,0.056,0.126,0.125V80
			c0,1.038,0.84,1.878,1.879,1.878c1.037,0,1.879-0.841,1.879-1.878v-2.13h22.164c0.002,0,0.004,0,0.005,0c0.002,0,0.003,0,0.005,0
			c2.728,0.002,5.043,1.792,5.839,4.258h-5.843c-1.037,0-1.879,0.842-1.879,1.879v4.009c0,3.247,2.641,5.888,5.888,5.888h2.13v8.267
			h-4.914c-1.613-4.659-6.043-8.017-11.245-8.017s-9.632,3.357-11.245,8.018h-0.905V88.017c0-1.038-0.841-1.879-1.879-1.879
			s-1.879,0.841-1.879,1.879v14.154H45.191c-1.614-4.66-6.044-8.017-11.246-8.017c-5.202,0-9.632,3.356-11.246,8.017H11.9
			c-0.069,0-0.125-0.056-0.125-0.126v-4.133h8.142c1.038,0,1.879-0.842,1.879-1.879c0-1.038-0.841-1.879-1.879-1.879H1.879
			C0.841,94.154,0,94.995,0,96.033c0,1.037,0.841,1.879,1.879,1.879h6.138v4.133c0,2.143,1.742,3.884,3.883,3.884h10.149
			c0,0.042-0.003,0.083-0.003,0.125c0,6.562,5.338,11.899,11.9,11.899c6.561,0,11.899-5.338,11.899-11.899
			c0-0.042-0.002-0.083-0.003-0.125h42.344c-0.001,0.042-0.003,0.083-0.003,0.125c0,6.562,5.338,11.899,11.899,11.899
			s11.899-5.338,11.899-11.899c0-0.042-0.002-0.083-0.003-0.125h6.142c1.037,0,1.879-0.841,1.879-1.879V84.008
			C120,79.06,116.35,74.949,111.6,74.226z M87.934,53.82h14.154c2.279,0,4.133,1.854,4.133,4.134v0.125H87.934V53.82z
			 M87.934,74.113V61.837h16.695l3.068,12.276H87.934z M33.946,114.196c-4.49,0-8.142-3.652-8.142-8.142
			c0-4.49,3.652-8.143,8.142-8.143c4.489,0,8.142,3.652,8.142,8.143C42.088,110.544,38.435,114.196,33.946,114.196z
			 M100.084,114.196c-4.49,0-8.143-3.652-8.143-8.142c0-4.49,3.652-8.143,8.143-8.143c4.488,0,8.142,3.652,8.142,8.143
			C108.226,110.544,104.572,114.196,100.084,114.196z M116.242,90.146h-2.129c-1.175,0-2.13-0.955-2.13-2.13v-2.13h4.259V90.146
			L116.242,90.146z"/>
	</g>
</g>
<g>
	<g>
		<path fill="#252D38" d="M33.946,102.172c-2.141,0-3.883,1.741-3.883,3.883c0,2.141,1.742,3.883,3.883,3.883
			s3.883-1.742,3.883-3.883C37.829,103.913,36.087,102.172,33.946,102.172z"/>
	</g>
</g>
<g>
	<g>
		<path fill="#252D38" d="M100.084,102.172c-2.142,0-3.884,1.741-3.884,3.883c0,2.141,1.742,3.883,3.884,3.883
			c2.141,0,3.883-1.742,3.883-3.883C103.967,103.913,102.225,102.172,100.084,102.172z"/>
	</g>
</g>
<g>
	<g>
		<path fill="#252D38" d="M78.037,94.154H49.979c-1.038,0-1.879,0.842-1.879,1.879c0,1.038,0.841,1.879,1.879,1.879h28.058
			c1.038,0,1.879-0.841,1.879-1.879C79.916,94.996,79.075,94.154,78.037,94.154z"/>
	</g>
</g>
<g>
	<g>
		<path fill="#252D38" d="M29.938,86.138H5.887c-1.038,0-1.879,0.841-1.879,1.879s0.841,1.88,1.879,1.88h24.05
			c1.038,0,1.879-0.842,1.879-1.88S30.975,86.138,29.938,86.138z"/>
	</g>
</g>
<g>
	<g>
		<path fill="#252D38" d="M65.337,60.634c-0.733-0.734-1.923-0.734-2.657,0L45.971,77.343l-8.692-8.692
			c-0.733-0.734-1.923-0.734-2.657,0c-0.734,0.734-0.734,1.923,0,2.657l10.021,10.021c0.367,0.367,0.848,0.551,1.328,0.551
			c0.481,0,0.962-0.184,1.329-0.551l18.038-18.037C66.07,62.557,66.07,61.367,65.337,60.634z"/>
	</g>
</g>
</svg>
