<?xml version="1.0" encoding="utf-8"?>
<!-- Generator: Adobe Illustrator 16.0.0, SVG Export Plug-In . SVG Version: 6.00 Build 0)  -->
<!DOCTYPE svg PUBLIC "-//W3C//DTD SVG 1.1//EN" "http://www.w3.org/Graphics/SVG/1.1/DTD/svg11.dtd">
<svg version="1.1" id="Capa_1" xmlns="http://www.w3.org/2000/svg" xmlns:xlink="http://www.w3.org/1999/xlink" x="0px" y="0px"
	 width="1920px" height="1080px" viewBox="0 0 1920 1080" enable-background="new 0 0 1920 1080" xml:space="preserve">
<g>
	<g>
		<path fill="#394B54" d="M1500,205.132c-40.162,17.618-82.958,29.295-127.575,34.965c45.9-27.405,80.933-70.47,97.402-122.377
			c-42.795,25.515-90.045,43.537-140.399,53.595c-40.636-43.268-98.55-70.065-161.73-70.065
			c-122.58,0-221.265,99.495-221.265,221.468c0,17.55,1.484,34.425,5.13,50.489c-184.072-8.977-346.95-97.2-456.367-231.592
			c-19.103,33.142-30.308,71.077-30.308,111.915c0,76.68,39.487,144.652,98.348,184.005c-35.573-0.675-70.471-11.003-100.035-27.271
			c0,0.676,0,1.553,0,2.431c0,107.595,76.747,196.965,177.39,217.552c-18.022,4.928-37.665,7.29-58.05,7.29
			c-14.175,0-28.485-0.81-41.918-3.779C569.31,721.44,650.715,785.902,747.51,787.995c-75.33,58.928-170.978,94.433-274.522,94.433
			c-18.157,0-35.572-0.811-52.987-3.038c98.077,63.248,214.313,99.36,339.66,99.36c407.43,0,630.18-337.5,630.18-630.045
			c0-9.787-0.337-19.237-0.81-28.62C1432.973,288.9,1469.896,249.953,1500,205.132z"/>
	</g>
</g>
</svg>
