<?xml version="1.0" encoding="utf-8"?>
<!-- Generator: Adobe Illustrator 16.0.0, SVG Export Plug-In . SVG Version: 6.00 Build 0)  -->
<!DOCTYPE svg PUBLIC "-//W3C//DTD SVG 1.1//EN" "http://www.w3.org/Graphics/SVG/1.1/DTD/svg11.dtd">
<svg version="1.1" id="Capa_1" xmlns="http://www.w3.org/2000/svg" xmlns:xlink="http://www.w3.org/1999/xlink" x="0px" y="0px"
	 width="1920px" height="1080px" viewBox="0 0 1920 1080" enable-background="new 0 0 1920 1080" xml:space="preserve">
<g>
	<g>
		<path fill="#394B54" d="M1490.374,781.521c-2.902-4.86-20.859-43.878-107.266-124.074
			c-90.456-83.977-78.306-70.341,30.647-215.544c66.357-88.432,92.887-142.436,84.584-165.522
			c-7.898-22.007-56.704-16.201-56.704-16.201l-162.282,0.945c0,0-12.016-1.62-20.994,3.713
			c-8.708,5.266-14.312,17.417-14.312,17.417s-25.719,68.45-60.012,126.639c-72.298,122.792-101.257,129.272-113.07,121.645
			c-27.475-17.754-20.59-71.421-20.59-109.493c0-119.012,18.024-168.628-35.17-181.454c-17.686-4.252-30.646-7.088-75.808-7.561
			c-57.919-0.607-106.995,0.203-134.74,13.771c-18.496,9.045-32.74,29.229-24.032,30.377c10.733,1.417,35.035,6.548,47.929,24.1
			c16.674,22.614,16.066,73.513,16.066,73.513s9.586,140.073-22.344,157.489c-21.939,11.948-51.979-12.421-116.446-123.872
			c-33.01-57.041-57.987-120.159-57.987-120.159s-4.792-11.746-13.365-18.024c-10.396-7.628-24.978-10.058-24.978-10.058
			l-154.316,0.945c0,0-23.154,0.675-31.659,10.733c-7.561,8.979-0.608,27.475-0.608,27.475s120.834,282.644,257.6,425.146
			c125.492,130.622,267.928,122.049,267.928,122.049h64.534c0,0,19.509-2.16,29.433-12.894c9.181-9.855,8.843-28.352,8.843-28.352
			s-1.282-86.609,38.95-99.367c39.626-12.557,90.524,83.706,144.461,120.767c40.773,28.015,71.758,21.871,71.758,21.871
			l144.258-2.025C1450.682,845.515,1526.151,840.857,1490.374,781.521z"/>
	</g>
</g>
</svg>
