<?xml version="1.0" encoding="utf-8"?>
<!-- Generator: Adobe Illustrator 16.0.0, SVG Export Plug-In . SVG Version: 6.00 Build 0)  -->
<!DOCTYPE svg PUBLIC "-//W3C//DTD SVG 1.1//EN" "http://www.w3.org/Graphics/SVG/1.1/DTD/svg11.dtd">
<svg version="1.1" id="Layer_1" xmlns="http://www.w3.org/2000/svg" xmlns:xlink="http://www.w3.org/1999/xlink" x="0px" y="0px"
	 width="120px" height="160px" viewBox="0 0 120 160" enable-background="new 0 0 120 160" xml:space="preserve">
<g>
	<g>
		<path fill="#795A3E" d="M93.31,64.36c0,0-13.056,5.858-32.01,5.421s-35.197-6.152-35.197-6.152s-2.263,0.638-4.292,2.742
			c1.366,0.296,2.725,0.843,4.03,1.2c2.28,0.624,4.585,1.158,6.905,1.613c9.174,1.799,18.548,2.349,27.882,2.349
			c5.319,0,10.635-0.181,15.948-0.423c2.078-0.095,4.163-0.199,6.211-0.564c2.799-0.499,5.618-1.485,8.413-0.971
			c0.92,0.169,1.899,0.581,2.28,1.435c0.196,0.441,0.203,0.943,0.15,1.423c-0.369,3.363-3.366,5.804-6.372,7.357
			c-5.968,3.083-12.78,4.177-19.493,4.395s-13.423-0.395-20.138-0.519c-6.83-0.125-13.761,0.245-20.396-1.375
			c-2.895-0.707-5.882-2.004-8.013-4.004c1.608,5.066,6.193,7.816,6.193,7.816s12.573,4.762,34.903,5.277
			c17.027,0.392,31.188-6.165,31.188-6.165s7.563-3.09,7.746-11.189C99.397,67.508,93.31,64.36,93.31,64.36z"/>
		<path fill="#A26E58" d="M27.23,82.291c6.636,1.62,13.567,1.25,20.396,1.375c6.715,0.124,13.425,0.736,20.138,0.519
			s13.525-1.313,19.493-4.395c3.006-1.553,6.003-3.994,6.372-7.357c0.053-0.48,0.046-0.982-0.15-1.423
			c-0.381-0.854-1.36-1.266-2.28-1.435c-2.795-0.514-5.614,0.473-8.413,0.971c-2.048,0.365-4.133,0.469-6.211,0.564
			c-5.313,0.242-10.629,0.422-15.948,0.423c-9.334,0-18.708-0.55-27.882-2.349c-2.32-0.455-4.625-0.989-6.905-1.613
			c-1.305-0.357-2.664-0.904-4.03-1.2c-1.598,1.657-3.052,4.222-3.141,8.106c-0.032,1.387,0.182,2.658,0.547,3.81
			C21.348,80.287,24.335,81.584,27.23,82.291z"/>
		<path fill="#795A3E" d="M37.246,78.682c1.787,0.492,3.578,0.985,5.407,1.286c3.471,0.571,7.016,0.439,10.529,0.257
			c7.406-0.385,14.8-0.988,22.17-1.809c1.41-0.157,2.84-0.327,4.156-0.856c1.056-0.424,2.02-1.076,2.806-1.899
			c0.299-0.312,0.59-0.732,0.457-1.143c-0.207-0.636-1.116-0.577-1.763-0.403c-7.256,1.951-14.875,1.931-22.388,1.896
			c-6.088-0.027-12.177-0.055-18.265-0.168c-1.396-0.026-2.794-0.056-4.178-0.239c-2.185-0.289-4.3-0.951-6.403-1.611
			c-1.979-0.621-3.966-1.245-5.839-2.136c-0.649-0.309-1.33-0.659-2.045-0.583c-2.336,0.247-0.488,2.369,0.45,3.011
			c0.958,0.656,2.042,0.857,3.15,1.156C29.413,76.502,33.329,77.597,37.246,78.682z"/>
	</g>
	<g>
		<path fill="#FAB078" d="M32.009,62.624c4.401,1.917,9.348,1.966,14.106,2.598c3.285,0.437,6.53,1.165,9.829,1.491
			c3.298,0.327,6.707,0.236,9.813-0.919c0.843-0.313,1.69-0.729,2.231-1.447s0.678-1.809,0.097-2.495
			c-0.28-0.332-0.684-0.53-1.082-0.702c-7.439-3.201-16.225,0.04-24.031-2.113c-0.939-0.259-1.857-0.595-2.804-0.832
			c-1.462-0.365-2.975-0.488-4.445-0.817c-2.362-0.528-4.572-1.577-6.877-2.314c-0.606-0.194-1.233-0.369-1.87-0.34
			c-0.317,0.015-0.634,0.109-0.943,0.242c-0.767,1.609-0.961,3.207-0.896,4.585c1.123,0.603,2.698,0.975,3.467,1.358
			C29.739,61.486,30.845,62.117,32.009,62.624z"/>
		<path fill="#FFF0D1" d="M34.785,61.267c1.008,0.418,2.018,0.837,3.063,1.154c1.604,0.487,3.271,0.727,4.93,0.966
			c6.23,0.897,12.623,1.79,18.77,0.436c0.344-0.076,0.699-0.166,0.965-0.396c0.265-0.231,0.402-0.647,0.215-0.944
			c-0.121-0.19-0.342-0.29-0.558-0.355c-0.999-0.306-2.071-0.106-3.104,0.041c-5.041,0.716-10.181,0.095-15.172-0.911
			c-4.079-0.821-8.1-1.899-12.178-2.724c-0.808-0.163-2.123-0.693-2.922-0.54c-0.983,0.188-0.506,0.514,0.249,0.89
			C30.88,59.8,32.886,60.479,34.785,61.267z"/>
		<path fill="#FFE3AF" d="M84.814,64.257c-2.267,0.471-4.562,0.945-6.876,0.853c-1.358-0.054-2.764-0.328-3.846-1.152
			c-1.081-0.824-1.745-2.305-1.295-3.587c0.26-0.738,0.838-1.317,1.45-1.805c3.537-2.816,8.343-3.209,12.746-4.24
			c1.456-0.341,2.846-0.813,4.23-1.311c-1.121-1.726-2.232-2.516-2.232-2.516c-34.152,9.85-56.195-1.45-56.195-1.45
			c-3.749,1.667-5.754,3.804-6.765,5.926c0.309-0.133,0.626-0.228,0.943-0.242c0.637-0.029,1.264,0.146,1.87,0.34
			c2.305,0.738,4.516,1.786,6.877,2.314c1.471,0.329,2.983,0.452,4.445,0.817c0.946,0.236,1.864,0.572,2.804,0.832
			c7.807,2.153,16.592-1.088,24.031,2.113c0.398,0.171,0.802,0.37,1.082,0.702c0.581,0.687,0.444,1.777-0.097,2.495
			s-1.389,1.134-2.231,1.447c-3.106,1.155-6.515,1.246-9.813,0.919c-3.298-0.327-6.543-1.054-9.829-1.491
			c-4.759-0.632-9.706-0.681-14.106-2.598c-1.164-0.507-2.27-1.137-3.405-1.704c-0.77-0.384-2.345-0.756-3.467-1.358
			c0.111,2.356,0.966,4.067,0.966,4.067s16.243,5.715,35.197,6.152s32.01-5.421,32.01-5.421c0.105-0.756,0.157-1.465,0.185-2.153
			c-1.061,0.449-2.229,0.708-3.362,0.944C88.359,63.52,86.587,63.888,84.814,64.257z"/>
		<path fill="#FAB078" d="M91.225,53.016c-1.385,0.498-2.774,0.97-4.23,1.311c-4.403,1.031-9.209,1.423-12.746,4.24
			c-0.612,0.487-1.19,1.067-1.45,1.805c-0.45,1.283,0.214,2.764,1.295,3.587c1.082,0.824,2.487,1.098,3.846,1.152
			c2.314,0.092,4.609-0.382,6.876-0.853c1.772-0.369,3.545-0.737,5.317-1.106c1.134-0.236,2.302-0.495,3.362-0.944
			C93.669,57.897,92.446,54.895,91.225,53.016z"/>
		<path fill="#FFF0D1" d="M79.573,59.018c-1.175,0.253-2.416,0.504-3.316,1.299c-0.351,0.309-0.651,0.756-0.563,1.215
			c0.059,0.302,0.275,0.549,0.515,0.743c1.27,1.032,3.101,0.87,4.718,0.623c2.143-0.328,4.328-0.729,6.201-1.819
			c1.123-0.653,2.168-1.611,2.776-2.772c0.679-1.294,0.122-2.297-1.337-1.917C85.543,57.174,82.651,58.354,79.573,59.018z"/>
	</g>
	<path fill="#50231C" d="M76.033,32.405c3.76,1.645,12.959,5.54,12.959,18.095c-34.152,9.85-56.195-1.45-56.195-1.45
		s-1.521-11.848,14.167-17.092C57.544,28.661,72.274,30.76,76.033,32.405z"/>
	<path fill="#50231C" d="M96.171,81.772c3.905,2.685,6.146,5.833,6.146,9.196c-2.051,0.776-4.18,1.502-6.368,2.161
		c-2.024,0.621-4.108,1.189-6.244,1.698c-2.011,0.49-4.068,0.928-6.172,1.319c-2.005,0.372-4.056,0.699-6.133,0.986
		c-2.012,0.268-4.056,0.503-6.126,0.686c-2.019,0.177-4.063,0.313-6.133,0.405c-2.031,0.085-4.09,0.131-6.166,0.131
		c-2.077,0-4.141-0.046-6.172-0.131c-2.071-0.092-4.115-0.229-6.133-0.405c-2.07-0.183-4.115-0.418-6.126-0.686
		c-2.077-0.287-4.121-0.614-6.133-0.986c-2.103-0.392-4.161-0.829-6.172-1.319c-2.136-0.509-4.22-1.077-6.244-1.698
		c-2.194-0.659-4.317-1.385-6.368-2.161c0-3.201,2.038-6.212,5.604-8.811c1.907,2.579,4.18,3.944,4.18,3.944
		s12.573,4.762,34.903,5.277c17.027,0.392,31.188-6.165,31.188-6.165S94.009,84.189,96.171,81.772z"/>
	<linearGradient id="SVGID_1_" gradientUnits="userSpaceOnUse" x1="58.9712" y1="93.1016" x2="58.9712" y2="73.7812">
		<stop  offset="0" style="stop-color:#62353A;stop-opacity:0"/>
		<stop  offset="1" style="stop-color:#62353A"/>
	</linearGradient>
	<path opacity="0.5" fill="url(#SVGID_1_)" d="M96.171,81.772c3.905,2.685,6.146,5.833,6.146,9.196
		c-2.051,0.776-4.18,1.502-6.368,2.161c-2.024,0.621-4.108,1.189-6.244,1.698c-2.011,0.49-4.068,0.928-6.172,1.319
		c-2.005,0.372-4.056,0.699-6.133,0.986c-2.012,0.268-4.056,0.503-6.126,0.686c-2.019,0.177-4.063,0.313-6.133,0.405
		c-2.031,0.085-4.09,0.131-6.166,0.131c-2.077,0-4.141-0.046-6.172-0.131c-2.071-0.092-4.115-0.229-6.133-0.405
		c-2.07-0.183-4.115-0.418-6.126-0.686c-2.077-0.287-4.121-0.614-6.133-0.986c-2.103-0.392-4.161-0.829-6.172-1.319
		c-2.136-0.509-4.22-1.077-6.244-1.698c-2.194-0.659-4.317-1.385-6.368-2.161c0-3.201,2.038-6.212,5.604-8.811
		c1.907,2.579,4.18,3.944,4.18,3.944s12.573,4.762,34.903,5.277c17.027,0.392,31.188-6.165,31.188-6.165
		S94.009,84.189,96.171,81.772z"/>
	<g>
		<path fill="#F1F0F0" d="M69.266,25.543c3.717,3.887,3.86,8.145,3.86,8.145c-10.086,4.875-19.63-0.626-19.63-0.626
			s0.157-10.408,12.197-14.058C65.692,19.071,65.715,21.835,69.266,25.543z"/>
		<linearGradient id="SVGID_2_" gradientUnits="userSpaceOnUse" x1="63.1445" y1="29.8267" x2="78.1796" y2="45.8907">
			<stop  offset="0" style="stop-color:#62353A;stop-opacity:0"/>
			<stop  offset="1" style="stop-color:#62353A"/>
		</linearGradient>
		<path opacity="0.8" fill="url(#SVGID_2_)" d="M69.266,25.543c3.717,3.887,3.86,8.145,3.86,8.145
			c-10.086,4.875-19.63-0.626-19.63-0.626s0.157-10.408,12.197-14.058C65.692,19.071,65.715,21.835,69.266,25.543z"/>
	</g>
	<g>
		<path fill="#F1F0F0" d="M46.063,32.734c3.413,1.131,4.831,3.601,4.831,3.601c-4.429,6.039-11.789,5.779-11.789,5.779
			s-3.168-6.196,2.799-12.123C41.924,30.032,42.804,31.657,46.063,32.734z"/>
		
			<linearGradient id="SVGID_3_" gradientUnits="userSpaceOnUse" x1="26.7007" y1="18.8115" x2="36.7525" y2="29.5513" gradientTransform="matrix(0.8834 -0.4686 0.4686 0.8834 11.3867 33.0759)">
			<stop  offset="0" style="stop-color:#62353A;stop-opacity:0"/>
			<stop  offset="1" style="stop-color:#62353A"/>
		</linearGradient>
		<path opacity="0.8" fill="url(#SVGID_3_)" d="M46.063,32.734c3.413,1.131,4.831,3.601,4.831,3.601
			c-4.429,6.039-11.789,5.779-11.789,5.779s-3.168-6.196,2.799-12.123C41.924,30.032,42.804,31.657,46.063,32.734z"/>
	</g>
	<g>
		<path fill="#F1F0F0" d="M84.327,37.122c1.022,2.74,0.18,4.899,0.18,4.899c-6.087,0.271-9.675-4.528-9.675-4.528
			s2.313-5.167,9.113-4.405C83.932,33.121,83.349,34.507,84.327,37.122z"/>
		
			<linearGradient id="SVGID_4_" gradientUnits="userSpaceOnUse" x1="91.9023" y1="62.3071" x2="100.0777" y2="71.042" gradientTransform="matrix(0.9188 0.3948 -0.3948 0.9188 20.5068 -55.582)">
			<stop  offset="0" style="stop-color:#62353A;stop-opacity:0"/>
			<stop  offset="1" style="stop-color:#62353A"/>
		</linearGradient>
		<path opacity="0.8" fill="url(#SVGID_4_)" d="M84.327,37.122c1.022,2.74,0.18,4.899,0.18,4.899
			c-6.087,0.271-9.675-4.528-9.675-4.528s2.313-5.167,9.113-4.405C83.932,33.121,83.349,34.507,84.327,37.122z"/>
	</g>
	<path fill="#50231C" d="M93.48,60.362C93.1,53.43,88.992,50.5,88.992,50.5c-34.152,9.85-56.195-1.45-56.195-1.45
		c-1.261,0.561-2.323,1.175-3.218,1.824c-0.636,0.461-0.921,1.255-0.773,2.027c0.535,2.789,2.158,6.297,6.8,7.655
		c8.2,2.397,12.038-1.559,16.089-1.738s9.495,4.636,15.979,4.314c6.484-0.322,6.135-5.341,13.287-6.212
		C86.575,56.236,88.766,60.306,93.48,60.362z"/>
	<g>
		<path fill="#50231C" d="M35.095,66.186c3.938,0.229,7.728,0.753,11.54,1.296c1.903,0.269,3.798,0.601,5.7,0.932
			c1.9,0.35,3.804,0.704,5.714,1.241c-1.958,0.295-3.92,0.373-5.874,0.312c-1.955-0.045-3.903-0.223-5.834-0.507
			c-1.933-0.283-3.846-0.695-5.731-1.214C38.727,67.721,36.861,67.091,35.095,66.186z"/>
	</g>
	<g>
		<path fill="#50231C" d="M77.323,68.685c2.49-0.714,4.96-1.307,7.424-1.956c2.475-0.615,4.907-1.316,7.434-1.909
			c-2.231,1.328-4.686,2.228-7.185,2.876C82.492,68.324,79.923,68.75,77.323,68.685z"/>
	</g>
	<g>
		<path fill="#50231C" d="M20.788,70.301c0.626,0.678,1.338,1.248,2.115,1.716c0.755,0.496,1.564,0.897,2.382,1.267
			c1.647,0.721,3.383,1.231,5.154,1.572c1.762,0.397,3.571,0.557,5.382,0.74l2.736,0.149c0.916,0.033,1.833,0.032,2.759,0.095
			c-0.909,0.163-1.827,0.262-2.746,0.395c-0.922,0.072-1.849,0.108-2.777,0.141c-0.928-0.023-1.859-0.045-2.787-0.127
			c-0.925-0.114-1.854-0.206-2.769-0.414c-1.83-0.373-3.639-0.95-5.293-1.853C23.301,73.1,21.743,71.901,20.788,70.301z"/>
	</g>
	<g>
		<path fill="#50231C" d="M56.373,81.772c1.762,0.269,3.53,0.438,5.301,0.527c1.771,0.083,3.543,0.098,5.309-0.019
			c1.77-0.063,3.525-0.303,5.267-0.613l1.305-0.25l1.287-0.33c0.874-0.175,1.694-0.518,2.559-0.75
			c-1.627,0.721-3.319,1.338-5.073,1.707c-1.746,0.394-3.528,0.633-5.316,0.734c-1.788,0.076-3.582,0.068-5.363-0.098
			C59.868,82.512,58.095,82.243,56.373,81.772z"/>
	</g>
	<g>
		<path fill="#FAB078" d="M56.73,30.058c-0.113-0.88,0.047-1.78,0.335-2.621c0.287-0.846,0.725-1.643,1.271-2.354
			c0.57-0.689,1.196-1.344,1.951-1.822c0.726-0.51,1.544-0.875,2.39-1.106c-0.652,0.6-1.307,1.124-1.899,1.713
			c-0.609,0.566-1.144,1.191-1.652,1.828c-0.514,0.636-0.942,1.334-1.349,2.053C57.381,28.476,57.029,29.233,56.73,30.058z"/>
	</g>
	<g>
		<path fill="#FAB078" d="M41.279,40.177c-0.771-0.616-1.182-1.597-1.276-2.576c-0.034-0.493-0.012-0.996,0.132-1.469
			c0.114-0.478,0.36-0.916,0.655-1.298c-0.06,0.973-0.129,1.83-0.04,2.699C40.819,38.405,41.016,39.248,41.279,40.177z"/>
	</g>
	<g>
		<path fill="#FAB078" d="M77.323,37.506c0.085-0.523,0.35-1.006,0.679-1.428c0.327-0.429,0.754-0.773,1.212-1.057
			c0.472-0.259,0.972-0.467,1.496-0.566c0.259-0.059,0.524-0.076,0.784-0.112c0.265,0.001,0.527-0.002,0.788,0.021
			c-0.504,0.158-0.996,0.28-1.467,0.461c-0.47,0.178-0.922,0.382-1.349,0.627C78.623,35.956,77.878,36.621,77.323,37.506z"/>
	</g>
	<g>
		<path fill="#50231C" d="M76.532,83.162c1.602-0.49,3.13-0.915,4.634-1.453c0.757-0.249,1.497-0.541,2.24-0.84
			c0.751-0.29,1.473-0.641,2.266-0.945c-1.092,1.285-2.595,2.182-4.179,2.73c-0.797,0.268-1.615,0.473-2.45,0.563
			C78.211,83.313,77.363,83.328,76.532,83.162z"/>
	</g>
	<g>
		<g>
			<path fill="#DB1F2E" d="M102.316,90.969l-7.038,38.733c-0.269,1.477-1.237,2.737-2.607,3.351c-1.016,0.455-2.06,0.889-3.13,1.304
				l6.407-41.227C98.137,92.471,100.266,91.745,102.316,90.969z"/>
			<path fill="#DB1F2E" d="M89.704,94.828l-5.349,41.312c-1.652,0.496-3.351,0.946-5.102,1.352l4.278-41.344
				C85.636,95.756,87.693,95.318,89.704,94.828z"/>
			<path fill="#DB1F2E" d="M77.399,97.134l-3.207,41.356c-1.652,0.274-3.337,0.51-5.055,0.692l2.136-41.363
				C73.344,97.637,75.388,97.401,77.399,97.134z"/>
			<path fill="#DB1F2E" d="M64.076,139.588c-1.68,0.091-3.384,0.137-5.102,0.137V98.355c2.076,0,4.135-0.046,6.166-0.131
				L64.076,139.588z"/>
			<path fill="#DB1F2E" d="M52.803,98.225l1.064,41.363c-1.711-0.092-3.396-0.223-5.062-0.405l-2.136-41.363
				C48.688,97.996,50.732,98.133,52.803,98.225z"/>
			<path fill="#DB1F2E" d="M40.543,97.134l3.207,41.356c-1.724-0.287-3.416-0.62-5.062-0.999L34.41,96.147
				C36.422,96.52,38.466,96.847,40.543,97.134z"/>
			<path fill="#DB1F2E" d="M28.238,94.828l5.349,41.312c-1.79-0.543-3.521-1.137-5.186-1.777v-0.006L21.994,93.13
				C24.019,93.751,26.103,94.319,28.238,94.828z"/>
			<path fill="#881720" d="M95.948,93.13l-6.407,41.227v0.006c-1.665,0.641-3.396,1.234-5.186,1.777l5.349-41.312
				C91.84,94.319,93.924,93.751,95.948,93.13z"/>
			<path fill="#881720" d="M83.532,96.147l-4.278,41.344c-1.646,0.379-3.337,0.712-5.062,0.999l3.207-41.356
				C79.477,96.847,81.527,96.52,83.532,96.147z"/>
			<path fill="#881720" d="M71.273,97.819l-2.136,41.363c-1.666,0.183-3.351,0.313-5.062,0.405l1.064-41.363
				C67.211,98.133,69.255,97.996,71.273,97.819z"/>
			<path fill="#881720" d="M58.975,98.355v41.369c-1.724,0-3.422-0.046-5.107-0.137l-1.064-41.363
				C54.833,98.31,56.897,98.355,58.975,98.355z"/>
			<path fill="#881720" d="M46.669,97.819l2.136,41.363c-1.711-0.183-3.403-0.418-5.055-0.692l-3.207-41.356
				C42.555,97.401,44.599,97.637,46.669,97.819z"/>
			<path fill="#881720" d="M34.41,96.147l4.278,41.344c-1.75-0.405-3.448-0.855-5.101-1.352l-5.349-41.312
				C30.25,95.318,32.307,95.756,34.41,96.147z"/>
			<path fill="#881720" d="M21.994,93.13l6.407,41.227c-1.071-0.411-2.117-0.847-3.134-1.304c-1.367-0.614-2.335-1.873-2.603-3.348
				l-7.039-38.736C17.677,91.745,19.8,92.471,21.994,93.13z"/>
			<path fill="#881720" d="M95.948,93.13c-2.024,0.621-4.108,1.189-6.244,1.698c-2.011,0.49-4.068,0.928-6.172,1.319
				c-2.005,0.372-4.056,0.699-6.133,0.986c-0.397,0.053-0.803,0.099-1.203,0.148c0.136,1.242,0.176,2.499,0.149,3.746
				c-0.285,13.67-7.959,26.884-19.497,34.222c-2.52,1.603-5.213,2.903-8.007,3.937c1.654,0.181,3.327,0.311,5.026,0.401
				c1.685,0.091,3.383,0.137,5.107,0.137c1.718,0,3.422-0.046,5.102-0.137c1.711-0.092,3.396-0.223,5.062-0.405
				c1.718-0.183,3.402-0.418,5.055-0.692c1.725-0.287,3.416-0.62,5.062-0.999c1.751-0.405,3.449-0.855,5.102-1.353
				c1.789-0.542,3.521-1.136,5.186-1.776v-0.006c1.07-0.415,2.114-0.849,3.13-1.304c1.37-0.613,2.339-1.874,2.607-3.351
				l7.038-38.733C100.266,91.745,98.137,92.471,95.948,93.13z"/>
			<path opacity="0.5" fill="#881720" d="M76.196,97.282c-1.624,0.204-3.263,0.391-4.923,0.537
				c-2.019,0.177-4.063,0.313-6.133,0.405c-2.031,0.085-4.09,0.131-6.166,0.131c-2.077,0-4.141-0.046-6.172-0.131
				c-1.275-0.057-2.536-0.136-3.791-0.225c-1.19,2.852-2.746,5.469-4.158,7.381c-2.606,3.531-5.855,6.585-9.461,9.077
				c-4.293,2.967-9.246,5.205-14.354,6.295l1.626,8.952c0.268,1.475,1.236,2.733,2.604,3.348c1.017,0.457,2.062,0.892,3.133,1.304
				v0.006c1.666,0.641,3.396,1.234,5.186,1.776c1.652,0.497,3.351,0.947,5.101,1.353c1.646,0.379,3.337,0.712,5.062,0.999
				c1.652,0.274,3.344,0.51,5.055,0.692c0.012,0.001,0.024,0.002,0.036,0.004c2.794-1.033,5.487-2.334,8.007-3.937
				c11.538-7.338,19.212-20.552,19.497-34.222C76.372,99.781,76.332,98.524,76.196,97.282z"/>
		</g>
		<g>
			<polygon fill="#FFFFFF" points="22.522,93.29 28.065,132.271 21.46,92.968 			"/>
		</g>
		<g>
			<polygon fill="#FFFFFF" points="28.756,94.953 33.356,134.356 27.715,94.702 			"/>
		</g>
		<g>
			<polygon fill="#FFFFFF" points="34.879,96.233 38.541,135.765 33.848,96.042 			"/>
		</g>
		<g>
			<polygon fill="#FFFFFF" points="41.015,97.196 43.618,136.949 39.989,97.057 			"/>
		</g>
		<g>
			<polygon fill="#FFFFFF" points="47.196,97.865 48.696,137.491 46.173,97.775 			"/>
		</g>
		<g>
			<polygon fill="#FFFFFF" points="53.201,98.241 53.825,137.941 52.178,98.195 			"/>
		</g>
		<g>
			<polygon fill="#FFFFFF" points="59.475,98.355 58.975,138.101 58.451,98.355 			"/>
		</g>
		<g opacity="0.5">
			<polygon fill="#FFFFFF" points="95.428,93.29 89.884,132.271 96.489,92.968 			"/>
		</g>
		<g opacity="0.5">
			<polygon fill="#FFFFFF" points="89.193,94.953 84.593,134.356 90.234,94.702 			"/>
		</g>
		<g opacity="0.5">
			<polygon fill="#FFFFFF" points="83.07,96.233 79.433,135.765 84.102,96.042 			"/>
		</g>
		<g opacity="0.5">
			<polygon fill="#FFFFFF" points="76.935,97.196 74.313,136.949 77.961,97.057 			"/>
		</g>
		<g opacity="0.7">
			<polygon fill="#FFFFFF" points="70.753,97.865 69.225,137.491 71.776,97.775 			"/>
		</g>
		<g opacity="0.7">
			<polygon fill="#FFFFFF" points="64.748,98.241 64.125,137.941 65.771,98.195 			"/>
		</g>
		<path fill="#881720" d="M101.648,94.645c-0.671-0.208-2.122-0.511-2.67-0.07c-0.447,0.359-0.561,0.979-0.751,1.52
			s-0.612,1.118-1.184,1.07c-0.767-0.063-1.12-0.97-1.889-0.978c-0.491-0.006-1.017-0.001-1.424,0.272
			c-0.348,0.233-0.552,0.625-0.848,0.922c-0.518,0.519-1.294,0.712-2.026,0.67c-0.731-0.041-1.435-0.29-2.121-0.548
			c-0.29-0.109-0.59-0.223-0.9-0.214c-1.081,0.03-1.656,1.433-2.713,1.665c-0.361,0.079-0.737,0.009-1.101-0.061
			c-0.949-0.183-1.897-0.364-2.847-0.547c-0.44-0.084-0.941-0.156-1.301,0.113c-0.233,0.175-0.354,0.459-0.537,0.685
			c-0.707,0.871-2.072,0.671-3.141,0.327s-2.335-0.722-3.227-0.04c-0.573,0.439-0.857,1.25-1.539,1.491
			c-0.668,0.237-1.378-0.193-1.926-0.644c-0.547-0.45-0.999-0.744-1.708-0.717c-1.26,1.189-2.941,2.473-4.551,1.831
			c-0.847-0.337-1.503-1.176-2.412-1.218c-0.84-0.039-1.526,0.616-2.268,1.013c-1.488,0.794-3.485,0.482-4.659-0.729
			c-0.166-0.17-0.327-0.363-0.553-0.435c-0.264-0.083-0.548,0.021-0.804,0.129c-1.006,0.421-2.082,0.919-3.143,0.665
			c-1.183-0.283-2.084-1.459-3.3-1.462c-1.105-0.002-2.069,0.991-3.166,0.851c-0.445-0.057-0.842-0.298-1.224-0.532
			c-0.493-0.303-0.985-0.606-1.478-0.909c-0.312-0.191-0.697-0.389-1.024-0.224c-0.189,0.095-0.305,0.289-0.468,0.424
			c-0.481,0.396-1.216,0.176-1.735-0.171c-0.519-0.346-1.001-0.814-1.62-0.898c-1.008-0.136-1.947,0.811-2.947,0.62
			c-1.162-0.222-1.738-1.852-2.92-1.867c-0.369-0.004-0.719,0.161-1.086,0.193c-1.514,0.132-2.675-1.939-4.145-1.554
			c-0.325,0.085-0.609,0.288-0.932,0.384c-0.582,0.173-1.259-0.052-1.623-0.537c-0.233-0.313-0.409-0.759-0.796-0.799
			c-0.447-0.047-0.72,0.496-1.138,0.661c-1.059,0.418-1.66-1.647-2.797-1.603c-0.269,0.011-0.518,0.146-0.785,0.181l-0.111,0.069
			l-0.447-2.063c0,0,17.202,7.262,42.418,7.262c28.731,0,44.147-7.403,44.147-7.403L101.648,94.645z"/>
		<path fill="#FFE3AF" d="M102.296,90.67c0.648,0.288,1.246,0.845,1.402,1.538c0.156,0.692-0.164,1.501-0.812,1.792
			c-0.641,0.289-1.381,0.041-2.052-0.166c-0.672-0.207-1.472-0.349-2.02,0.091c-0.447,0.359-0.562,0.979-0.752,1.52
			c-0.19,0.542-0.611,1.119-1.184,1.071c-0.766-0.063-1.119-0.97-1.888-0.979c-0.491-0.005-1.017-0.001-1.425,0.273
			c-0.348,0.233-0.551,0.625-0.847,0.922c-0.518,0.519-1.295,0.711-2.026,0.67c-0.732-0.042-1.435-0.291-2.121-0.549
			c-0.291-0.109-0.59-0.222-0.9-0.213c-1.082,0.03-1.656,1.432-2.713,1.664c-0.361,0.08-0.737,0.01-1.101-0.06
			c-0.949-0.183-1.897-0.365-2.847-0.547c-0.441-0.085-0.942-0.157-1.302,0.113c-0.232,0.175-0.353,0.458-0.536,0.685
			c-0.707,0.871-2.072,0.671-3.141,0.327s-2.336-0.723-3.227-0.04c-0.574,0.438-0.858,1.249-1.539,1.491
			c-0.668,0.236-1.378-0.193-1.926-0.644c-0.548-0.451-1-0.744-1.708-0.718c-1.26,1.19-2.941,2.473-4.551,1.832
			c-0.847-0.337-1.503-1.176-2.413-1.219c-0.84-0.038-1.525,0.616-2.267,1.013c-1.488,0.795-3.485,0.482-4.66-0.728
			c-0.165-0.17-0.327-0.363-0.553-0.435c-0.265-0.083-0.548,0.021-0.804,0.128c-1.006,0.422-2.083,0.919-3.143,0.665
			c-1.183-0.283-2.083-1.459-3.3-1.461c-1.105-0.002-2.069,0.991-3.165,0.851c-0.445-0.058-0.842-0.298-1.225-0.533
			c-0.493-0.303-0.985-0.605-1.478-0.908c-0.312-0.192-0.698-0.389-1.025-0.225c-0.189,0.096-0.305,0.29-0.468,0.425
			c-0.481,0.396-1.216,0.176-1.735-0.171c-0.519-0.347-1.001-0.814-1.619-0.898c-1.009-0.137-1.948,0.81-2.947,0.619
			c-1.162-0.221-1.739-1.852-2.921-1.866c-0.369-0.005-0.719,0.16-1.086,0.192c-1.513,0.133-2.675-1.938-4.145-1.553
			c-0.325,0.085-0.609,0.287-0.932,0.383c-0.581,0.173-1.259-0.052-1.622-0.537c-0.233-0.312-0.409-0.759-0.796-0.799
			c-0.448-0.047-0.72,0.496-1.139,0.662c-1.058,0.418-1.66-1.647-2.796-1.604c-0.269,0.011-0.519,0.147-0.785,0.181
			c-0.493,0.063-1.006-0.277-1.14-0.756c-0.134-0.479,0.252-1.001,0.706-1.203c0,0,18.9,7.227,42.294,7.227
			C86.65,98.195,102.296,90.67,102.296,90.67z"/>
		<g>
			<g>
				<path fill="#FFFFFF" d="M15.566,92.519c-0.219-0.088-0.369-0.313-0.368-0.581c0.018-0.13,0.068-0.262,0.163-0.344
					c0.087-0.089,0.202-0.131,0.315-0.152c-0.123,0.201-0.235,0.348-0.229,0.512C15.423,92.118,15.501,92.297,15.566,92.519z"/>
			</g>
			<g>
				<path fill="#FFFFFF" d="M18.49,93.13c0.177,0.175,0.292,0.357,0.444,0.503c0.137,0.165,0.284,0.273,0.508,0.382
					c-0.115,0.043-0.252,0.046-0.375,0.001c-0.124-0.043-0.223-0.129-0.316-0.213C18.593,93.608,18.478,93.384,18.49,93.13z"/>
			</g>
			<g>
				<path fill="#FFFFFF" d="M21.656,93.901c0.144,0.215,0.269,0.389,0.449,0.503c0.167,0.133,0.377,0.194,0.618,0.298
					c-0.122,0.043-0.253,0.066-0.386,0.048c-0.134-0.012-0.259-0.073-0.378-0.143C21.742,94.438,21.596,94.164,21.656,93.901z"/>
			</g>
			<g>
				<path fill="#FFFFFF" d="M26.183,95.046c0.638,0.264,1.156,0.583,1.805,0.777c-0.342,0.101-0.7-0.005-1.012-0.137
					C26.673,95.525,26.383,95.334,26.183,95.046z"/>
			</g>
			<g>
				<path fill="#FFFFFF" d="M31.126,96.302c0.458,0.5,0.838,0.95,1.491,1.137c-0.165,0.04-0.348,0.046-0.518-0.008
					c-0.17-0.052-0.322-0.147-0.462-0.253C31.384,96.938,31.18,96.645,31.126,96.302z"/>
			</g>
			<g>
				<path fill="#FFFFFF" d="M36.632,97.438c0.442,0.329,0.757,0.619,1.264,0.805c-0.13,0.042-0.276,0.057-0.414,0.023
					c-0.138-0.029-0.266-0.095-0.384-0.167C36.881,97.929,36.691,97.716,36.632,97.438z"/>
			</g>
			<g>
				<path fill="#FFFFFF" d="M41.301,98.243c0.577,0.44,1.078,0.833,1.775,1.021c-0.176,0.04-0.368,0.05-0.55,0.006
					c-0.182-0.04-0.354-0.119-0.514-0.21C41.708,98.852,41.437,98.589,41.301,98.243z"/>
			</g>
			<g>
				<path fill="#FFFFFF" d="M47.696,98.657c0.727,0.497,1.38,0.994,2.237,1.191c-0.217,0.041-0.448,0.036-0.668-0.016
					c-0.22-0.054-0.425-0.149-0.625-0.253C48.265,99.34,47.917,99.047,47.696,98.657z"/>
			</g>
			<g>
				<path fill="#FFFFFF" d="M54.262,99.411c0.352,0.288,0.68,0.57,1.056,0.782c0.363,0.235,0.763,0.372,1.206,0.481
					c-0.223,0.038-0.461,0.048-0.688-0.01c-0.227-0.051-0.444-0.144-0.646-0.258C54.801,100.156,54.454,99.831,54.262,99.411z"/>
			</g>
			<g>
				<path fill="#FFFFFF" d="M61.994,99.581c0.38,0.156,0.712,0.365,1.064,0.537c0.167,0.102,0.343,0.185,0.518,0.269
					c0.175,0.08,0.35,0.167,0.549,0.216c-0.416,0.088-0.827-0.09-1.186-0.264C62.589,100.134,62.253,99.903,61.994,99.581z"/>
			</g>
			<g>
				<path fill="#FFFFFF" d="M69.314,98.948c0.559,0.449,1.037,0.857,1.726,1.046c-0.174,0.04-0.364,0.048-0.544,0.002
					c-0.18-0.043-0.347-0.126-0.504-0.219C69.697,99.563,69.437,99.294,69.314,98.948z"/>
			</g>
			<g>
				<path fill="#FFFFFF" d="M75.579,98.219c0.881,0.291,1.709,0.512,2.635,0.486c-0.213,0.091-0.444,0.158-0.681,0.168
					c-0.235,0.017-0.473-0.007-0.704-0.048C76.374,98.715,75.927,98.537,75.579,98.219z"/>
			</g>
			<g>
				<path fill="#FFFFFF" d="M81.983,97.563c0.515,0.035,1.006,0.138,1.503,0.205c0.246,0.049,0.493,0.077,0.74,0.11
					c0.246,0.028,0.493,0.061,0.747,0.025c-0.476,0.248-1.028,0.164-1.526,0.11C82.943,97.917,82.445,97.797,81.983,97.563z"/>
			</g>
			<g>
				<path fill="#FFFFFF" d="M88.816,96.473c0.425,0.173,0.83,0.336,1.26,0.421c0.424,0.114,0.857,0.13,1.317,0.158
					c-0.215,0.079-0.444,0.14-0.677,0.145c-0.233,0.017-0.467-0.017-0.696-0.06C89.57,97.02,89.129,96.819,88.816,96.473z"/>
			</g>
			<g>
				<path fill="#FFFFFF" d="M95.948,95.35c0.199,0.188,0.34,0.39,0.525,0.531c0.17,0.164,0.357,0.244,0.635,0.267
					c-0.11,0.08-0.256,0.128-0.406,0.106c-0.148-0.02-0.277-0.1-0.392-0.185C96.105,95.873,95.963,95.628,95.948,95.35z"/>
			</g>
			<g>
				<path fill="#FFFFFF" d="M100.707,93.13c0.649,0.437,1.337,0.508,2.115,0.493c-0.174,0.088-0.361,0.156-0.559,0.182
					c-0.196,0.032-0.397,0.014-0.598-0.013C101.28,93.696,100.89,93.49,100.707,93.13z"/>
			</g>
		</g>
	</g>
	<path fill="#50231C" d="M62.418,34.526c1.045-0.071,2.021-0.51,3.042-0.739c1.112-0.25,2.264-0.249,3.404-0.248
		c1.29,0.002,2.579,0.004,3.869,0.005c0.511,0.001,1.141,0.076,1.327,0.541c0.142,0.353-0.082,0.768-0.412,0.968
		s-0.734,0.235-1.123,0.245c-1.176,0.03-2.355-0.117-3.526-0.004c-1.084,0.104-2.134,0.427-3.21,0.595
		c-1.383,0.216-2.791,0.174-4.189,0.131c-1.134-0.034-2.268-0.069-3.402-0.104c-0.527-0.016-1.058-0.033-1.574-0.136
		c-0.996-0.198-2.977-0.902-3.416-1.901c-0.574-1.304,1.186-1.403,2.058-1.325C57.763,32.778,59.848,34.703,62.418,34.526z"/>
	<g>
		<path fill="#F1F0F0" d="M66.507,37.235c3.206,2.866,3.587,6.251,3.587,6.251c-7.734,4.517-15.688,0.729-15.688,0.729
			s-0.526-8.306,8.844-11.969C63.254,32.299,63.444,34.501,66.507,37.235z"/>
		
			<linearGradient id="SVGID_5_" gradientUnits="userSpaceOnUse" x1="56.9883" y1="61.019" x2="69.0096" y2="73.8631" gradientTransform="matrix(0.9969 -0.0782 0.0782 0.9969 0.3115 -15.3418)">
			<stop  offset="0" style="stop-color:#62353A;stop-opacity:0"/>
			<stop  offset="1" style="stop-color:#62353A"/>
		</linearGradient>
		<path opacity="0.8" fill="url(#SVGID_5_)" d="M66.507,37.235c3.206,2.866,3.587,6.251,3.587,6.251
			c-7.734,4.517-15.688,0.729-15.688,0.729s-0.526-8.306,8.844-11.969C63.254,32.299,63.444,34.501,66.507,37.235z"/>
	</g>
	<g>
		<path fill="#FAB078" d="M58.36,43.471c-0.634-1.371-0.724-3.014-0.209-4.503c0.256-0.744,0.709-1.428,1.291-1.951
			c0.557-0.558,1.295-0.869,2.006-1.083c-0.588,0.479-1.154,0.923-1.581,1.485c-0.436,0.544-0.796,1.141-1.01,1.802
			c-0.239,0.65-0.37,1.344-0.446,2.055C58.35,41.988,58.319,42.719,58.36,43.471z"/>
	</g>
	<path fill="#50231C" d="M46.127,39.178c0.515-0.263,1-0.579,1.485-0.895c0.314-0.205,0.632-0.413,0.885-0.69
		c0.47-0.517,0.672-1.229,1.124-1.761c0.209-0.246,0.493-0.458,0.816-0.467c0.577-0.017,0.985,0.649,0.908,1.222
		c-0.076,0.572-0.481,1.041-0.894,1.445c-2.286,2.242-5.289,3.606-8.323,4.63c-0.648,0.219-1.315,0.427-1.999,0.418
		c-0.569-0.008-1.741-0.234-1.308-1.042c0.322-0.601,1.561-0.935,2.162-1.153C42.682,40.269,44.506,40.006,46.127,39.178z"/>
	<path fill="#50231C" d="M60.485,44.806c2.728,0.3,5.455-0.476,8.035-1.409c0.312-0.113,0.623-0.228,0.947-0.291
		c0.653-0.126,1.347-0.03,1.939,0.27c0.144,0.072,0.296,0.175,0.323,0.334c0.037,0.211-0.162,0.384-0.348,0.493
		c-1.34,0.788-2.984,0.758-4.524,0.969c-1.498,0.205-2.952,0.654-4.448,0.868c-2.361,0.337-4.765,0.08-7.125-0.264
		c-0.545-0.08-1.711-0.278-1.664-1.047c0.046-0.749,1.06-0.774,1.591-0.77C57.004,43.973,58.716,44.612,60.485,44.806z"/>
	<path fill="#50231C" d="M79.761,40.715c1.578,0.49,3.365,0.154,4.859,0.86c0.157,0.075,0.319,0.17,0.394,0.328
		c0.13,0.277-0.088,0.616-0.373,0.729c-0.284,0.112-0.604,0.063-0.905,0.011c-2.209-0.376-4.447-0.763-6.481-1.702
		c-0.322-0.149-0.64-0.312-0.938-0.502c-0.794-0.505-1.455-1.214-1.917-2.033c-0.488-0.862-0.156-1.654,0.801-0.925
		C76.678,38.604,77.929,40.147,79.761,40.715z"/>
	<path fill="#FFE3AF" d="M35.182,50.908c3.921,1.501,8.134,2.035,12.299,2.557c2.744,0.344,5.488,0.688,8.232,1.031
		c1.167,0.146,2.335,0.292,3.507,0.391c1.145,0.096,2.292,0.146,3.439,0.196c1.213,0.053,2.428,0.106,3.641,0.159
		c0.903,0.039,1.807,0.079,2.709,0.039c2.287-0.1,4.523-0.702,6.696-1.42c0.947-0.313,2.088-0.961,1.924-1.945
		c-2.895-0.834-5.956,0.11-8.917,0.664c-4.285,0.8-8.695,0.77-13.027,0.285c-1.027-0.115-2.055-0.256-3.053-0.529
		c-3.008-0.823-5.797-2.842-8.906-2.595c-1.015,0.081-2.016,0.406-3.03,0.316c-1.631-0.145-3.078-1.372-4.644-1.473
		C34.475,48.482,33.304,50.189,35.182,50.908z"/>
	<path fill="#FFE3AF" d="M80.125,51.226c-0.048,0.07-0.093,0.147-0.096,0.232c-0.002,0.089,0.042,0.171,0.091,0.246
		c0.331,0.507,0.93,0.827,1.535,0.821c0.509-0.005,0.987-0.221,1.463-0.402c0.983-0.374,2.02-0.611,3.068-0.702
		c0.588-0.051,1.276-0.109,1.588-0.611c0.212-0.342,0.166-0.779,0.113-1.178c-0.017-0.127-0.036-0.26-0.11-0.365
		c-0.066-0.093-0.169-0.154-0.274-0.2c-1.317-0.572-2.715,0.685-3.984,0.912C82.303,50.197,80.923,50.067,80.125,51.226z"/>
	<path fill="#FAB078" d="M42.948,46.209c1.059,0.424,2.2,0.591,3.329,0.755c1.998,0.291,3.995,0.582,5.993,0.873
		c3.197,0.466,6.408,0.932,9.639,0.941c0.289,0.001,0.6-0.009,0.832-0.18c0.233-0.171,0.318-0.566,0.089-0.742
		c-0.126-0.097-0.3-0.097-0.459-0.094c-6.399,0.133-12.731-1.165-18.999-2.456c-0.59-0.122-1.184-0.245-1.738-0.48
		c-0.898-0.381-1.799-1.232-2.81-1.209C38.773,44.623,42.1,45.87,42.948,46.209z"/>
	<path fill="#FFE3AF" d="M80.732,44.907c0.51-0.383,1.048-1,0.783-1.581c-0.264-0.579-1.141-0.567-1.653-0.191
		s-0.807,0.976-1.237,1.444c-0.654,0.709-1.606,1.086-2.562,1.221s-1.926,0.046-2.886-0.047c-0.695-0.068-1.433-0.132-2.062,0.172
		c-1.017,0.492-1.084,1.528-0.039,1.833c0.987,0.29,2.438-0.006,3.431-0.179C76.752,47.188,78.908,46.274,80.732,44.907z"/>
	<path fill="#50231C" d="M47.564,39.803c0.959-0.737,1.928-1.483,2.689-2.423c0.4-0.494,0.739-1.037,1.172-1.501
		c0.432-0.462,0.953-0.841,1.525-1.108c0.586-0.273,1.43-0.352,1.743,0.213c0.252,0.455-0.022,1.012-0.302,1.45
		c-0.57,0.893-1.192,1.767-1.578,2.753c-0.386,0.987-0.517,2.126-0.087,3.095c0.125,0.282,0.299,0.579,0.221,0.877
		c-0.043,0.165-0.159,0.301-0.28,0.421c-1.077,1.077-2.73,1.403-4.24,1.212c-1.511-0.192-2.921-0.834-4.305-1.47
		c-1.583-0.726-0.881-1.154,0.366-1.619C45.626,41.279,46.61,40.536,47.564,39.803z"/>
	<path fill="#50231C" d="M69.297,38.805c0.49,0.88,0.966,1.778,1.623,2.542c0.656,0.763,1.522,1.393,2.516,1.561
		c0.728,0.124,1.471-0.006,2.197-0.135c0.336-0.06,0.681-0.123,0.974-0.298s0.527-0.491,0.506-0.832
		c-0.026-0.431-0.422-0.731-0.78-0.971c-0.464-0.31-0.927-0.62-1.391-0.93c-0.49-0.328-0.997-0.673-1.293-1.184
		c-0.295-0.51-0.308-1.237,0.134-1.628c0.152-0.135,0.357-0.236,0.42-0.429c0.097-0.293-0.194-0.563-0.465-0.712
		c-1.338-0.735-2.957-0.742-4.469-0.529c-0.404,0.057-0.82,0.133-1.163,0.356C66.79,36.473,68.795,37.905,69.297,38.805z"/>
	<path fill="#50231C" d="M32.037,53.788c0.069,0.656,0.38,1.261,0.73,1.82c0.348,0.557,0.744,1.091,1.236,1.526
		c1.479,1.305,3.649,1.546,5.589,1.19c1.94-0.355,3.739-1.226,5.584-1.922c1.845-0.697,3.836-1.231,5.776-0.873
		c0.156-0.198,0.058-0.509-0.14-0.665c-0.198-0.155-0.46-0.195-0.71-0.226c-1.939-0.237-3.907-0.24-5.847-0.007
		c-1.153,0.139-2.305,0.36-3.466,0.314s-2.362-0.395-3.169-1.23c-0.253-0.263-0.461-0.566-0.711-0.832
		c-0.73-0.773-2.2-1.546-3.282-1.612C32.412,51.198,31.927,52.744,32.037,53.788z"/>
	<g>
		<path fill="#FAB078" d="M37.65,59c-1.527-0.139-3.001-0.863-4.117-1.98c-0.559-0.559-0.992-1.252-1.258-1.994
			c-0.303-0.734-0.319-1.545-0.252-2.296c0.226,0.735,0.427,1.436,0.788,2.06c0.346,0.623,0.746,1.211,1.259,1.707
			c0.493,0.512,1.058,0.958,1.658,1.372C36.335,58.269,36.968,58.658,37.65,59z"/>
	</g>
	<path fill="#50231C" d="M63.961,56.709c-2.297-0.272-4.636-0.769-6.898-0.281c-0.24,0.052-0.5,0.129-0.636,0.334
		c-0.26,0.392,0.104,0.891,0.457,1.203c2.104,1.86,4.749,3.173,7.547,3.408c2.799,0.235,5.735-0.684,7.696-2.693
		c0.301-0.309,0.589-0.661,0.67-1.083c0.345-1.801-2.313-0.713-3.135-0.675C67.762,57.009,65.851,56.934,63.961,56.709z"/>
	<g>
		<path fill="#FAB078" d="M69.787,60.768c-1.494,0.828-3.24,1.184-4.98,1.085c-0.869-0.079-1.738-0.29-2.527-0.679
			c-0.795-0.39-1.448-1.011-1.933-1.705c0.701,0.494,1.405,0.897,2.164,1.167c0.764,0.249,1.549,0.408,2.354,0.47
			c0.805,0.063,1.619,0.033,2.439-0.027C68.121,61.003,68.949,60.915,69.787,60.768z"/>
	</g>
	<path fill="#50231C" d="M87.764,56.474c0.588,0.458,1.229,0.936,1.975,0.966c0.197,0.008,0.404-0.02,0.568-0.128
		c0.117-0.077,0.206-0.19,0.279-0.309c0.597-0.963,0.116-2.414-0.938-2.831c-0.325-0.128-0.678-0.167-1.025-0.195
		c-2.754-0.219-5.556,0.184-8.137,1.169c0.55,0.715,1.642,0.684,2.504,0.419c0.79-0.243,1.814-0.792,2.669-0.585
		C86.423,55.164,87.158,56.003,87.764,56.474z"/>
	<path fill="#FAB078" d="M69.567,53.209c-0.361,0.073-0.829,0.318-0.703,0.665c0.085,0.232,0.386,0.286,0.633,0.293
		c1.797,0.059,3.578-0.295,5.341-0.647c2.572-0.514,5.145-1.027,7.717-1.541c0.325-0.065,0.663-0.135,0.928-0.334
		c0.266-0.199,0.437-0.567,0.304-0.871c-0.136-0.31-0.517-0.431-0.855-0.434c-0.839-0.007-1.818,0.546-2.659,0.715
		c-1.226,0.247-2.451,0.494-3.677,0.74C74.253,52.266,71.91,52.737,69.567,53.209z"/>
	<path fill="#FAB078" d="M38.515,50.385c-0.226-0.045-0.462-0.089-0.683-0.022c-0.22,0.067-0.413,0.286-0.366,0.511
		c0.525,0.296,1.107,0.49,1.705,0.569c0.462,0.061,0.931,0.053,1.397,0.077c2.806,0.138,5.478,1.381,8.286,1.441
		c0.241,0.005,0.498-0.002,0.701-0.132c0.215-0.137,0.275-0.378,0.196-0.604c-0.735-0.076-1.339,0.12-2.124-0.025
		c-1.015-0.188-2.025-0.404-3.038-0.605C42.565,51.191,40.54,50.788,38.515,50.385z"/>
	<g>
		<path fill="#FFFFFF" d="M47.987,65.316c2.01,0.444,4.038,0.741,6.07,0.958c2.034,0.2,4.071,0.352,6.113,0.387
			c2.041,0.032,4.084,0.02,6.127-0.102c2.045-0.089,4.08-0.319,6.134-0.509c-1.001,0.24-2.008,0.465-3.021,0.656
			c-1.02,0.151-2.037,0.333-3.065,0.428c-2.053,0.259-4.124,0.292-6.191,0.276c-2.067-0.054-4.133-0.228-6.173-0.567
			C51.943,66.504,49.914,66.058,47.987,65.316z"/>
	</g>
	<g>
		<path fill="#FFFFFF" d="M70.844,63.628c1.347-0.287,2.678-0.576,4.009-0.836c1.327-0.278,2.655-0.534,3.964-0.854
			c1.313-0.304,2.621-0.624,3.902-1.024c1.278-0.411,2.552-0.839,3.791-1.446c-1.021,0.931-2.249,1.632-3.521,2.178
			c-1.271,0.565-2.607,0.938-3.946,1.266C76.352,63.514,73.596,63.814,70.844,63.628z"/>
	</g>
	<g>
		<path fill="#FFFFFF" d="M26.19,59c2.277,0.99,4.581,1.869,6.938,2.582c1.174,0.373,2.369,0.665,3.569,0.941
			c1.201,0.279,2.421,0.447,3.653,0.625c-2.488,0.074-4.985-0.364-7.367-1.088c-1.19-0.371-2.365-0.795-3.5-1.309
			C28.348,60.24,27.234,59.678,26.19,59z"/>
	</g>
	<g>
		<g opacity="0.4">
			<g>
				<path fill="#50231C" d="M27.272,71.997c1.755,0,1.758-2.728,0-2.728C25.517,69.269,25.514,71.997,27.272,71.997L27.272,71.997z"
					/>
			</g>
			<g>
				<path fill="#50231C" d="M28.774,80.728c1.755,0,1.758-2.728,0-2.728C27.019,78,27.016,80.728,28.774,80.728L28.774,80.728z"/>
			</g>
			<g>
				<path fill="#50231C" d="M40.371,80.966c1.755,0,1.758-2.728,0-2.728C38.616,78.238,38.613,80.966,40.371,80.966L40.371,80.966z"
					/>
			</g>
			<g>
				<path fill="#50231C" d="M49.667,86.959c2.313,0,2.317-3.596,0-3.596C47.354,83.363,47.35,86.959,49.667,86.959L49.667,86.959z"
					/>
			</g>
			<g>
				<path fill="#50231C" d="M65.071,80.539c1.755,0,1.758-2.728,0-2.728C63.316,77.811,63.313,80.539,65.071,80.539L65.071,80.539z"
					/>
			</g>
			<g>
				<path fill="#50231C" d="M92.405,70.501c1.756,0,1.759-2.728,0-2.728C90.65,67.774,90.647,70.501,92.405,70.501L92.405,70.501z"
					/>
			</g>
			<g>
				<path fill="#50231C" d="M80.525,79.364c2.313,0,2.317-3.595,0-3.595C78.212,75.77,78.208,79.364,80.525,79.364L80.525,79.364z"
					/>
			</g>
			<g>
				<path fill="#50231C" d="M48.841,75.17c2.397,0,2.401-3.726,0-3.726C46.444,71.445,46.44,75.17,48.841,75.17L48.841,75.17z"/>
			</g>
			<g>
				<g>
					<path fill="#50231C" d="M38.155,73.807c1.674,0,1.677-2.603,0-2.603C36.48,71.204,36.478,73.807,38.155,73.807L38.155,73.807z"
						/>
				</g>
			</g>
			<g>
				<g>
					<path fill="#50231C" d="M58.033,74.737c1.715,0,1.718-2.666,0-2.666C56.318,72.072,56.315,74.737,58.033,74.737L58.033,74.737z
						"/>
				</g>
			</g>
			<g>
				<g>
					<path fill="#50231C" d="M86.044,72.939c1.116,0,1.118-1.735,0-1.735C84.928,71.204,84.926,72.939,86.044,72.939L86.044,72.939z
						"/>
				</g>
			</g>
			<g>
				<g>
					<path fill="#50231C" d="M96.861,77.208c1.503,0,1.506-2.335,0-2.335C95.359,74.873,95.356,77.208,96.861,77.208L96.861,77.208z
						"/>
				</g>
			</g>
			<g>
				<g>
					<path fill="#50231C" d="M84.168,86.027c1.674,0,1.677-2.602,0-2.602C82.494,83.426,82.491,86.027,84.168,86.027L84.168,86.027z
						"/>
				</g>
			</g>
			<g>
				<g>
					<path fill="#50231C" d="M63.268,86.959c1.116,0,1.118-1.735,0-1.735C62.151,85.224,62.149,86.959,63.268,86.959L63.268,86.959z
						"/>
				</g>
			</g>
			<g>
				<g>
					<path fill="#50231C" d="M72.803,74.674c1.116,0,1.118-1.735,0-1.735C71.687,72.939,71.685,74.674,72.803,74.674L72.803,74.674z
						"/>
				</g>
			</g>
			<g>
				<g>
					<path fill="#50231C" d="M35.034,85.66c1.84,0,1.843-2.859,0-2.859C33.194,82.801,33.191,85.66,35.034,85.66L35.034,85.66z"/>
				</g>
			</g>
			<g>
				<g>
					<path fill="#50231C" d="M52.721,80.042c1.117,0,1.118-1.734,0-1.734C51.604,78.308,51.603,80.042,52.721,80.042L52.721,80.042z
						"/>
				</g>
			</g>
			<g>
				<g>
					<path fill="#50231C" d="M22.78,77.775c1.116,0,1.118-1.734,0-1.734C21.664,76.041,21.662,77.775,22.78,77.775L22.78,77.775z"/>
				</g>
			</g>
			<g>
				<g>
					<path fill="#50231C" d="M74.565,86.959c1.755,0,1.758-2.729,0-2.729C72.81,84.23,72.807,86.959,74.565,86.959L74.565,86.959z"
						/>
				</g>
			</g>
			<g>
				<g>
					<path fill="#50231C" d="M89.771,78.497c1.756,0,1.759-2.728,0-2.728C88.016,75.77,88.013,78.497,89.771,78.497L89.771,78.497z"
						/>
				</g>
			</g>
		</g>
		<g>
			<g>
				<g>
					<path fill="#FAB078" d="M26.899,71.796c1.755,0,1.758-2.728,0-2.728C25.145,69.068,25.142,71.796,26.899,71.796L26.899,71.796z
						"/>
				</g>
				<g>
					<path fill="#FAB078" d="M28.401,80.527c1.755,0,1.758-2.728,0-2.728C26.646,77.8,26.644,80.527,28.401,80.527L28.401,80.527z"
						/>
				</g>
				<g>
					<g>
						<path fill="#F1F0F0" d="M39.999,80.765c1.755,0,1.758-2.728,0-2.728C38.243,78.038,38.24,80.765,39.999,80.765L39.999,80.765z
							"/>
					</g>
				</g>
				<g>
					<path fill="#FAB078" d="M49.294,86.758c2.313,0,2.317-3.596,0-3.596C46.981,83.162,46.978,86.758,49.294,86.758L49.294,86.758z
						"/>
				</g>
				<g>
					<g>
						<path fill="#F1F0F0" d="M64.698,80.338c1.755,0,1.758-2.728,0-2.728C62.943,77.61,62.94,80.338,64.698,80.338L64.698,80.338z"
							/>
					</g>
				</g>
				<g>
					<path fill="#FAB078" d="M92.033,70.301c1.755,0,1.758-2.728,0-2.728C90.278,67.573,90.275,70.301,92.033,70.301L92.033,70.301z
						"/>
				</g>
				<g>
					<path fill="#FAB078" d="M80.152,79.164c2.313,0,2.317-3.595,0-3.595C77.84,75.569,77.836,79.164,80.152,79.164L80.152,79.164z"
						/>
				</g>
				<g>
					<path fill="#FAB078" d="M48.469,74.97c2.397,0,2.401-3.726,0-3.726C46.072,71.244,46.068,74.97,48.469,74.97L48.469,74.97z"/>
				</g>
				<g>
					<g>
						<path fill="#50231C" d="M37.783,73.606c1.674,0,1.677-2.602,0-2.602C36.108,71.004,36.105,73.606,37.783,73.606L37.783,73.606
							z"/>
					</g>
				</g>
				<g>
					<g>
						<path fill="#50231C" d="M57.661,74.537c1.715,0,1.718-2.666,0-2.666C55.946,71.871,55.943,74.537,57.661,74.537L57.661,74.537
							z"/>
					</g>
				</g>
				<g>
					<g>
						<path fill="#50231C" d="M85.672,72.738c1.116,0,1.118-1.734,0-1.734C84.556,71.004,84.554,72.738,85.672,72.738L85.672,72.738
							z"/>
					</g>
				</g>
				<g>
					<g>
						<path fill="#50231C" d="M96.489,77.008c1.503,0,1.505-2.335,0-2.335C94.986,74.673,94.984,77.008,96.489,77.008L96.489,77.008
							z"/>
					</g>
				</g>
				<g>
					<g>
						<path fill="#50231C" d="M83.796,85.827c1.674,0,1.677-2.602,0-2.602C82.121,83.226,82.119,85.827,83.796,85.827L83.796,85.827
							z"/>
					</g>
				</g>
				<g>
					<g>
						<path fill="#50231C" d="M62.896,86.758c1.116,0,1.118-1.734,0-1.734C61.779,85.023,61.777,86.758,62.896,86.758L62.896,86.758
							z"/>
					</g>
				</g>
				<g>
					<g>
						<path fill="#50231C" d="M72.431,74.474c1.116,0,1.118-1.735,0-1.735C71.314,72.738,71.313,74.474,72.431,74.474L72.431,74.474
							z"/>
					</g>
				</g>
				<g>
					<g>
						<path fill="#50231C" d="M34.661,85.46c1.84,0,1.843-2.859,0-2.859C32.822,82.601,32.819,85.46,34.661,85.46L34.661,85.46z"/>
					</g>
				</g>
				<g>
					<g>
						<path fill="#50231C" d="M52.349,79.842c1.116,0,1.118-1.735,0-1.735C51.232,78.107,51.23,79.842,52.349,79.842L52.349,79.842z
							"/>
					</g>
				</g>
				<g>
					<g>
						<path fill="#50231C" d="M22.408,77.575c1.116,0,1.118-1.735,0-1.735C21.292,75.84,21.29,77.575,22.408,77.575L22.408,77.575z"
							/>
					</g>
				</g>
				<g>
					<g>
						<path fill="#F1F0F0" d="M74.192,86.758c1.755,0,1.758-2.728,0-2.728C72.438,84.03,72.435,86.758,74.192,86.758L74.192,86.758z
							"/>
					</g>
				</g>
				<g>
					<g>
						<path fill="#F1F0F0" d="M89.398,78.296c1.755,0,1.758-2.728,0-2.728C87.644,75.569,87.641,78.296,89.398,78.296L89.398,78.296
							z"/>
					</g>
				</g>
			</g>
		</g>
		<g>
			<path fill="#FFE3AF" d="M25.99,70.64c-0.053-0.183-0.055-0.388,0.017-0.578c0.066-0.193,0.215-0.357,0.389-0.471
				c0.185-0.1,0.386-0.139,0.581-0.145c0.196,0.002,0.383,0.048,0.561,0.116c-0.375,0.051-0.736,0.072-1.015,0.245
				C26.234,69.958,26.077,70.272,25.99,70.64z"/>
		</g>
		<g>
			<path fill="#FFE3AF" d="M27.444,79.401c-0.053-0.183-0.055-0.388,0.017-0.578c0.066-0.193,0.215-0.357,0.389-0.471
				c0.185-0.1,0.386-0.139,0.581-0.145c0.196,0.002,0.383,0.048,0.561,0.116c-0.375,0.051-0.736,0.072-1.015,0.245
				C27.688,78.72,27.531,79.034,27.444,79.401z"/>
		</g>
		<g>
			<path fill="#FFE3AF" d="M33.68,84.159c-0.053-0.183-0.055-0.388,0.017-0.578c0.066-0.193,0.215-0.356,0.389-0.471
				c0.185-0.101,0.386-0.139,0.581-0.145c0.196,0.003,0.383,0.048,0.561,0.115c-0.375,0.052-0.736,0.071-1.015,0.245
				C33.924,83.478,33.767,83.793,33.68,84.159z"/>
		</g>
		<g>
			<path fill="#FFE3AF" d="M56.773,73.292c-0.053-0.183-0.055-0.387,0.017-0.578c0.066-0.193,0.215-0.357,0.389-0.471
				c0.185-0.1,0.386-0.138,0.581-0.145c0.196,0.002,0.383,0.048,0.561,0.115c-0.375,0.051-0.736,0.072-1.015,0.245
				C57.017,72.61,56.86,72.925,56.773,73.292z"/>
		</g>
		<g>
			<path fill="#FFE3AF" d="M63.781,79.213c-0.054-0.183-0.055-0.388,0.016-0.578c0.067-0.193,0.216-0.357,0.39-0.471
				c0.185-0.1,0.386-0.139,0.581-0.145c0.195,0.002,0.383,0.048,0.56,0.115c-0.375,0.051-0.735,0.072-1.015,0.245
				C64.025,78.531,63.867,78.846,63.781,79.213z"/>
		</g>
		<g>
			<path fill="#FFE3AF" d="M73.175,85.576c-0.054-0.183-0.055-0.388,0.017-0.578c0.066-0.193,0.215-0.357,0.389-0.471
				c0.185-0.1,0.386-0.139,0.581-0.145c0.195,0.002,0.383,0.048,0.561,0.115c-0.376,0.051-0.736,0.072-1.015,0.244
				C73.419,84.895,73.262,85.209,73.175,85.576z"/>
		</g>
		<g>
			<path fill="#FFE3AF" d="M82.938,84.818c-0.053-0.183-0.055-0.387,0.018-0.578c0.066-0.193,0.215-0.357,0.389-0.471
				c0.184-0.1,0.386-0.139,0.58-0.145c0.196,0.002,0.384,0.048,0.561,0.115c-0.375,0.051-0.735,0.072-1.015,0.244
				C83.183,84.137,83.025,84.451,82.938,84.818z"/>
		</g>
		<g>
			<path fill="#FFE3AF" d="M88.341,77.119c-0.054-0.183-0.055-0.388,0.017-0.578c0.066-0.193,0.216-0.357,0.389-0.471
				c0.185-0.1,0.386-0.139,0.581-0.145c0.195,0.003,0.383,0.048,0.561,0.116c-0.376,0.051-0.736,0.072-1.015,0.245
				C88.585,76.437,88.428,76.752,88.341,77.119z"/>
		</g>
		<g>
			<path fill="#FFE3AF" d="M91.115,69.238c-0.053-0.183-0.055-0.388,0.018-0.578c0.066-0.193,0.215-0.357,0.389-0.471
				c0.185-0.1,0.386-0.139,0.58-0.145c0.196,0.003,0.384,0.048,0.561,0.116c-0.375,0.051-0.735,0.072-1.015,0.245
				C91.359,68.556,91.202,68.871,91.115,69.238z"/>
		</g>
		<g>
			<path fill="#FFE3AF" d="M95.832,75.95c-0.119-0.248-0.006-0.588,0.257-0.75c0.134-0.069,0.276-0.097,0.413-0.095
				c0.138,0.007,0.267,0.049,0.385,0.109c-0.26,0.067-0.496,0.086-0.672,0.201C96.031,75.508,95.925,75.699,95.832,75.95z"/>
		</g>
		<g>
			<path fill="#FFE3AF" d="M85.145,72.105c-0.118-0.217-0.018-0.525,0.217-0.67c0.121-0.061,0.247-0.085,0.369-0.082
				c0.122,0.008,0.235,0.049,0.339,0.107c-0.229,0.072-0.434,0.09-0.581,0.189C85.331,71.727,85.239,71.885,85.145,72.105z"/>
		</g>
		<g>
			<path fill="#FFE3AF" d="M71.969,73.747c-0.118-0.217-0.018-0.525,0.217-0.67c0.12-0.062,0.247-0.086,0.369-0.082
				c0.122,0.008,0.235,0.049,0.339,0.107c-0.229,0.072-0.434,0.09-0.581,0.189C72.155,73.369,72.063,73.527,71.969,73.747z"/>
		</g>
		<g>
			<path fill="#FFE3AF" d="M62.343,86.027c-0.118-0.217-0.017-0.524,0.218-0.67c0.119-0.061,0.246-0.086,0.369-0.082
				c0.121,0.008,0.234,0.049,0.338,0.107c-0.23,0.072-0.434,0.091-0.581,0.189C62.529,85.65,62.438,85.809,62.343,86.027z"/>
		</g>
		<g>
			<path fill="#FFE3AF" d="M51.796,79.175c-0.118-0.217-0.017-0.525,0.217-0.67c0.12-0.062,0.247-0.085,0.369-0.082
				c0.122,0.008,0.235,0.049,0.338,0.108c-0.23,0.071-0.434,0.09-0.581,0.189C51.983,78.796,51.891,78.955,51.796,79.175z"/>
		</g>
		<g>
			<path fill="#FFE3AF" d="M21.855,76.908c-0.118-0.217-0.017-0.525,0.217-0.67c0.121-0.062,0.247-0.085,0.369-0.082
				c0.122,0.008,0.235,0.048,0.339,0.107c-0.23,0.071-0.434,0.09-0.582,0.189C22.042,76.53,21.95,76.688,21.855,76.908z"/>
		</g>
		<g>
			<path fill="#FFE3AF" d="M47.335,73.366c-0.055-0.236-0.047-0.496,0.047-0.735c0.089-0.242,0.275-0.447,0.495-0.588
				c0.231-0.128,0.486-0.177,0.734-0.19c0.25-0.001,0.491,0.048,0.721,0.121c-0.48,0.037-0.954,0.059-1.328,0.285
				C47.621,72.464,47.417,72.892,47.335,73.366z"/>
		</g>
		<g>
			<path fill="#FFE3AF" d="M47.958,85.307c-0.055-0.235-0.047-0.495,0.047-0.734c0.089-0.242,0.275-0.447,0.495-0.588
				c0.231-0.128,0.486-0.177,0.734-0.19c0.25-0.001,0.491,0.048,0.721,0.122c-0.48,0.036-0.954,0.058-1.328,0.283
				C48.244,84.405,48.04,84.834,47.958,85.307z"/>
		</g>
		<g>
			<path fill="#FFE3AF" d="M78.964,77.713c-0.055-0.236-0.048-0.495,0.047-0.734c0.089-0.242,0.275-0.447,0.495-0.588
				c0.23-0.128,0.486-0.177,0.733-0.19c0.25-0.001,0.491,0.047,0.722,0.121c-0.48,0.037-0.955,0.059-1.328,0.284
				C79.249,76.812,79.045,77.24,78.964,77.713z"/>
		</g>
		<g>
			<path fill="#FFE3AF" d="M36.925,72.462c-0.052-0.162-0.058-0.345,0.005-0.516c0.057-0.173,0.191-0.321,0.346-0.424
				c0.166-0.089,0.346-0.123,0.52-0.126c0.174,0.004,0.341,0.048,0.497,0.113c-0.333,0.057-0.649,0.077-0.89,0.229
				C37.153,71.868,37.015,72.138,36.925,72.462z"/>
		</g>
		<g>
			<path fill="#FFE3AF" d="M39.081,79.511c-0.052-0.162-0.058-0.345,0.005-0.516c0.057-0.174,0.191-0.321,0.346-0.424
				c0.166-0.089,0.346-0.124,0.52-0.126c0.174,0.004,0.341,0.048,0.497,0.113c-0.333,0.057-0.649,0.077-0.89,0.229
				C39.308,78.916,39.17,79.186,39.081,79.511z"/>
		</g>
	</g>
	<path fill="#795A3E" d="M23.874,86.563c0.05,0.485,0.434,0.885,0.876,1.09c0.442,0.207,0.939,0.254,1.425,0.297
		c2.02,0.178,4.06,0.343,5.996,0.945c0.889,0.277,1.747,0.645,2.633,0.928c1.101,0.353,2.238,0.575,3.373,0.797
		c1.218,0.238,2.437,0.477,3.656,0.715c1.073,0.209,2.148,0.419,3.234,0.544c1.979,0.228,3.979,0.17,5.971,0.112
		c0.494-0.015,1-0.031,1.457-0.219c0.121-0.05,0.244-0.116,0.313-0.228c0.214-0.343-0.201-0.73-0.563-0.91
		c-6.218-3.099-13.761-1.933-20.307-4.26C30.821,85.977,23.566,83.551,23.874,86.563z"/>
	<path fill="#795A3E" d="M52.056,92.253c0.47,0.21,1.011,0.152,1.522,0.097c3.846-0.416,7.73-0.471,11.586-0.163
		c2.625,0.21,5.321,0.579,7.85-0.159c1.259-0.368,2.436-1.003,3.718-1.277c0.711-0.152,1.441-0.191,2.155-0.326
		c1.516-0.285,2.918-0.994,4.409-1.391c1.737-0.461,3.555-0.49,5.348-0.619s3.624-0.377,5.21-1.224
		c1.585-0.847,2.895-2.405,2.994-4.2c0.034-0.627-0.151-1.359-0.728-1.609c-0.399-0.173-0.859-0.057-1.276,0.072
		c-4.235,1.308-8.093,3.615-12.249,5.16c-5.836,2.168-12.13,2.783-18.352,2.99c-2.725,0.092-5.457,0.107-8.17,0.402
		c-1.113,0.121-2.274,0.228-3.374,0.418C51.747,90.59,50.682,91.64,52.056,92.253z"/>
	<g>
		<path fill="#FAB078" d="M93.207,84.749c-1.867,1.138-3.865,1.962-5.902,2.671c-1.024,0.338-2.058,0.655-3.116,0.891
			c-1.056,0.24-2.131,0.434-3.228,0.458c2.004-0.856,3.993-1.597,6.022-2.295C89.018,85.801,91.06,85.15,93.207,84.749z"/>
	</g>
	<g>
		<path fill="#FAB078" d="M37.627,88.645c2.39,0.016,4.739,0.145,7.084,0.301c2.345,0.141,4.677,0.342,7.011,0.516l6.995,0.61
			c2.336,0.22,4.672,0.402,7.045,0.73c-2.336,0.504-4.713,0.758-7.087,0.83c-2.375,0.087-4.752,0.008-7.116-0.179
			c-2.362-0.216-4.717-0.506-7.045-0.966C42.186,90.037,39.873,89.475,37.627,88.645z"/>
	</g>
	<path fill="#FAB078" d="M20.973,83.822c-0.141-0.016-0.295-0.026-0.411,0.055c-0.175,0.121-0.167,0.4-0.04,0.572
		c0.127,0.171,0.333,0.261,0.53,0.344c0.969,0.406,1.938,0.814,2.906,1.221c0.326,0.137,0.651,0.273,0.977,0.41
		c0.675,0.283,1.365,0.571,2.094,0.625c2.083,0.152,3.212-2.654,0.764-2.293C25.577,85.082,23.224,84.063,20.973,83.822z"/>
</g>
</svg>
