<?xml version="1.0" encoding="utf-8"?>
<!-- Generator: Adobe Illustrator 16.0.0, SVG Export Plug-In . SVG Version: 6.00 Build 0)  -->
<!DOCTYPE svg PUBLIC "-//W3C//DTD SVG 1.1//EN" "http://www.w3.org/Graphics/SVG/1.1/DTD/svg11.dtd">
<svg version="1.1" id="Layer_1" xmlns="http://www.w3.org/2000/svg" xmlns:xlink="http://www.w3.org/1999/xlink" x="0px" y="0px"
	 width="120px" height="160px" viewBox="0 0 120 160" enable-background="new 0 0 120 160" xml:space="preserve">
<g>
	<g>
		<path fill="#299C9D" d="M82.708,68.559c-7.719-0.298-14.992,3.305-22.549,4.909c-4.08,0.866-8.515,1.106-12.254-0.741
			c-1.128-0.558-2.193-1.324-2.85-2.396c-0.657-1.073-0.839-2.492-0.231-3.594c0.514-0.933,1.497-1.511,2.495-1.881
			c1.467-0.544,3.065-0.73,4.618-0.539c1.769,0.218,3.456,0.913,5.23,1.076c0.974,0.09,1.955,0.017,2.93-0.057
			c1.334-0.1,2.668-0.2,4.002-0.3c2.774-0.208,5.548-0.417,8.317-0.685c4.811-0.465,9.616-1.103,14.322-2.221
			c1.374-0.326,2.728-0.693,4.058-1.131c-0.959-1.296-1.805-1.9-1.805-1.9c-34.152,9.849-56.195-1.45-56.195-1.45
			c-11.456,5.095-6.694,14.578-6.694,14.578S42.346,77.942,61.3,78.38s32.01-5.421,32.01-5.421c0.244-1.751,0.257-3.31,0.126-4.702
			c-0.874,0.322-1.782,0.553-2.707,0.664C88.066,69.24,85.387,68.662,82.708,68.559z"/>
		<path fill="#FAB078" d="M86.739,62.131c-4.706,1.118-9.512,1.756-14.322,2.221c-2.77,0.268-5.543,0.477-8.317,0.685
			c-1.334,0.1-2.668,0.2-4.002,0.3c-0.975,0.073-1.956,0.146-2.93,0.057c-1.774-0.163-3.462-0.858-5.23-1.076
			c-1.553-0.191-3.151-0.005-4.618,0.539c-0.998,0.37-1.981,0.948-2.495,1.881c-0.608,1.102-0.426,2.521,0.231,3.594
			c0.657,1.072,1.722,1.839,2.85,2.396c3.739,1.848,8.174,1.607,12.254,0.741c7.557-1.604,14.83-5.207,22.549-4.909
			c2.679,0.104,5.358,0.682,8.021,0.362c0.925-0.111,1.833-0.342,2.707-0.664C93.113,64.84,91.885,62.47,90.797,61
			C89.467,61.438,88.113,61.805,86.739,62.131z"/>
	</g>
	<path fill="#FAB078" d="M29.225,62.237c-1.486,1.011-2.3,3.03-1.671,4.713c0.301,0.807,0.885,1.477,1.528,2.048
		c2.365,2.1,5.718,3.037,8.83,2.468c0.352-0.064,0.703-0.147,1.032-0.29c1.631-0.702,2.355-2.77,1.953-4.499
		c-0.554-2.382-2.567-3.412-4.67-4.177C33.897,61.653,31.531,60.669,29.225,62.237z"/>
	<path fill="#FAB078" d="M38.112,55.299c1.113,0.301,2.182,0.747,3.277,1.109c1.792,0.593,3.648,0.96,5.5,1.326
		c4.941,0.978,9.908,1.959,14.941,2.131c1.539,0.054,3.115,0.024,4.563-0.501c1.447-0.524,2.763-1.627,3.179-3.11
		c0.08-0.286,0.124-0.603,0.002-0.873c-0.182-0.401-0.653-0.568-1.079-0.68c-1.749-0.461-3.56-0.69-5.368-0.683
		c-1.027,0.005-2.052,0.086-3.077,0.146c-4.019,0.234-8.049,0.145-12.072-0.001c-1.758-0.063-3.532-0.141-5.236-0.58
		c-1.201-0.311-2.348-0.796-3.489-1.28c-0.811-0.344-1.627-0.69-2.365-1.171c-0.731-0.476-1.406-1.085-2.133-1.561
		c-1.004,1.75-1.514,3.422-1.765,4.788c0.749,0.132,1.431,0.217,1.842,0.293C35.928,54.856,37.036,55.009,38.112,55.299z"/>
	<path fill="#FFE3AF" d="M44.481,55.092c-0.825-0.311-1.617-0.706-2.459-0.966c-0.425-0.13-0.86-0.226-1.29-0.339
		c-0.926-0.244-1.828-0.572-2.714-0.936c-0.536-0.22-1.101-0.458-1.674-0.378c-0.102,0.32,0.153,0.659,0.459,0.798
		c0.306,0.14,0.653,0.144,0.983,0.208c0.771,0.149,1.434,0.62,2.112,1.016c1.165,0.68,2.446,1.157,3.77,1.414
		c0.662,0.128,1.334,0.201,2.008,0.218c0.269,0.006,1.627,0.041,0.941-0.474c-0.262-0.197-0.716-0.152-1.029-0.222
		C45.211,55.349,44.842,55.229,44.481,55.092z"/>
	<path fill="#F1F0F0" d="M76.033,41.004c-3.759-1.645-18.489-3.744-29.07-0.447c-6.784,2.268-10.346,5.771-12.208,9.016
		c0.728,0.476,1.402,1.085,2.133,1.561c0.738,0.48,1.554,0.827,2.365,1.171c1.141,0.484,2.288,0.97,3.489,1.28
		c1.704,0.439,3.478,0.517,5.236,0.58c4.023,0.146,8.053,0.235,12.072,0.001c1.025-0.061,2.05-0.142,3.077-0.146
		c1.809-0.008,3.619,0.222,5.368,0.683c0.426,0.111,0.897,0.278,1.079,0.68c0.122,0.271,0.078,0.587-0.002,0.873
		c-0.416,1.483-1.731,2.586-3.179,3.11c-1.448,0.525-3.024,0.555-4.563,0.501c-5.034-0.172-10-1.153-14.941-2.131
		c-1.851-0.366-3.708-0.733-5.5-1.326c-1.095-0.362-2.164-0.809-3.277-1.109c-1.076-0.29-2.184-0.442-3.28-0.646
		c-0.411-0.076-1.093-0.161-1.842-0.293c-0.36,1.96-0.193,3.289-0.193,3.289S54.84,68.948,88.992,59.1
		C88.992,46.544,79.793,42.648,76.033,41.004z"/>
	<path fill="#FAB078" d="M76.601,52.947c-0.915,0.195-1.856,0.373-2.66,0.853s-1.454,1.34-1.396,2.273
		c0.067,1.074,1.057,1.908,2.104,2.156c1.047,0.249,2.142,0.043,3.198-0.162c1.119-0.219,2.238-0.437,3.357-0.654
		c1.253-0.244,2.53-0.497,3.645-1.119s2.059-1.688,2.199-2.958c0.099-0.897-0.304-1.82-1.008-2.378
		c-0.843-0.665-1.475-0.418-2.393-0.076C81.35,51.737,78.998,52.435,76.601,52.947z"/>
	<path fill="#FFE3AF" d="M75.933,53.615c-0.605,0.185-1.26,0.426-1.577,0.975c-0.355,0.615-0.132,1.453,0.395,1.931
		s1.281,0.636,1.99,0.581c0.708-0.055,1.386-0.301,2.054-0.544c0.91-0.331,1.82-0.662,2.73-0.994
		c0.907-0.33,2.012-0.725,2.469-1.655c0.44-0.897-0.056-1.494-0.974-1.65c-1.057-0.181-2.32,0.208-3.353,0.415
		C78.408,52.926,77.161,53.24,75.933,53.615z"/>
	<path fill="#F1F0F0" d="M93.31,72.959c0,0-13.056,5.858-32.01,5.421s-35.197-6.152-35.197-6.152s-4.853,1.372-6.716,6.721
		c0.207,0.083,0.411,0.161,0.606,0.225c1.458,0.473,2.934,0.893,4.423,1.26c5.564,1.371,11.284,1.988,16.993,2.494
		c6.812,0.604,13.637,1.053,20.44,1.74c1.053,0.106,2.165,0.241,3.003,0.888c1.156,0.893,1.464,2.619,0.931,3.98
		c-0.533,1.36-1.763,2.36-3.12,2.904c-1.355,0.544-2.838,0.683-4.299,0.735c-11.39,0.408-22.425-4.062-33.808-4.64
		c-1.086-0.055-2.192-0.077-3.227-0.414c-0.729-0.236-1.396-0.621-2.042-1.038c1.663,4.938,6.123,7.618,6.123,7.618
		s12.573,4.762,34.903,5.277c17.027,0.393,31.188-6.165,31.188-6.165s7.563-3.09,7.746-11.188
		C99.397,76.106,93.31,72.959,93.31,72.959z"/>
	<path fill="#FAB078" d="M24.555,88.535c11.383,0.578,22.418,5.048,33.808,4.64c1.46-0.053,2.943-0.191,4.299-0.735
		c1.357-0.544,2.587-1.544,3.12-2.904c0.533-1.361,0.226-3.088-0.931-3.98c-0.838-0.646-1.95-0.781-3.003-0.888
		c-6.804-0.688-13.629-1.137-20.44-1.74c-5.708-0.506-11.428-1.123-16.993-2.494c-1.489-0.367-2.964-0.787-4.423-1.26
		c-0.196-0.063-0.4-0.142-0.606-0.225c-0.41,1.177-0.68,2.538-0.716,4.128c-0.034,1.468,0.211,2.802,0.617,4.007
		c0.646,0.417,1.313,0.802,2.042,1.038C22.363,88.458,23.469,88.48,24.555,88.535z"/>
	<path fill="#FAB078" d="M91.184,78.913c-3.675,1.262-7.368,2.529-11.193,3.208c-1.195,0.213-2.408,0.369-3.556,0.764
		c-1.147,0.396-2.246,1.06-2.909,2.076c-0.662,1.017-0.802,2.426-0.128,3.435c0.479,0.717,1.304,1.152,2.152,1.304
		c0.848,0.15,1.723,0.043,2.563-0.147c3.765-0.854,7.1-3.346,10.949-3.642c1.046-0.08,2.104,0.005,3.139-0.17
		c2.498-0.422,4.632-2.495,5.126-4.98c0.075-0.38,0.115-0.775,0.036-1.154c-0.141-0.672-0.646-1.223-1.233-1.576
		C94.295,76.928,92.977,78.297,91.184,78.913z"/>
	<path fill="#FFE3AF" d="M43.465,84.977c-0.796-0.101-1.614-0.188-2.391,0.012c-0.777,0.2-1.514,0.748-1.711,1.525
		c-0.208,0.817,0.241,1.703,0.926,2.195c0.685,0.493,1.559,0.652,2.403,0.663c1.416,0.02,2.807-0.337,4.212-0.518
		c4.428-0.568,8.887,0.616,13.351,0.653c1.129,0.01,2.346-0.087,3.215-0.809c0.947-0.787,0.773-2.331-0.625-2.244
		c-0.529,0.033-1.061,0.319-1.612,0.366c-0.807,0.068-1.627,0.063-2.435,0.052c-3.29-0.049-6.55-0.549-9.792-1.064
		C47.161,85.515,45.317,85.211,43.465,84.977z"/>
	<path fill="#FFE3AF" d="M31.558,84.948c-0.087,0.213-0.085,0.45-0.082,0.68c0.007,0.422,0.032,0.887,0.325,1.189
		c0.275,0.282,0.708,0.337,1.102,0.314c0.394-0.023,0.791-0.107,1.178-0.036c0.286,0.053,0.551,0.187,0.836,0.238
		c0.532,0.098,1.109-0.121,1.443-0.546s0.411-1.036,0.192-1.53C35.898,83.781,32.265,83.224,31.558,84.948z"/>
	<path fill="#FFE3AF" d="M88.013,81.771c-0.609,0.25-1.222,0.5-1.859,0.668c-0.864,0.227-1.762,0.296-2.646,0.425
		c-1.498,0.218-2.972,0.608-4.381,1.162c-0.735,0.288-1.462,0.626-2.07,1.13c-0.2,0.166-0.395,0.363-0.454,0.616
		c-0.117,0.498,0.371,0.974,0.878,1.041c0.507,0.068,1.005-0.146,1.472-0.357c3.288-1.488,6.641-3.052,10.239-3.344
		c1.662-0.136,3.429-0.016,4.892-0.817c0.41-0.225,0.795-0.532,0.996-0.954s0.178-0.974-0.149-1.309
		c-0.854-0.876-2.447,0.243-3.361,0.473C90.332,80.816,89.196,81.286,88.013,81.771z"/>
	<path fill="#299C9D" d="M18.913,80.81c0.984,1.349,3.094,2.231,7.189,2.019c8.761-0.456,15.025,6.264,25.959,6.378
		c10.935,0.114,14.578-4.556,28.246-4.101c11.271,0.376,11.673-6.679,15.725-10.061c-1.397-1.393-2.723-2.086-2.723-2.086
		S80.254,78.817,61.3,78.38s-35.197-6.152-35.197-6.152S20.169,73.917,18.913,80.81z"/>
	<path fill="#299C9D" d="M69.289,48.668c7.84,0.181,11.874,2.159,16.356-0.704c-2.842-3.877-6.821-5.734-9.188-6.774l-1.673,0.119
		l-24.261-1.636c-1.222,0.237-2.416,0.527-3.56,0.884c-3.785,1.266-6.56,2.916-8.604,4.69c3.486,0.96,7.141,5.206,11.796,5.285
		C55.944,50.631,60.752,48.472,69.289,48.668z"/>
	<path fill="#50231C" d="M96.171,90.371c3.905,2.685,6.146,5.833,6.146,9.196c-2.051,0.777-4.18,1.502-6.368,2.162
		c-2.024,0.62-4.108,1.188-6.244,1.698c-2.011,0.489-4.068,0.927-6.172,1.319c-2.005,0.372-4.056,0.698-6.133,0.985
		c-2.012,0.269-4.056,0.503-6.126,0.687c-2.019,0.176-4.063,0.313-6.133,0.404c-2.031,0.085-4.09,0.131-6.166,0.131
		c-2.077,0-4.141-0.046-6.172-0.131c-2.071-0.091-4.115-0.229-6.133-0.404c-2.07-0.184-4.115-0.418-6.126-0.687
		c-2.077-0.287-4.121-0.613-6.133-0.985c-2.103-0.393-4.161-0.83-6.172-1.319c-2.136-0.51-4.22-1.078-6.244-1.698
		c-2.194-0.66-4.317-1.385-6.368-2.162c0-3.2,2.038-6.211,5.604-8.811c1.907,2.58,4.18,3.944,4.18,3.944s12.573,4.762,34.903,5.277
		c17.027,0.393,31.188-6.165,31.188-6.165S94.009,92.788,96.171,90.371z"/>
	<g>
		<g opacity="0.3">
			<g>
				<g>
					<path fill="#F16374" d="M26.155,88.582c1.977,0,1.98-3.071,0-3.071C24.178,85.511,24.174,88.582,26.155,88.582L26.155,88.582z"
						/>
				</g>
				<g>
					<path fill="#F16374" d="M37.246,96.474c1.675,0,1.678-2.604,0-2.604C35.57,93.87,35.567,96.474,37.246,96.474L37.246,96.474z"
						/>
				</g>
				<g>
					<path fill="#F16374" d="M58.273,95.405c1.591,0,1.593-2.473,0-2.473C56.683,92.933,56.68,95.405,58.273,95.405L58.273,95.405z"
						/>
				</g>
				<g>
					<g>
						<path fill="#F16374" d="M74.043,91.216c2.028,0,2.031-3.153,0-3.153C72.014,88.063,72.011,91.216,74.043,91.216L74.043,91.216
							z"/>
					</g>
				</g>
				<g>
					<path fill="#F16374" d="M69.425,97.775c1.676,0,1.678-2.604,0-2.604C67.749,95.172,67.746,97.775,69.425,97.775L69.425,97.775z
						"/>
				</g>
				<g>
					<g>
						<path fill="#F16374" d="M45.91,93.406c1.676,0,1.678-2.604,0-2.604C44.235,90.802,44.232,93.406,45.91,93.406L45.91,93.406z"
							/>
					</g>
				</g>
				<g>
					<g>
						<path fill="#F16374" d="M85.312,94.158c2.111,0,2.114-3.281,0-3.281C83.2,90.877,83.196,94.158,85.312,94.158L85.312,94.158z"
							/>
					</g>
				</g>
				<g>
					<path fill="#F16374" d="M95.491,83.474c1.676,0,1.678-2.604,0-2.604C93.815,80.869,93.813,83.474,95.491,83.474L95.491,83.474z
						"/>
				</g>
				<g>
					<path fill="#F16374" d="M92.358,89.945c1.409,0,1.411-2.189,0-2.189C90.949,87.756,90.947,89.945,92.358,89.945L92.358,89.945z
						"/>
				</g>
				<g>
					<g>
						<path fill="#F16374" d="M34.963,90.597c1.675,0,1.678-2.604,0-2.604C33.288,87.993,33.285,90.597,34.963,90.597L34.963,90.597
							z"/>
					</g>
				</g>
			</g>
		</g>
		<g opacity="0.3">
			<g>
				<g>
					<path fill="#F16374" d="M40.855,52.378c1.628,0,1.631-2.53,0-2.53C39.227,49.848,39.224,52.378,40.855,52.378L40.855,52.378z"
						/>
				</g>
				<g>
					<g>
						<path fill="#F16374" d="M52.368,60.521c1.675,0,1.678-2.604,0-2.604C50.692,57.918,50.69,60.521,52.368,60.521L52.368,60.521z
							"/>
					</g>
				</g>
				<g>
					<g>
						<path fill="#F16374" d="M59.404,55.865c2.244,0,2.248-3.487,0-3.487C57.161,52.378,57.157,55.865,59.404,55.865L59.404,55.865
							z"/>
					</g>
				</g>
				<g>
					<path fill="#F16374" d="M44.069,59.22c2.229,0,2.233-3.464,0-3.464C41.84,55.756,41.836,59.22,44.069,59.22L44.069,59.22z"/>
				</g>
				<g>
					<path fill="#F16374" d="M62.454,61.003c1.347,0,1.35-2.094,0-2.094C61.107,58.909,61.105,61.003,62.454,61.003L62.454,61.003z"
						/>
				</g>
				<g>
					<path fill="#F16374" d="M84.42,55.346c2.145,0,2.147-3.332,0-3.332C82.276,52.014,82.272,55.346,84.42,55.346L84.42,55.346z"/>
				</g>
				<g>
					<path fill="#F16374" d="M73.001,53.68c1.163,0,1.165-1.807,0-1.807C71.838,51.873,71.837,53.68,73.001,53.68L73.001,53.68z"/>
				</g>
				<g>
					<g>
						<path fill="#F16374" d="M69.518,59.195c1.424,0,1.426-2.213,0-2.213C68.094,56.982,68.092,59.195,69.518,59.195L69.518,59.195
							z"/>
					</g>
				</g>
				<g>
					<path fill="#F16374" d="M78.446,60.092c1.676,0,1.679-2.604,0-2.604C76.771,57.487,76.769,60.092,78.446,60.092L78.446,60.092z
						"/>
				</g>
			</g>
		</g>
		<g>
			<path fill="#50231C" d="M40.471,51.938c1.628,0,1.631-2.53,0-2.53C38.842,49.408,38.84,51.938,40.471,51.938L40.471,51.938z"/>
		</g>
		<g>
			<path fill="#F16374" d="M51.983,60.082c1.676,0,1.678-2.604,0-2.604C50.308,57.479,50.306,60.082,51.983,60.082L51.983,60.082z"
				/>
		</g>
		<g>
			<path fill="#F16374" d="M59.02,55.426c2.244,0,2.248-3.487,0-3.487C56.776,51.938,56.772,55.426,59.02,55.426L59.02,55.426z"/>
		</g>
		<g>
			<path fill="#50231C" d="M43.685,58.78c2.229,0,2.232-3.465,0-3.465C41.455,55.315,41.452,58.78,43.685,58.78L43.685,58.78z"/>
		</g>
		<g>
			<path fill="#50231C" d="M62.07,60.563c1.347,0,1.35-2.094,0-2.094C60.723,58.47,60.721,60.563,62.07,60.563L62.07,60.563z"/>
		</g>
		<g>
			<path fill="#50231C" d="M84.036,54.906c2.144,0,2.147-3.332,0-3.332C81.892,51.574,81.888,54.906,84.036,54.906L84.036,54.906z"
				/>
		</g>
		<g>
			<path fill="#50231C" d="M72.617,53.24c1.162,0,1.164-1.807,0-1.807C71.454,51.434,71.452,53.24,72.617,53.24L72.617,53.24z"/>
		</g>
		<g>
			<path fill="#F16374" d="M69.133,58.756c1.424,0,1.426-2.213,0-2.213C67.71,56.543,67.707,58.756,69.133,58.756L69.133,58.756z"/>
		</g>
		<g>
			<path fill="#50231C" d="M78.063,59.651c1.675,0,1.678-2.604,0-2.604C76.387,57.048,76.384,59.651,78.063,59.651L78.063,59.651z"
				/>
		</g>
		<g>
			<path fill="#50231C" d="M25.602,88.151c1.977,0,1.98-3.072,0-3.072C23.625,85.079,23.622,88.151,25.602,88.151L25.602,88.151z"/>
		</g>
		<g>
			<path fill="#50231C" d="M36.693,96.043c1.675,0,1.678-2.604,0-2.604C35.018,93.439,35.015,96.043,36.693,96.043L36.693,96.043z"
				/>
		</g>
		<g>
			<path fill="#50231C" d="M57.72,94.975c1.591,0,1.593-2.473,0-2.473C56.129,92.502,56.127,94.975,57.72,94.975L57.72,94.975z"/>
		</g>
		<g>
			<g>
				<path fill="#F16374" d="M73.489,90.784c2.029,0,2.032-3.152,0-3.152C71.461,87.632,71.458,90.784,73.489,90.784L73.489,90.784z"
					/>
			</g>
		</g>
		<g>
			<path fill="#50231C" d="M68.872,97.345c1.676,0,1.678-2.604,0-2.604C67.196,94.741,67.193,97.345,68.872,97.345L68.872,97.345z"
				/>
		</g>
		<g>
			<g>
				<path fill="#F16374" d="M45.357,92.975c1.676,0,1.678-2.604,0-2.604C43.682,90.371,43.68,92.975,45.357,92.975L45.357,92.975z"
					/>
			</g>
		</g>
		<g>
			<path fill="#F16374" d="M84.759,93.728c2.111,0,2.114-3.281,0-3.281C82.647,90.446,82.644,93.728,84.759,93.728L84.759,93.728z"
				/>
		</g>
		<g>
			<path fill="#50231C" d="M94.938,83.042c1.676,0,1.678-2.604,0-2.604C93.263,80.438,93.261,83.042,94.938,83.042L94.938,83.042z"
				/>
		</g>
		<g>
			<path fill="#50231C" d="M91.806,89.515c1.409,0,1.411-2.189,0-2.189C90.396,87.325,90.395,89.515,91.806,89.515L91.806,89.515z"
				/>
		</g>
		<g>
			<g>
				<path fill="#F16374" d="M34.41,90.166c1.675,0,1.678-2.604,0-2.604C32.735,87.563,32.732,90.166,34.41,90.166L34.41,90.166z"/>
			</g>
		</g>
		<g>
			<path fill="#FFE3AF" d="M24.691,87.047c-0.264-0.352-0.213-0.924,0.148-1.27c0.183-0.161,0.401-0.266,0.624-0.29
				c0.221-0.027,0.437-0.005,0.639,0.084c-0.385,0.213-0.699,0.358-0.918,0.567c-0.114,0.101-0.194,0.226-0.282,0.372
				C24.819,86.661,24.761,86.839,24.691,87.047z"/>
		</g>
		<g>
			<path fill="#FFE3AF" d="M33.549,89.229c-0.255-0.304-0.217-0.822,0.108-1.135c0.165-0.145,0.361-0.236,0.561-0.254
				c0.197-0.02,0.389,0.006,0.566,0.097c-0.336,0.211-0.6,0.343-0.783,0.52c-0.096,0.083-0.164,0.187-0.246,0.31
				C33.681,88.893,33.624,89.045,33.549,89.229z"/>
		</g>
		<g>
			<path fill="#FFE3AF" d="M36.006,95.162c-0.255-0.305-0.217-0.822,0.108-1.135c0.164-0.145,0.361-0.237,0.561-0.254
				c0.197-0.021,0.389,0.006,0.567,0.097c-0.336,0.211-0.6,0.343-0.783,0.519c-0.096,0.084-0.164,0.187-0.246,0.311
				C36.138,94.826,36.08,94.978,36.006,95.162z"/>
		</g>
		<g>
			<path fill="#FFE3AF" d="M44.521,92.094c-0.255-0.304-0.217-0.822,0.108-1.135c0.165-0.144,0.361-0.236,0.561-0.254
				c0.197-0.02,0.389,0.006,0.567,0.097c-0.337,0.211-0.6,0.344-0.783,0.52c-0.096,0.084-0.164,0.187-0.246,0.31
				C44.652,91.758,44.595,91.91,44.521,92.094z"/>
		</g>
		<g>
			<path fill="#FFE3AF" d="M56.864,94.225c-0.255-0.304-0.217-0.822,0.108-1.135c0.165-0.144,0.361-0.236,0.561-0.254
				c0.197-0.02,0.389,0.006,0.567,0.097c-0.336,0.211-0.6,0.344-0.783,0.52c-0.096,0.084-0.164,0.187-0.246,0.31
				C56.996,93.889,56.938,94.041,56.864,94.225z"/>
		</g>
		<g>
			<path fill="#FFE3AF" d="M67.901,96.474c-0.255-0.304-0.217-0.822,0.108-1.135c0.164-0.145,0.361-0.236,0.561-0.254
				c0.197-0.02,0.389,0.006,0.567,0.097c-0.337,0.211-0.601,0.344-0.783,0.52c-0.096,0.083-0.164,0.187-0.246,0.31
				C68.033,96.138,67.976,96.29,67.901,96.474z"/>
		</g>
		<g>
			<path fill="#FFE3AF" d="M72.537,89.496c-0.255-0.303-0.217-0.821,0.108-1.134c0.165-0.145,0.361-0.237,0.561-0.254
				c0.197-0.021,0.389,0.006,0.567,0.097c-0.337,0.211-0.601,0.343-0.783,0.519c-0.096,0.084-0.164,0.187-0.246,0.311
				C72.669,89.16,72.611,89.313,72.537,89.496z"/>
		</g>
		<g>
			<path fill="#FFE3AF" d="M94.09,82.161c-0.256-0.304-0.217-0.822,0.108-1.135c0.164-0.144,0.361-0.236,0.561-0.254
				c0.197-0.02,0.389,0.006,0.567,0.097c-0.337,0.211-0.601,0.344-0.783,0.52c-0.097,0.084-0.164,0.187-0.246,0.31
				C94.222,81.825,94.164,81.978,94.09,82.161z"/>
		</g>
		<g>
			<path fill="#FFE3AF" d="M91.12,88.851c-0.248-0.264-0.22-0.736,0.075-1.021c0.148-0.13,0.327-0.213,0.507-0.224
				c0.178-0.014,0.349,0.015,0.506,0.107c-0.296,0.209-0.517,0.331-0.668,0.479C91.385,88.332,91.269,88.521,91.12,88.851z"/>
		</g>
		<g>
			<path fill="#FFE3AF" d="M83.749,92.507c-0.271-0.392-0.211-1.009,0.182-1.384c0.197-0.175,0.436-0.289,0.678-0.319
				c0.121-0.014,0.24-0.013,0.355-0.014c0.119,0.029,0.233,0.042,0.345,0.087c-0.427,0.215-0.783,0.371-1.033,0.608
				c-0.129,0.114-0.22,0.258-0.313,0.425C83.875,92.08,83.815,92.279,83.749,92.507z"/>
		</g>
		<g>
			<g>
				<path fill="#FFE3AF" d="M42.587,57.649c-0.274-0.411-0.209-1.05,0.198-1.439c0.206-0.182,0.452-0.3,0.704-0.334
					c0.125-0.015,0.25-0.015,0.37-0.017c0.124,0.028,0.243,0.041,0.359,0.086c-0.446,0.216-0.822,0.376-1.088,0.627
					c-0.136,0.121-0.232,0.274-0.328,0.45C42.711,57.203,42.652,57.411,42.587,57.649z"/>
			</g>
			<g>
				<g>
					<path fill="#FFE3AF" d="M39.647,50.877c-0.149-0.255-0.093-0.618,0.138-0.851c0.124-0.101,0.265-0.174,0.413-0.201
						c0.147-0.029,0.295-0.014,0.434,0.022c-0.267,0.115-0.512,0.193-0.675,0.36C39.78,50.358,39.705,50.595,39.647,50.877z"/>
				</g>
				<g>
					<path fill="#FFE3AF" d="M57.774,54.263c-0.274-0.411-0.209-1.05,0.198-1.439c0.206-0.181,0.452-0.3,0.704-0.334
						c0.125-0.015,0.25-0.015,0.37-0.017c0.124,0.028,0.243,0.041,0.359,0.086c-0.446,0.216-0.822,0.376-1.088,0.627
						c-0.136,0.121-0.232,0.274-0.328,0.45C57.898,53.816,57.839,54.024,57.774,54.263z"/>
				</g>
				<g>
					<path fill="#FFE3AF" d="M83.018,53.881c-0.273-0.411-0.209-1.05,0.198-1.438c0.205-0.182,0.451-0.3,0.703-0.334
						c0.126-0.016,0.25-0.015,0.37-0.018c0.124,0.029,0.243,0.041,0.359,0.086c-0.446,0.216-0.822,0.377-1.088,0.628
						c-0.137,0.121-0.232,0.273-0.328,0.45C83.143,53.435,83.083,53.644,83.018,53.881z"/>
				</g>
				<g>
					<path fill="#FFE3AF" d="M51.125,58.909c-0.149-0.255-0.093-0.618,0.138-0.851c0.124-0.101,0.265-0.174,0.413-0.201
						c0.147-0.029,0.295-0.014,0.435,0.022c-0.267,0.115-0.512,0.193-0.675,0.36C51.257,58.391,51.183,58.627,51.125,58.909z"/>
				</g>
				<g>
					<path fill="#FFE3AF" d="M61.514,59.734c-0.143-0.214-0.096-0.53,0.104-0.733c0.109-0.087,0.231-0.15,0.359-0.171
						c0.127-0.022,0.254-0.005,0.372,0.033c-0.226,0.113-0.427,0.181-0.559,0.318C61.645,59.303,61.58,59.494,61.514,59.734z"/>
				</g>
				<g>
					<path fill="#FFE3AF" d="M68.461,57.854c-0.143-0.214-0.096-0.531,0.104-0.734c0.108-0.087,0.23-0.15,0.358-0.171
						c0.127-0.022,0.254-0.004,0.372,0.033c-0.225,0.113-0.427,0.182-0.559,0.319C68.591,57.423,68.526,57.613,68.461,57.854z"/>
				</g>
				<g>
					<path fill="#FFE3AF" d="M72.035,52.613c-0.143-0.214-0.096-0.531,0.104-0.734c0.108-0.087,0.23-0.15,0.357-0.171
						c0.128-0.022,0.254-0.004,0.373,0.033c-0.226,0.113-0.427,0.181-0.559,0.318C72.165,52.182,72.101,52.372,72.035,52.613z"/>
				</g>
				<g>
					<path fill="#FFE3AF" d="M77.373,58.354c-0.143-0.214-0.096-0.53,0.104-0.733c0.108-0.087,0.23-0.15,0.358-0.171
						c0.127-0.022,0.254-0.005,0.372,0.033c-0.225,0.113-0.427,0.181-0.559,0.318C77.503,57.922,77.438,58.113,77.373,58.354z"/>
				</g>
			</g>
		</g>
	</g>
	<g>
		<path fill="#F1F0F0" d="M28.391,72.962c2.163,0.762,4.364,1.372,6.577,1.922c2.216,0.54,4.442,1.032,6.69,1.415
			c2.242,0.413,4.499,0.749,6.765,1.024c2.265,0.3,4.541,0.496,6.823,0.741c-1.146,0.028-2.294,0.028-3.442,0.017
			c-1.146-0.062-2.296-0.08-3.439-0.184c-2.293-0.158-4.568-0.503-6.84-0.861c-2.255-0.448-4.506-0.935-6.708-1.599
			C32.619,74.769,30.437,74.01,28.391,72.962z"/>
	</g>
	<g>
		<path fill="#F1F0F0" d="M75.987,77.488c1.824-0.72,3.69-1.16,5.564-1.562c1.882-0.38,3.758-0.681,5.703-0.862
			c-0.855,0.489-1.775,0.825-2.697,1.118c-0.923,0.297-1.862,0.521-2.805,0.723C79.861,77.276,77.949,77.545,75.987,77.488z"/>
	</g>
	<g>
		<g>
			<path fill="#F16374" d="M102.316,99.567l-7.038,38.734c-0.269,1.477-1.237,2.736-2.607,3.35c-1.016,0.455-2.06,0.889-3.13,1.304
				l6.407-41.226C98.137,101.069,100.266,100.345,102.316,99.567z"/>
			<path fill="#F16374" d="M89.704,103.428l-5.349,41.311c-1.652,0.496-3.351,0.947-5.102,1.352l4.278-41.343
				C85.636,104.354,87.693,103.917,89.704,103.428z"/>
			<path fill="#F16374" d="M77.399,105.732l-3.207,41.357c-1.652,0.273-3.337,0.509-5.055,0.691l2.136-41.362
				C73.344,106.235,75.388,106.001,77.399,105.732z"/>
			<path fill="#F16374" d="M64.076,148.187c-1.68,0.092-3.384,0.138-5.102,0.138v-41.37c2.076,0,4.135-0.046,6.166-0.131
				L64.076,148.187z"/>
			<path fill="#F16374" d="M52.803,106.823l1.064,41.363c-1.711-0.091-3.396-0.222-5.062-0.405l-2.136-41.362
				C48.688,106.595,50.732,106.732,52.803,106.823z"/>
			<path fill="#F16374" d="M40.543,105.732l3.207,41.357c-1.724-0.288-3.416-0.621-5.062-1l-4.278-41.343
				C36.422,105.119,38.466,105.445,40.543,105.732z"/>
			<path fill="#F16374" d="M28.238,103.428l5.349,41.311c-1.79-0.542-3.521-1.137-5.186-1.776v-0.007l-6.407-41.226
				C24.019,102.35,26.103,102.918,28.238,103.428z"/>
			<path fill="#DB1F2E" d="M95.948,101.729l-6.407,41.226v0.007c-1.665,0.64-3.396,1.234-5.186,1.776l5.349-41.311
				C91.84,102.918,93.924,102.35,95.948,101.729z"/>
			<path fill="#DB1F2E" d="M83.532,104.747l-4.278,41.343c-1.646,0.379-3.337,0.712-5.062,1l3.207-41.357
				C79.477,105.445,81.527,105.119,83.532,104.747z"/>
			<path fill="#DB1F2E" d="M71.273,106.419l-2.136,41.362c-1.666,0.184-3.351,0.314-5.062,0.405l1.064-41.363
				C67.211,106.732,69.255,106.595,71.273,106.419z"/>
			<path fill="#DB1F2E" d="M58.975,106.954v41.37c-1.724,0-3.422-0.046-5.107-0.138l-1.064-41.363
				C54.833,106.908,56.897,106.954,58.975,106.954z"/>
			<path fill="#DB1F2E" d="M46.669,106.419l2.136,41.362c-1.711-0.183-3.403-0.418-5.055-0.691l-3.207-41.357
				C42.555,106.001,44.599,106.235,46.669,106.419z"/>
			<path fill="#DB1F2E" d="M34.41,104.747l4.278,41.343c-1.75-0.404-3.448-0.855-5.101-1.352l-5.349-41.311
				C30.25,103.917,32.307,104.354,34.41,104.747z"/>
			<path fill="#DB1F2E" d="M21.994,101.729l6.407,41.226c-1.071-0.411-2.117-0.847-3.134-1.303
				c-1.367-0.615-2.335-1.874-2.603-3.349l-7.039-38.736C17.677,100.345,19.8,101.069,21.994,101.729z"/>
			<path fill="#F16374" d="M95.948,101.729c-2.024,0.62-4.108,1.188-6.244,1.698c-2.011,0.489-4.068,0.927-6.172,1.319
				c-2.005,0.372-4.056,0.698-6.133,0.985c-0.397,0.054-0.803,0.099-1.203,0.148c0.136,1.242,0.176,2.499,0.149,3.746
				c-0.285,13.67-7.959,26.885-19.497,34.222c-2.52,1.603-5.213,2.904-8.007,3.937c1.654,0.181,3.327,0.311,5.026,0.401
				c1.685,0.092,3.383,0.138,5.107,0.138c1.718,0,3.422-0.046,5.102-0.138c1.711-0.091,3.396-0.222,5.062-0.405
				c1.718-0.183,3.402-0.418,5.055-0.691c1.725-0.288,3.416-0.621,5.062-1c1.751-0.404,3.449-0.855,5.102-1.352
				c1.789-0.542,3.521-1.137,5.186-1.776v-0.007c1.07-0.415,2.114-0.849,3.13-1.304c1.37-0.613,2.339-1.873,2.607-3.35l7.038-38.734
				C100.266,100.345,98.137,101.069,95.948,101.729z"/>
			<path opacity="0.4" fill="#F16374" d="M76.196,105.881c-1.624,0.204-3.263,0.392-4.923,0.538
				c-2.019,0.176-4.063,0.313-6.133,0.404c-2.031,0.085-4.09,0.131-6.166,0.131c-2.077,0-4.141-0.046-6.172-0.131
				c-1.275-0.056-2.536-0.135-3.791-0.225c-1.19,2.852-2.746,5.469-4.158,7.382c-2.606,3.53-5.855,6.584-9.461,9.076
				c-4.293,2.967-9.246,5.205-14.354,6.295l1.626,8.952c0.268,1.475,1.236,2.733,2.604,3.349c1.017,0.456,2.062,0.892,3.133,1.303
				v0.007c1.666,0.64,3.396,1.234,5.186,1.776c1.652,0.496,3.351,0.947,5.101,1.352c1.646,0.379,3.337,0.712,5.062,1
				c1.652,0.273,3.344,0.509,5.055,0.691c0.012,0.002,0.024,0.003,0.036,0.004c2.794-1.032,5.487-2.334,8.007-3.937
				c11.538-7.337,19.212-20.552,19.497-34.222C76.372,108.38,76.332,107.123,76.196,105.881z"/>
		</g>
		<g>
			<polygon fill="#FFFFFF" points="22.522,101.89 28.065,140.87 21.46,101.566 			"/>
		</g>
		<g>
			<polygon fill="#FFFFFF" points="28.756,103.552 33.356,142.955 27.715,103.301 			"/>
		</g>
		<g>
			<polygon fill="#FFFFFF" points="34.879,104.832 38.541,144.363 33.848,104.641 			"/>
		</g>
		<g>
			<polygon fill="#FFFFFF" points="41.015,105.795 43.618,145.548 39.989,105.655 			"/>
		</g>
		<g>
			<polygon fill="#FFFFFF" points="47.196,106.464 48.696,146.09 46.173,106.374 			"/>
		</g>
		<g>
			<polygon fill="#FFFFFF" points="53.201,106.84 53.825,146.54 52.178,106.795 			"/>
		</g>
		<g>
			<polygon fill="#FFFFFF" points="59.475,106.954 58.975,146.699 58.451,106.954 			"/>
		</g>
		<g opacity="0.5">
			<polygon fill="#FFFFFF" points="95.428,101.89 89.884,140.87 96.489,101.566 			"/>
		</g>
		<g opacity="0.5">
			<polygon fill="#FFFFFF" points="89.193,103.552 84.593,142.955 90.234,103.301 			"/>
		</g>
		<g opacity="0.5">
			<polygon fill="#FFFFFF" points="83.07,104.832 79.433,144.363 84.102,104.641 			"/>
		</g>
		<g opacity="0.5">
			<polygon fill="#FFFFFF" points="76.935,105.795 74.313,145.548 77.961,105.655 			"/>
		</g>
		<g opacity="0.7">
			<polygon fill="#FFFFFF" points="70.753,106.464 69.225,146.09 71.776,106.374 			"/>
		</g>
		<g opacity="0.7">
			<polygon fill="#FFFFFF" points="64.748,106.84 64.125,146.54 65.771,106.795 			"/>
		</g>
		<path fill="#50231C" d="M101.648,103.243c-0.671-0.207-2.122-0.511-2.67-0.07c-0.447,0.359-0.561,0.979-0.751,1.52
			s-0.612,1.118-1.184,1.071c-0.767-0.064-1.12-0.971-1.889-0.979c-0.491-0.005-1.017-0.001-1.424,0.273
			c-0.348,0.233-0.552,0.625-0.848,0.921c-0.518,0.52-1.294,0.712-2.026,0.671c-0.731-0.042-1.435-0.291-2.121-0.549
			c-0.29-0.109-0.59-0.223-0.9-0.214c-1.081,0.03-1.656,1.433-2.713,1.665c-0.361,0.079-0.737,0.01-1.101-0.061
			c-0.949-0.182-1.897-0.364-2.847-0.546c-0.44-0.085-0.941-0.157-1.301,0.112c-0.233,0.176-0.354,0.459-0.537,0.686
			c-0.707,0.871-2.072,0.671-3.141,0.327c-1.068-0.345-2.335-0.723-3.227-0.04c-0.573,0.438-0.857,1.249-1.539,1.49
			c-0.668,0.237-1.378-0.193-1.926-0.644c-0.547-0.45-0.999-0.744-1.708-0.717c-1.26,1.189-2.941,2.473-4.551,1.832
			c-0.847-0.337-1.503-1.177-2.412-1.219c-0.84-0.039-1.526,0.616-2.268,1.013c-1.488,0.794-3.485,0.482-4.659-0.728
			c-0.166-0.171-0.327-0.363-0.553-0.435c-0.264-0.084-0.548,0.021-0.804,0.128c-1.006,0.421-2.082,0.919-3.143,0.665
			c-1.183-0.283-2.084-1.459-3.3-1.461c-1.105-0.002-2.069,0.991-3.166,0.851c-0.445-0.058-0.842-0.298-1.224-0.533
			c-0.493-0.303-0.985-0.605-1.478-0.908c-0.312-0.192-0.697-0.389-1.024-0.225c-0.189,0.095-0.305,0.29-0.468,0.424
			c-0.481,0.397-1.216,0.176-1.735-0.17c-0.519-0.347-1.001-0.815-1.62-0.898c-1.008-0.137-1.947,0.81-2.947,0.619
			c-1.162-0.221-1.738-1.852-2.92-1.866c-0.369-0.005-0.719,0.16-1.086,0.192c-1.514,0.133-2.675-1.938-4.145-1.554
			c-0.325,0.086-0.609,0.288-0.932,0.384c-0.582,0.173-1.259-0.052-1.623-0.537c-0.233-0.312-0.409-0.759-0.796-0.799
			c-0.447-0.047-0.72,0.496-1.138,0.661c-1.059,0.418-1.66-1.646-2.797-1.603c-0.269,0.011-0.518,0.146-0.785,0.181l-0.111,0.069
			l-0.447-2.063c0,0,17.202,7.262,42.418,7.262c28.731,0,44.147-7.402,44.147-7.402L101.648,103.243z"/>
		<path fill="#50231C" d="M102.296,99.269c0.648,0.288,1.246,0.846,1.402,1.538s-0.164,1.501-0.812,1.793
			c-0.641,0.288-1.381,0.041-2.052-0.166c-0.672-0.208-1.472-0.35-2.02,0.091c-0.447,0.359-0.562,0.978-0.752,1.52
			c-0.19,0.541-0.611,1.118-1.184,1.07c-0.766-0.063-1.119-0.97-1.888-0.978c-0.491-0.006-1.017-0.001-1.425,0.272
			c-0.348,0.233-0.551,0.625-0.847,0.922c-0.518,0.519-1.295,0.712-2.026,0.67c-0.732-0.041-1.435-0.29-2.121-0.549
			c-0.291-0.108-0.59-0.222-0.9-0.213c-1.082,0.03-1.656,1.433-2.713,1.665c-0.361,0.079-0.737,0.009-1.101-0.061
			c-0.949-0.183-1.897-0.364-2.847-0.547c-0.441-0.084-0.942-0.156-1.302,0.113c-0.232,0.175-0.353,0.459-0.536,0.685
			c-0.707,0.871-2.072,0.671-3.141,0.327s-2.336-0.722-3.227-0.04c-0.574,0.439-0.858,1.25-1.539,1.491
			c-0.668,0.237-1.378-0.193-1.926-0.644s-1-0.744-1.708-0.718c-1.26,1.19-2.941,2.473-4.551,1.832
			c-0.847-0.337-1.503-1.176-2.413-1.218c-0.84-0.039-1.525,0.616-2.267,1.012c-1.488,0.795-3.485,0.483-4.66-0.728
			c-0.165-0.17-0.327-0.363-0.553-0.435c-0.265-0.083-0.548,0.021-0.804,0.128c-1.006,0.422-2.083,0.92-3.143,0.666
			c-1.183-0.284-2.083-1.459-3.3-1.462c-1.105-0.002-2.069,0.991-3.165,0.851c-0.445-0.057-0.842-0.298-1.225-0.532
			c-0.493-0.303-0.985-0.606-1.478-0.909c-0.312-0.191-0.698-0.389-1.025-0.224c-0.189,0.095-0.305,0.289-0.468,0.424
			c-0.481,0.396-1.216,0.176-1.735-0.171c-0.519-0.347-1.001-0.814-1.619-0.898c-1.009-0.136-1.948,0.811-2.947,0.62
			c-1.162-0.222-1.739-1.852-2.921-1.867c-0.369-0.004-0.719,0.161-1.086,0.192c-1.513,0.133-2.675-1.938-4.145-1.553
			c-0.325,0.085-0.609,0.288-0.932,0.384c-0.581,0.173-1.259-0.052-1.622-0.537c-0.233-0.313-0.409-0.759-0.796-0.8
			c-0.448-0.046-0.72,0.497-1.139,0.662c-1.058,0.418-1.66-1.647-2.796-1.603c-0.269,0.011-0.519,0.146-0.785,0.181
			c-0.493,0.063-1.006-0.277-1.14-0.756c-0.134-0.479,0.252-1.002,0.706-1.204c0,0,18.9,7.228,42.294,7.228
			C86.65,106.795,102.296,99.269,102.296,99.269z"/>
		<g>
			<g>
				<path fill="#FFFFFF" d="M15.566,101.117c-0.219-0.088-0.369-0.313-0.368-0.581c0.018-0.129,0.068-0.262,0.163-0.343
					c0.087-0.089,0.202-0.131,0.315-0.152c-0.123,0.2-0.235,0.347-0.229,0.512C15.423,100.717,15.501,100.896,15.566,101.117z"/>
			</g>
			<g>
				<path fill="#FFFFFF" d="M18.49,101.729c0.177,0.174,0.292,0.356,0.444,0.503c0.137,0.164,0.284,0.273,0.508,0.382
					c-0.115,0.043-0.252,0.046-0.375,0.001c-0.124-0.044-0.223-0.129-0.316-0.214C18.593,102.208,18.478,101.982,18.49,101.729z"/>
			</g>
			<g>
				<path fill="#FFFFFF" d="M21.656,102.5c0.144,0.215,0.269,0.389,0.449,0.503c0.167,0.133,0.377,0.194,0.618,0.298
					c-0.122,0.043-0.253,0.067-0.386,0.048c-0.134-0.012-0.259-0.073-0.378-0.143C21.742,103.037,21.596,102.764,21.656,102.5z"/>
			</g>
			<g>
				<path fill="#FFFFFF" d="M26.183,103.645c0.638,0.264,1.156,0.584,1.805,0.777c-0.342,0.101-0.7-0.005-1.012-0.137
					C26.673,104.124,26.383,103.934,26.183,103.645z"/>
			</g>
			<g>
				<path fill="#FFFFFF" d="M31.126,104.9c0.458,0.5,0.838,0.95,1.491,1.138c-0.165,0.04-0.348,0.046-0.518-0.009
					c-0.17-0.051-0.322-0.147-0.462-0.253C31.384,105.537,31.18,105.244,31.126,104.9z"/>
			</g>
			<g>
				<path fill="#FFFFFF" d="M36.632,106.038c0.442,0.328,0.757,0.618,1.265,0.805c-0.13,0.041-0.276,0.056-0.414,0.022
					c-0.138-0.029-0.266-0.095-0.384-0.167C36.881,106.527,36.691,106.314,36.632,106.038z"/>
			</g>
			<g>
				<path fill="#FFFFFF" d="M41.301,106.843c0.577,0.44,1.078,0.833,1.775,1.021c-0.176,0.04-0.368,0.05-0.55,0.007
					c-0.182-0.041-0.354-0.12-0.514-0.211C41.708,107.451,41.437,107.188,41.301,106.843z"/>
			</g>
			<g>
				<path fill="#FFFFFF" d="M47.696,107.256c0.727,0.498,1.38,0.994,2.237,1.191c-0.217,0.041-0.448,0.037-0.668-0.016
					c-0.22-0.054-0.425-0.149-0.625-0.253C48.265,107.938,47.917,107.646,47.696,107.256z"/>
			</g>
			<g>
				<path fill="#FFFFFF" d="M54.262,108.01c0.352,0.288,0.68,0.571,1.056,0.782c0.363,0.235,0.763,0.372,1.206,0.482
					c-0.223,0.037-0.461,0.047-0.688-0.01c-0.227-0.051-0.444-0.145-0.646-0.258C54.801,108.755,54.454,108.43,54.262,108.01z"/>
			</g>
			<g>
				<path fill="#FFFFFF" d="M61.994,108.18c0.38,0.156,0.712,0.365,1.064,0.538c0.167,0.102,0.343,0.184,0.518,0.268
					c0.175,0.081,0.35,0.167,0.549,0.216c-0.416,0.088-0.827-0.09-1.186-0.264C62.589,108.732,62.253,108.502,61.994,108.18z"/>
			</g>
			<g>
				<path fill="#FFFFFF" d="M69.314,107.548c0.559,0.448,1.037,0.856,1.726,1.045c-0.174,0.041-0.364,0.048-0.544,0.003
					c-0.18-0.043-0.347-0.126-0.504-0.22C69.697,108.161,69.437,107.893,69.314,107.548z"/>
			</g>
			<g>
				<path fill="#FFFFFF" d="M75.579,106.818c0.881,0.29,1.709,0.512,2.635,0.486c-0.213,0.09-0.444,0.157-0.681,0.168
					c-0.235,0.016-0.473-0.008-0.704-0.049C76.374,107.313,75.927,107.137,75.579,106.818z"/>
			</g>
			<g>
				<path fill="#FFFFFF" d="M81.983,106.161c0.515,0.036,1.006,0.139,1.503,0.205c0.246,0.05,0.493,0.077,0.74,0.111
					c0.246,0.027,0.493,0.06,0.747,0.024c-0.476,0.248-1.028,0.165-1.526,0.111C82.943,106.516,82.445,106.396,81.983,106.161z"/>
			</g>
			<g>
				<path fill="#FFFFFF" d="M88.816,105.071c0.425,0.174,0.83,0.337,1.26,0.421c0.424,0.115,0.857,0.131,1.317,0.158
					c-0.215,0.079-0.444,0.14-0.678,0.146c-0.232,0.016-0.466-0.018-0.695-0.061C89.57,105.618,89.129,105.419,88.816,105.071z"/>
			</g>
			<g>
				<path fill="#FFFFFF" d="M95.948,103.948c0.199,0.188,0.34,0.39,0.525,0.531c0.17,0.164,0.357,0.244,0.635,0.268
					c-0.11,0.079-0.256,0.127-0.406,0.106c-0.148-0.021-0.277-0.101-0.392-0.185C96.105,104.473,95.963,104.228,95.948,103.948z"/>
			</g>
			<g>
				<path fill="#FFFFFF" d="M100.707,101.729c0.649,0.436,1.337,0.507,2.115,0.493c-0.174,0.087-0.361,0.156-0.559,0.181
					c-0.196,0.032-0.397,0.014-0.598-0.013C101.28,102.296,100.89,102.09,100.707,101.729z"/>
			</g>
		</g>
	</g>
	<g>
		<path fill="#299C9D" d="M71.597,41.968c-0.674-0.247-1.248-0.922-1.135-1.631c0.108-0.688,0.781-1.131,1.422-1.403
			c1.72-0.731,3.644-0.866,5.372-1.578c0.781-0.322,1.473-0.761,2.119-1.278c-2.178-2.926-5.247-4.248-6.888-4.967
			c-2.715-1.188-13.355-2.704-20.999-0.322c-5.976,1.998-8.493,5.321-9.54,8.018c5.251,1.415,10.703,2.085,16.141,1.981
			c0.301-0.005,0.619-0.01,0.88,0.14c0.261,0.149,0.426,0.512,0.259,0.762c-0.068,0.103-0.179,0.168-0.288,0.228
			c-1.647,0.895-3.627,0.915-5.489,0.698c-1.861-0.217-3.712-0.649-5.585-0.581c-0.634,0.023-1.265,0.104-1.899,0.127
			c-1.426,0.052-3.287-0.15-4.661-0.848c-0.143,1.106-0.052,1.822-0.052,1.822s15.923,8.162,40.593,1.047
			c0-1.522-0.2-2.854-0.524-4.047c-2.391,1.055-4.999,1.568-7.597,1.908C73.016,42.137,72.271,42.215,71.597,41.968z"/>
		<path fill="#FAB078" d="M47.867,42.033c1.873-0.068,3.724,0.364,5.585,0.581c1.862,0.217,3.842,0.196,5.489-0.698
			c0.109-0.06,0.219-0.125,0.288-0.228c0.167-0.25,0.002-0.612-0.259-0.762c-0.262-0.149-0.58-0.145-0.88-0.14
			c-5.438,0.104-10.889-0.566-16.141-1.981c-0.365,0.94-0.55,1.803-0.641,2.507c1.374,0.697,3.235,0.899,4.661,0.848
			C46.602,42.138,47.233,42.057,47.867,42.033z"/>
		<path fill="#FAB078" d="M77.256,37.355c-1.729,0.712-3.652,0.847-5.372,1.578c-0.641,0.272-1.313,0.716-1.422,1.403
			c-0.113,0.709,0.461,1.384,1.135,1.631s1.419,0.169,2.131,0.075c2.598-0.34,5.206-0.854,7.597-1.908
			c-0.44-1.618-1.128-2.954-1.949-4.058C78.729,36.595,78.037,37.033,77.256,37.355z"/>
	</g>
	<path fill="#FAB078" d="M49.128,34.453c-0.228,0.104-0.471,0.226-0.585,0.449c-0.166,0.324,0.018,0.729,0.292,0.97
		c0.274,0.239,0.625,0.37,0.928,0.572c0.956,0.635,1.42,1.941,2.512,2.297c0.428,0.14,0.891,0.105,1.339,0.06
		c1.053-0.107,2.107-0.271,3.165-0.221c0.491,0.023,0.979,0.093,1.468,0.146c3.51,0.381,7.109-0.102,10.396-1.391
		c0.173-0.067,0.354-0.145,0.46-0.296c0.153-0.217,0.108-0.518,0.215-0.761c0.129-0.295,0.448-0.449,0.743-0.579
		c0.48-0.211,0.96-0.422,1.44-0.634c0.164-0.072,0.333-0.147,0.453-0.281c0.294-0.326,0.157-0.883-0.175-1.17
		c-0.332-0.288-0.791-0.371-1.229-0.42c-2.953-0.324-6.056,0.458-8.851-0.55c-0.616-0.222-1.208-0.529-1.853-0.646
		c-0.42-0.077-0.852-0.069-1.279-0.063c-1.576,0.027-3.063-0.089-4.537,0.487C52.381,33.068,50.738,33.712,49.128,34.453z"/>
	<g>
		<path fill="#F1F0F0" d="M67.771,38.814c0.98-0.34,1.955-0.678,2.906-1.062c0.945-0.393,1.894-0.795,2.727-1.347
			c0.813-0.506,1.631-1.356,1.073-2.201c-0.237-0.404-0.624-0.746-1.034-1.041c-0.405-0.311-0.855-0.563-1.3-0.833
			c0.969,0.347,1.97,0.768,2.659,1.67c0.358,0.447,0.394,1.194,0.059,1.68c-0.303,0.499-0.741,0.843-1.182,1.143
			c-0.901,0.58-1.878,0.976-2.872,1.29C69.813,38.427,68.801,38.674,67.771,38.814z"/>
	</g>
	<g>
		<path fill="#F1F0F0" d="M51.313,36.728c-0.307-0.613-0.167-1.424,0.284-1.983c0.438-0.581,1.089-0.915,1.726-1.167
			c1.309-0.442,2.681-0.522,4.013-0.386c-0.66,0.145-1.317,0.217-1.96,0.359c-0.645,0.128-1.276,0.284-1.882,0.496
			c-0.595,0.224-1.171,0.508-1.605,0.945C51.456,35.421,51.216,36.06,51.313,36.728z"/>
	</g>
	<g>
		<defs>
			<path id="SVGID_1_" d="M55.829,37.346l-11.49-13.755c0.792-4.688,3.953-8.857,8.704-10.717c4.751-1.858,9.902-0.942,13.666,1.965
				l1.062,21.23C67.771,36.069,59.945,39.104,55.829,37.346z"/>
		</defs>
		<clipPath id="SVGID_2_">
			<use xlink:href="#SVGID_1_"  overflow="visible"/>
		</clipPath>
		<g clip-path="url(#SVGID_2_)">
			<g>
				<path fill="#FFE3AF" d="M53.043,12.874c4.751-1.858,9.902-0.942,13.666,1.965l1.062,21.23l-9.804,3.836L44.339,23.591
					C45.131,18.902,48.292,14.733,53.043,12.874z"/>
			</g>
			<g>
				<path fill="#50231C" d="M58.574,38.923c-0.08,0.031-0.174,0.009-0.231-0.062L46.167,23.878
					c-0.071-0.087-0.058-0.214,0.029-0.284c0.086-0.072,0.214-0.058,0.285,0.029l12.176,14.983c0.071,0.087,0.058,0.214-0.029,0.285
					C58.611,38.904,58.593,38.915,58.574,38.923z"/>
			</g>
			<g>
				<path fill="#50231C" d="M59.998,38.365c-0.089,0.035-0.192,0.003-0.245-0.08l-11.98-19.015c-0.06-0.095-0.031-0.22,0.063-0.279
					c0.093-0.06,0.219-0.031,0.279,0.063l11.98,19.015c0.06,0.095,0.031,0.22-0.063,0.279
					C60.021,38.355,60.009,38.361,59.998,38.365z"/>
			</g>
			<g>
				<path fill="#50231C" d="M61.422,37.809c-0.098,0.038-0.209-0.004-0.256-0.099L50.464,16.094
					c-0.049-0.101-0.009-0.222,0.091-0.271c0.095-0.053,0.222-0.009,0.271,0.092L61.529,37.53c0.049,0.1,0.008,0.222-0.092,0.271
					C61.432,37.804,61.427,37.807,61.422,37.809z"/>
			</g>
			<g>
				<path fill="#50231C" d="M67.117,35.58c-0.02,0.007-0.039,0.012-0.061,0.014c-0.112,0.007-0.208-0.078-0.215-0.189l-1.226-19.269
					c-0.007-0.111,0.077-0.208,0.188-0.215c0.112-0.007,0.208,0.077,0.215,0.189l1.226,19.269
					C67.251,35.469,67.197,35.549,67.117,35.58z"/>
			</g>
			<g>
				<path fill="#50231C" d="M65.693,36.137c-0.012,0.005-0.024,0.009-0.037,0.011c-0.109,0.021-0.216-0.052-0.235-0.162
					L61.316,13.89c-0.021-0.11,0.051-0.216,0.162-0.236c0.109-0.021,0.215,0.053,0.235,0.162l4.104,22.096
					C65.837,36.009,65.782,36.103,65.693,36.137z"/>
			</g>
			<g>
				<path fill="#50231C" d="M64.27,36.694c-0.006,0.002-0.012,0.004-0.017,0.006c-0.107,0.031-0.22-0.03-0.251-0.138l-6.81-23.14
					c-0.032-0.106,0.031-0.222,0.137-0.251c0.107-0.031,0.219,0.03,0.251,0.137l6.809,23.14C64.42,36.55,64.366,36.656,64.27,36.694
					z"/>
			</g>
			<g>
				<path fill="#50231C" d="M62.846,37.251c-0.104,0.041-0.222-0.011-0.263-0.114l-8.964-22.911
					c-0.041-0.104,0.011-0.222,0.115-0.262c0.104-0.041,0.222,0.011,0.262,0.114l8.964,22.911
					C63.001,37.093,62.949,37.211,62.846,37.251z"/>
			</g>
			<g>
				<path fill="#FAB078" d="M58.24,38.746c-0.08,0.031-0.174,0.009-0.23-0.061L45.833,23.701c-0.07-0.087-0.057-0.214,0.029-0.284
					c0.086-0.072,0.214-0.058,0.285,0.029L58.323,38.43c0.07,0.087,0.058,0.215-0.029,0.285
					C58.277,38.729,58.259,38.738,58.24,38.746z"/>
			</g>
			<g>
				<path fill="#FAB078" d="M59.664,38.188c-0.088,0.035-0.192,0.003-0.245-0.08l-11.98-19.015c-0.059-0.095-0.031-0.22,0.063-0.279
					c0.094-0.058,0.22-0.031,0.279,0.063l11.98,19.015c0.059,0.095,0.031,0.22-0.063,0.279
					C59.687,38.179,59.675,38.185,59.664,38.188z"/>
			</g>
			<g>
				<path fill="#FAB078" d="M61.088,37.632c-0.097,0.038-0.208-0.004-0.255-0.099L50.131,15.917
					c-0.05-0.101-0.009-0.222,0.091-0.271c0.096-0.053,0.222-0.009,0.271,0.092l10.702,21.616c0.049,0.1,0.009,0.222-0.092,0.271
					C61.099,37.627,61.093,37.63,61.088,37.632z"/>
			</g>
			<g>
				<path fill="#FAB078" d="M66.783,35.403c-0.019,0.008-0.039,0.012-0.061,0.014c-0.111,0.007-0.208-0.078-0.215-0.189
					l-1.226-19.269c-0.007-0.111,0.077-0.209,0.189-0.215c0.111-0.007,0.208,0.078,0.215,0.189l1.225,19.269
					C66.917,35.292,66.863,35.372,66.783,35.403z"/>
			</g>
			<g>
				<path fill="#FAB078" d="M65.359,35.96c-0.012,0.005-0.024,0.009-0.037,0.011c-0.109,0.021-0.215-0.052-0.235-0.162
					l-4.104-22.096c-0.021-0.109,0.053-0.215,0.162-0.235s0.215,0.052,0.236,0.162l4.104,22.095
					C65.503,35.832,65.448,35.926,65.359,35.96z"/>
			</g>
			<g>
				<path fill="#FAB078" d="M63.936,36.518c-0.006,0.002-0.011,0.004-0.017,0.006c-0.106,0.031-0.22-0.03-0.251-0.138l-6.809-23.139
					c-0.032-0.107,0.032-0.223,0.137-0.252c0.107-0.031,0.22,0.03,0.251,0.138l6.809,23.139
					C64.086,36.373,64.033,36.479,63.936,36.518z"/>
			</g>
			<g>
				<path fill="#FAB078" d="M62.512,37.074c-0.104,0.041-0.222-0.01-0.262-0.114l-8.964-22.911c-0.041-0.104,0.01-0.221,0.115-0.262
					c0.104-0.041,0.221,0.011,0.262,0.114l8.964,22.911C62.667,36.917,62.615,37.034,62.512,37.074z"/>
			</g>
		</g>
	</g>
	<g>
		<path fill="#F1F0F0" d="M54.842,37.263c1.203,0.09,2.379,0.093,3.552,0.06c1.171-0.046,2.336-0.122,3.495-0.271
			c1.157-0.152,2.314-0.322,3.466-0.566l3.488-0.756c-1.032,0.626-2.136,1.139-3.288,1.51c-1.145,0.407-2.344,0.63-3.545,0.805
			c-1.208,0.136-2.43,0.172-3.64,0.057C57.164,37.985,55.953,37.757,54.842,37.263z"/>
	</g>
	<path fill="#FAB078" d="M63.266,42.661c0.699,0.173,1.433,0.153,2.148,0.069c0.655-0.078,1.315-0.213,1.896-0.526
		c0.287-0.154,0.579-0.403,0.572-0.729c-0.007-0.294-0.27-0.529-0.551-0.611c-0.675-0.197-1.502,0.012-2.208-0.063
		c-0.474-0.052-0.995-0.238-1.473-0.188C62.495,40.731,61.84,42.309,63.266,42.661z"/>
	<path fill="#FFE3AF" d="M75.159,38.674c-0.875,0.158-1.815,0.271-2.493,0.845c-0.145,0.123-0.281,0.282-0.289,0.473
		c-0.008,0.194,0.129,0.373,0.3,0.469c0.17,0.096,0.369,0.122,0.563,0.14c1.491,0.132,3.017-0.244,4.289-1.027
		c0.44-0.271,1.528-0.875,1.391-1.501c-0.14-0.633-0.834-0.253-1.217-0.097C76.887,38.308,76.026,38.518,75.159,38.674z"/>
	<path fill="#FFE3AF" d="M42.261,40.896c0.208,0.133,0.47,0.138,0.717,0.138c0.172,0.001,0.345,0.001,0.518,0.001
		c0.309,0,0.688-0.044,0.804-0.329c0.297-0.729-1.139-1.121-1.642-1.079C42.067,39.677,41.673,40.518,42.261,40.896z"/>
	<path fill="#FFE3AF" d="M49.722,41.326c0.642,0.058,1.283,0.115,1.925,0.173c0.988,0.089,1.976,0.178,2.963,0.267
		c0.34,0.03,0.682,0.062,1.022,0.033c0.071-0.006,0.151-0.02,0.191-0.078c0.092-0.136-0.117-0.272-0.278-0.303
		c-1.672-0.316-3.377-0.37-5.074-0.423c-0.867-0.027-1.734-0.053-2.6-0.113c-0.305-0.021-0.995-0.229-1.267-0.118
		c-0.384,0.156-0.111,0.242,0.172,0.298C47.727,41.247,48.759,41.239,49.722,41.326z"/>
	<g>
		<path fill="#F1F0F0" d="M46.372,36.728c-0.003,0.557,0.245,1.057,0.584,1.442c0.323,0.407,0.768,0.697,1.213,0.964
			c0.916,0.513,1.952,0.819,2.994,1.068c0.522,0.129,1.047,0.252,1.584,0.329c0.532,0.108,1.067,0.193,1.608,0.266
			c1.078,0.173,2.167,0.288,3.263,0.482c-1.101,0.098-2.212,0.178-3.321,0.1c-1.109-0.038-2.219-0.19-3.313-0.448
			c-1.084-0.275-2.18-0.633-3.128-1.305c-0.465-0.339-0.91-0.732-1.201-1.247C46.379,37.876,46.196,37.271,46.372,36.728z"/>
	</g>
	<path fill="#FFE3AF" d="M63.519,42.354c0.328,0.119,0.691,0.07,1.034,0.003c0.199-0.039,0.404-0.087,0.56-0.216
		c0.698-0.579-0.858-1.23-1.324-1.223C62.966,40.934,62.683,42.056,63.519,42.354z"/>
	<path fill="#FFE3AF" d="M44.987,47.348c0.486,0.398,0.974,0.798,1.511,1.122c1.494,0.902,3.354,1.177,5.045,0.744
		c0.539-0.138,1.154-0.469,1.161-1.024c-1.699-0.772-3.826,0.129-5.496-0.703c-1.01-0.503-1.625-1.53-2.337-2.406
		c-0.355-0.438-0.792-0.872-1.35-0.954c-0.814-0.119-1.337,0.627-0.859,1.277C43.216,46.158,44.265,46.756,44.987,47.348z"/>
	<path fill="#FFE3AF" d="M71.373,47.284c2.767,0.715,5.638,1.026,8.493,0.922c0.686-0.024,1.457-0.117,1.88-0.657
		c0.072-0.093,0.133-0.207,0.115-0.322c-0.045-0.296-0.469-0.291-0.758-0.218c-1.393,0.354-2.852,0.442-4.277,0.26
		c-1.909-0.246-3.724-0.968-5.606-1.371c-0.431-0.093-2.106-0.263-1.873,0.612C69.501,47.087,70.926,47.168,71.373,47.284z"/>
	<path fill="#FFE3AF" d="M65.768,57.744c0.382-0.088,0.775-0.189,1.083-0.432c0.309-0.242,0.511-0.664,0.382-1.034
		c-0.193-0.555-0.923-0.654-1.511-0.656c-4.881-0.02-9.762,0.083-14.642,0.204c-0.549,0.014-2.031-0.245-1.718,0.591
		c0.237,0.634,1.57,0.924,2.118,1.071c2.189,0.586,4.45,0.912,6.714,0.985C60.735,58.555,63.288,58.313,65.768,57.744z"/>
	<path opacity="0.7" fill="#FFE3AF" d="M42.398,43.374c-0.01,0.123-0.012,0.247,0.014,0.367c0.066,0.304,0.299,0.538,0.521,0.754
		c0.52,0.506,1.126,1.048,1.851,1.021c0.243-0.009,0.477-0.083,0.709-0.154c0.255-0.078,0.513-0.153,0.752-0.271
		c0.875-0.431,1.418-1.47,1.233-2.428C46.878,39.55,42.621,40.654,42.398,43.374z"/>
	<path opacity="0.7" fill="#FFE3AF" d="M45.102,41.824c-0.007,0.082-0.008,0.165,0.01,0.245c0.044,0.203,0.199,0.359,0.348,0.504
		c0.348,0.339,0.753,0.7,1.237,0.683c0.162-0.006,0.319-0.056,0.474-0.104c0.17-0.052,0.342-0.103,0.502-0.182
		c0.585-0.287,0.948-0.982,0.824-1.622C48.096,39.268,45.25,40.006,45.102,41.824z"/>
	<path opacity="0.7" fill="#FFE3AF" d="M28.183,73.854c0.067,0.123,0.143,0.242,0.243,0.34c0.252,0.247,0.62,0.325,0.965,0.392
		c0.81,0.157,1.724,0.293,2.396-0.186c0.225-0.159,0.401-0.376,0.578-0.589c0.194-0.233,0.391-0.466,0.545-0.727
		c0.563-0.956,0.431-2.282-0.343-3.077C30.054,67.424,26.697,71.131,28.183,73.854z"/>
	<path opacity="0.7" fill="#FFE3AF" d="M29.784,70.694c0.045,0.082,0.096,0.162,0.162,0.228c0.168,0.165,0.414,0.217,0.646,0.262
		c0.541,0.104,1.152,0.195,1.602-0.124c0.15-0.106,0.269-0.252,0.386-0.394c0.129-0.156,0.261-0.312,0.364-0.486
		c0.376-0.639,0.288-1.525-0.229-2.057C31.035,66.396,28.791,68.873,29.784,70.694z"/>
	<g>
		<path fill="#F1F0F0" d="M51.231,45.104c1.285,0.205,2.57,0.366,3.857,0.481c1.288,0.11,2.575,0.194,3.864,0.183
			c1.289,0.022,2.573-0.076,3.852-0.219c1.278-0.159,2.535-0.443,3.788-0.804c-1.179,0.555-2.44,0.941-3.729,1.184
			c-1.292,0.225-2.603,0.322-3.912,0.338c-1.309-0.029-2.616-0.107-3.908-0.301C53.753,45.771,52.471,45.511,51.231,45.104z"/>
	</g>
	<path fill="#FFE3AF" d="M29.17,63.979c-0.408,0.646-0.359,1.487-0.123,2.214c0.264,0.809,0.743,1.547,1.376,2.115
		c0.659,0.593,1.523,1.009,2.408,0.954c1.291-0.078,2.375-1.188,2.662-2.448c0.243-1.064-0.037-2.262-0.813-3.028
		C33.631,62.749,30.024,62.629,29.17,63.979z"/>
	<path fill="#FFE3AF" d="M48.975,66.247c-0.856,0.563-1.453,1.638-1.165,2.62c0.2,0.684,0.766,1.186,1.306,1.649
		c0.563,0.483,1.139,0.975,1.827,1.251c0.81,0.325,1.709,0.327,2.58,0.274c2.228-0.136,4.474-0.618,6.405-1.738
		c0.645-0.374,1.328-1,1.167-1.728c-0.145-0.657-0.897-0.972-1.562-1.073c-1.288-0.196-2.604,0.008-3.904-0.083
		C52.974,67.234,51.698,64.461,48.975,66.247z"/>
	<g>
		<path fill="#FFFFFF" d="M41.349,71.764c2.672,0.664,5.376,1.146,8.095,1.479c2.717,0.338,5.451,0.538,8.185,0.525
			c1.367,0.049,2.732-0.031,4.099-0.067c1.36-0.125,2.729-0.194,4.082-0.39c0.678-0.09,1.359-0.161,2.036-0.267l2.019-0.381
			c1.361-0.199,2.668-0.628,4.022-0.9c-2.588,0.93-5.255,1.717-7.995,2.119c-2.728,0.465-5.502,0.643-8.269,0.635
			c-2.766-0.051-5.535-0.242-8.261-0.706C46.637,73.355,43.934,72.725,41.349,71.764z"/>
	</g>
	<g>
		<path fill="#FFFFFF" d="M32.372,60.753c2.619,0.842,5.269,1.527,7.938,2.109c2.674,0.559,5.354,1.081,8.062,1.42
			c2.703,0.365,5.42,0.641,8.148,0.789c2.729,0.19,5.464,0.169,8.218,0.204c-1.362,0.176-2.732,0.346-4.107,0.443
			c-1.376,0.063-2.755,0.143-4.135,0.121c-2.763,0.032-5.521-0.219-8.26-0.567c-2.738-0.368-5.452-0.924-8.111-1.667
			c-1.33-0.37-2.645-0.789-3.948-1.24C34.891,61.869,33.599,61.383,32.372,60.753z"/>
	</g>
	<path fill="#FFE3AF" d="M71.837,66.059c-1.104,0.099-2.336,0.254-3.036,1.114c0.604,0.862,1.922,0.55,2.93,0.245
		c5.446-1.647,11.396-0.234,16.956-1.44c0.532-0.115,1.083-0.268,1.482-0.638c1.188-1.102-0.114-2.183-1.274-1.774
		c-1.658,0.584-3.096,0.933-4.896,1.165C79.954,65.255,75.899,65.697,71.837,66.059z"/>
	<path fill="#FAB078" d="M21.876,76.824c-1.153,1.095-1.431,3.227-0.166,4.189c0.567,0.433,1.311,0.548,2.023,0.595
		c2.175,0.143,4.377-0.221,6.531,0.113c1.96,0.305,3.79,1.174,5.728,1.595c1.232,0.269,2.504,0.353,3.761,0.249
		c0.567-0.047,1.148-0.137,1.634-0.432c0.487-0.295,0.86-0.838,0.805-1.403c-0.079-0.813-0.928-1.296-1.688-1.595
		c-1.601-0.631-3.278-1.07-4.983-1.305c-2.333-0.32-4.915-0.339-6.685-1.89c-0.969-0.85-1.666-1.707-3.04-1.663
		C24.482,75.32,22.83,75.919,21.876,76.824z"/>
	<path fill="#FAB078" d="M59.339,80.86c-1.08-0.01-2.208-0.015-3.175,0.467c-0.967,0.481-1.704,1.614-1.361,2.64
		c0.352,1.055,1.602,1.493,2.707,1.615c3.083,0.34,6.132-0.659,9.163-1.32c3.588-0.784,7.277-1.104,10.946-0.947
		c2.438,0.104,5.254,0.277,6.906-1.519c0.223-0.241,0.424-0.573,0.309-0.881c-0.05-0.134-0.153-0.24-0.263-0.332
		c-0.912-0.775-2.224-0.803-3.42-0.77c-3.335,0.09-6.545,0.681-9.836,0.943C67.361,81.071,63.302,80.896,59.339,80.86z"/>
	<path fill="#FAB078" d="M87.988,76.262c-0.334,0.707-0.439,1.664,0.152,2.175c0.393,0.339,0.973,0.362,1.479,0.249
		c0.285-0.064,0.563-0.168,0.821-0.305c0.838-0.444,1.441-1.221,2.018-1.974c0.077-0.102,0.156-0.206,0.193-0.327
		c0.101-0.336-0.166-0.695-0.496-0.812c-0.631-0.223-1.55,0.16-2.226,0.176C89.118,75.464,88.389,75.412,87.988,76.262z"/>
	<path fill="#FFE3AF" d="M22.635,78.362c-0.097,0.448,0.267,0.891,0.696,1.056c0.429,0.164,0.905,0.124,1.364,0.104
		c1.624-0.074,3.26,0.124,4.819,0.582c1.339,0.395,2.802,0.975,4.067,0.385c0.139-0.222,0.021-0.53-0.188-0.689
		s-0.478-0.206-0.736-0.248c-1.379-0.223-2.759-0.446-4.139-0.67c-0.314-0.051-0.634-0.104-0.92-0.244
		c-0.485-0.239-0.816-0.7-1.215-1.065C25.583,76.84,22.912,77.087,22.635,78.362z"/>
	<path fill="#FFE3AF" d="M36.168,81.737c0.199,0.14,0.446,0.19,0.686,0.238c0.321,0.063,0.642,0.127,0.962,0.19
		c0.319,0.063,0.647,0.127,0.968,0.071c0.32-0.056,0.637-0.257,0.733-0.568c0.042-0.136,0.037-0.29-0.033-0.414
		c-0.269-0.477-2.086-1.39-2.662-1.329C36.009,80.012,35.346,81.158,36.168,81.737z"/>
	<path fill="#FFE3AF" d="M59.358,81.997c-0.836-0.065-1.807-0.08-2.357,0.554c-0.158,0.181-0.268,0.419-0.242,0.658
		c0.063,0.571,0.781,0.78,1.354,0.814c1.384,0.082,2.781-0.062,4.119-0.423c0.413-0.111,0.82-0.244,1.238-0.334
		c1.072-0.231,2.238-0.197,3.181-0.757c0.127-0.075,0.265-0.205,0.218-0.345c-0.016-0.048-0.051-0.086-0.089-0.119
		c-0.813-0.725-2.221,0.265-3.151,0.292C62.23,82.379,60.753,82.107,59.358,81.997z"/>
	<path fill="#FFE3AF" d="M89.444,76.106c-0.571,0.138-1.032,0.65-1.11,1.232c-0.021,0.159-0.011,0.338,0.1,0.454
		c0.099,0.103,0.251,0.131,0.393,0.142c0.379,0.03,0.765-0.021,1.123-0.147c0.309-0.109,0.634-0.331,0.65-0.658
		c0.012-0.231-0.144-0.446-0.34-0.569c-0.196-0.124-0.429-0.175-0.655-0.222L89.444,76.106z"/>
	<path fill="#FFE3AF" d="M22.053,92.621c-0.603,0.274-1.017,1.058-0.673,1.623c0.309,0.508,1,0.578,1.591,0.636
		c3.403,0.328,6.509,1.985,9.694,3.229c3.468,1.354,7.119,2.238,10.822,2.621c1.898,0.196,3.868,0.253,5.658-0.408
		c0.527-0.194,1.115-0.802,0.73-1.21c-0.113-0.12-0.281-0.169-0.44-0.211c-5.768-1.508-12.351-0.487-17.321-3.777
		c-0.879-0.582-1.679-1.285-2.601-1.796c-1.241-0.687-2.323-0.611-3.659-0.59C24.662,92.756,23.179,92.109,22.053,92.621z"/>
	<path fill="#F16374" d="M23.126,94.55c-0.278,0.321-0.28,0.905,0.095,1.106c0.127,0.069,0.276,0.084,0.42,0.099
		c1.285,0.136,2.681,0.452,3.461,1.481c0.215,0.284,0.405,0.637,0.747,0.736c0.41,0.119,0.807-0.18,1.193-0.359
		c1.395-0.648,3.005,0.254,4.543,0.218c0.232-0.005,0.476-0.036,0.666-0.171c0.19-0.134,0.305-0.397,0.206-0.607
		c-0.072-0.153-0.234-0.241-0.388-0.314c-0.977-0.463-2.025-0.744-3.02-1.166c-0.954-0.404-1.757-1.139-2.719-1.496
		C27.132,93.632,23.995,93.547,23.126,94.55z"/>
	<path fill="#FFE3AF" d="M68.35,98.461c-0.998-0.065-2.051-0.163-2.955,0.267s-1.533,1.615-0.997,2.461
		c2.948-0.019,5.896-0.037,8.846-0.056c1.152-0.008,2.316-0.014,3.441,0.236c0.631,0.141,1.247,0.362,1.892,0.425
		c2.945,0.285,5.243-2.691,8.167-3.154c1.463-0.231,2.957,0.192,4.435,0.079c2.954-0.227,5.522-2.886,5.646-5.847
		c0.014-0.339-0.004-0.694-0.166-0.993c-0.304-0.561-1.043-0.761-1.67-0.641c-0.627,0.119-1.173,0.486-1.713,0.827
		C86.13,96.573,76.771,99.01,68.35,98.461z"/>
	<path fill="#F16374" d="M73.902,98.276c-0.512,0.11-1.04,0.233-1.461,0.546c-0.42,0.313-0.706,0.867-0.547,1.366
		c0.155,0.488,0.688,0.775,1.198,0.804c0.512,0.028,1.009-0.149,1.489-0.326c3.531-1.295,7.078-2.678,10.813-3.119
		c1.169-0.139,2.352-0.184,3.501-0.434c1.468-0.32,2.851-0.969,4.113-1.782c0.528-0.34,1.062-0.738,1.309-1.315
		c0.247-0.578,0.086-1.374-0.488-1.627c-0.503-0.221-1.076,0.037-1.559,0.299c-1.438,0.776-2.847,1.627-4.377,2.201
		c-2.017,0.759-4.184,0.567-6.213,1.263C79.098,97.037,76.575,97.704,73.902,98.276z"/>
	<path fill="#F16374" d="M39.665,97.79c-0.436,0.424-0.502,1.233-0.026,1.612c0.166,0.132,0.373,0.199,0.575,0.26
		c5.014,1.517,10.408,0.881,15.598,1.592c3.299,0.452,6.775,1.431,9.854,0.159c0.313-0.129,0.639-0.303,0.778-0.609
		c0.186-0.405-0.037-0.904-0.394-1.171s-0.813-0.354-1.253-0.422c-3.662-0.566-7.407-0.302-11.084-0.76
		c-2.434-0.303-4.819-0.914-7.255-1.204C44.843,97.055,40.951,96.539,39.665,97.79z"/>
</g>
</svg>
