<?xml version="1.0" encoding="utf-8"?>
<!-- Generator: Adobe Illustrator 16.0.0, SVG Export Plug-In . SVG Version: 6.00 Build 0)  -->
<!DOCTYPE svg PUBLIC "-//W3C//DTD SVG 1.1//EN" "http://www.w3.org/Graphics/SVG/1.1/DTD/svg11.dtd">
<svg version="1.1" id="Layer_1" xmlns="http://www.w3.org/2000/svg" xmlns:xlink="http://www.w3.org/1999/xlink" x="0px" y="0px"
	 width="120px" height="160px" viewBox="0 0 120 160" enable-background="new 0 0 120 160" xml:space="preserve">
<g>
	<path fill="#F1F0F0" d="M52.771,31.292c0.41-0.156,0.862,0.016,1.284,0.14c0.925,0.272,1.9,0.311,2.864,0.347
		c3.71,0.14,7.485,0.273,11.074-0.68c0.38-0.101,0.771-0.215,1.161-0.157c0.549,0.081,1.021,0.535,1.126,1.079
		c0.104,0.544-0.167,1.14-0.646,1.419c-0.345,0.2-0.758,0.238-1.155,0.26c-3.774,0.209-7.55-0.555-11.326-0.375
		c-1.542,0.074-3.216,0.459-4.756,0.256c-0.781-0.104-0.823-0.32-0.543-1C52.046,32.11,52.253,31.489,52.771,31.292z"/>
	<g>
		<path fill="#F1F0F0" d="M80.777,84.047c-1.37,0.297-2.745,0.577-4.139,0.727c-1.945,0.21-3.908,0.162-5.864,0.146
			c-4.828-0.041-9.659,0.106-14.469,0.517c-2.805,0.24-5.63,0.568-8.427,0.24c-2.796-0.328-5.616-1.395-7.471-3.512
			c-0.52-0.594-0.968-1.294-1.047-2.078c-0.078-0.785,0.304-1.655,1.039-1.941c0.542-0.211,1.151-0.08,1.714,0.064
			c2.928,0.751,5.808,1.792,8.821,2.039c1.87,0.153,3.749-0.005,5.625-0.006c2.128-0.001,4.257,0.201,6.348,0.601
			c1.425,0.273,2.84,0.639,4.289,0.727c1.307,0.08,2.616-0.07,3.911-0.26c9.552-1.397,18.617-4.984,27.562-8.638
			c-1.49-4.122-5.358-6.133-5.358-6.133S80.254,72.398,61.3,71.96s-35.197-6.152-35.197-6.152s-7.23,2.031-7.433,10.848
			c-0.17,7.485,6.74,11.626,6.74,11.626s12.573,4.761,34.903,5.277c17.027,0.392,31.188-6.165,31.188-6.165s5.703-2.338,7.321-8.26
			c-0.17,0.058-0.339,0.116-0.508,0.171C92.555,81.182,86.698,82.766,80.777,84.047z"/>
		<path fill="#FFE3AF" d="M98.668,72.673c-8.944,3.654-18.01,7.24-27.562,8.638c-1.295,0.189-2.604,0.34-3.911,0.26
			c-1.449-0.088-2.864-0.454-4.289-0.727c-2.091-0.4-4.219-0.602-6.348-0.601c-1.875,0.001-3.755,0.159-5.625,0.006
			c-3.013-0.247-5.893-1.288-8.821-2.039c-0.563-0.145-1.172-0.276-1.714-0.064c-0.734,0.287-1.117,1.157-1.039,1.941
			c0.079,0.784,0.527,1.484,1.047,2.078c1.855,2.117,4.675,3.184,7.471,3.512c2.796,0.328,5.622,0,8.427-0.24
			c4.81-0.41,9.641-0.558,14.469-0.517c1.956,0.017,3.919,0.064,5.864-0.146c1.394-0.149,2.769-0.43,4.139-0.727
			c5.921-1.281,11.777-2.865,17.537-4.741c0.169-0.055,0.338-0.114,0.508-0.171c0.244-0.894,0.4-1.866,0.425-2.929
			C99.277,74.889,99.045,73.716,98.668,72.673z"/>
		<path fill="#FFE3AF" d="M25.405,72.792c-0.942-0.272-1.938-0.481-2.898-0.285s-1.878,0.889-2.065,1.852
			c-0.103,0.531,0.02,1.077,0.143,1.604c0.1,0.43,0.205,0.872,0.46,1.232c0.199,0.281,0.478,0.496,0.758,0.697
			c3.49,2.521,7.84,3.829,12.142,3.65c0.479-0.02,0.973-0.062,1.399-0.281c0.754-0.389,1.134-1.235,1.452-2.022
			c0.389-0.964,0.64-2.297-0.629-2.581c-1.121-0.25-2.123-0.423-3.234-0.872C30.428,74.774,28.005,73.545,25.405,72.792z"/>
		<path fill="#FAB078" d="M30.578,76.376c-1.167-0.508-2.365-0.94-3.562-1.373c-1.2-0.434-2.455-0.874-3.722-0.72
			c-0.467,0.057-0.99,0.256-1.133,0.704c-0.134,0.421,0.136,0.868,0.462,1.167c0.613,0.561,1.429,0.833,2.219,1.091
			c1.99,0.648,3.98,1.297,5.97,1.945c0.766,0.25,4.712,1.278,4.179-0.66c-0.211-0.768-1.159-0.834-1.779-1.043
			C32.309,77.183,31.451,76.756,30.578,76.376z"/>
		<path fill="#FAB078" d="M57.527,82.141c0.136,0.004,0.279,0.01,0.398,0.077c0.261,0.146,0.29,0.54,0.128,0.792
			c-0.162,0.252-0.452,0.389-0.735,0.487c-0.884,0.308-1.834,0.354-2.77,0.382c-3.777,0.117-7.707-0.041-11.08-1.746
			c-0.796-0.402-2.811-2.444-0.738-1.82c1.592,0.479,3.18,0.881,4.825,1.137C50.854,81.962,54.198,82.041,57.527,82.141z"/>
		<path fill="#FAB078" d="M60.649,82.207c-0.161,0.367-0.078,0.817,0.168,1.134c0.246,0.316,0.636,0.503,1.034,0.548
			c0.718,0.081,1.415-0.265,2.136-0.305c0.285-0.016,0.572,0.018,0.846,0.098c0.167,0.049,0.356,0.111,0.505,0.022
			c0.094-0.057,0.146-0.161,0.192-0.261c0.063-0.135,0.124-0.277,0.118-0.428c-0.016-0.403-0.487-0.624-0.89-0.652
			C64.142,82.319,60.918,81.594,60.649,82.207z"/>
		<path fill="#FAB078" d="M92.46,76.922c-3.34,1.401-6.73,2.816-10.324,3.263c-0.681,0.084-1.372,0.135-2.023,0.349
			c-0.652,0.214-1.274,0.618-1.583,1.229c0.227,0.638,1.128,0.616,1.784,0.453c4.985-1.247,9.641-3.701,14.705-4.578
			c0.646-0.112,1.346-0.221,1.812-0.684c0.777-0.775,0.222-1.703-0.76-1.512C94.858,75.68,93.598,76.445,92.46,76.922z"/>
	</g>
	<g>
		<path fill="#FFE3AF" d="M87.402,63.826c-0.474,0.044-0.947,0.087-1.421,0.131c-1.033,0.096-2.198,0.15-2.971-0.542
			c-0.354-0.316-0.576-0.754-0.744-1.199c-0.401-1.059-0.505-2.343,0.176-3.248c0.465-0.618,1.21-0.949,1.935-1.217
			c1.692-0.627,3.447-1.067,5.12-1.747c0.585-0.238,1.182-0.517,1.772-0.735c-1.137-1.774-2.277-2.589-2.277-2.589
			c-34.152,9.85-56.195-1.45-56.195-1.45c-11.456,5.094-6.694,14.578-6.694,14.578S42.346,71.523,61.3,71.96
			s32.01-5.421,32.01-5.421c0.22-1.571,0.243-2.978,0.154-4.26c-0.063,0.04-0.123,0.083-0.188,0.121
			C91.523,63.429,89.426,63.639,87.402,63.826z"/>
		<path fill="#FFE3AF" d="M89.497,56.004c-1.673,0.68-3.428,1.12-5.12,1.747c-0.725,0.269-1.47,0.6-1.935,1.217
			c-0.681,0.905-0.577,2.189-0.176,3.248c0.168,0.444,0.39,0.882,0.744,1.199c0.772,0.692,1.938,0.637,2.971,0.542
			c0.474-0.044,0.947-0.087,1.421-0.131c2.023-0.187,4.121-0.397,5.874-1.425c0.064-0.038,0.125-0.081,0.188-0.121
			c-0.219-3.149-1.198-5.456-2.194-7.011C90.679,55.487,90.082,55.767,89.497,56.004z"/>
		<path opacity="0.6" fill="#FAB078" d="M89.497,56.004c-1.673,0.68-3.428,1.12-5.12,1.747c-0.725,0.269-1.47,0.6-1.935,1.217
			c-0.681,0.905-0.577,2.189-0.176,3.248c0.168,0.444,0.39,0.882,0.744,1.199c0.772,0.692,1.938,0.637,2.971,0.542
			c0.474-0.044,0.947-0.087,1.421-0.131c2.023-0.187,4.121-0.397,5.874-1.425c0.064-0.038,0.125-0.081,0.188-0.121
			c-0.219-3.149-1.198-5.456-2.194-7.011C90.679,55.487,90.082,55.767,89.497,56.004z"/>
	</g>
	<g>
		<path fill="#F1F0F0" d="M79.179,51.936c-1.892,0.381-3.693,1.106-5.54,1.667c-1.419,0.431-2.867,0.766-4.331,1.001
			c-0.521,0.084-1.104,0.143-1.534-0.164c-0.082-0.059-0.16-0.139-0.168-0.239c-0.011-0.149,0.134-0.259,0.266-0.331
			c1.577-0.852,3.499-0.541,5.279-0.755c0.754-0.091,1.491-0.28,2.227-0.472c4.159-1.09,8.285-2.31,12.368-3.657
			c0.299-0.098,0.596-0.199,0.891-0.306c-1.706-9.413-9.277-12.641-12.603-14.096c-3.759-1.645-18.489-3.744-29.07-0.447
			c-4.04,1.351-6.932,3.14-9.009,5.051c0.576,0.327,1.184,0.618,1.853,0.856c1.289,0.458,2.636,0.727,3.979,0.988
			c8.593,1.674,17.492,3.151,26.039,1.255c1.943-0.432,3.865-1.037,5.854-1.14c1.248-0.064,2.592,0.108,3.536,0.927
			c0.944,0.818,1.25,2.444,0.353,3.314c-0.484,0.471-1.186,0.626-1.849,0.758c-5.815,1.16-11.678,2.07-17.537,2.98
			c-2.197,0.341-4.394,0.682-6.591,1.023c-1.723,0.268-3.45,0.536-5.191,0.602c-4.489,0.169-8.98-1.027-12.944-3.14
			c-0.725-0.386-1.426-0.822-2.05-1.354c-0.875,2.845-0.607,4.97-0.607,4.97s22.043,11.299,56.195,1.45
			c0-0.573-0.039-1.11-0.076-1.648c-0.836,0.283-1.749,0.356-2.64,0.396C83.904,51.531,81.507,51.467,79.179,51.936z"/>
		<path fill="#FFE3AF" d="M48.398,50.753c1.742-0.066,3.469-0.334,5.191-0.602c2.197-0.341,4.394-0.682,6.591-1.023
			c5.859-0.91,11.722-1.821,17.537-2.98c0.663-0.132,1.364-0.287,1.849-0.758c0.897-0.87,0.592-2.496-0.353-3.314
			c-0.944-0.819-2.288-0.992-3.536-0.927c-1.988,0.103-3.91,0.708-5.854,1.14c-8.547,1.896-17.446,0.419-26.039-1.255
			c-1.343-0.262-2.69-0.53-3.979-0.988c-0.669-0.238-1.277-0.529-1.853-0.856c-0.825,0.759-1.508,1.537-2.094,2.314
			c0.458,0.119,0.899,0.316,1.221,0.547c1.06,0.759,2.173,1.489,3.429,1.838c1.091,0.304,2.239,0.307,3.371,0.315
			c4.592,0.033,9.183,0.18,13.768,0.44c1.58,0.09,3.225,0.212,4.592,1.01c0.227,0.132,0.463,0.316,0.486,0.577
			c0.035,0.395-0.42,0.634-0.801,0.741c-2.782,0.786-5.744,0.444-8.623,0.708c-0.914,0.083-1.821,0.229-2.733,0.324
			c-3.092,0.323-6.227,0.073-9.28-0.514c-1.239-0.238-2.486-0.538-3.589-1.153c-0.913-0.509-2.563-1.229-3.45-2.212
			c-0.357,0.739-0.64,1.458-0.847,2.134c0.624,0.532,1.326,0.968,2.05,1.354C39.418,49.726,43.91,50.922,48.398,50.753z
			 M66.267,44.468c0.369,0.004,0.889,0.362,1.01,0.62c0.051,0.108,0.052,0.233,0.042,0.352c-0.048,0.587-0.579,1.104-1.168,1.107
			c-0.589,0.002-1.134-0.539-1.106-1.127C65.07,44.831,65.678,44.462,66.267,44.468z"/>
		<path fill="#FAB078" d="M41.29,47.491c3.054,0.586,6.188,0.836,9.28,0.514c0.913-0.095,1.82-0.24,2.733-0.324
			c2.878-0.264,5.84,0.078,8.623-0.708c0.381-0.107,0.836-0.347,0.801-0.741c-0.023-0.261-0.26-0.445-0.486-0.577
			c-1.367-0.798-3.012-0.92-4.592-1.01c-4.584-0.261-9.176-0.408-13.768-0.44c-1.132-0.008-2.28-0.012-3.371-0.315
			c-1.256-0.35-2.369-1.079-3.429-1.838c-0.322-0.231-0.763-0.428-1.221-0.547c-0.667,0.885-1.196,1.768-1.609,2.623
			c0.887,0.983,2.537,1.703,3.45,2.212C38.803,46.953,40.05,47.253,41.29,47.491z"/>
		<path fill="#FAB078" d="M66.15,46.546c0.589-0.002,1.12-0.52,1.168-1.107c0.01-0.119,0.009-0.244-0.042-0.352
			c-0.121-0.257-0.641-0.616-1.01-0.62c-0.589-0.006-1.196,0.363-1.223,0.951C65.017,46.007,65.562,46.548,66.15,46.546z"/>
		<path fill="#FFE3AF" d="M87.745,48.986c-4.083,1.348-8.209,2.567-12.368,3.657c-0.735,0.192-1.473,0.381-2.227,0.472
			c-1.78,0.215-3.702-0.097-5.279,0.755c-0.132,0.071-0.276,0.181-0.266,0.331c0.008,0.1,0.086,0.181,0.168,0.239
			c0.431,0.307,1.013,0.248,1.534,0.164c1.464-0.235,2.912-0.57,4.331-1.001c1.847-0.561,3.648-1.286,5.54-1.667
			c2.328-0.469,4.726-0.405,7.098-0.508c0.891-0.039,1.804-0.112,2.64-0.396c-0.056-0.821-0.146-1.609-0.28-2.352
			C88.341,48.787,88.044,48.888,87.745,48.986z"/>
		<path fill="#FFE3AF" d="M64.986,53.609c-0.275-0.053-0.57-0.082-0.824,0.036c-0.242,0.113-0.416,0.366-0.43,0.634
			c-0.015,0.268,0.134,0.539,0.369,0.667c0.047,0.026,0.098,0.046,0.15,0.061c0.281,0.078,0.577-0.025,0.852-0.126
			c0.212-0.078,0.429-0.156,0.655-0.16c0.111-0.002,0.226,0.015,0.335-0.012c0.205-0.051,0.351-0.275,0.314-0.483
			C66.331,53.786,65.337,53.677,64.986,53.609z"/>
	</g>
	<path fill="#50231C" d="M96.171,83.952c3.905,2.685,6.146,5.833,6.146,9.196c-2.051,0.777-4.18,1.502-6.368,2.162
		c-2.024,0.62-4.108,1.188-6.244,1.697c-2.011,0.49-4.068,0.928-6.172,1.32c-2.005,0.371-4.056,0.698-6.133,0.985
		c-2.012,0.269-4.056,0.503-6.126,0.687c-2.019,0.176-4.063,0.313-6.133,0.404c-2.031,0.085-4.09,0.131-6.166,0.131
		c-2.077,0-4.141-0.046-6.172-0.131c-2.071-0.092-4.115-0.229-6.133-0.404c-2.07-0.184-4.115-0.418-6.126-0.687
		c-2.077-0.287-4.121-0.614-6.133-0.985c-2.103-0.393-4.161-0.83-6.172-1.32c-2.136-0.51-4.22-1.077-6.244-1.697
		c-2.194-0.66-4.317-1.385-6.368-2.162c0-3.201,2.038-6.211,5.604-8.811c1.907,2.579,4.18,3.944,4.18,3.944
		s12.573,4.761,34.903,5.277c17.027,0.392,31.188-6.165,31.188-6.165S94.009,86.369,96.171,83.952z"/>
	<g>
		<path fill="#FAB078" d="M66.307,67.939l6.582-0.46c1.084-0.096,2.163-0.175,3.236-0.306c0.534-0.074,1.073-0.11,1.607-0.176
			l1.595-0.237c0.535-0.057,1.057-0.174,1.587-0.258c0.531-0.079,1.054-0.194,1.572-0.316c0.52-0.119,1.055-0.198,1.565-0.348
			c0.509-0.153,1.025-0.289,1.547-0.418c2.042-0.635,4.019-1.433,5.995-2.503c-1.444,1.718-3.385,3.017-5.449,3.965
			c-2.077,0.941-4.296,1.482-6.519,1.856c-2.232,0.329-4.484,0.42-6.719,0.297C70.676,68.908,68.449,68.609,66.307,67.939z"/>
	</g>
	<g>
		<path fill="#FAB078" d="M76.479,62.307c1.315-0.161,2.602-0.379,3.878-0.603c1.274-0.242,2.535-0.514,3.772-0.862
			c1.248-0.319,2.449-0.771,3.645-1.245c1.192-0.491,2.33-1.096,3.487-1.753c-0.909,0.958-1.961,1.823-3.146,2.455
			c-1.176,0.642-2.427,1.157-3.72,1.506C81.815,62.492,79.104,62.747,76.479,62.307z"/>
	</g>
	<g>
		<path fill="#FAB078" d="M45.019,66.441l6.257,0.678l3.097,0.316c1.042,0.116,2.089,0.208,3.176,0.425
			c-1.025,0.405-2.095,0.642-3.174,0.746c-1.081,0.135-2.171,0.103-3.253,0.005c-1.081-0.117-2.154-0.334-3.187-0.685
			C46.903,67.581,45.889,67.132,45.019,66.441z"/>
	</g>
	<g>
		<g>
			<path fill="#F16374" d="M102.316,93.148l-7.038,38.734c-0.269,1.477-1.237,2.736-2.607,3.35c-1.016,0.455-2.06,0.889-3.13,1.303
				l6.407-41.225C98.137,94.65,100.266,93.926,102.316,93.148z"/>
			<path fill="#F16374" d="M89.704,97.008l-5.349,41.311c-1.652,0.497-3.351,0.947-5.102,1.353l4.278-41.343
				C85.636,97.936,87.693,97.498,89.704,97.008z"/>
			<path fill="#F16374" d="M77.399,99.313l-3.207,41.356c-1.652,0.274-3.337,0.51-5.055,0.692L71.273,100
				C73.344,99.816,75.388,99.582,77.399,99.313z"/>
			<path fill="#F16374" d="M64.076,141.768c-1.68,0.092-3.384,0.137-5.102,0.137v-41.369c2.076,0,4.135-0.046,6.166-0.131
				L64.076,141.768z"/>
			<path fill="#F16374" d="M52.803,100.404l1.064,41.363c-1.711-0.092-3.396-0.223-5.062-0.405L46.669,100
				C48.688,100.176,50.732,100.313,52.803,100.404z"/>
			<path fill="#F16374" d="M40.543,99.313l3.207,41.356c-1.724-0.287-3.416-0.62-5.062-0.999L34.41,98.328
				C36.422,98.699,38.466,99.026,40.543,99.313z"/>
			<path fill="#F16374" d="M28.238,97.008l5.349,41.311c-1.79-0.541-3.521-1.136-5.186-1.775v-0.008l-6.407-41.225
				C24.019,95.931,26.103,96.498,28.238,97.008z"/>
			<path fill="#DB1F2E" d="M95.948,95.311l-6.407,41.225v0.008c-1.665,0.64-3.396,1.234-5.186,1.775l5.349-41.311
				C91.84,96.498,93.924,95.931,95.948,95.311z"/>
			<path fill="#DB1F2E" d="M83.532,98.328l-4.278,41.343c-1.646,0.379-3.337,0.712-5.062,0.999l3.207-41.356
				C79.477,99.026,81.527,98.699,83.532,98.328z"/>
			<path fill="#DB1F2E" d="M71.273,100l-2.136,41.362c-1.666,0.183-3.351,0.313-5.062,0.405l1.064-41.363
				C67.211,100.313,69.255,100.176,71.273,100z"/>
			<path fill="#DB1F2E" d="M58.975,100.535v41.369c-1.724,0-3.422-0.045-5.107-0.137l-1.064-41.363
				C54.833,100.489,56.897,100.535,58.975,100.535z"/>
			<path fill="#DB1F2E" d="M46.669,100l2.136,41.362c-1.711-0.183-3.403-0.418-5.055-0.692l-3.207-41.356
				C42.555,99.582,44.599,99.816,46.669,100z"/>
			<path fill="#DB1F2E" d="M34.41,98.328l4.278,41.343c-1.75-0.405-3.448-0.855-5.101-1.353l-5.349-41.311
				C30.25,97.498,32.307,97.936,34.41,98.328z"/>
			<path fill="#DB1F2E" d="M21.994,95.311l6.407,41.225c-1.071-0.41-2.117-0.846-3.134-1.303c-1.367-0.614-2.335-1.873-2.603-3.348
				l-7.039-38.736C17.677,93.926,19.8,94.65,21.994,95.311z"/>
			<path fill="#F16374" d="M95.948,95.311c-2.024,0.619-4.108,1.188-6.244,1.697c-2.011,0.49-4.068,0.928-6.172,1.32
				c-2.005,0.371-4.056,0.698-6.133,0.985c-0.397,0.054-0.803,0.099-1.203,0.148c0.136,1.242,0.176,2.499,0.149,3.745
				c-0.285,13.671-7.959,26.885-19.497,34.223c-2.52,1.603-5.213,2.904-8.007,3.936c1.654,0.182,3.327,0.312,5.026,0.402
				c1.685,0.092,3.383,0.137,5.107,0.137c1.718,0,3.422-0.045,5.102-0.137c1.711-0.092,3.396-0.223,5.062-0.405
				c1.718-0.183,3.402-0.418,5.055-0.692c1.725-0.287,3.416-0.62,5.062-0.999c1.751-0.405,3.449-0.855,5.102-1.353
				c1.789-0.541,3.521-1.136,5.186-1.775v-0.008c1.07-0.414,2.114-0.848,3.13-1.303c1.37-0.613,2.339-1.873,2.607-3.35l7.038-38.734
				C100.266,93.926,98.137,94.65,95.948,95.311z"/>
			<path opacity="0.4" fill="#F16374" d="M76.196,99.462c-1.624,0.204-3.263,0.391-4.923,0.538
				c-2.019,0.176-4.063,0.313-6.133,0.404c-2.031,0.085-4.09,0.131-6.166,0.131c-2.077,0-4.141-0.046-6.172-0.131
				c-1.275-0.057-2.536-0.135-3.791-0.225c-1.19,2.852-2.746,5.469-4.158,7.381c-2.606,3.531-5.855,6.585-9.461,9.077
				c-4.293,2.967-9.246,5.205-14.354,6.294l1.626,8.953c0.268,1.475,1.236,2.733,2.604,3.348c1.017,0.457,2.062,0.893,3.133,1.303
				v0.008c1.666,0.64,3.396,1.234,5.186,1.775c1.652,0.497,3.351,0.947,5.101,1.353c1.646,0.379,3.337,0.712,5.062,0.999
				c1.652,0.274,3.344,0.51,5.055,0.692c0.012,0.001,0.024,0.003,0.036,0.003c2.794-1.031,5.487-2.333,8.007-3.936
				c11.538-7.338,19.212-20.552,19.497-34.223C76.372,101.961,76.332,100.704,76.196,99.462z"/>
		</g>
		<g>
			<polygon fill="#FFFFFF" points="22.522,95.471 28.065,134.451 21.46,95.147 			"/>
		</g>
		<g>
			<polygon fill="#FFFFFF" points="28.756,97.133 33.356,136.535 27.715,96.882 			"/>
		</g>
		<g>
			<polygon fill="#FFFFFF" points="34.879,98.413 38.541,137.944 33.848,98.221 			"/>
		</g>
		<g>
			<polygon fill="#FFFFFF" points="41.015,99.376 43.618,139.129 39.989,99.236 			"/>
		</g>
		<g>
			<polygon fill="#FFFFFF" points="47.196,100.045 48.696,139.671 46.173,99.955 			"/>
		</g>
		<g>
			<polygon fill="#FFFFFF" points="53.201,100.42 53.825,140.121 52.178,100.375 			"/>
		</g>
		<g>
			<polygon fill="#FFFFFF" points="59.475,100.535 58.975,140.28 58.451,100.535 			"/>
		</g>
		<g opacity="0.5">
			<polygon fill="#FFFFFF" points="95.428,95.471 89.884,134.451 96.489,95.147 			"/>
		</g>
		<g opacity="0.5">
			<polygon fill="#FFFFFF" points="89.193,97.133 84.593,136.535 90.234,96.882 			"/>
		</g>
		<g opacity="0.5">
			<polygon fill="#FFFFFF" points="83.07,98.413 79.433,137.944 84.102,98.221 			"/>
		</g>
		<g opacity="0.5">
			<polygon fill="#FFFFFF" points="76.935,99.376 74.313,139.129 77.961,99.236 			"/>
		</g>
		<g opacity="0.7">
			<polygon fill="#FFFFFF" points="70.753,100.045 69.225,139.671 71.776,99.955 			"/>
		</g>
		<g opacity="0.7">
			<polygon fill="#FFFFFF" points="64.748,100.42 64.125,140.121 65.771,100.375 			"/>
		</g>
		<path fill="#50231C" d="M101.648,96.824c-0.671-0.207-2.122-0.511-2.67-0.07c-0.447,0.359-0.561,0.979-0.751,1.52
			s-0.612,1.118-1.184,1.07c-0.767-0.063-1.12-0.97-1.889-0.978c-0.491-0.005-1.017-0.001-1.424,0.272
			c-0.348,0.233-0.552,0.625-0.848,0.922c-0.518,0.52-1.294,0.712-2.026,0.67c-0.731-0.041-1.435-0.29-2.121-0.549
			c-0.29-0.108-0.59-0.222-0.9-0.213c-1.081,0.031-1.656,1.432-2.713,1.664c-0.361,0.08-0.737,0.01-1.101-0.06
			c-0.949-0.183-1.897-0.364-2.847-0.546c-0.44-0.086-0.941-0.157-1.301,0.112c-0.233,0.175-0.354,0.459-0.537,0.685
			c-0.707,0.871-2.072,0.672-3.141,0.328c-1.068-0.345-2.335-0.723-3.227-0.041c-0.573,0.439-0.857,1.25-1.539,1.491
			c-0.668,0.237-1.378-0.193-1.926-0.644c-0.547-0.45-0.999-0.744-1.708-0.717c-1.26,1.189-2.941,2.473-4.551,1.832
			c-0.847-0.338-1.503-1.177-2.412-1.219c-0.84-0.039-1.526,0.616-2.268,1.012c-1.488,0.795-3.485,0.483-4.659-0.727
			c-0.166-0.171-0.327-0.363-0.553-0.436c-0.264-0.083-0.548,0.021-0.804,0.129c-1.006,0.421-2.082,0.919-3.143,0.664
			c-1.183-0.283-2.084-1.458-3.3-1.461c-1.105-0.002-2.069,0.992-3.166,0.852c-0.445-0.059-0.842-0.299-1.224-0.533
			c-0.493-0.303-0.985-0.605-1.478-0.908c-0.312-0.192-0.697-0.389-1.024-0.225c-0.189,0.095-0.305,0.289-0.468,0.424
			c-0.481,0.396-1.216,0.176-1.735-0.17c-0.519-0.348-1.001-0.815-1.62-0.898c-1.008-0.137-1.947,0.809-2.947,0.619
			c-1.162-0.221-1.738-1.852-2.92-1.867c-0.369-0.004-0.719,0.161-1.086,0.193c-1.514,0.133-2.675-1.939-4.145-1.554
			c-0.325,0.085-0.609,0.288-0.932,0.384c-0.582,0.173-1.259-0.052-1.623-0.537c-0.233-0.313-0.409-0.76-0.796-0.799
			c-0.447-0.047-0.72,0.496-1.138,0.661c-1.059,0.418-1.66-1.647-2.797-1.603c-0.269,0.01-0.518,0.146-0.785,0.181l-0.111,0.069
			l-0.447-2.063c0,0,17.202,7.262,42.418,7.262c28.731,0,44.147-7.403,44.147-7.403L101.648,96.824z"/>
		<path fill="#FAB078" d="M102.296,92.85c0.648,0.288,1.246,0.846,1.402,1.538s-0.164,1.501-0.812,1.792
			c-0.641,0.289-1.381,0.041-2.052-0.166c-0.672-0.207-1.472-0.35-2.02,0.092c-0.447,0.359-0.562,0.978-0.752,1.52
			c-0.19,0.541-0.611,1.117-1.184,1.07c-0.766-0.064-1.119-0.97-1.888-0.979c-0.491-0.005-1.017,0-1.425,0.273
			c-0.348,0.233-0.551,0.625-0.847,0.922c-0.518,0.519-1.295,0.711-2.026,0.67c-0.732-0.041-1.435-0.291-2.121-0.549
			c-0.291-0.109-0.59-0.223-0.9-0.213c-1.082,0.03-1.656,1.432-2.713,1.664c-0.361,0.08-0.737,0.01-1.101-0.061
			c-0.949-0.182-1.897-0.363-2.847-0.546c-0.441-0.085-0.942-0.157-1.302,0.112c-0.232,0.176-0.353,0.459-0.536,0.686
			c-0.707,0.871-2.072,0.671-3.141,0.327c-1.068-0.345-2.336-0.722-3.227-0.04c-0.574,0.439-0.858,1.25-1.539,1.49
			c-0.668,0.238-1.378-0.192-1.926-0.643c-0.548-0.451-1-0.744-1.708-0.718c-1.26,1.19-2.941,2.473-4.551,1.832
			c-0.847-0.337-1.503-1.177-2.413-1.218c-0.84-0.039-1.525,0.615-2.267,1.012c-1.488,0.795-3.485,0.482-4.66-0.728
			c-0.165-0.171-0.327-0.363-0.553-0.435c-0.265-0.084-0.548,0.021-0.804,0.128c-1.006,0.421-2.083,0.919-3.143,0.665
			c-1.183-0.283-2.083-1.459-3.3-1.461c-1.105-0.002-2.069,0.991-3.165,0.851c-0.445-0.058-0.842-0.298-1.225-0.532
			c-0.493-0.303-0.985-0.606-1.478-0.909c-0.312-0.192-0.698-0.389-1.025-0.224c-0.189,0.094-0.305,0.289-0.468,0.424
			c-0.481,0.396-1.216,0.176-1.735-0.171c-0.519-0.347-1.001-0.815-1.619-0.898c-1.009-0.136-1.948,0.81-2.947,0.62
			c-1.162-0.222-1.739-1.852-2.921-1.867c-0.369-0.004-0.719,0.16-1.086,0.193c-1.513,0.132-2.675-1.939-4.145-1.555
			c-0.325,0.086-0.609,0.289-0.932,0.385c-0.581,0.172-1.259-0.053-1.622-0.537c-0.233-0.313-0.409-0.76-0.796-0.8
			c-0.448-0.046-0.72,0.497-1.139,0.661c-1.058,0.418-1.66-1.646-2.796-1.602c-0.269,0.01-0.519,0.146-0.785,0.18
			c-0.493,0.063-1.006-0.277-1.14-0.756c-0.134-0.479,0.252-1.001,0.706-1.203c0,0,18.9,7.227,42.294,7.227
			C86.65,100.375,102.296,92.85,102.296,92.85z"/>
		<g>
			<g>
				<path fill="#FFFFFF" d="M15.566,94.698c-0.219-0.088-0.369-0.313-0.368-0.581c0.018-0.129,0.068-0.262,0.163-0.344
					c0.087-0.089,0.202-0.131,0.315-0.152c-0.123,0.201-0.235,0.348-0.229,0.512C15.423,94.298,15.501,94.477,15.566,94.698z"/>
			</g>
			<g>
				<path fill="#FFFFFF" d="M18.49,95.311c0.177,0.174,0.292,0.356,0.444,0.502c0.137,0.165,0.284,0.273,0.508,0.383
					c-0.115,0.043-0.252,0.045-0.375,0c-0.124-0.043-0.223-0.129-0.316-0.213C18.593,95.789,18.478,95.563,18.49,95.311z"/>
			</g>
			<g>
				<path fill="#FFFFFF" d="M21.656,96.08c0.144,0.216,0.269,0.39,0.449,0.504c0.167,0.133,0.377,0.194,0.618,0.298
					c-0.122,0.043-0.253,0.067-0.386,0.048c-0.134-0.012-0.259-0.073-0.378-0.143C21.742,96.618,21.596,96.344,21.656,96.08z"/>
			</g>
			<g>
				<path fill="#FFFFFF" d="M26.183,97.226c0.638,0.264,1.156,0.583,1.805,0.777c-0.342,0.101-0.7-0.005-1.012-0.138
					C26.673,97.705,26.383,97.514,26.183,97.226z"/>
			</g>
			<g>
				<path fill="#FFFFFF" d="M31.126,98.48c0.458,0.5,0.838,0.951,1.491,1.139c-0.165,0.039-0.348,0.045-0.518-0.009
					c-0.17-0.052-0.322-0.147-0.462-0.253C31.384,99.117,31.18,98.824,31.126,98.48z"/>
			</g>
			<g>
				<path fill="#FFFFFF" d="M36.632,99.619c0.442,0.328,0.757,0.617,1.265,0.805c-0.13,0.041-0.276,0.055-0.414,0.022
					c-0.138-0.029-0.266-0.095-0.384-0.167C36.881,100.108,36.691,99.895,36.632,99.619z"/>
			</g>
			<g>
				<path fill="#FFFFFF" d="M41.301,100.424c0.577,0.439,1.078,0.832,1.775,1.021c-0.176,0.04-0.368,0.05-0.55,0.007
					c-0.182-0.041-0.354-0.12-0.514-0.211C41.708,101.031,41.437,100.769,41.301,100.424z"/>
			</g>
			<g>
				<path fill="#FFFFFF" d="M47.696,100.836c0.727,0.498,1.38,0.995,2.237,1.192c-0.217,0.041-0.448,0.036-0.668-0.017
					c-0.22-0.053-0.425-0.148-0.625-0.252C48.265,101.52,47.917,101.227,47.696,100.836z"/>
			</g>
			<g>
				<path fill="#FFFFFF" d="M54.262,101.59c0.352,0.289,0.68,0.572,1.056,0.783c0.363,0.235,0.763,0.372,1.206,0.482
					c-0.223,0.037-0.461,0.047-0.688-0.01c-0.227-0.051-0.444-0.145-0.646-0.258C54.801,102.336,54.454,102.01,54.262,101.59z"/>
			</g>
			<g>
				<path fill="#FFFFFF" d="M61.994,101.761c0.38,0.155,0.712,0.365,1.064,0.538c0.167,0.102,0.343,0.184,0.518,0.268
					c0.175,0.08,0.35,0.167,0.549,0.215c-0.416,0.089-0.827-0.09-1.186-0.263C62.589,102.313,62.253,102.083,61.994,101.761z"/>
			</g>
			<g>
				<path fill="#FFFFFF" d="M69.314,101.129c0.559,0.448,1.037,0.855,1.726,1.045c-0.174,0.041-0.364,0.048-0.544,0.002
					c-0.18-0.043-0.347-0.125-0.504-0.219C69.697,101.742,69.437,101.474,69.314,101.129z"/>
			</g>
			<g>
				<path fill="#FFFFFF" d="M75.579,100.398c0.881,0.291,1.709,0.512,2.635,0.486c-0.213,0.091-0.444,0.158-0.681,0.168
					c-0.235,0.017-0.473-0.008-0.704-0.049C76.374,100.895,75.927,100.717,75.579,100.398z"/>
			</g>
			<g>
				<path fill="#FFFFFF" d="M81.983,99.742c0.515,0.035,1.006,0.139,1.503,0.205c0.246,0.049,0.493,0.077,0.74,0.111
					c0.246,0.027,0.493,0.06,0.747,0.024c-0.476,0.248-1.028,0.165-1.526,0.11C82.943,100.096,82.445,99.977,81.983,99.742z"/>
			</g>
			<g>
				<path fill="#FFFFFF" d="M88.816,98.652c0.425,0.174,0.83,0.336,1.26,0.42c0.424,0.115,0.857,0.131,1.317,0.159
					c-0.215,0.079-0.444,0.14-0.678,0.146c-0.232,0.016-0.466-0.018-0.695-0.061C89.57,99.199,89.129,99,88.816,98.652z"/>
			</g>
			<g>
				<path fill="#FFFFFF" d="M95.948,97.529c0.199,0.188,0.34,0.389,0.525,0.531c0.17,0.164,0.357,0.244,0.635,0.268
					c-0.11,0.078-0.256,0.127-0.406,0.105c-0.148-0.02-0.277-0.1-0.392-0.184C96.105,98.053,95.963,97.808,95.948,97.529z"/>
			</g>
			<g>
				<path fill="#FFFFFF" d="M100.707,95.311c0.649,0.436,1.337,0.507,2.115,0.492c-0.174,0.088-0.361,0.156-0.559,0.182
					c-0.196,0.032-0.397,0.014-0.598-0.013C101.28,95.877,100.89,95.67,100.707,95.311z"/>
			</g>
		</g>
	</g>
	<path fill="#3A9866" d="M62.567,27.889c0,0,8.764-6.017,10.377-10.987c0.099-0.303,0.474-0.395,0.703-0.172l1.089,1.056
		c0.163,0.158,0.181,0.41,0.034,0.583c-1.233,1.459-4.672,4.896-11.673,9.874L62.567,27.889z"/>
	<g>
		<path fill="#FFE3AF" d="M56.753,34.19c-0.703,0.118-1.362,0.159-1.975,0.327c-0.609,0.149-1.184,0.36-1.619,0.719
			c-0.454,0.333-0.761,0.815-0.892,1.36c-0.131,0.551-0.051,1.167,0.41,1.715c-0.708-0.172-1.226-0.993-1.187-1.787
			c-0.011-0.807,0.422-1.594,1.053-2.077c0.635-0.489,1.408-0.698,2.135-0.703C55.412,33.712,56.115,33.9,56.753,34.19z"/>
	</g>
	<g>
		<g>
			<circle fill="#DB1F2E" cx="60.875" cy="30.368" r="7.944"/>
			<linearGradient id="SVGID_1_" gradientUnits="userSpaceOnUse" x1="57.9351" y1="27.2632" x2="69.6448" y2="39.6287">
				<stop  offset="0" style="stop-color:#62353A;stop-opacity:0"/>
				<stop  offset="1" style="stop-color:#62353A"/>
			</linearGradient>
			<circle opacity="0.8" fill="url(#SVGID_1_)" cx="60.875" cy="30.368" r="7.944"/>
		</g>
		
			<ellipse transform="matrix(0.823 -0.568 0.568 0.823 -4.4377 37.4996)" fill="#F16374" cx="57.964" cy="25.872" rx="2.58" ry="1.8"/>
		
			<ellipse transform="matrix(0.8231 -0.5679 0.5679 0.8231 -4.1823 37.1704)" opacity="0.75" fill="#FFE3AF" cx="57.567" cy="25.298" rx="1.414" ry="0.987"/>
	</g>
	<path fill="#F1F0F0" d="M56.272,36.11c0.933-0.273,1.894,0.212,2.812,0.529c1.247,0.43,2.574,0.556,3.888,0.679
		c0.57,0.053,1.146,0.106,1.714,0.046c0.207-0.021,0.417-0.059,0.623-0.026c0.205,0.032,0.413,0.15,0.483,0.347
		c0.082,0.228-0.051,0.49-0.25,0.629c-0.199,0.138-0.448,0.18-0.689,0.208c-1.621,0.188-3.257-0.081-4.888-0.134
		c-0.905-0.029-1.814,0.008-2.716-0.07c-0.546-0.048-2.096-0.128-2.311-0.759C54.719,36.919,55.789,36.251,56.272,36.11z"/>
	<g>
		<path fill="#FFE3AF" d="M54.11,37.571c2.223,0.28,4.378,0.519,6.545,0.548c1.083,0.041,2.161-0.022,3.241-0.101
			c1.088-0.074,2.151-0.276,3.269-0.447c-0.97,0.561-2.038,0.993-3.149,1.219c-1.107,0.243-2.246,0.353-3.377,0.329
			c-1.131-0.032-2.259-0.154-3.358-0.41C56.184,38.457,55.104,38.107,54.11,37.571z"/>
	</g>
	<g>
		<g opacity="0.4">
			<g>
				<g>
					<path fill="#299C9D" d="M75.574,40.598c0.417,0.816,0.979,1.563,1.639,2.198c0.479,0.46,1.263,0.476,1.738,0
						c0.464-0.464,0.48-1.276,0-1.738c-0.563-0.542-0.887-0.98-1.255-1.701c-0.302-0.591-1.132-0.762-1.681-0.441
						C75.415,39.268,75.271,40.005,75.574,40.598L75.574,40.598z"/>
				</g>
				<g>
					<g>
						<path fill="#299C9D" d="M45.579,42.943c-0.818,0.302-1.719,0.509-2.587,0.594c-0.66,0.064-1.245,0.466-1.267,1.19
							c-0.018,0.598,0.526,1.332,1.19,1.267c1.323-0.129,2.556-0.411,3.803-0.872c0.623-0.23,0.799-1.124,0.52-1.659
							C46.897,42.812,46.204,42.712,45.579,42.943L45.579,42.943z"/>
					</g>
				</g>
				<g>
					<path fill="#299C9D" d="M49.636,51.345c0.339,0.793,0.917,1.423,1.621,1.909c0.41,0.283,1.023,0.076,1.261-0.331
						c0.268-0.458,0.081-0.978-0.331-1.261c-0.452-0.312-0.746-0.749-0.959-1.248c-0.195-0.458-0.87-0.56-1.261-0.331
						C49.493,50.361,49.44,50.886,49.636,51.345L49.636,51.345z"/>
				</g>
				<g>
					<g>
						<path fill="#299C9D" d="M57.456,47.837c0.336,0.814,0.481,1.529,0.49,2.417c0.006,0.664,0.69,1.179,1.32,1.13
							c0.7-0.054,1.137-0.655,1.13-1.32c-0.009-1.035-0.222-2.076-0.618-3.032c-0.253-0.613-0.912-0.985-1.564-0.759
							C57.614,46.48,57.201,47.221,57.456,47.837L57.456,47.837z"/>
					</g>
				</g>
				<g>
					<g>
						<path fill="#299C9D" d="M69.417,47.704c0.406-0.875,0.896-1.699,1.47-2.475c0.297-0.4,0.065-1.029-0.331-1.261
							c-0.469-0.274-0.964-0.07-1.261,0.331c-0.574,0.775-1.064,1.599-1.47,2.475c-0.21,0.451-0.128,0.993,0.33,1.261
							C68.554,48.268,69.206,48.158,69.417,47.704L69.417,47.704z"/>
					</g>
				</g>
				<g>
					<path fill="#299C9D" d="M72.662,51.494c0.513,0.842,1.207,1.535,2.051,2.044c0.568,0.343,1.35,0.126,1.682-0.441
						c0.34-0.582,0.129-1.338-0.441-1.681c-0.507-0.307-0.876-0.682-1.168-1.163c-0.345-0.566-1.102-0.78-1.682-0.441
						C72.536,50.143,72.316,50.924,72.662,51.494L72.662,51.494z"/>
				</g>
				<g>
					<g>
						<path fill="#299C9D" d="M83.927,50.034c0.861-0.8,1.476-1.786,1.862-2.892c0.393-1.123-1.388-1.605-1.777-0.49
							c-0.282,0.809-0.764,1.498-1.389,2.079C81.753,49.54,83.059,50.841,83.927,50.034L83.927,50.034z"/>
					</g>
				</g>
				<g>
					<path fill="#299C9D" d="M38.798,48.942c-0.293-0.243-0.586-0.485-0.88-0.728c-0.383-0.317-0.928-0.375-1.303,0
						c-0.327,0.327-0.385,0.985,0,1.304c0.293,0.243,0.586,0.485,0.879,0.728c0.383,0.317,0.928,0.375,1.304,0
						C39.125,49.919,39.183,49.261,38.798,48.942L38.798,48.942z"/>
				</g>
				<g>
					<path fill="#299C9D" d="M47.579,40.161c0.836-0.24,1.582-0.674,2.206-1.28c0.852-0.829-0.453-2.132-1.304-1.304
						c-0.399,0.388-0.857,0.653-1.392,0.806C45.951,38.71,46.435,40.489,47.579,40.161L47.579,40.161z"/>
				</g>
			</g>
		</g>
		<g>
			<g>
				<path fill="#F16374" d="M75.023,40.152c0.417,0.816,0.979,1.563,1.64,2.198c0.479,0.46,1.263,0.476,1.738,0
					c0.464-0.464,0.479-1.276,0-1.738c-0.563-0.542-0.887-0.98-1.255-1.701c-0.302-0.591-1.132-0.762-1.682-0.441
					C74.864,38.822,74.721,39.559,75.023,40.152L75.023,40.152z"/>
			</g>
			<g>
				<path fill="#299C9D" d="M45.029,42.498c-0.818,0.302-1.719,0.509-2.587,0.594c-0.66,0.064-1.245,0.467-1.267,1.19
					c-0.019,0.598,0.525,1.332,1.19,1.267c1.323-0.129,2.555-0.412,3.802-0.873c0.624-0.23,0.8-1.124,0.52-1.659
					C46.347,42.366,45.653,42.267,45.029,42.498L45.029,42.498z"/>
			</g>
			<g>
				<path fill="#F16374" d="M49.086,50.9c0.338,0.792,0.917,1.423,1.621,1.909c0.41,0.283,1.023,0.076,1.261-0.331
					c0.268-0.458,0.08-0.978-0.331-1.261c-0.452-0.312-0.747-0.749-0.959-1.248c-0.195-0.458-0.87-0.56-1.261-0.331
					C48.943,49.916,48.89,50.44,49.086,50.9L49.086,50.9z"/>
			</g>
			<g>
				<path fill="#299C9D" d="M56.905,47.391c0.336,0.814,0.481,1.529,0.49,2.417c0.006,0.664,0.69,1.179,1.32,1.13
					c0.7-0.054,1.136-0.654,1.13-1.32c-0.01-1.035-0.223-2.075-0.618-3.032c-0.253-0.613-0.912-0.985-1.564-0.759
					C57.064,46.035,56.651,46.775,56.905,47.391L56.905,47.391z"/>
			</g>
			<g>
				<path fill="#299C9D" d="M68.866,47.259c0.406-0.875,0.896-1.699,1.47-2.475c0.297-0.4,0.066-1.029-0.33-1.261
					c-0.47-0.274-0.964-0.071-1.262,0.331c-0.574,0.775-1.063,1.599-1.47,2.475c-0.209,0.451-0.127,0.993,0.331,1.261
					C68.004,47.822,68.656,47.712,68.866,47.259L68.866,47.259z"/>
			</g>
			<g>
				<path fill="#F16374" d="M72.112,51.048c0.512,0.842,1.206,1.535,2.05,2.044c0.569,0.342,1.351,0.126,1.682-0.441
					c0.341-0.581,0.13-1.337-0.44-1.681c-0.508-0.306-0.876-0.682-1.169-1.163c-0.345-0.566-1.102-0.78-1.682-0.441
					C71.986,49.698,71.766,50.479,72.112,51.048L72.112,51.048z"/>
			</g>
			<g>
				<path fill="#299C9D" d="M83.377,49.588c0.86-0.8,1.476-1.786,1.862-2.893c0.392-1.122-1.389-1.604-1.778-0.49
					c-0.282,0.809-0.763,1.498-1.388,2.079C81.202,49.094,82.508,50.396,83.377,49.588L83.377,49.588z"/>
			</g>
			<g>
				<path fill="#F16374" d="M38.248,48.496c-0.293-0.243-0.586-0.485-0.88-0.728c-0.383-0.317-0.928-0.375-1.303,0
					c-0.327,0.327-0.386,0.985,0,1.304c0.293,0.243,0.586,0.485,0.879,0.728c0.383,0.317,0.928,0.375,1.304,0
					C38.574,49.473,38.633,48.815,38.248,48.496L38.248,48.496z"/>
			</g>
			<g>
				<path fill="#F16374" d="M47.029,39.715c0.836-0.24,1.582-0.673,2.205-1.28c0.852-0.829-0.452-2.132-1.303-1.304
					c-0.399,0.388-0.857,0.653-1.392,0.806C45.4,38.264,45.884,40.043,47.029,39.715L47.029,39.715z"/>
			</g>
		</g>
		<g>
			<path fill="#FFE3AF" d="M46.817,38.187c0.39-0.164,0.699-0.376,1.028-0.628c0.174-0.108,0.35-0.237,0.569-0.297
				c0.218-0.067,0.464-0.027,0.633,0.1c-0.43-0.076-0.729,0.157-1.058,0.402c-0.173,0.109-0.347,0.233-0.546,0.313
				C47.245,38.161,47.027,38.2,46.817,38.187z"/>
		</g>
		<g>
			<path fill="#FFE3AF" d="M44.667,42.904c0.346-0.208,0.773-0.284,1.195-0.169c0.204,0.075,0.4,0.219,0.498,0.417
				c0.111,0.194,0.103,0.414,0.08,0.609c-0.068-0.189-0.127-0.373-0.242-0.507c-0.108-0.135-0.244-0.236-0.413-0.282
				c-0.162-0.066-0.348-0.073-0.535-0.082C45.063,42.888,44.867,42.89,44.667,42.904z"/>
		</g>
		<g>
			<path fill="#FFE3AF" d="M36.246,47.954c0.076-0.129,0.229-0.216,0.387-0.233c0.16-0.021,0.319,0.022,0.459,0.08
				c0.273,0.14,0.491,0.349,0.614,0.621c-0.27-0.126-0.477-0.301-0.717-0.394c-0.112-0.066-0.232-0.094-0.353-0.115
				C36.516,47.896,36.382,47.897,36.246,47.954z"/>
		</g>
		<g>
			<path fill="#FFE3AF" d="M49.954,49.966c0.467,0.713,0.861,1.425,1.637,1.795c-0.216-0.004-0.436-0.065-0.629-0.178
				c-0.192-0.115-0.351-0.272-0.498-0.436C50.202,50.797,50,50.4,49.954,49.966z"/>
		</g>
		<g>
			<path fill="#FFE3AF" d="M57.813,46.135c0.247-0.033,0.516,0.019,0.737,0.165c0.226,0.142,0.387,0.36,0.513,0.583
				c0.22,0.466,0.306,0.971,0.26,1.467c-0.159-0.471-0.258-0.944-0.482-1.353C58.644,46.577,58.3,46.259,57.813,46.135z"/>
		</g>
		<g>
			<path fill="#FFE3AF" d="M68.014,45.76c0.09-0.476,0.316-0.906,0.603-1.299c0.157-0.185,0.333-0.366,0.554-0.488
				c0.217-0.126,0.497-0.173,0.722-0.074c-0.243-0.003-0.446,0.103-0.617,0.236c-0.171,0.137-0.33,0.296-0.462,0.481
				C68.521,44.968,68.291,45.369,68.014,45.76z"/>
		</g>
		<g>
			<path fill="#FFE3AF" d="M75.42,39.189c0.119-0.184,0.273-0.361,0.499-0.454c0.226-0.104,0.509-0.055,0.713,0.069
				c0.397,0.277,0.617,0.684,0.731,1.108c-0.292-0.326-0.527-0.697-0.861-0.895c-0.157-0.113-0.339-0.143-0.524-0.1
				C75.791,38.96,75.604,39.067,75.42,39.189z"/>
		</g>
		<g>
			<path fill="#FFE3AF" d="M72.578,50.034c0.103-0.173,0.235-0.352,0.458-0.431c0.226-0.091,0.482-0.001,0.658,0.115
				c0.346,0.266,0.579,0.6,0.74,0.977c-0.323-0.25-0.573-0.569-0.88-0.77c-0.145-0.113-0.303-0.166-0.468-0.138
				C72.92,49.812,72.746,49.92,72.578,50.034z"/>
		</g>
		<g>
			<path fill="#FFE3AF" d="M82.428,48.386c0.617-0.619,1.026-1.305,1.442-2.077c-0.02,0.218-0.061,0.437-0.14,0.644
				c-0.071,0.21-0.187,0.4-0.299,0.592C83.172,47.899,82.852,48.238,82.428,48.386z"/>
		</g>
	</g>
	<g>
		<g opacity="0.3">
			<g>
				<g>
					<path fill="#299C9D" d="M26.793,73.112c-0.414,0.878-0.641,1.81-0.57,2.786c0.048,0.662,0.531,1.229,1.229,1.229
						c0.628,0,1.277-0.563,1.229-1.229c-0.041-0.569,0.009-1.065,0.235-1.545c0.283-0.6,0.167-1.326-0.441-1.682
						C27.941,72.359,27.078,72.509,26.793,73.112L26.793,73.112z"/>
				</g>
				<g>
					<path fill="#299C9D" d="M36.137,83.127c0.05-0.14,0.051-0.164,0.003-0.073c0.026-0.06,0.057-0.116,0.091-0.171
						c0.047-0.068,0.044-0.074-0.006-0.017c0.056-0.066,0.115-0.129,0.179-0.187c0.475-0.465,0.465-1.273,0-1.739
						c-0.476-0.476-1.262-0.465-1.738,0c-0.435,0.424-0.739,0.947-0.899,1.533c-0.169,0.62,0.21,1.364,0.858,1.512
						C35.274,84.133,35.956,83.791,36.137,83.127L36.137,83.127z"/>
				</g>
				<g>
					<path fill="#299C9D" d="M39.092,75.892c0.531,0.542,0.867,1.223,0.924,1.984c0.088,1.176,1.933,1.186,1.843,0
						c-0.094-1.255-0.58-2.386-1.464-3.288C39.563,73.74,38.26,75.043,39.092,75.892L39.092,75.892z"/>
				</g>
				<g>
					<path fill="#299C9D" d="M50.251,87.254c0.869-1.012,1.648-2.091,2.312-3.247c0.789-1.374-1.334-2.613-2.123-1.241
						c-0.561,0.977-1.194,1.896-1.927,2.75c-0.432,0.504-0.495,1.244,0,1.738C48.956,87.696,49.817,87.76,50.251,87.254
						L50.251,87.254z"/>
				</g>
				<g>
					<path fill="#299C9D" d="M60.76,77.681c0.298,0.274,0.441,0.578,0.439,0.976c-0.007,1.187,1.837,1.188,1.844,0
						c0.005-0.864-0.341-1.692-0.979-2.279C61.191,75.575,59.885,76.875,60.76,77.681L60.76,77.681z"/>
				</g>
				<g>
					<path fill="#299C9D" d="M77.077,81.418c0-0.064,0-0.131,0-0.196c0-1.187-1.844-1.188-1.844,0c0,0.065,0,0.132,0,0.196
						C75.233,82.605,77.077,82.607,77.077,81.418L77.077,81.418z"/>
				</g>
				<g>
					<path fill="#299C9D" d="M65.595,90.836c1.931,0.723,3.944,0.838,5.961,0.459c1.553-0.293,0.896-2.662-0.653-2.371
						c-1.593,0.3-3.144,0.107-4.653-0.457C64.766,87.911,64.125,90.286,65.595,90.836L65.595,90.836z"/>
				</g>
				<g>
					<path fill="#299C9D" d="M26.359,85.516c-0.202-0.656-0.404-1.313-0.605-1.968c-0.348-1.131-2.128-0.648-1.778,0.489
						c0.202,0.656,0.404,1.313,0.605,1.969C24.929,87.136,26.709,86.653,26.359,85.516L26.359,85.516z"/>
				</g>
				<g>
					<path fill="#299C9D" d="M90.396,77.896c0.395-1.144,0.072-2.398-0.747-3.268c-0.815-0.865-2.117,0.44-1.304,1.304
						c0.393,0.417,0.454,0.948,0.272,1.474C88.23,78.53,90.011,79.013,90.396,77.896L90.396,77.896z"/>
				</g>
				<g>
					<path fill="#299C9D" d="M87.465,87.715c1.626,0.253,3.258-0.203,4.365-1.469c1.038-1.187-0.693-2.932-1.738-1.738
						c-0.49,0.561-1.201,0.957-1.974,0.838c-0.655-0.103-1.321,0.166-1.512,0.857C86.446,86.786,86.805,87.613,87.465,87.715
						L87.465,87.715z"/>
				</g>
				<g>
					<path fill="#299C9D" d="M81.365,76.258c-0.131-0.198-0.261-0.396-0.392-0.593c-0.365-0.554-1.087-0.789-1.682-0.441
						c-0.55,0.322-0.808,1.125-0.44,1.681c0.13,0.198,0.261,0.396,0.391,0.594c0.365,0.554,1.087,0.789,1.682,0.441
						C81.475,77.618,81.731,76.815,81.365,76.258L81.365,76.258z"/>
				</g>
				<g>
					<path fill="#299C9D" d="M55.77,90.566c0.454,0.53,0.908,1.062,1.362,1.592c0.432,0.506,1.295,0.444,1.738,0
						c0.5-0.5,0.433-1.231,0-1.737c-0.454-0.531-0.908-1.062-1.362-1.593c-0.432-0.505-1.295-0.443-1.738,0
						C55.27,89.328,55.337,90.061,55.77,90.566L55.77,90.566z"/>
				</g>
			</g>
		</g>
		<g>
			<g>
				<path fill="#F16374" d="M26.238,72.482c-0.414,0.878-0.641,1.81-0.57,2.786c0.048,0.662,0.53,1.229,1.229,1.229
					c0.628,0,1.277-0.563,1.229-1.229c-0.042-0.569,0.009-1.065,0.235-1.545c0.282-0.601,0.167-1.326-0.441-1.682
					C27.385,71.729,26.521,71.879,26.238,72.482L26.238,72.482z"/>
			</g>
			<g>
				<path fill="#F16374" d="M35.582,82.497c0.05-0.14,0.051-0.165,0.003-0.073c0.027-0.059,0.057-0.116,0.091-0.172
					c0.046-0.068,0.044-0.074-0.007-0.016c0.056-0.066,0.115-0.129,0.179-0.188c0.475-0.464,0.465-1.272,0-1.738
					c-0.475-0.476-1.262-0.465-1.738,0c-0.434,0.424-0.739,0.947-0.899,1.533c-0.169,0.619,0.21,1.364,0.858,1.512
					C34.718,83.503,35.4,83.16,35.582,82.497L35.582,82.497z"/>
			</g>
			<g>
				<path fill="#299C9D" d="M38.536,75.262c0.531,0.542,0.867,1.223,0.924,1.984c0.088,1.176,1.933,1.186,1.844,0
					c-0.094-1.255-0.58-2.386-1.464-3.288C39.007,73.109,37.704,74.414,38.536,75.262L38.536,75.262z"/>
			</g>
			<g>
				<path fill="#F16374" d="M49.696,86.624c0.868-1.012,1.647-2.091,2.312-3.247c0.79-1.374-1.333-2.614-2.123-1.24
					c-0.561,0.976-1.194,1.895-1.927,2.749c-0.432,0.503-0.495,1.243,0,1.738C48.4,87.066,49.262,87.13,49.696,86.624L49.696,86.624
					z"/>
			</g>
			<g>
				<path fill="#299C9D" d="M60.205,77.051c0.298,0.274,0.441,0.579,0.438,0.976c-0.006,1.187,1.837,1.188,1.843,0
					c0.006-0.864-0.34-1.693-0.979-2.279C60.636,74.945,59.329,76.246,60.205,77.051L60.205,77.051z"/>
			</g>
			<g>
				<path fill="#F16374" d="M76.521,80.789c0-0.066,0-0.131,0-0.197c0-1.186-1.844-1.188-1.844,0c0,0.066,0,0.131,0,0.197
					C74.678,81.975,76.521,81.977,76.521,80.789L76.521,80.789z"/>
			</g>
			<g>
				<path fill="#F16374" d="M65.039,90.207c1.93,0.722,3.944,0.837,5.961,0.457c1.553-0.292,0.896-2.661-0.653-2.37
					c-1.593,0.3-3.144,0.107-4.654-0.458C64.209,87.281,63.568,89.656,65.039,90.207L65.039,90.207z"/>
			</g>
			<g>
				<path fill="#299C9D" d="M25.803,84.885c-0.202-0.655-0.404-1.312-0.605-1.967c-0.348-1.131-2.128-0.648-1.778,0.49
					c0.202,0.655,0.404,1.311,0.606,1.967C24.373,86.506,26.153,86.023,25.803,84.885L25.803,84.885z"/>
			</g>
			<g>
				<path fill="#F16374" d="M89.84,77.266c0.395-1.144,0.073-2.398-0.746-3.268c-0.815-0.865-2.117,0.44-1.304,1.304
					c0.393,0.417,0.454,0.948,0.272,1.474C87.675,77.9,89.455,78.383,89.84,77.266L89.84,77.266z"/>
			</g>
			<g>
				<path fill="#299C9D" d="M86.909,87.085c1.625,0.253,3.258-0.204,4.365-1.47c1.038-1.186-0.694-2.932-1.738-1.738
					c-0.49,0.561-1.202,0.958-1.974,0.838c-0.655-0.102-1.322,0.167-1.512,0.858C85.891,86.156,86.249,86.982,86.909,87.085
					L86.909,87.085z"/>
			</g>
			<g>
				<path fill="#299C9D" d="M80.809,75.628c-0.13-0.198-0.261-0.396-0.391-0.594c-0.365-0.553-1.087-0.789-1.682-0.441
					c-0.55,0.322-0.808,1.125-0.441,1.682c0.131,0.198,0.261,0.396,0.392,0.594c0.365,0.553,1.087,0.789,1.682,0.441
					C80.918,76.988,81.176,76.185,80.809,75.628L80.809,75.628z"/>
			</g>
			<g>
				<path fill="#299C9D" d="M55.214,89.936c0.454,0.531,0.908,1.063,1.362,1.594c0.432,0.504,1.294,0.443,1.738,0
					c0.5-0.501,0.433-1.232,0-1.738c-0.454-0.531-0.908-1.063-1.362-1.594c-0.432-0.504-1.294-0.443-1.738,0
					C54.714,88.698,54.781,89.43,55.214,89.936L55.214,89.936z"/>
			</g>
		</g>
		<g>
			<path fill="#FFE3AF" d="M26.282,74.476c-0.077-0.47,0-0.957,0.215-1.401c0.124-0.21,0.283-0.425,0.521-0.536
				c0.237-0.115,0.5-0.099,0.723-0.026c-0.483,0.024-0.843,0.272-1.023,0.679C26.502,73.573,26.409,74.023,26.282,74.476z"/>
		</g>
		<g>
			<path fill="#FFE3AF" d="M33.727,81.861c0.034-0.439,0.25-0.86,0.602-1.166c0.188-0.137,0.417-0.232,0.65-0.238
				c0.236-0.019,0.453,0.076,0.64,0.18C35.4,80.621,35.192,80.601,35,80.649c-0.19,0.042-0.37,0.115-0.518,0.244
				c-0.159,0.115-0.287,0.272-0.411,0.436C33.952,81.494,33.833,81.671,33.727,81.861z"/>
		</g>
		<g>
			<path fill="#FFE3AF" d="M39.383,74.005c0.488,0.365,0.814,0.899,1.075,1.442c0.109,0.282,0.221,0.565,0.281,0.862
				c0.071,0.294,0.097,0.597,0.102,0.897C40.478,76.063,40.058,74.997,39.383,74.005z"/>
		</g>
		<g>
			<path fill="#FFE3AF" d="M24.376,82.708c0.415,0.241,0.643,0.694,0.808,1.121c0.07,0.224,0.128,0.448,0.161,0.679
				c0.031,0.229,0.035,0.462,0.019,0.693c-0.158-0.438-0.255-0.874-0.416-1.289c-0.063-0.213-0.151-0.416-0.241-0.618
				C24.612,83.095,24.518,82.891,24.376,82.708z"/>
		</g>
		<g>
			<path fill="#FFE3AF" d="M48.367,85.295c0.449-0.508,0.926-0.972,1.347-1.484c0.224-0.244,0.427-0.506,0.615-0.775
				c0.186-0.27,0.368-0.547,0.484-0.866c-0.06,0.692-0.486,1.287-0.91,1.805C49.45,84.479,48.95,84.943,48.367,85.295z"/>
		</g>
		<g>
			<path fill="#FFE3AF" d="M60.692,75.907c0.505-0.016,0.957,0.361,1.202,0.791c0.12,0.223,0.194,0.462,0.243,0.704
				c0.041,0.244,0.039,0.489,0.014,0.73c-0.136-0.466-0.242-0.921-0.475-1.312c-0.102-0.202-0.242-0.379-0.404-0.535
				C61.107,76.133,60.919,75.992,60.692,75.907z"/>
		</g>
		<g>
			<path fill="#FFE3AF" d="M55.688,88.472c0.537,0.029,1.044,0.282,1.458,0.63c0.199,0.186,0.381,0.393,0.51,0.633
				c0.14,0.232,0.21,0.499,0.254,0.759c-0.262-0.461-0.536-0.886-0.93-1.204c-0.181-0.174-0.391-0.316-0.607-0.452
				C56.156,88.705,55.93,88.578,55.688,88.472z"/>
		</g>
		<g>
			<path fill="#FFE3AF" d="M75.233,80.133c0.241-0.125,0.564-0.076,0.785,0.132c0.095,0.113,0.171,0.246,0.186,0.386
				c0.023,0.139-0.003,0.274-0.049,0.399c-0.097-0.251-0.16-0.471-0.314-0.61C75.706,80.282,75.486,80.215,75.233,80.133z"/>
		</g>
		<g>
			<path fill="#FFE3AF" d="M65.189,88.472c0.454,0.167,0.918,0.294,1.381,0.405c0.466,0.106,0.934,0.195,1.407,0.232
				c0.472,0.063,0.947,0.053,1.42,0.023c0.476-0.025,0.943-0.125,1.415-0.236c-0.439,0.198-0.906,0.367-1.394,0.427
				c-0.484,0.071-0.979,0.079-1.466,0.034C66.982,89.246,66.022,88.976,65.189,88.472z"/>
		</g>
		<g>
			<path fill="#FFE3AF" d="M78.68,75.244c0.16-0.127,0.363-0.203,0.576-0.213c0.214-0.016,0.429,0.045,0.623,0.134
				c0.186,0.109,0.346,0.25,0.472,0.414c0.126,0.166,0.209,0.354,0.269,0.547c-0.279-0.292-0.532-0.577-0.857-0.74
				C79.448,75.208,79.076,75.171,78.68,75.244z"/>
		</g>
		<g>
			<path fill="#FFE3AF" d="M88.465,74.121c0.499,0.331,0.813,0.889,0.976,1.465c0.059,0.294,0.107,0.595,0.078,0.895
				c-0.013,0.299-0.092,0.59-0.192,0.865c0.022-0.588,0.022-1.155-0.128-1.698c-0.056-0.276-0.168-0.535-0.286-0.792
				C88.788,74.603,88.646,74.352,88.465,74.121z"/>
		</g>
		<g>
			<path fill="#FFE3AF" d="M86.722,85.541c0.357,0.053,0.715,0.047,1.063,0.011c0.347-0.043,0.692-0.105,1.014-0.241
				c0.658-0.234,1.226-0.661,1.767-1.141c-0.204,0.298-0.436,0.586-0.725,0.816c-0.277,0.245-0.615,0.411-0.955,0.558
				C88.188,85.789,87.396,85.832,86.722,85.541z"/>
		</g>
	</g>
	<path fill="#FAB078" d="M39.151,54.103c7.483,1.651,15.034,3.31,22.697,3.349c1.742,0.009,3.484-0.066,5.225-0.141
		c2.08-0.09,4.159-0.179,6.239-0.269c1.359-0.059,2.729-0.119,4.048-0.456c0.542-0.138,1.176-0.458,1.172-1.018
		c-0.003-0.369-0.314-0.678-0.663-0.799s-0.729-0.093-1.097-0.064c-3.682,0.291-7.359,0.628-11.032,1.01
		c-0.845,0.088-1.689,0.178-2.538,0.2c-1.141,0.029-2.28-0.067-3.417-0.163c-1.66-0.14-3.32-0.28-4.98-0.419
		c-4.874-0.411-9.755-0.822-14.579-1.631c-0.632-0.106-1.271-0.221-1.854-0.486c-0.258-0.117-2.814-1.675-2.559-0.345
		C35.945,53.567,38.59,53.979,39.151,54.103z"/>
	<path fill="#FAB078" d="M82.122,53.759c-0.299,0.123-0.611,0.336-0.646,0.657c-0.041,0.37,0.334,0.678,0.705,0.709
		c0.37,0.031,0.726-0.134,1.062-0.294c0.76-0.363,1.563-0.729,2.403-0.68c0.271,0.016,0.544,0.076,0.812,0.033
		c0.269-0.043,0.542-0.226,0.574-0.496c0.037-0.314-0.271-0.576-0.581-0.638s-0.63,0.008-0.946,0.009
		c-0.818,0.003-1.038,0.245-1.739,0.455C83.232,53.674,82.682,53.527,82.122,53.759z"/>
	<path opacity="0.6" fill="#FAB078" d="M32.573,56.017c-1.703,0.376-3.295,1.87-3.15,3.607c0.092,1.104,0.862,2.066,1.813,2.635
		c0.95,0.568,2.063,0.797,3.162,0.936c5.599,0.708,11.293-0.676,16.904-0.076c5.974,0.639,11.652,3.505,17.657,3.336
		c1.938-0.055,3.908-0.448,5.556-1.469c0.562-0.348,1.112-0.816,1.263-1.459c0.177-0.759-0.279-1.555-0.916-2.004
		c-0.638-0.449-1.424-0.623-2.19-0.768c-7.581-1.435-15.37-1.078-23.084-0.936c-1.161,0.021-2.337,0.036-3.463-0.248
		c-0.879-0.221-1.702-0.619-2.53-0.988C40.509,57.21,36.029,55.253,32.573,56.017z"/>
	<g>
		<path fill="#FAB078" d="M30.09,55.675c0.922,0.568,1.875,1.061,2.865,1.477c0.97,0.452,1.972,0.83,2.979,1.182
			c2.022,0.687,4.083,1.248,6.171,1.692l1.568,0.33l1.582,0.264c1.049,0.216,2.119,0.293,3.178,0.473
			c2.129,0.276,4.272,0.433,6.431,0.645c-1.078,0.097-2.161,0.138-3.246,0.196c-1.083-0.023-2.17-0.017-3.255-0.075
			c-2.169-0.125-4.337-0.391-6.468-0.856c-2.125-0.479-4.234-1.081-6.237-1.956C33.667,58.171,31.701,57.144,30.09,55.675z"/>
	</g>
	<path fill="#FBB685" d="M65.021,64.62c1.31,0.268,2.637,0.538,3.971,0.458s2.697-0.551,3.584-1.551
		c0.375-0.422,0.659-1.045,0.386-1.54c-0.231-0.417-0.756-0.558-1.228-0.63c-3.917-0.6-7.9,0.784-11.849,0.445
		c-0.926-0.08-2.476-0.452-3.298,0.167c-1.043,0.785,0.521,1.026,1.167,1.165C60.172,63.65,62.6,64.125,65.021,64.62z"/>
	<path fill="#FFE3AF" d="M92.501,66.229c1.639-0.97,3.93-0.647,5.236,0.737c0.481,0.51,0.835,1.303,0.463,1.897
		c-0.339,0.542-1.1,0.625-1.729,0.518s-1.262-0.347-1.891-0.234c-0.922,0.166-1.567,1.036-2.462,1.313
		c-1.474,0.457-3.029-0.82-4.539-0.5c-1.344,0.285-2.088,1.67-2.964,2.729c-0.906,1.096-2.187,1.967-3.606,2.047
		c-2.233,0.126-4.351-1.675-6.529-1.171c-1.026,0.238-1.872,0.959-2.86,1.325c-3.732,1.386-7.875-2.59-11.629-1.265
		c-0.816,0.288-1.526,0.808-2.299,1.197s-2.049,0.496-2.906,0.375c-0.938-0.133-1.854-0.418-2.702-0.841s-1.647-0.99-2.578-1.17
		c-1.429-0.277-2.866,0.405-4.322,0.447c-2.075,0.059-3.931-1.164-5.762-2.143c-0.746-0.398-1.556-0.772-2.399-0.706
		c-0.465,0.037-0.908,0.206-1.36,0.321c-1.27,0.325-2.646,0.219-3.851-0.296c-1.543-0.659-2.921-1.987-4.596-1.879
		c-0.724,0.047-1.399,0.367-2.107,0.528c-0.708,0.162-1.545,0.124-2.034-0.412c-0.634-0.694-0.316-1.888,0.406-2.49
		s1.538-0.95,2.466-1.097c0,0,19.654,5.424,33.082,5.424C76.813,70.882,92.501,66.229,92.501,66.229z"/>
	<path opacity="0.6" fill="#FAB078" d="M35.664,71.104c-0.97,0.248-2.001,0.241-2.972-0.004c0.041,0.018,0.081,0.041,0.122,0.058
		c1.205,0.515,2.581,0.621,3.851,0.296c0.452-0.116,0.895-0.284,1.36-0.321c0.292-0.023,0.579,0.02,0.862,0.085
		c-0.592-0.278-1.217-0.486-1.862-0.436C36.559,70.82,36.116,70.989,35.664,71.104z M25.11,69.457
		c-0.277,0.063-0.572,0.082-0.86,0.065c0.499,0.393,1.225,0.429,1.86,0.285c0.708-0.162,1.383-0.482,2.107-0.528
		c0.317-0.021,0.622,0.022,0.92,0.091c-0.612-0.288-1.241-0.485-1.92-0.441C26.493,68.976,25.817,69.296,25.11,69.457z
		 M96.77,69.417c-0.102-0.006-0.201-0.019-0.299-0.035c-0.63-0.107-1.262-0.347-1.891-0.234c-0.922,0.166-1.567,1.036-2.462,1.313
		c-1.474,0.457-3.029-0.82-4.539-0.5c-1.344,0.285-2.088,1.67-2.964,2.729c-0.906,1.096-2.187,1.967-3.606,2.047
		c-2.233,0.126-4.351-1.675-6.529-1.171c-1.026,0.238-1.873,0.958-2.86,1.325c-3.732,1.386-7.875-2.59-11.629-1.265
		c-0.816,0.288-1.526,0.808-2.299,1.197s-2.049,0.496-2.906,0.375c-0.399-0.057-0.794-0.147-1.182-0.258
		c0.698,0.293,1.432,0.501,2.182,0.607c0.856,0.122,2.133,0.016,2.905-0.374c0.772-0.39,1.483-0.91,2.299-1.197
		c3.754-1.325,7.896,2.65,11.629,1.265c0.988-0.367,1.834-1.088,2.86-1.326c2.179-0.504,4.296,1.298,6.529,1.171
		c1.42-0.08,2.7-0.951,3.607-2.047c0.875-1.058,1.619-2.443,2.963-2.728c1.51-0.319,3.065,0.957,4.539,0.5
		c0.895-0.277,1.54-1.147,2.462-1.313c0.447-0.081,0.896,0.018,1.344,0.119L96.77,69.417z M45.185,73.632
		c-0.597,0.017-1.174-0.081-1.739-0.24c0.88,0.366,1.786,0.616,2.739,0.589c1.456-0.041,2.893-0.724,4.322-0.446
		c0.004,0.001,0.008,0.003,0.012,0.003c-0.326-0.151-0.658-0.285-1.012-0.354C48.077,72.908,46.64,73.59,45.185,73.632z"/>
	<g>
		<path fill="#FFFFFF" d="M23.395,68.297C23.393,67.64,23.769,67,24.314,66.6c0.278-0.19,0.587-0.349,0.92-0.396
			c0.326-0.068,0.66-0.057,0.976,0.023c-0.612,0.227-1.145,0.435-1.602,0.777C24.141,67.332,23.767,67.769,23.395,68.297z"/>
	</g>
	<g>
		<path fill="#FFFFFF" d="M30.478,68.553c0.634,0.614,1.322,1.08,2.089,1.365c0.382,0.141,0.778,0.253,1.191,0.313
			c0.413,0.075,0.837,0.08,1.283,0.12c-0.412,0.165-0.856,0.261-1.309,0.264c-0.456,0.029-0.911-0.081-1.344-0.229
			C31.536,70.056,30.788,69.396,30.478,68.553z"/>
	</g>
	<g>
		<path fill="#FFFFFF" d="M43.837,72.916c0.822-0.182,1.623-0.271,2.417-0.403c0.798-0.122,1.565-0.249,2.354-0.529
			c-0.284,0.319-0.669,0.528-1.059,0.693c-0.392,0.172-0.807,0.259-1.219,0.33C45.5,73.124,44.656,73.124,43.837,72.916z"/>
	</g>
	<g>
		<path fill="#FFFFFF" d="M64.654,73.052c1.01,0.231,1.97,0.533,2.943,0.778c0.483,0.134,0.97,0.244,1.457,0.34
			c0.49,0.09,0.981,0.159,1.5,0.143c-0.478,0.222-1.021,0.254-1.541,0.24c-0.526-0.01-1.041-0.112-1.543-0.239
			c-0.5-0.137-0.991-0.298-1.46-0.515C65.54,73.587,65.078,73.354,64.654,73.052z"/>
	</g>
	<g>
		<path fill="#FFFFFF" d="M81.473,73.461c0.432-0.138,0.805-0.359,1.151-0.607c0.342-0.257,0.662-0.539,0.955-0.852
			c0.606-0.61,1.117-1.313,1.698-2.018c-0.057,0.221-0.144,0.43-0.216,0.649l-0.303,0.613c-0.227,0.397-0.497,0.772-0.821,1.104
			c-0.325,0.328-0.69,0.63-1.116,0.831C82.403,73.383,81.934,73.53,81.473,73.461z"/>
	</g>
	<g>
		<path fill="#FFFFFF" d="M93.31,66.54c0.717-0.31,1.572-0.269,2.308,0.044c0.739,0.313,1.34,0.949,1.58,1.684
			c-0.301-0.251-0.557-0.51-0.858-0.708c-0.292-0.206-0.596-0.382-0.92-0.516C94.776,66.754,94.076,66.62,93.31,66.54z"/>
	</g>
	<path fill="#F1F0F0" d="M67.632,34.98c-0.297-0.283-0.646-0.586-1.054-0.556c-0.529,0.038-0.84,0.595-1.056,1.08
		c-0.248,0.561-0.496,1.121-0.745,1.682c-0.055,0.125-0.105,0.284-0.014,0.384c0.082,0.089,0.225,0.072,0.344,0.047
		c0.366-0.076,0.732-0.152,1.099-0.228c0.651-0.135,1.303-0.27,1.948-0.432C69.665,36.579,68.233,35.557,67.632,34.98z"/>
	<path fill="#FFE3AF" d="M23.307,86.17c-0.987-0.035-1.961,0.316-2.791,0.854c-0.132,0.281,0.109,0.611,0.393,0.738
		c0.283,0.127,0.607,0.134,0.896,0.248c0.667,0.264,0.988,1.013,1.521,1.494c0.583,0.525,1.403,0.708,2.188,0.734
		c0.785,0.026,1.57-0.082,2.355-0.045c2.657,0.123,5.223,1.894,7.801,1.237c0.367-0.093,0.801-0.433,0.609-0.759
		c-0.092-0.156-0.288-0.209-0.465-0.248c-2.386-0.531-4.743-1.189-7.059-1.971c-0.93-0.314-2.083-0.557-2.918-1.077
		C24.949,86.824,24.453,86.211,23.307,86.17z"/>
	<path fill="#FFE3AF" d="M52.957,94.418c1.655,0.614,3.492,0.147,5.256,0.208c1.246,0.042,2.465,0.352,3.699,0.526
		c1.234,0.175,2.535,0.207,3.684-0.277c0.61-0.258,1.167-0.658,1.814-0.8c0.658-0.144,1.372-0.012,1.995-0.267
		c0.313-0.128,0.611-0.516,0.394-0.773c-0.106-0.126-0.287-0.151-0.45-0.164c-1.906-0.148-3.818,0.234-5.729,0.172
		c-1.475-0.049-2.927-0.361-4.396-0.509c-2.873-0.288-5.79,0.058-8.65-0.335c-0.269-0.037-1.534-0.303-1.695,0.059
		c-0.162,0.363,0.443,0.648,0.691,0.743c0.597,0.228,1.183,0.28,1.771,0.589C51.877,93.872,52.385,94.207,52.957,94.418z"/>
	<path fill="#FAB078" d="M53.534,93.574c0.698,0.502,1.618,0.682,2.454,0.478c0.18-0.044,0.358-0.104,0.542-0.118
		c0.417-0.031,0.807,0.18,1.205,0.307c0.589,0.189,1.333,0.152,1.702-0.344c0.262-0.354,0.244-0.888-0.042-1.223
		c-0.048-0.056-0.108-0.109-0.181-0.115c-0.094-0.01-0.175,0.06-0.25,0.117c-1.03,0.793-2.476,0.299-3.515-0.139
		c-0.438-0.186-0.796-0.371-1.292-0.223C53.82,92.416,52.958,93.16,53.534,93.574z"/>
	<path fill="#FAB078" d="M88.295,89.016c0.412-0.126,0.879-0.305,1.017-0.712c-0.151-0.132-0.38-0.103-0.577-0.063
		c-5.002,0.975-9.995,3.004-14.963,4.144c-0.793,0.183-1.601,0.35-2.414,0.325c-0.388-0.012-3.884-0.374-2.898,0.922
		c0.471,0.619,3.579-0.382,4.311-0.524c3.301-0.643,6.579-1.394,9.83-2.251C84.449,90.367,86.466,89.572,88.295,89.016z"/>
	<path fill="#FAB078" d="M25.671,88.046c-0.303,0.224,0.023,0.696,0.359,0.866c0.334,0.168,0.692,0.281,1.05,0.389
		c2.841,0.859,5.756,1.447,8.673,1.994c4.343,0.814,8.703,1.54,13.075,2.178c0.734,0.107,1.701,0.082,1.951-0.617
		c-0.163-0.158-0.39-0.229-0.608-0.29c-3.69-1.042-7.62-1.131-11.234-2.411c-1.385-0.49-2.777-1.164-4.243-1.054
		c-0.463,0.034-0.917,0.147-1.376,0.211c-1.59,0.218-2.831-0.284-4.251-0.886C28.407,88.145,26.236,87.628,25.671,88.046z"/>
	<g>
		<path fill="#FAB078" d="M77.077,95.893c1.801-0.365,3.589-0.746,5.366-1.164c1.773-0.432,3.544-0.863,5.282-1.4
			c1.74-0.521,3.468-1.096,5.135-1.811c1.663-0.718,3.284-1.547,4.761-2.646c-1.274,1.339-2.875,2.329-4.519,3.169
			c-1.646,0.855-3.401,1.461-5.163,2.005c-1.769,0.526-3.565,0.946-5.382,1.245C80.743,95.594,78.917,95.834,77.077,95.893z"/>
	</g>
	<g>
		<path fill="#FAB078" d="M20.479,92.515c1.745,0.509,3.487,0.995,5.238,1.438c1.754,0.432,3.508,0.85,5.276,1.198
			c1.763,0.374,3.544,0.634,5.329,0.888c1.788,0.238,3.586,0.348,5.404,0.442c-3.618,0.444-7.31,0.11-10.88-0.595
			c-1.785-0.372-3.556-0.813-5.287-1.381C23.827,93.943,22.115,93.313,20.479,92.515z"/>
	</g>
</g>
</svg>
