<?xml version="1.0" encoding="utf-8"?>
<!-- Generator: Adobe Illustrator 16.0.0, SVG Export Plug-In . SVG Version: 6.00 Build 0)  -->
<!DOCTYPE svg PUBLIC "-//W3C//DTD SVG 1.1//EN" "http://www.w3.org/Graphics/SVG/1.1/DTD/svg11.dtd">
<svg version="1.1" id="Layer_1" xmlns="http://www.w3.org/2000/svg" xmlns:xlink="http://www.w3.org/1999/xlink" x="0px" y="0px"
	 width="120px" height="160px" viewBox="0 0 120 160" enable-background="new 0 0 120 160" xml:space="preserve">
<g>
	<g>
		<g>
			<g>
				<path fill="#DB1F2E" d="M102.532,100.567l-7.038,38.734c-0.269,1.477-1.238,2.736-2.607,3.35
					c-1.016,0.455-2.06,0.889-3.13,1.304l6.407-41.226C98.352,102.069,100.481,101.345,102.532,100.567z"/>
				<path fill="#DB1F2E" d="M89.92,104.428l-5.35,41.311c-1.652,0.496-3.35,0.947-5.1,1.352l4.277-41.343
					C85.852,105.354,87.908,104.917,89.92,104.428z"/>
				<path fill="#DB1F2E" d="M77.615,106.732l-3.207,41.357c-1.652,0.273-3.338,0.509-5.055,0.691l2.135-41.362
					C73.559,107.235,75.604,107.001,77.615,106.732z"/>
				<path fill="#DB1F2E" d="M64.291,149.187c-1.678,0.092-3.383,0.138-5.101,0.138v-41.37c2.077,0,4.134-0.046,6.165-0.131
					L64.291,149.187z"/>
				<path fill="#DB1F2E" d="M53.018,107.823l1.064,41.363c-1.711-0.091-3.396-0.222-5.062-0.405l-2.136-41.362
					C48.903,107.595,50.948,107.732,53.018,107.823z"/>
				<path fill="#DB1F2E" d="M40.759,106.732l3.207,41.357c-1.725-0.288-3.416-0.621-5.062-1l-4.278-41.343
					C36.638,106.119,38.682,106.445,40.759,106.732z"/>
				<path fill="#DB1F2E" d="M28.454,104.428l5.349,41.311c-1.79-0.542-3.52-1.137-5.186-1.776v-0.007l-6.408-41.226
					C24.234,103.35,26.318,103.918,28.454,104.428z"/>
				<path fill="#881720" d="M96.164,102.729l-6.407,41.226v0.007c-1.665,0.64-3.396,1.234-5.187,1.776l5.35-41.311
					C92.056,103.918,94.14,103.35,96.164,102.729z"/>
				<path fill="#881720" d="M83.748,105.747l-4.277,41.343c-1.646,0.379-3.338,0.712-5.063,1l3.207-41.357
					C79.691,106.445,81.742,106.119,83.748,105.747z"/>
				<path fill="#881720" d="M71.488,107.419l-2.135,41.362c-1.666,0.184-3.352,0.314-5.063,0.405l1.064-41.363
					C67.426,107.732,69.471,107.595,71.488,107.419z"/>
				<path fill="#881720" d="M59.19,107.954v41.37c-1.725,0-3.423-0.046-5.108-0.138l-1.064-41.363
					C55.049,107.908,57.113,107.954,59.19,107.954z"/>
				<path fill="#881720" d="M46.885,107.419l2.136,41.362c-1.711-0.183-3.403-0.418-5.055-0.691l-3.207-41.357
					C42.771,107.001,44.814,107.235,46.885,107.419z"/>
				<path fill="#881720" d="M34.626,105.747l4.278,41.343c-1.75-0.404-3.449-0.855-5.101-1.352l-5.349-41.311
					C30.465,104.917,32.522,105.354,34.626,105.747z"/>
				<path fill="#881720" d="M22.209,102.729l6.408,41.226c-1.072-0.411-2.117-0.847-3.134-1.303
					c-1.368-0.615-2.335-1.874-2.603-3.349l-7.039-38.736C17.893,101.345,20.015,102.069,22.209,102.729z"/>
				<path fill="#881720" d="M96.164,102.729c-2.025,0.62-4.108,1.188-6.244,1.698c-2.012,0.489-4.068,0.927-6.172,1.319
					c-2.006,0.372-4.057,0.698-6.133,0.985c-0.398,0.054-0.803,0.099-1.203,0.148c0.135,1.242,0.176,2.499,0.15,3.746
					c-0.287,13.67-7.961,26.885-19.498,34.222c-2.521,1.603-5.213,2.904-8.007,3.937c1.654,0.181,3.327,0.311,5.025,0.401
					c1.685,0.092,3.383,0.138,5.108,0.138c1.718,0,3.423-0.046,5.101-0.138c1.711-0.091,3.396-0.222,5.063-0.405
					c1.717-0.183,3.402-0.418,5.055-0.691c1.725-0.288,3.416-0.621,5.063-1c1.75-0.404,3.447-0.855,5.1-1.352
					c1.79-0.542,3.521-1.137,5.187-1.776v-0.007c1.07-0.415,2.114-0.849,3.13-1.304c1.369-0.613,2.339-1.873,2.607-3.35
					l7.038-38.734C100.481,101.345,98.352,102.069,96.164,102.729z"/>
				<path opacity="0.5" fill="#881720" d="M76.412,106.881c-1.624,0.204-3.263,0.392-4.924,0.538
					c-2.018,0.176-4.063,0.313-6.133,0.404c-2.031,0.085-4.088,0.131-6.165,0.131s-4.141-0.046-6.172-0.131
					c-1.274-0.056-2.536-0.135-3.791-0.225c-1.19,2.852-2.746,5.469-4.158,7.382c-2.606,3.53-5.855,6.584-9.462,9.076
					c-4.293,2.967-9.246,5.205-14.354,6.295l1.626,8.952c0.269,1.475,1.236,2.733,2.604,3.349c1.017,0.456,2.062,0.892,3.133,1.303
					v0.007c1.666,0.64,3.396,1.234,5.186,1.776c1.652,0.496,3.351,0.947,5.101,1.352c1.646,0.379,3.337,0.712,5.062,1
					c1.652,0.273,3.344,0.509,5.055,0.691c0.012,0.002,0.024,0.003,0.036,0.004c2.794-1.032,5.487-2.334,8.007-3.937
					c11.537-7.337,19.211-20.552,19.498-34.222C76.588,109.38,76.547,108.123,76.412,106.881z"/>
			</g>
			<g>
				<polygon fill="#FFFFFF" points="22.737,102.89 28.281,141.87 21.675,102.566 				"/>
			</g>
			<g>
				<polygon fill="#FFFFFF" points="28.972,104.552 33.572,143.955 27.931,104.301 				"/>
			</g>
			<g>
				<polygon fill="#FFFFFF" points="35.095,105.832 38.756,145.363 34.063,105.641 				"/>
			</g>
			<g>
				<polygon fill="#FFFFFF" points="41.23,106.795 43.833,146.548 40.204,106.655 				"/>
			</g>
			<g>
				<polygon fill="#FFFFFF" points="47.412,107.464 48.912,147.09 46.389,107.374 				"/>
			</g>
			<g>
				<polygon fill="#FFFFFF" points="53.417,107.84 54.041,147.54 52.393,107.795 				"/>
			</g>
			<g>
				<polygon fill="#FFFFFF" points="59.69,107.954 59.19,147.699 58.666,107.954 				"/>
			</g>
			<g opacity="0.5">
				<polygon fill="#FFFFFF" points="95.643,102.89 90.1,141.87 96.705,102.566 				"/>
			</g>
			<g opacity="0.5">
				<polygon fill="#FFFFFF" points="89.408,104.552 84.809,143.955 90.449,104.301 				"/>
			</g>
			<g opacity="0.5">
				<polygon fill="#FFFFFF" points="83.286,105.832 79.648,145.363 84.316,105.641 				"/>
			</g>
			<g opacity="0.5">
				<polygon fill="#FFFFFF" points="77.15,106.795 74.527,146.548 78.176,106.655 				"/>
			</g>
			<g opacity="0.7">
				<polygon fill="#FFFFFF" points="70.969,107.464 69.44,147.09 71.992,107.374 				"/>
			</g>
			<g opacity="0.7">
				<polygon fill="#FFFFFF" points="64.964,107.84 64.34,147.54 65.987,107.795 				"/>
			</g>
			<path fill="#881720" d="M101.864,104.243c-0.671-0.207-2.122-0.511-2.67-0.07c-0.447,0.359-0.562,0.979-0.751,1.52
				c-0.191,0.541-0.612,1.118-1.184,1.071c-0.768-0.064-1.12-0.971-1.889-0.979c-0.492-0.005-1.017-0.001-1.424,0.273
				c-0.348,0.233-0.552,0.625-0.848,0.921c-0.518,0.52-1.295,0.712-2.026,0.671c-0.731-0.042-1.435-0.291-2.121-0.549
				c-0.29-0.109-0.59-0.223-0.9-0.214c-1.081,0.03-1.655,1.433-2.713,1.665c-0.361,0.079-0.737,0.01-1.101-0.061
				c-0.949-0.182-1.898-0.364-2.847-0.546c-0.44-0.085-0.942-0.157-1.302,0.112c-0.232,0.176-0.353,0.459-0.536,0.686
				c-0.707,0.871-2.073,0.671-3.141,0.327c-1.067-0.345-2.335-0.723-3.227-0.04c-0.573,0.438-0.858,1.249-1.539,1.49
				c-0.669,0.237-1.378-0.193-1.926-0.644s-0.999-0.744-1.708-0.717c-1.26,1.189-2.941,2.473-4.551,1.832
				c-0.847-0.337-1.503-1.177-2.412-1.219c-0.84-0.039-1.526,0.616-2.268,1.013c-1.488,0.794-3.485,0.482-4.66-0.728
				c-0.165-0.171-0.327-0.363-0.553-0.435c-0.265-0.084-0.548,0.021-0.804,0.128c-1.006,0.421-2.083,0.919-3.143,0.665
				c-1.183-0.283-2.083-1.459-3.3-1.461c-1.105-0.002-2.069,0.991-3.165,0.851c-0.445-0.058-0.842-0.298-1.225-0.533
				c-0.493-0.303-0.985-0.605-1.478-0.908c-0.312-0.192-0.698-0.389-1.025-0.225c-0.189,0.095-0.305,0.29-0.468,0.424
				c-0.481,0.397-1.216,0.176-1.735-0.17c-0.519-0.347-1.001-0.815-1.619-0.898c-1.009-0.137-1.948,0.81-2.947,0.619
				c-1.162-0.221-1.738-1.852-2.921-1.866c-0.369-0.005-0.719,0.16-1.086,0.192c-1.513,0.133-2.675-1.938-4.145-1.554
				c-0.325,0.086-0.609,0.288-0.931,0.384c-0.582,0.173-1.259-0.052-1.623-0.537c-0.233-0.312-0.409-0.759-0.796-0.799
				c-0.448-0.047-0.72,0.496-1.139,0.661c-1.058,0.418-1.66-1.646-2.796-1.603c-0.269,0.011-0.519,0.146-0.785,0.181l-0.111,0.069
				l-0.447-2.063c0,0,17.202,7.262,42.418,7.262c28.73,0,44.147-7.402,44.147-7.402L101.864,104.243z"/>
			<path fill="#50231C" d="M102.512,100.269c0.648,0.288,1.246,0.846,1.402,1.538s-0.164,1.501-0.813,1.793
				c-0.641,0.288-1.38,0.041-2.051-0.166c-0.672-0.208-1.473-0.35-2.02,0.091c-0.447,0.359-0.561,0.978-0.752,1.52
				c-0.19,0.541-0.611,1.118-1.184,1.07c-0.766-0.063-1.119-0.97-1.889-0.978c-0.49-0.006-1.016-0.001-1.424,0.272
				c-0.348,0.233-0.551,0.625-0.848,0.922c-0.518,0.519-1.294,0.712-2.025,0.67c-0.732-0.041-1.436-0.29-2.121-0.549
				c-0.291-0.108-0.59-0.222-0.9-0.213c-1.082,0.03-1.656,1.433-2.713,1.665c-0.361,0.079-0.737,0.009-1.102-0.061
				c-0.948-0.183-1.896-0.364-2.846-0.547c-0.441-0.084-0.942-0.156-1.302,0.113c-0.232,0.175-0.353,0.459-0.536,0.685
				c-0.707,0.871-2.072,0.671-3.141,0.327s-2.336-0.722-3.227-0.04c-0.574,0.439-0.858,1.25-1.539,1.491
				c-0.668,0.237-1.379-0.193-1.926-0.644c-0.548-0.45-1-0.744-1.709-0.718c-1.259,1.19-2.941,2.473-4.551,1.832
				c-0.846-0.337-1.502-1.176-2.412-1.218c-0.84-0.039-1.526,0.616-2.268,1.012c-1.488,0.795-3.485,0.483-4.659-0.728
				c-0.165-0.17-0.327-0.363-0.553-0.435c-0.265-0.083-0.548,0.021-0.804,0.128c-1.006,0.422-2.082,0.92-3.143,0.666
				c-1.183-0.284-2.084-1.459-3.3-1.462c-1.105-0.002-2.069,0.991-3.166,0.851c-0.445-0.057-0.842-0.298-1.224-0.532
				c-0.493-0.303-0.985-0.606-1.478-0.909c-0.312-0.191-0.697-0.389-1.025-0.224c-0.189,0.095-0.305,0.289-0.468,0.424
				c-0.481,0.396-1.216,0.176-1.735-0.171c-0.519-0.347-1.001-0.814-1.619-0.898c-1.008-0.136-1.947,0.811-2.947,0.62
				c-1.162-0.222-1.738-1.852-2.921-1.867c-0.368-0.004-0.719,0.161-1.086,0.192c-1.514,0.133-2.675-1.938-4.145-1.553
				c-0.326,0.085-0.609,0.288-0.932,0.384c-0.582,0.173-1.259-0.052-1.623-0.537c-0.233-0.313-0.409-0.759-0.796-0.8
				c-0.447-0.046-0.72,0.497-1.138,0.662c-1.059,0.418-1.66-1.647-2.797-1.603c-0.269,0.011-0.518,0.146-0.785,0.181
				c-0.493,0.063-1.006-0.277-1.14-0.756c-0.134-0.479,0.251-1.002,0.706-1.204c0,0,18.9,7.228,42.294,7.228
				C86.866,107.795,102.512,100.269,102.512,100.269z"/>
			<g>
				<g>
					<path fill="#FFFFFF" d="M15.782,102.117c-0.219-0.088-0.369-0.313-0.368-0.581c0.018-0.129,0.069-0.262,0.163-0.343
						c0.088-0.089,0.203-0.131,0.315-0.152c-0.123,0.2-0.234,0.347-0.229,0.512C15.639,101.717,15.716,101.896,15.782,102.117z"/>
				</g>
				<g>
					<path fill="#FFFFFF" d="M18.706,102.729c0.177,0.174,0.292,0.356,0.444,0.503c0.137,0.164,0.284,0.273,0.508,0.382
						c-0.116,0.043-0.252,0.046-0.376,0.001c-0.124-0.044-0.223-0.129-0.315-0.214C18.808,103.208,18.693,102.982,18.706,102.729z"
						/>
				</g>
				<g>
					<path fill="#FFFFFF" d="M21.872,103.5c0.144,0.215,0.268,0.389,0.449,0.503c0.167,0.133,0.377,0.194,0.618,0.298
						c-0.122,0.043-0.254,0.067-0.386,0.048c-0.133-0.012-0.259-0.073-0.377-0.143C21.958,104.037,21.812,103.764,21.872,103.5z"/>
				</g>
				<g>
					<path fill="#FFFFFF" d="M26.399,104.645c0.638,0.264,1.156,0.584,1.805,0.777c-0.342,0.101-0.7-0.005-1.012-0.137
						C26.889,105.124,26.598,104.934,26.399,104.645z"/>
				</g>
				<g>
					<path fill="#FFFFFF" d="M31.342,105.9c0.459,0.5,0.838,0.95,1.491,1.138c-0.165,0.04-0.347,0.046-0.517-0.009
						c-0.17-0.051-0.322-0.147-0.462-0.253C31.6,106.537,31.396,106.244,31.342,105.9z"/>
				</g>
				<g>
					<path fill="#FFFFFF" d="M36.848,107.038c0.443,0.328,0.757,0.618,1.265,0.805c-0.13,0.041-0.276,0.056-0.414,0.022
						c-0.139-0.029-0.266-0.095-0.385-0.167C37.097,107.527,36.907,107.314,36.848,107.038z"/>
				</g>
				<g>
					<path fill="#FFFFFF" d="M41.517,107.843c0.577,0.44,1.078,0.833,1.775,1.021c-0.177,0.041-0.368,0.05-0.55,0.007
						c-0.182-0.041-0.354-0.12-0.515-0.211C41.924,108.451,41.652,108.188,41.517,107.843z"/>
				</g>
				<g>
					<path fill="#FFFFFF" d="M47.912,108.256c0.727,0.498,1.38,0.994,2.237,1.191c-0.217,0.041-0.448,0.037-0.668-0.016
						c-0.22-0.054-0.425-0.149-0.624-0.253C48.48,108.938,48.133,108.646,47.912,108.256z"/>
				</g>
				<g>
					<path fill="#FFFFFF" d="M54.478,109.01c0.351,0.288,0.68,0.571,1.056,0.782c0.364,0.235,0.763,0.372,1.206,0.482
						c-0.223,0.037-0.461,0.047-0.688-0.01c-0.227-0.051-0.444-0.144-0.646-0.258C55.017,109.755,54.67,109.43,54.478,109.01z"/>
				</g>
				<g>
					<path fill="#FFFFFF" d="M62.21,109.18c0.38,0.156,0.712,0.365,1.063,0.538c0.168,0.102,0.344,0.184,0.518,0.268
						c0.176,0.081,0.351,0.167,0.549,0.216c-0.416,0.088-0.826-0.09-1.184-0.264C62.805,109.732,62.469,109.502,62.21,109.18z"/>
				</g>
				<g>
					<path fill="#FFFFFF" d="M69.529,108.548c0.56,0.448,1.038,0.856,1.727,1.045c-0.174,0.041-0.364,0.048-0.544,0.003
						c-0.18-0.043-0.347-0.126-0.505-0.22C69.913,109.161,69.652,108.893,69.529,108.548z"/>
				</g>
				<g>
					<path fill="#FFFFFF" d="M75.795,107.818c0.881,0.29,1.709,0.512,2.635,0.486c-0.213,0.09-0.444,0.157-0.681,0.168
						c-0.235,0.016-0.473-0.008-0.704-0.049C76.59,108.313,76.143,108.137,75.795,107.818z"/>
				</g>
				<g>
					<path fill="#FFFFFF" d="M82.199,107.161c0.514,0.036,1.006,0.139,1.503,0.205c0.245,0.05,0.493,0.078,0.739,0.111
						c0.247,0.027,0.494,0.06,0.748,0.024c-0.477,0.249-1.028,0.165-1.527,0.111C83.159,107.516,82.66,107.396,82.199,107.161z"/>
				</g>
				<g>
					<path fill="#FFFFFF" d="M89.031,106.071c0.426,0.174,0.83,0.337,1.261,0.421c0.424,0.115,0.856,0.131,1.317,0.158
						c-0.215,0.079-0.444,0.14-0.678,0.146c-0.232,0.016-0.467-0.018-0.695-0.061C89.787,106.618,89.345,106.419,89.031,106.071z"/>
				</g>
				<g>
					<path fill="#FFFFFF" d="M96.164,104.948c0.199,0.188,0.34,0.39,0.525,0.531c0.17,0.164,0.357,0.244,0.635,0.268
						c-0.11,0.079-0.256,0.127-0.406,0.106c-0.148-0.021-0.277-0.101-0.392-0.185C96.321,105.473,96.179,105.228,96.164,104.948z"/>
				</g>
				<g>
					<path fill="#FFFFFF" d="M100.922,102.729c0.65,0.436,1.338,0.507,2.116,0.493c-0.175,0.087-0.361,0.156-0.559,0.181
						c-0.196,0.032-0.397,0.014-0.598-0.013C101.496,103.296,101.105,103.09,100.922,102.729z"/>
				</g>
			</g>
		</g>
		<path fill="#50231C" d="M21.988,91.371c-3.906,2.685-6.146,5.833-6.146,9.196c2.051,0.777,4.18,1.502,6.368,2.162
			c2.025,0.62,4.108,1.188,6.244,1.698c2.012,0.489,4.069,0.927,6.172,1.319c2.005,0.372,4.056,0.698,6.133,0.985
			c2.012,0.269,4.056,0.503,6.126,0.687c2.018,0.176,4.063,0.313,6.133,0.404c2.031,0.085,4.088,0.131,6.166,0.131
			s4.141-0.046,6.172-0.131c2.07-0.091,4.115-0.229,6.133-0.404c2.07-0.184,4.115-0.418,6.127-0.687
			c2.076-0.287,4.121-0.613,6.133-0.985c2.104-0.393,4.16-0.83,6.172-1.319c2.136-0.51,4.22-1.078,6.244-1.698
			c2.194-0.66,4.317-1.385,6.368-2.162c0-3.2-2.038-6.211-5.604-8.811c-1.906,2.58-4.18,3.944-4.18,3.944
			s-12.572,4.762-34.903,5.277c-17.027,0.393-31.187-6.165-31.187-6.165S24.149,93.788,21.988,91.371z"/>
		<g>
			<path fill="#D41C5C" d="M92.056,73.228c0,0-16.243,5.715-35.197,6.152s-32.01-5.421-32.01-5.421s-1.051,0.551-2.266,1.65
				c2.583,1.627,5.055,3.192,8.02,4.234c1.864,0.655,3.788,1.142,5.741,1.447c3.771,0.589,7.611,0.511,11.427,0.432
				c4.929-0.102,9.859-0.204,14.788-0.306c1.572-0.033,3.161-0.063,4.699,0.267s3.042,1.061,4.009,2.301
				c1.555,1.993,1.286,5.168-0.58,6.871c-1.586,1.448-3.88,1.742-6.016,1.969c-0.973,0.103-1.945,0.205-2.917,0.308
				c-1.381,0.146-2.763,0.293-4.15,0.351c-2.263,0.094-4.527-0.049-6.785-0.226c-7.529-0.588-15.028-1.557-22.459-2.902
				c-2.088-0.378-4.204-0.797-6.089-1.771c-1.127-0.583-2.138-1.374-3.002-2.302c1.514,6.123,7.391,8.532,7.391,8.532
				s14.16,6.558,31.187,6.165c22.331-0.516,34.903-5.277,34.903-5.277s6.91-4.141,6.74-11.625
				C99.286,75.259,92.056,73.228,92.056,73.228z"/>
			<path fill="#F4A28E" d="M28.358,90.354c7.431,1.346,14.93,2.314,22.459,2.902c2.257,0.177,4.522,0.319,6.785,0.226
				c1.387-0.058,2.77-0.204,4.15-0.351c0.972-0.103,1.944-0.205,2.917-0.308c2.136-0.227,4.43-0.521,6.016-1.969
				c1.866-1.703,2.135-4.878,0.58-6.871c-0.967-1.24-2.471-1.971-4.009-2.301s-3.127-0.3-4.699-0.267
				c-4.929,0.102-9.859,0.204-14.788,0.306c-3.816,0.079-7.656,0.157-11.427-0.432c-1.953-0.306-3.876-0.792-5.741-1.447
				c-2.964-1.042-5.437-2.607-8.02-4.234c-1.714,1.551-3.759,4.202-3.671,8.016c0.021,0.956,0.152,1.837,0.355,2.656
				c0.864,0.928,1.875,1.719,3.002,2.302C24.154,89.558,26.27,89.977,28.358,90.354z"/>
		</g>
		<g>
			<path fill="#FFE3AF" d="M67.137,73.874c-6.245,0.955-12.545,1.912-18.854,1.563c-1.492-0.082-3.043-0.259-4.299-1.067
				c-1.256-0.809-2.11-2.427-1.591-3.827c0.517-1.394,2.137-2.054,3.619-2.161c1.512-0.109,3.019,0.185,4.521,0.383
				c6.413,0.848,12.925-0.038,19.287-1.213c2.156-0.397,4.307-0.832,6.438-1.349c3.686-0.894,7.328-2.03,10.764-3.648
				c0.673-0.316,1.493-0.88,2.374-1.438c-1.046-0.887-2.363-1.725-4.034-2.468c0,0-22.043,11.299-56.196,1.45
				c0,0-5.689,4.022-4.317,13.859c0,0,13.056,5.858,32.01,5.421s35.197-6.152,35.197-6.152s0.884-1.765,0.972-4.179
				c-1.434,1.049-3.3,1.373-5.076,1.645C81.014,71.753,74.075,72.813,67.137,73.874z"/>
			<path fill="#F4A28E" d="M89.396,61.117c-0.881,0.558-1.701,1.121-2.374,1.438c-3.436,1.618-7.078,2.755-10.764,3.648
				c-2.131,0.517-4.281,0.951-6.438,1.349c-6.362,1.175-12.874,2.061-19.287,1.213c-1.503-0.198-3.01-0.492-4.521-0.383
				c-1.482,0.107-3.102,0.768-3.619,2.161c-0.52,1.4,0.335,3.019,1.591,3.827c1.256,0.809,2.808,0.985,4.299,1.067
				c6.309,0.349,12.608-0.608,18.854-1.563c6.938-1.061,13.877-2.121,20.814-3.181c1.776-0.271,3.643-0.596,5.076-1.645
				C93.115,66.681,92.43,63.688,89.396,61.117z"/>
			<path fill="#F4A28E" d="M33.511,65.708c-1.815-0.587-3.835-1.165-5.574-0.379c-1.183,0.535-2.058,1.699-2.243,2.984
				c-0.185,1.285,0.326,2.649,1.311,3.496c0.771,0.663,1.769,0.998,2.756,1.242c1.633,0.404,3.316,0.605,4.999,0.598
				c0.195-0.001,0.399-0.007,0.571-0.099c0.204-0.109,0.329-0.319,0.467-0.505c0.509-0.683,1.285-1.104,2.024-1.525
				c1.225-0.699,3.402-2.745,1.516-3.987c-0.616-0.406-1.715-0.498-2.412-0.723C35.787,66.444,34.649,66.075,33.511,65.708z"/>
			<path fill="#EF7D7F" d="M71.92,68.897c-6.188,1.123-12.444,1.82-18.695,2.517c-0.005,0.599,0.498,1.106,1.064,1.301
				c0.566,0.194,1.183,0.143,1.778,0.08c7.058-0.741,13.962-2.679,21.042-3.16c3.789-0.258,7.866-0.175,10.998-2.322
				c0.5-0.343,0.977-0.753,1.241-1.297s0.274-1.246-0.108-1.715c-0.86-1.053-2.38,0.285-3.244,0.66
				c-1.513,0.656-3.07,1.213-4.645,1.704C78.265,67.629,75.1,68.32,71.92,68.897z"/>
			<path fill="#EF7D7F" d="M47.259,70.509c-0.886-0.283-1.858-0.291-2.749-0.022c-0.427,0.129-0.875,0.359-1.025,0.779
				c-0.13,0.361,0.006,0.78,0.264,1.065c0.258,0.286,0.619,0.456,0.984,0.576c0.864,0.282,1.791,0.316,2.699,0.262
				c0.591-0.035,1.2-0.113,1.711-0.413C51.243,71.524,48.208,70.812,47.259,70.509z"/>
			<path fill="#EF7D7F" d="M28.43,67.134c-0.761,0.586-0.861,1.852-0.201,2.55c0.203,0.214,0.457,0.373,0.721,0.506
				c1.147,0.577,2.486,0.681,3.76,0.521s2.501-0.566,3.72-0.973c0.179-0.329,0.36-0.726,0.193-1.061
				c-0.141-0.282-0.475-0.4-0.777-0.489c-1.458-0.429-2.964-0.659-4.419-1.076C30.417,66.822,29.41,66.38,28.43,67.134z"/>
		</g>
		<g>
			<path fill="#D41C5C" d="M71.195,41.557c-10.582-3.297-25.312-1.197-29.071,0.447c-1.805,0.79-4.86,2.111-7.554,4.648
				c1.485,0.671,3,1.152,4.617,1.437c1.979,0.348,3.992,0.459,5.996,0.563c2.731,0.142,5.462,0.283,8.193,0.425
				c1.004,0.052,2.009,0.104,3.015,0.092c2.013-0.023,4.012-0.302,6.018-0.479c1.183-0.104,2.441-0.157,3.484,0.41
				c1.801,0.979,2.23,3.558,1.35,5.408c-0.882,1.85-2.717,3.063-4.595,3.885c-5.328,2.332-11.384,2.199-17.178,1.687
				c-5.113-0.452-10.427-1.254-14.614-4.224c-0.382-0.271-0.742-0.575-1.079-0.9c-0.376,1.536-0.611,3.228-0.611,5.145
				c34.153,9.849,56.196-1.45,56.196-1.45S86.883,46.802,71.195,41.557z"/>
			<path fill="#F16374" d="M30.855,55.855c4.187,2.97,9.501,3.771,14.614,4.224c5.794,0.513,11.85,0.646,17.178-1.687
				c1.878-0.822,3.713-2.035,4.595-3.885c0.881-1.851,0.451-4.429-1.35-5.408c-1.043-0.567-2.302-0.515-3.484-0.41
				c-2.005,0.177-4.005,0.455-6.018,0.479c-1.005,0.012-2.01-0.04-3.015-0.092c-2.731-0.142-5.462-0.283-8.193-0.425
				c-2.004-0.104-4.016-0.215-5.996-0.563c-1.617-0.284-3.131-0.766-4.617-1.437c-2.06,1.94-3.889,4.608-4.794,8.303
				C30.114,55.28,30.473,55.584,30.855,55.855z"/>
		</g>
		<g>
			<defs>
				<path id="SVGID_1_" d="M52.989,44.391c0,0-2.421,2.071-6.783,1.535l2.273-23.402c0,0,1.346-7.263,9.531-7.2
					c5.276,0.04,9.145,4.848,8.836,9.975c-0.151,2.515-0.983,4.342-0.983,4.342l-5.128,0.037c0,0-0.089-7.07-2.292-7.57
					c-3.892-0.883-4.153,7.592-4.153,7.592L52.989,44.391z"/>
			</defs>
			<clipPath id="SVGID_2_">
				<use xlink:href="#SVGID_1_"  overflow="visible"/>
			</clipPath>
			<g clip-path="url(#SVGID_2_)">
				<g>
					<path fill="#F16374" d="M48.19,31.604c1.239,1.975,2.821,3.707,4.664,5.112l-0.431,4.755c-1.81-0.945-3.433-2.206-4.79-3.715
						L48.19,31.604z"/>
					<path fill="#F16374" d="M49.042,22.857c0.324-1.579,1.073-2.985,2.108-4.118c0.506,2.388,1.445,4.607,2.738,6.573l-0.548,6.049
						C51.174,29.045,49.644,26.122,49.042,22.857z"/>
					<path fill="#F16374" d="M61.212,24.945c0.181-1.994-1.294-3.764-3.288-3.944c-0.571-0.052-1.117,0.045-1.62,0.238
						c-0.806-1.48-1.399-3.095-1.737-4.806c1.028-0.382,2.139-0.573,3.292-0.538c1.736,3.918,4.728,7.136,8.452,9.162
						c-0.006,0.116-0.003,0.231-0.014,0.349l-0.163,1.801c-0.067,0.74-0.448,1.372-0.995,1.791c-1.471-0.567-2.845-1.336-4.088-2.27
						L61.212,24.945z"/>
					<path fill="#F16374" d="M47.142,43.169c1.47,1.157,3.109,2.104,4.874,2.798l-0.342,3.775c-1.764-0.329-3.436-0.93-4.968-1.761
						L47.142,43.169z"/>
					<path fill="#881720" d="M57.858,15.896c0.175,0.005,0.35,0.005,0.526,0.021c4.681,0.424,8.162,4.488,7.926,9.142
						C62.586,23.031,59.594,19.813,57.858,15.896z"/>
					<path fill="#881720" d="M61.049,26.746l0.002-0.018c1.243,0.934,2.617,1.702,4.088,2.27c-0.49,0.376-1.113,0.582-1.777,0.521
						C61.957,29.393,60.921,28.15,61.049,26.746z"/>
					<path fill="#881720" d="M54.567,16.434c0.338,1.711,0.932,3.325,1.737,4.806c-1.251,0.481-2.195,1.628-2.324,3.05l-0.093,1.023
						c-1.292-1.966-2.231-4.186-2.738-6.573C52.085,17.716,53.255,16.922,54.567,16.434z"/>
					<path fill="#881720" d="M48.19,31.604l0.705-7.775c0.03-0.33,0.082-0.653,0.147-0.971c0.602,3.265,2.132,6.188,4.297,8.504
						l-0.485,5.354C51.011,35.311,49.43,33.578,48.19,31.604z"/>
					<path fill="#881720" d="M47.633,37.756c1.357,1.509,2.98,2.77,4.79,3.715l-0.407,4.496c-1.765-0.694-3.404-1.641-4.874-2.798
						L47.633,37.756z"/>
					<path fill="#881720" d="M48.832,52.809c-1.404-0.127-2.439-1.369-2.312-2.772l0.186-2.055c1.532,0.831,3.204,1.432,4.968,1.761
						l-0.068,0.755C51.478,51.9,50.236,52.937,48.832,52.809z"/>
				</g>
				<path opacity="0.5" fill="#FFFFFF" d="M62.82,18.987c0.349,0.322,0.646,0.698,0.914,1.091c1.017,1.495,1.61,3.275,1.695,5.081
					c0.027,0.599-0.002,1.213-0.23,1.767s-0.685,1.04-1.268,1.176c-0.137,0.032-0.282,0.044-0.414-0.004
					c-0.322-0.116-0.424-0.515-0.479-0.854c-0.139-0.867-0.277-1.733-0.416-2.601c-0.113-0.706-0.228-1.419-0.48-2.088
					c-0.254-0.669-0.658-1.301-1.25-1.705c-0.524-0.358-1.19-0.541-1.577-1.045c-0.499-0.649-0.321-1.925,0.615-2.013
					C60.934,17.699,62.111,18.334,62.82,18.987z"/>
				<path opacity="0.5" fill="#FFFFFF" d="M51.397,20.866c-0.214,0.363-0.42,0.731-0.616,1.104c-0.253,0.481-0.495,0.98-0.583,1.518
					c-0.047,0.287-0.049,0.579-0.06,0.869c-0.086,2.348-0.731,4.639-0.979,6.975c-0.012,0.111-0.022,0.227,0.012,0.333
					c0.116,0.358,0.676,0.365,0.934,0.09s0.293-0.687,0.312-1.063c0.089-1.829,0.106-3.664,0.268-5.488
					c0.079-0.889,0.193-1.784,0.51-2.618s0.854-1.609,1.621-2.065c0.185-0.11,0.385-0.204,0.531-0.361
					c0.513-0.549-0.243-0.844-0.716-0.66C52.081,19.712,51.679,20.389,51.397,20.866z"/>
				<path opacity="0.5" fill="#FFFFFF" d="M63.773,25.574c0.094,0.239,0.267,0.492,0.523,0.509c0.18,0.012,0.344-0.098,0.471-0.225
					c0.535-0.537,0.602-1.38,0.529-2.134c-0.029-0.301-0.078-0.607-0.219-0.875c-0.331-0.625-1.303-0.774-1.56-0.022
					C63.271,23.552,63.502,24.886,63.773,25.574z"/>
				<path opacity="0.5" fill="#FFFFFF" d="M49.057,34.305c0.137,0.127,0.349,0.185,0.518,0.105c0.466-0.219,0.675-1.53-0.017-1.588
					C48.771,32.757,48.561,33.845,49.057,34.305z"/>
			</g>
		</g>
		<g>
			<defs>
				<path id="SVGID_3_" d="M43.021,45.322c0,0,3.57,1.739,8.664-0.275L41.606,17.529c0,0-3.901-8.34-13.756-5.699
					c-6.354,1.703-9.512,8.716-7.533,14.804c0.971,2.986,2.548,4.93,2.548,4.93L29.063,30c0,0-2.108-8.557,0.392-9.851
					c4.419-2.285,7.391,7.856,7.391,7.856L43.021,45.322z"/>
			</defs>
			<clipPath id="SVGID_4_">
				<use xlink:href="#SVGID_3_"  overflow="visible"/>
			</clipPath>
			<g clip-path="url(#SVGID_4_)">
				<g>
					<path fill="#F16374" d="M44.801,28.393c-0.876,2.77-2.241,5.355-4.023,7.629l2.011,5.602c1.888-1.709,3.45-3.738,4.614-5.984
						L44.801,28.393z"/>
					<path fill="#F16374" d="M41.031,18.107c-0.886-1.804-2.229-3.265-3.833-4.307c0.137,3.039-0.299,6.012-1.242,8.788l2.558,7.125
						C40.399,26.241,41.329,22.235,41.031,18.107z"/>
					<path fill="#F16374" d="M27.005,24.441c-0.843-2.349,0.382-4.945,2.73-5.788c0.673-0.241,1.362-0.296,2.029-0.221
						c0.508-2.038,0.718-4.172,0.589-6.342c-1.36-0.139-2.761-0.021-4.14,0.382c-0.865,5.271-3.466,10.092-7.324,13.704
						c0.044,0.139,0.077,0.277,0.126,0.415l0.762,2.122c0.313,0.872,0.971,1.514,1.762,1.848c1.597-1.146,3.013-2.503,4.221-4.019
						L27.005,24.441z"/>
					<path fill="#F16374" d="M49.692,42.016c-1.411,1.856-3.091,3.513-5.002,4.903l1.596,4.446c2.025-0.949,3.853-2.198,5.44-3.681
						L49.692,42.016z"/>
					<path fill="#881720" d="M28.213,12.473c-0.21,0.062-0.42,0.115-0.628,0.19c-5.514,1.979-8.44,7.974-6.696,13.514
						C24.747,22.564,27.348,17.743,28.213,12.473z"/>
					<path fill="#881720" d="M27.767,26.563l-0.008-0.021c-1.208,1.516-2.624,2.873-4.221,4.019c0.71,0.3,1.526,0.354,2.309,0.072
						C27.501,30.04,28.36,28.218,27.767,26.563z"/>
					<path fill="#881720" d="M32.353,12.091c0.129,2.17-0.082,4.304-0.589,6.342c1.66,0.188,3.158,1.275,3.76,2.951l0.433,1.205
						c0.943-2.776,1.379-5.749,1.242-8.788C35.749,12.859,34.089,12.269,32.353,12.091z"/>
					<path fill="#881720" d="M44.801,28.393l-3.288-9.159c-0.14-0.39-0.304-0.763-0.482-1.126c0.298,4.128-0.632,8.134-2.518,11.606
						l2.264,6.308C42.561,33.748,43.925,31.162,44.801,28.393z"/>
					<path fill="#881720" d="M47.402,35.639c-1.164,2.246-2.726,4.275-4.614,5.984l1.901,5.296c1.911-1.391,3.591-3.047,5.002-4.903
						L47.402,35.639z"/>
					<path fill="#881720" d="M50.676,54.175c1.654-0.594,2.514-2.416,1.92-4.07l-0.869-2.42c-1.587,1.482-3.416,2.731-5.44,3.681
						l0.319,0.89C47.199,53.909,49.021,54.769,50.676,54.175z"/>
				</g>
			</g>
			<path opacity="0.5" clip-path="url(#SVGID_4_)" fill="#FFFFFF" d="M21.371,22.25c0.229-1.388,0.534-2.777,1.125-4.054
				s1.491-2.442,2.704-3.156c0.393-0.232,0.84-0.419,1.294-0.372c0.27,0.028,0.525,0.137,0.754,0.281
				c0.818,0.52,1.285,1.54,1.144,2.498c-0.224,1.52-1.732,2.511-2.324,3.929c-0.321,0.767-0.353,1.649-0.089,2.438
				c0.232,0.695,0.69,1.349,0.65,2.08c-0.034,0.604-0.423,1.153-0.932,1.481c-0.994,0.641-2.974,0.861-3.583-0.397
				C21.435,25.576,21.122,23.765,21.371,22.25z"/>
			<path opacity="0.5" clip-path="url(#SVGID_4_)" fill="#FFFFFF" d="M36.963,16.391c0.779-0.221,1.616,0.236,2.116,0.874
				c0.5,0.637,0.748,1.428,1.051,2.179c1.072,2.651,2.925,4.967,3.719,7.714c0.075,0.259,0.132,0.562-0.028,0.778
				c-0.182,0.244-0.569,0.242-0.826,0.079c-0.257-0.163-0.415-0.439-0.563-0.706c-0.849-1.53-1.698-3.061-2.547-4.592
				c-0.78-1.405-1.567-2.821-2.605-4.049c-0.25-0.296-0.517-0.584-0.685-0.933c-0.168-0.349-0.225-0.776-0.041-1.117L36.963,16.391z
				"/>
			<path opacity="0.5" clip-path="url(#SVGID_4_)" fill="#FFFFFF" d="M23.286,26.755c0.06,0.035,0.123,0.068,0.192,0.074
				c0.158,0.013,0.296-0.127,0.337-0.28c0.041-0.153,0.008-0.315-0.025-0.471c-0.483-2.222-1.193-4.546-0.516-6.717
				c0.155-0.497,0.383-0.993,0.342-1.512c-0.159-0.064-0.312,0.098-0.403,0.243c-0.683,1.095-1.07,2.373-1.107,3.663
				c-0.03,1.046,0.166,2.077,0.325,3.105C22.563,25.713,22.423,26.247,23.286,26.755z"/>
			<path opacity="0.5" clip-path="url(#SVGID_4_)" fill="#FFFFFF" d="M37.28,17.87c0.438,0.385,0.944,0.704,1.293,1.171
				c0.063,0.083,0.121,0.173,0.206,0.233c0.145,0.104,0.357,0.1,0.496-0.012c0.138-0.111,0.187-0.322,0.108-0.481
				c-0.052-0.104-0.147-0.18-0.236-0.256c-0.502-0.433-0.713-1.288-1.261-1.617C37.209,16.501,36.699,17.36,37.28,17.87z"/>
		</g>
		<g>
			<path fill="#F1F0F0" d="M55.969,43.521c-2.258,1.665-5.035,2.624-7.877,2.847c-1.425,0.113-2.875-0.053-4.25-0.433
				c-1.394-0.347-2.64-1.114-3.733-1.966c1.303,0.522,2.571,1.004,3.91,1.206c1.326,0.204,2.666,0.319,4.006,0.195
				c1.34-0.087,2.674-0.318,3.999-0.633C53.343,44.403,54.665,44.021,55.969,43.521z"/>
		</g>
		<g>
			<g>
				<path fill="#3A9866" d="M63.246,39.185c0,0,3.677-4.707,3.7-7.643c0.002-0.18,0.188-0.292,0.348-0.212l0.763,0.382
					c0.113,0.057,0.166,0.188,0.116,0.307c-0.413,0.99-1.675,3.413-4.584,7.266L63.246,39.185z"/>
				<g>
					<g>
						<circle fill="#DB1F2E" cx="62.758" cy="40.799" r="4.463"/>
						
							<linearGradient id="SVGID_5_" gradientUnits="userSpaceOnUse" x1="94.0244" y1="91.3145" x2="100.6041" y2="98.2626" gradientTransform="matrix(0.9536 -0.3011 0.3011 0.9536 -56.5 -19.1338)">
							<stop  offset="0" style="stop-color:#62353A;stop-opacity:0"/>
							<stop  offset="1" style="stop-color:#62353A"/>
						</linearGradient>
						<circle opacity="0.8" fill="url(#SVGID_5_)" cx="62.758" cy="40.799" r="4.463"/>
					</g>
					
						<ellipse transform="matrix(0.6138 -0.7895 0.7895 0.6138 -7.356 62.7284)" fill="#F16374" cx="60.437" cy="38.883" rx="1.45" ry="1.012"/>
					
						<ellipse transform="matrix(0.6138 -0.7895 0.7895 0.6138 -7.2841 62.3948)" opacity="0.75" fill="#FFE3AF" cx="60.128" cy="38.642" rx="0.795" ry="0.555"/>
				</g>
			</g>
			<g>
				<path fill="#3A9866" d="M69.384,40.867c0,0,6.183-2.629,7.805-5.504c0.099-0.176,0.343-0.186,0.457-0.02l0.542,0.791
					c0.081,0.118,0.061,0.276-0.053,0.365c-0.946,0.749-3.506,2.446-8.467,4.652L69.384,40.867z"/>
				<g>
					<g>
						<circle fill="#DB1F2E" cx="68.025" cy="42.19" r="5.02"/>
						
							<linearGradient id="SVGID_6_" gradientUnits="userSpaceOnUse" x1="37.1475" y1="14.0103" x2="44.547" y2="21.8242" gradientTransform="matrix(0.9801 0.1984 -0.1984 0.9801 32.9639 18.7979)">
							<stop  offset="0" style="stop-color:#62353A;stop-opacity:0"/>
							<stop  offset="1" style="stop-color:#62353A"/>
						</linearGradient>
						<circle opacity="0.8" fill="url(#SVGID_6_)" cx="68.025" cy="42.19" r="5.02"/>
					</g>
					
						<ellipse transform="matrix(0.9194 -0.3932 0.3932 0.9194 -9.9717 29.4072)" fill="#F16374" cx="66.785" cy="39.041" rx="1.63" ry="1.137"/>
					
						<ellipse transform="matrix(0.9194 -0.3933 0.3933 0.9194 -9.8275 29.3142)" opacity="0.75" fill="#FFE3AF" cx="66.612" cy="38.636" rx="0.894" ry="0.624"/>
				</g>
			</g>
		</g>
		<path fill="#D41C5C" d="M58.956,44.115c0.416-0.488,0.959-1.025,1.59-0.911c0.338,0.062,0.61,0.302,0.899,0.488
			c0.461,0.3,1.016,0.477,1.563,0.42c0.701-0.071,1.393-0.513,2.065-0.305c0.363,0.112,0.643,0.396,0.937,0.639
			c0.908,0.751,2.09,1.167,3.27,1.151c0.197-0.002,0.41-0.013,0.578,0.093c0.098,0.063,0.168,0.158,0.256,0.235
			c0.496,0.443,1.313,0.16,1.912,0.446c0.069,0.033,0.136,0.074,0.188,0.131c0.106,0.118,0.135,0.291,0.11,0.448
			c-0.048,0.32-0.29,0.588-0.575,0.74c-0.287,0.153-0.614,0.208-0.937,0.241c-1.352,0.142-2.812-0.023-3.978,0.672
			c-0.125,0.074-0.25,0.16-0.393,0.184c-0.124,0.021-0.25-0.007-0.371-0.037c-0.888-0.218-1.738-0.563-2.617-0.813
			c-1.547-0.442-3.174-0.56-4.709-1.038c-0.516-0.161-0.989-0.479-0.944-1.084C57.85,45.152,58.554,44.586,58.956,44.115z"/>
		<path fill="#D41C5C" d="M29.428,59.812c-0.349,0.646-1.365,0.738-1.63,1.424c-0.219,0.569,0.265,1.208,0.843,1.402
			c0.578,0.195,1.208,0.083,1.813,0.012c1.579-0.185,3.193-0.069,4.73,0.339c2.849,0.757,5.507,2.514,8.452,2.395
			c0.947-0.039,1.875-0.273,2.814-0.405c5.939-0.833,11.835,2.476,17.803,1.878c2.677-0.269,5.207-1.311,7.692-2.342
			c1.643-0.682,3.311-1.433,5.088-1.358c1.053,0.044,2.115,0.261,3.15,0.064c2.149-0.408,3.571-2.437,5.486-3.496
			c0.449-0.249,1.018-0.637,0.851-1.122c-0.068-0.198-0.252-0.336-0.444-0.419c-0.901-0.388-1.893,0.189-2.769,0.631
			c-1.456,0.734-3.056,1.128-4.64,1.515c-2.391,0.586-4.782,1.171-7.174,1.756c-0.82,0.201-1.641,0.401-2.466,0.579
			c-2.671,0.574-5.396,0.904-8.127,0.984c-2.88-0.64-5.97-0.885-8.92-0.901c-1.029-0.005-2.062,0.027-3.083-0.098
			c-1.408-0.173-2.762-0.641-4.152-0.924c-0.567-0.116-1.139-0.201-1.712-0.283c-2.766-0.399-5.541-0.743-8.32-1.031
			c-0.725-0.074-1.454-0.146-2.155-0.344C31.661,59.815,30.337,59.608,29.428,59.812z"/>
		<g opacity="0.3">
			<g>
				<g>
					<g>
						<path fill="#50231C" d="M82.37,67.034c-1.581,0-1.584-2.458,0-2.458C83.951,64.576,83.955,67.034,82.37,67.034L82.37,67.034z"
							/>
					</g>
				</g>
				<g>
					<path fill="#50231C" d="M58.179,67.986c-1.597,0-1.6-2.482,0-2.482C59.776,65.504,59.779,67.986,58.179,67.986L58.179,67.986z"
						/>
				</g>
				<g>
					<path fill="#50231C" d="M73.295,73.373c-1.685,0-1.688-2.619,0-2.619C74.98,70.754,74.984,73.373,73.295,73.373L73.295,73.373z
						"/>
				</g>
				<g>
					<path fill="#50231C" d="M56.152,78.062c-2.12,0-2.123-3.294,0-3.294C58.272,74.768,58.275,78.062,56.152,78.062L56.152,78.062z
						"/>
				</g>
				<g>
					<path fill="#50231C" d="M43.563,70.304c-2.035,0-2.039-3.163,0-3.163C45.599,67.141,45.602,70.304,43.563,70.304L43.563,70.304
						z"/>
				</g>
				<g>
					<path fill="#50231C" d="M31.112,65.191c-1.187,0-1.188-1.844,0-1.844C32.298,63.348,32.3,65.191,31.112,65.191L31.112,65.191z"
						/>
				</g>
				<g>
					<path fill="#50231C" d="M28.528,72.634c-1.921,0-1.924-2.985,0-2.985C30.449,69.648,30.452,72.634,28.528,72.634L28.528,72.634
						z"/>
				</g>
				<g>
					<path fill="#50231C" d="M66.591,68.723c-1.087,0-1.089-1.688,0-1.688C67.677,67.034,67.679,68.723,66.591,68.723L66.591,68.723
						z"/>
				</g>
				<g>
					<path fill="#50231C" d="M46.748,76.415c-0.791,0-0.792-1.229,0-1.229C47.539,75.186,47.54,76.415,46.748,76.415L46.748,76.415z
						"/>
				</g>
				<g>
					<path fill="#50231C" d="M82.223,73.14c-1.385,0-1.388-2.153,0-2.153C83.609,70.986,83.611,73.14,82.223,73.14L82.223,73.14z"/>
				</g>
				<g>
					<path fill="#50231C" d="M86.879,63.038c-1.246,0-1.248-1.936,0-1.936C88.124,61.103,88.126,63.038,86.879,63.038L86.879,63.038
						z"/>
				</g>
				<g>
					<path fill="#50231C" d="M38.255,75.8c-1.214,0-1.216-1.887,0-1.887C39.469,73.913,39.471,75.8,38.255,75.8L38.255,75.8z"/>
				</g>
				<g>
					<path fill="#50231C" d="M52.415,72.638c-1.437,0-1.439-2.233,0-2.233C53.853,70.404,53.854,72.638,52.415,72.638L52.415,72.638
						z"/>
				</g>
				<g>
					<path fill="#50231C" d="M36.352,70.18c-1.322,0-1.324-2.055,0-2.055C37.674,68.125,37.676,70.18,36.352,70.18L36.352,70.18z"/>
				</g>
				<g>
					<g>
						<path fill="#50231C" d="M65.775,75.996c-1.582,0-1.584-2.458,0-2.458C67.357,73.538,67.359,75.996,65.775,75.996
							L65.775,75.996z"/>
					</g>
				</g>
				<g>
					<path fill="#50231C" d="M74.093,66.728c-1.581,0-1.585-2.458,0-2.458C75.674,64.27,75.677,66.728,74.093,66.728L74.093,66.728z
						"/>
				</g>
				<g>
					<path fill="#50231C" d="M90.008,72.063c-1.553,0-1.556-2.415,0-2.415C91.563,69.648,91.564,72.063,90.008,72.063L90.008,72.063
						z"/>
				</g>
			</g>
		</g>
		<g>
			<g>
				<g>
					<g>
						<path fill="#881720" d="M81.828,66.783c-1.582,0-1.584-2.458,0-2.458C83.41,64.325,83.412,66.783,81.828,66.783L81.828,66.783
							z"/>
					</g>
				</g>
				<g>
					<path fill="#DB1F2E" d="M57.637,67.735c-1.597,0-1.6-2.482,0-2.482C59.234,65.253,59.237,67.735,57.637,67.735L57.637,67.735z"
						/>
				</g>
				<g>
					<path fill="#DB1F2E" d="M72.754,73.121c-1.686,0-1.688-2.619,0-2.619C74.439,70.502,74.441,73.121,72.754,73.121L72.754,73.121
						z"/>
				</g>
				<g>
					<path fill="#50231C" d="M55.61,77.811c-2.12,0-2.123-3.294,0-3.294C57.73,74.517,57.733,77.811,55.61,77.811L55.61,77.811z"/>
				</g>
				<g>
					<path fill="#DB1F2E" d="M43.021,70.053c-2.035,0-2.039-3.163,0-3.163C45.057,66.89,45.06,70.053,43.021,70.053L43.021,70.053z"
						/>
				</g>
				<g>
					<path fill="#DB1F2E" d="M30.57,64.94c-1.187,0-1.188-1.844,0-1.844C31.756,63.097,31.758,64.94,30.57,64.94L30.57,64.94z"/>
				</g>
				<g>
					<path fill="#881720" d="M27.986,72.383c-1.92,0-1.924-2.985,0-2.985C29.907,69.397,29.91,72.383,27.986,72.383L27.986,72.383z"
						/>
				</g>
				<g>
					<path fill="#881720" d="M66.049,68.471c-1.086,0-1.088-1.688,0-1.688C67.135,66.783,67.137,68.471,66.049,68.471L66.049,68.471
						z"/>
				</g>
				<g>
					<path fill="#881720" d="M46.206,76.163c-0.791,0-0.792-1.229,0-1.229C46.997,74.935,46.998,76.163,46.206,76.163L46.206,76.163
						z"/>
				</g>
				<g>
					<path fill="#881720" d="M81.682,72.889c-1.387,0-1.389-2.153,0-2.153C83.066,70.735,83.069,72.889,81.682,72.889L81.682,72.889
						z"/>
				</g>
				<g>
					<path fill="#881720" d="M86.336,62.787c-1.245,0-1.247-1.937,0-1.937C87.582,60.851,87.584,62.787,86.336,62.787L86.336,62.787
						z"/>
				</g>
				<g>
					<path fill="#881720" d="M37.713,75.549c-1.214,0-1.216-1.887,0-1.887C38.928,73.662,38.93,75.549,37.713,75.549L37.713,75.549z
						"/>
				</g>
				<g>
					<path fill="#50231C" d="M51.873,72.387c-1.437,0-1.439-2.233,0-2.233C53.311,70.153,53.313,72.387,51.873,72.387L51.873,72.387
						z"/>
				</g>
				<g>
					<path fill="#50231C" d="M35.81,69.929c-1.322,0-1.324-2.055,0-2.055C37.132,67.874,37.134,69.929,35.81,69.929L35.81,69.929z"
						/>
				</g>
				<g>
					<g>
						<path fill="#881720" d="M65.233,75.745c-1.581,0-1.585-2.458,0-2.458C66.814,73.287,66.817,75.745,65.233,75.745
							L65.233,75.745z"/>
					</g>
				</g>
				<g>
					<path fill="#50231C" d="M73.551,66.477c-1.582,0-1.584-2.458,0-2.458C75.133,64.019,75.135,66.477,73.551,66.477L73.551,66.477
						z"/>
				</g>
				<g>
					<path fill="#DB1F2E" d="M89.467,71.812c-1.554,0-1.557-2.414,0-2.414C91.02,69.397,91.022,71.812,89.467,71.812L89.467,71.812z
						"/>
				</g>
			</g>
			<g>
				<path fill="#FFFFFF" d="M26.984,71.414c-0.163-0.357-0.129-0.802,0.092-1.158c0.123-0.167,0.279-0.317,0.469-0.394
					c0.184-0.09,0.387-0.108,0.579-0.104c-0.348,0.171-0.666,0.34-0.84,0.636c-0.103,0.135-0.162,0.3-0.209,0.472
					C27.032,71.037,26.997,71.221,26.984,71.414z"/>
			</g>
			<g>
				<path fill="#FFFFFF" d="M42.064,69.152c-0.17-0.401-0.131-0.896,0.116-1.291c0.136-0.186,0.31-0.353,0.52-0.439
					c0.204-0.102,0.429-0.126,0.644-0.128c-0.392,0.18-0.755,0.371-0.956,0.706c-0.116,0.154-0.182,0.341-0.233,0.535
					C42.108,68.73,42.073,68.938,42.064,69.152z"/>
			</g>
			<g>
				<path fill="#FFFFFF" d="M54.589,76.675c-0.17-0.402-0.131-0.896,0.116-1.292c0.136-0.185,0.31-0.353,0.52-0.439
					c0.204-0.102,0.429-0.126,0.644-0.127c-0.393,0.18-0.756,0.37-0.956,0.705c-0.116,0.154-0.182,0.341-0.234,0.535
					C54.633,76.252,54.598,76.459,54.589,76.675z"/>
			</g>
			<g>
				<path fill="#FFFFFF" d="M29.987,64.502c-0.145-0.245-0.125-0.567,0.033-0.828c0.091-0.119,0.205-0.229,0.344-0.278
					c0.134-0.06,0.281-0.063,0.417-0.048c-0.236,0.151-0.442,0.267-0.554,0.465C30.091,63.993,30.047,64.231,29.987,64.502z"/>
			</g>
			<g>
				<path fill="#FFFFFF" d="M35.196,69.299c-0.145-0.244-0.125-0.567,0.032-0.827c0.091-0.119,0.206-0.229,0.344-0.278
					c0.135-0.061,0.281-0.064,0.418-0.048c-0.236,0.15-0.442,0.267-0.554,0.464C35.3,68.79,35.256,69.029,35.196,69.299z"/>
			</g>
			<g>
				<path fill="#FFFFFF" d="M51.354,71.719c-0.144-0.245-0.125-0.568,0.033-0.828c0.091-0.119,0.206-0.229,0.344-0.278
					c0.135-0.061,0.281-0.064,0.418-0.048c-0.236,0.15-0.442,0.267-0.554,0.464C51.458,71.209,51.415,71.448,51.354,71.719z"/>
			</g>
			<g>
				<path fill="#FFFFFF" d="M56.895,66.95c-0.145-0.245-0.125-0.568,0.033-0.828c0.091-0.119,0.205-0.229,0.344-0.278
					c0.134-0.061,0.281-0.064,0.417-0.048c-0.236,0.15-0.442,0.267-0.554,0.464C56.999,66.441,56.956,66.68,56.895,66.95z"/>
			</g>
			<g>
				<path fill="#FFFFFF" d="M64.438,74.935c-0.144-0.245-0.124-0.567,0.032-0.828c0.092-0.119,0.206-0.229,0.345-0.278
					c0.135-0.061,0.281-0.064,0.418-0.048c-0.236,0.151-0.442,0.267-0.554,0.464C64.543,74.426,64.499,74.664,64.438,74.935z"/>
			</g>
			<g>
				<path fill="#FFFFFF" d="M72.907,65.554c-0.145-0.244-0.125-0.567,0.032-0.827c0.092-0.119,0.205-0.229,0.345-0.279
					c0.134-0.06,0.28-0.063,0.417-0.047c-0.236,0.15-0.441,0.266-0.553,0.464C73.012,65.045,72.967,65.283,72.907,65.554z"/>
			</g>
			<g>
				<path fill="#FFFFFF" d="M71.975,72.141c-0.145-0.245-0.125-0.568,0.033-0.828c0.091-0.119,0.205-0.229,0.344-0.278
					c0.135-0.061,0.281-0.064,0.418-0.048c-0.236,0.15-0.441,0.267-0.554,0.464C72.079,71.632,72.035,71.87,71.975,72.141z"/>
			</g>
			<g>
				<path fill="#FFFFFF" d="M81.201,65.83c-0.145-0.245-0.125-0.567,0.032-0.828c0.091-0.119,0.205-0.229,0.345-0.278
					c0.134-0.06,0.28-0.063,0.417-0.048c-0.236,0.151-0.442,0.267-0.554,0.465C81.305,65.321,81.262,65.56,81.201,65.83z"/>
			</g>
			<g>
				<path fill="#FFFFFF" d="M85.756,62.256c-0.145-0.244-0.125-0.567,0.032-0.827c0.091-0.12,0.206-0.229,0.345-0.279
					c0.134-0.06,0.281-0.063,0.418-0.047c-0.236,0.15-0.442,0.266-0.555,0.464C85.859,61.747,85.816,61.986,85.756,62.256z"/>
			</g>
			<g>
				<path fill="#FFFFFF" d="M81.033,72.141c-0.145-0.245-0.125-0.568,0.033-0.828c0.091-0.119,0.205-0.229,0.344-0.278
					c0.135-0.061,0.281-0.064,0.418-0.048c-0.236,0.15-0.441,0.267-0.554,0.464C81.138,71.632,81.094,71.87,81.033,72.141z"/>
			</g>
			<g>
				<path fill="#FFFFFF" d="M88.672,70.986c-0.145-0.245-0.125-0.567,0.033-0.828c0.091-0.119,0.205-0.229,0.344-0.278
					c0.135-0.06,0.281-0.063,0.418-0.048c-0.236,0.151-0.442,0.267-0.555,0.465C88.775,70.478,88.732,70.716,88.672,70.986z"/>
			</g>
			<g>
				<path fill="#FFFFFF" d="M45.839,75.884c-0.13-0.159-0.122-0.389-0.013-0.575c0.067-0.083,0.148-0.161,0.249-0.19
					c0.097-0.038,0.2-0.03,0.294-0.004c-0.151,0.135-0.271,0.209-0.335,0.332C45.946,75.554,45.913,75.699,45.839,75.884z"/>
			</g>
			<g>
				<path fill="#FFFFFF" d="M65.516,67.91c-0.13-0.159-0.121-0.388-0.012-0.575c0.066-0.083,0.148-0.161,0.248-0.19
					c0.096-0.037,0.2-0.029,0.294-0.004c-0.151,0.135-0.271,0.21-0.335,0.333C65.624,67.581,65.591,67.726,65.516,67.91z"/>
			</g>
			<g>
				<path fill="#FFFFFF" d="M37.137,75.093c-0.145-0.244-0.125-0.567,0.033-0.827c0.091-0.119,0.206-0.229,0.344-0.279
					c0.134-0.06,0.281-0.063,0.418-0.047c-0.237,0.15-0.442,0.266-0.554,0.464C37.241,74.584,37.198,74.823,37.137,75.093z"/>
			</g>
		</g>
		<path fill="#FFE3AF" d="M39.77,56.183c3.876,0.516,7.809,0.429,11.708,0.134c3.518-0.268,7.222-0.782,9.992-2.968
			c0.296-0.232,0.603-0.536,0.589-0.913c-0.021-0.636-0.854-0.851-1.491-0.863c-4.063-0.08-8.104,0.582-12.167,0.702
			c-3.608,0.107-7.229-0.215-10.76-0.958c-0.728-0.153-1.461-0.325-2.205-0.309c-2.009,0.047-3.771,1.469-1.652,2.972
			C35.597,55.266,37.587,55.893,39.77,56.183z"/>
		<path fill="#F16374" d="M70.557,50.317c-0.129,0.753-0.074,1.547,0.23,2.246c0.605,1.389,2.163,2.222,3.678,2.215
			c1.516-0.007,2.961-0.749,4.067-1.784c0.642-0.601,1.201-1.326,1.431-2.175c0.449-1.654-0.625-3.569-2.271-4.05
			c-0.363-0.106-0.751-0.149-1.121-0.069c-0.747,0.162-1.392,0.533-2.17,0.63c-0.466,0.058-0.936,0.023-1.392,0.152
			C71.717,47.849,70.781,49.017,70.557,50.317z"/>
		<path fill="#FFE3AF" d="M71.52,51.212c0.041,0.183,0.107,0.36,0.191,0.528c0.314,0.634,0.95,1.16,1.657,1.134
			c0.608-0.023,1.148-0.453,1.438-0.988c0.289-0.535,0.363-1.161,0.361-1.771c0-0.227-0.012-0.461-0.107-0.668
			c-0.336-0.722-1.769-0.836-2.439-0.566C71.781,49.218,71.33,50.367,71.52,51.212z"/>
		<g>
			<path fill="#F1F0F0" d="M51.891,57.02c2.085-0.089,4.143-0.332,6.193-0.587c2.049-0.277,4.088-0.6,6.114-0.997
				c2.024-0.406,4.046-0.833,6.052-1.346c2.01-0.493,4.008-1.046,6.031-1.577c-1.885,0.895-3.82,1.702-5.817,2.328
				c-1.983,0.671-4.026,1.147-6.075,1.576c-2.061,0.383-4.139,0.668-6.231,0.789C56.069,57.333,53.961,57.317,51.891,57.02z"/>
		</g>
		<path opacity="0.5" fill="#FFFFFF" d="M36.645,47.331c-0.518,0.299-1.009,0.676-1.323,1.185c-0.476,0.771-0.481,1.77-0.176,2.623
			c0.18,0.503,0.473,0.981,0.913,1.284c0.699,0.48,1.666,0.429,2.425,0.052c0.76-0.378,1.344-1.033,1.84-1.721
			c0.374-0.518,0.714-1.074,0.867-1.693c0.294-1.188-0.283-2.357-1.538-2.604C38.667,46.261,37.478,46.85,36.645,47.331z"/>
		<path opacity="0.5" fill="#FFFFFF" d="M36.649,46.462c-0.312,0.181-0.607,0.406-0.795,0.713c-0.287,0.464-0.29,1.064-0.106,1.577
			c0.108,0.303,0.285,0.591,0.549,0.772c0.42,0.289,1.001,0.258,1.458,0.031c0.457-0.227,0.808-0.621,1.107-1.034
			c0.225-0.312,0.43-0.646,0.521-1.019c0.177-0.715-0.17-1.418-0.925-1.567C37.866,45.818,37.15,46.173,36.649,46.462z"/>
		<path opacity="0.5" fill="#FFFFFF" d="M25.828,76.323c-0.528,0.514-1,1.112-1.221,1.814c-0.335,1.066-0.039,2.261,0.584,3.188
			c0.368,0.546,0.863,1.028,1.48,1.257c0.98,0.361,2.119,0.008,2.912-0.673c0.793-0.681,1.292-1.641,1.677-2.612
			c0.29-0.731,0.528-1.499,0.523-2.286c-0.009-1.508-1.053-2.729-2.626-2.645C27.92,74.432,26.678,75.496,25.828,76.323z"/>
		<path opacity="0.5" fill="#FFFFFF" d="M25.57,75.284c-0.317,0.309-0.602,0.669-0.734,1.092c-0.202,0.641-0.023,1.358,0.352,1.916
			c0.221,0.328,0.519,0.619,0.89,0.756c0.589,0.218,1.274,0.005,1.751-0.404c0.477-0.409,0.777-0.986,1.008-1.571
			c0.174-0.439,0.317-0.901,0.315-1.374c-0.005-0.907-0.633-1.642-1.58-1.592C26.829,74.146,26.081,74.786,25.57,75.284z"/>
		<g>
			<path fill="#F1F0F0" d="M45.827,57.062c-1.039,0.208-2.091,0.265-3.14,0.261c-1.05-0.003-2.099-0.09-3.141-0.247
				c-1.038-0.181-2.076-0.394-3.072-0.77c-0.993-0.365-1.971-0.837-2.778-1.527c1.008,0.323,1.995,0.561,2.992,0.776
				c0.997,0.211,2.004,0.375,3.014,0.533C41.722,56.417,43.757,56.654,45.827,57.062z"/>
		</g>
		<g>
			<path fill="#FFE3AF" d="M29.166,62.056c0.738-0.36,1.548-0.502,2.359-0.534c0.806-0.009,1.655,0.109,2.363,0.534
				c-0.815-0.045-1.571-0.058-2.352-0.034C30.757,62.033,29.981,62.077,29.166,62.056z"/>
		</g>
		<g>
			<path fill="#FFE3AF" d="M42.835,64.825c1.039-0.195,2.011-0.491,3.047-0.696c1.026-0.193,2.129-0.291,3.159,0.001
				c-1.056,0.103-2.046,0.283-3.065,0.489C44.966,64.801,43.893,65.021,42.835,64.825z"/>
		</g>
		<g>
			<path fill="#FFE3AF" d="M62.445,65.803c1.703-0.161,3.365-0.461,4.953-0.992c0.8-0.249,1.555-0.608,2.297-0.994
				c0.744-0.391,1.406-0.906,2.078-1.442c-0.52,0.679-1.148,1.296-1.878,1.771c-0.724,0.48-1.513,0.871-2.339,1.14
				c-0.826,0.267-1.675,0.46-2.535,0.542C64.163,65.911,63.296,65.93,62.445,65.803z"/>
		</g>
		<g>
			<path fill="#FFE3AF" d="M80.379,62.234c0.109-0.453,0.33-0.867,0.584-1.253c0.252-0.391,0.563-0.74,0.906-1.055
				c0.69-0.618,1.527-1.093,2.432-1.277c-0.367,0.284-0.74,0.523-1.086,0.802c-0.35,0.271-0.688,0.551-1.01,0.846
				C81.552,60.883,80.96,61.523,80.379,62.234z"/>
		</g>
		<path fill="#F4A28E" d="M84.517,79.678c-2.366,0.567-4.856,1.566-6.057,3.683c-0.741,1.305-0.883,2.868-0.794,4.365
			c0.043,0.728,0.149,1.484,0.567,2.081c0.423,0.603,1.111,0.964,1.808,1.204c1.967,0.68,4.117,0.562,6.176,0.252
			c2.447-0.368,4.915-1.024,6.932-2.459c2.016-1.436,3.518-3.77,3.436-6.243c-0.072-2.202-1.908-4.913-4.304-5.039
			c-1.097-0.059-2.185,0.686-3.19,1.028C87.602,79.059,86.042,79.312,84.517,79.678z"/>
		<path fill="#FFE3AF" d="M33.269,87.615c5.753,1.71,11.668,3.417,17.651,2.958c1.151-0.089,2.315-0.263,3.362-0.75
			c1.046-0.488,1.972-1.325,2.352-2.416c0.123-0.353,0.187-0.734,0.113-1.101c-0.21-1.046-1.39-1.551-2.424-1.813
			c-4.119-1.042-8.425-0.934-12.672-1.027s-8.608-0.427-12.443-2.255c-1.225-0.584-2.395-1.319-3.708-1.66
			c-1.313-0.342-2.858-0.207-3.81,0.761c-0.784,0.798-0.835,2.193-0.293,3.145c0.46,0.808,1.269,0.988,2.106,1.242
			C26.754,85.686,30.013,86.647,33.269,87.615z"/>
		<path fill="#FFE3AF" d="M61.36,85.029c-0.964,1.025-1.176,2.799-0.216,3.828c0.572,0.613,1.427,0.871,2.254,1.01
			c1.185,0.198,2.428,0.201,3.557-0.208s2.131-1.271,2.516-2.409C70.898,83.013,63.234,83.036,61.36,85.029z"/>
		<path fill="#FFE3AF" d="M92.516,80.285c0.644,0.111,1.129,0.704,1.266,1.343c0.137,0.638-0.021,1.307-0.276,1.907
			c-0.642,1.506-1.888,2.697-3.301,3.523c-1.413,0.825-2.997,1.314-4.583,1.719c-0.781,0.199-1.58,0.381-2.385,0.337
			c-0.807-0.043-1.629-0.338-2.152-0.951c-0.343-0.402-0.534-0.909-0.684-1.416c-0.199-0.677-0.332-1.415-0.094-2.08
			c0.438-1.219,1.879-1.688,3.137-2c2.402-0.594,4.805-1.188,7.208-1.781c0.195-0.049,0.341-0.199,0.522-0.287
			C91.592,80.395,92.057,80.205,92.516,80.285z"/>
		<path opacity="0.5" fill="#FFFFFF" d="M59.797,44.599c0.068-0.088,0.138-0.177,0.23-0.237c0.112-0.073,0.247-0.101,0.38-0.116
			c0.534-0.061,1.086,0.053,1.553,0.319c0.074,0.042,0.146,0.088,0.209,0.143c0.18,0.156,0.284,0.379,0.384,0.595
			c0.06,0.128,0.12,0.262,0.128,0.403c0.018,0.369-0.321,0.652-0.65,0.82c-0.18,0.09-0.365,0.166-0.557,0.226
			c-0.104,0.033-0.213,0.062-0.322,0.063c-0.119,0.003-0.238-0.024-0.354-0.052c-0.5-0.118-1.432-0.229-1.664-0.779
			C58.917,45.466,59.511,44.965,59.797,44.599z"/>
		<path opacity="0.5" fill="#FFFFFF" d="M51.752,46.932c0.492-0.02,0.984,0.01,1.476,0.039c0.66,0.04,1.321,0.079,1.981,0.119
			c0.533,0.031,1.069,0.064,1.588,0.188c0.21,0.051,0.45,0.149,0.495,0.36c0.069,0.318-0.342,0.509-0.664,0.551
			c-1.481,0.196-2.98-0.069-4.474-0.104c-2.374-0.056-4.781,0.47-7.106-0.016c-0.227-0.047-0.465-0.111-0.623-0.281
			c-0.158-0.17-0.188-0.477-0.002-0.616c0.103-0.077,0.242-0.084,0.371-0.081c1.077,0.025,2.098,0.386,3.191,0.323
			C49.251,47.341,50.483,46.98,51.752,46.932z"/>
		<path opacity="0.5" fill="#FFFFFF" d="M73.984,57.565c0.518-0.104,1.037-0.217,1.527-0.412c1.008-0.399,1.85-1.118,2.762-1.703
			c0.916-0.588,1.916-1.048,2.961-1.359c0.486-0.146,1.08-0.236,1.449,0.115c0.325,0.311,0.313,0.861,0.083,1.248
			c-0.23,0.387-0.626,0.643-1.022,0.857c-3.226,1.747-7.138,1.604-10.596,2.828c-2.063,0.73-4.042,1.965-6.23,1.921
			c-0.256-0.005-0.527-0.034-0.729-0.19c-0.355-0.275-0.348-0.806-0.306-1.254c0.022-0.232,0.05-0.48,0.194-0.664
			c0.109-0.138,0.271-0.222,0.433-0.293c1.342-0.586,2.829-0.271,4.249-0.378C70.514,58.149,72.26,57.91,73.984,57.565z"/>
		<path opacity="0.3" fill="#FFFFFF" d="M69.814,87.381c-1.204-0.134-2.408-0.268-3.612-0.4c-2.563-0.284-5.134-0.568-7.712-0.532
			c-1.797,0.025-3.663,0.229-5.198,1.161c-1.536,0.934-2.646,2.769-2.243,4.52c0.3,1.306,1.38,2.332,2.611,2.86
			s2.604,0.623,3.944,0.606c1.83-0.023,3.658-0.243,5.441-0.655c4.503-1.04,8.692-3.289,13.262-3.983
			c3.819-0.581,7.77-0.052,11.54-0.891c0.985-0.22,1.991-0.556,2.7-1.273c0.259-0.262,0.478-0.585,0.523-0.95
			c0.125-1.011-1.045-1.682-2.053-1.828c-1.672-0.243-2.796,0.305-4.285,0.841c-1.559,0.561-3.236,0.833-4.881,0.971
			C76.504,88.105,73.141,87.749,69.814,87.381z"/>
		<path opacity="0.3" fill="#FFFFFF" d="M39.604,87.662c-0.53,0.173-1.054,0.406-1.463,0.785c-0.861,0.8-1.053,2.173-0.598,3.257
			s1.467,1.874,2.584,2.239c1.328,0.435,2.885,0.282,3.98-0.585c1.556-1.232,1.716-3.55,0.576-5.108
			C43.575,86.735,41.162,87.156,39.604,87.662z"/>
		<path opacity="0.3" fill="#FFFFFF" d="M75.499,81.019c-0.415,0.202-0.885,0.699-0.569,1.036c0.137,0.146,0.357,0.16,0.557,0.164
			c4.633,0.078,9.28-0.967,13.434-3.02c0.172-0.084,0.35-0.178,0.453-0.338c0.354-0.552-0.332-1.003-0.79-1.055
			c-0.628-0.07-1.253,0.419-1.864,0.522c-0.986,0.167-1.986,0.034-2.99,0.217C80.908,79.06,78.088,79.757,75.499,81.019z"/>
		<path fill="#F4A28E" d="M23.727,94.001c-0.493,0.199-0.884,0.754-0.711,1.256c0.189,0.549,0.868,0.706,1.423,0.876
			c1.493,0.455,2.721,1.556,4.207,2.03c0.709,0.227,1.457,0.304,2.182,0.47c0.948,0.218,1.853,0.588,2.769,0.913
			c4.395,1.56,9.075,2.104,13.708,2.639c1.914,0.221,3.827,0.441,5.741,0.662c1.348,0.155,2.711,0.312,4.06,0.154
			c1.348-0.156,2.701-0.656,3.639-1.638c0.149-0.155,0.294-0.341,0.299-0.557c0.004-0.229-0.153-0.429-0.319-0.586
			c-1.147-1.082-2.916-1.038-4.492-1.003c-9.402,0.215-17.982-2.544-26.99-4.717C27.751,94.142,25.142,93.431,23.727,94.001z"/>
		<g>
			<path fill="#FFE3AF" d="M24.951,94.348c2.148,0.401,4.189,1.053,6.224,1.725c2.029,0.698,4.019,1.438,6.023,2.295
				c-1.097-0.024-2.172-0.218-3.228-0.458c-1.059-0.235-2.092-0.552-3.117-0.89C28.816,96.31,26.818,95.486,24.951,94.348z"/>
		</g>
		<path fill="#F4A28E" d="M77.335,97.707c-0.509,0.149-1.079,0.406-1.204,0.922c-0.083,0.344,0.066,0.704,0.275,0.989
			c0.678,0.925,1.938,1.263,3.079,1.152c1.142-0.109,2.208-0.591,3.271-1.023c2.497-1.018,5.104-1.8,7.781-2.113
			c1.092-0.128,2.21-0.183,3.23-0.589c1.02-0.405,1.949-1.257,2.082-2.347c-3.344-0.372-6.697,0.206-9.928,1.046
			c-1.453,0.379-2.877,0.948-4.328,1.305C80.195,97.393,78.742,97.292,77.335,97.707z"/>
		<g>
			<path fill="#FFE3AF" d="M80.531,98.537c-2.282,0.625-4.605,1.068-6.937,1.451c-2.331,0.392-4.681,0.651-7.036,0.859
				c-2.355,0.191-4.721,0.3-7.085,0.28c-2.365-0.006-4.731-0.139-7.076-0.435c1.183-0.084,2.358-0.065,3.534-0.16
				c1.175-0.034,2.349-0.098,3.521-0.174c2.344-0.162,4.687-0.295,7.024-0.508c2.342-0.182,4.678-0.414,7.021-0.623L80.531,98.537z"
				/>
		</g>
		<path fill="#F4A28E" d="M19.56,97.045c-0.433,0.233-0.768,0.684-0.774,1.175c-0.008,0.593,0.434,1.093,0.897,1.46
			c0.429,0.341,0.923,0.633,1.469,0.684c1.226,0.113,2.501-1.279,1.884-2.48C22.492,96.826,20.514,96.53,19.56,97.045z"/>
		<path fill="#F4A28E" d="M68.144,103.511c-0.261,0.554-0.085,1.278,0.401,1.649c0.402,0.307,0.944,0.364,1.45,0.329
			c0.616-0.042,1.224-0.202,1.78-0.471c1.324-0.639,0.561-1.696-0.542-1.972C70.629,102.895,68.454,102.854,68.144,103.511z"/>
		<path opacity="0.5" fill="#FFFFFF" d="M17.772,97.989c0.002,0.36,0.016,0.752,0.248,1.027c0.252,0.3,0.69,0.366,1.081,0.333
			c1.325-0.111,3.811-2.246,2.304-3.581c-0.559-0.495-1.584-0.387-2.231-0.175C18.01,95.975,17.766,96.854,17.772,97.989z"/>
		<path opacity="0.5" fill="#FFFFFF" d="M38.017,105.343c2.663,0.421,5.371,0.45,8.066,0.478c0.364,0.004,0.884-0.213,0.726-0.541
			c-0.053-0.109-0.171-0.17-0.283-0.219c-1.179-0.527-2.464-0.763-3.732-1.009c-3.824-0.743-7.639-1.642-11.246-3.14
			c-0.612-0.254-3.688-1.83-3.159-0.262c0.432,1.28,2.604,2.311,3.69,2.862C33.935,104.455,35.967,105.019,38.017,105.343z"/>
		<path opacity="0.5" fill="#FFFFFF" d="M93.012,99.169c-2.979,0.509-5.905,1.308-8.727,2.383c-0.631,0.241-1.383,0.71-1.248,1.371
			c0.08,0.396,0.481,0.659,0.881,0.712c0.399,0.052,0.8-0.062,1.188-0.174c3.274-0.954,6.549-1.907,9.824-2.86
			c0.763-0.222,1.529-0.445,2.252-0.774c0.646-0.294,1.252-0.671,1.803-1.119c0.264-0.215,0.525-0.466,0.611-0.796
			c0.112-0.432-0.155-0.928-0.578-1.071c-0.836-0.285-1.845,1.069-2.529,1.416C95.415,98.801,94.184,98.969,93.012,99.169z"/>
	</g>
	<g>
		<path fill="#F16374" d="M51.336,90.649c1.704,0.094,3.402,0.189,5.104,0.207c1.699,0.058,3.398,0.077,5.097,0.056
			c3.395-0.042,6.783-0.166,10.16-0.453c3.375-0.294,6.725-0.786,10.051-1.42c1.645-0.393,3.313-0.72,4.921-1.257
			c1.655-0.402,3.209-1.085,4.831-1.634c-3.016,1.604-6.262,2.768-9.579,3.641c-3.33,0.82-6.727,1.346-10.138,1.666
			c-3.415,0.265-6.842,0.364-10.258,0.223C58.11,91.539,54.697,91.259,51.336,90.649z"/>
	</g>
	<g>
		<path fill="#F16374" d="M26.808,90.058c3.91,0.405,7.773,0.938,11.646,1.448c3.869,0.538,7.737,1.024,11.614,1.691
			c-3.933,0.123-7.858-0.188-11.748-0.701C34.435,91.953,30.564,91.234,26.808,90.058z"/>
	</g>
	<g>
		<path fill="#F16374" d="M63.447,59.273c1.566-0.051,3.116-0.151,4.658-0.25c1.539-0.115,3.074-0.247,4.585-0.495
			c1.511-0.232,3.019-0.52,4.462-0.997c1.439-0.483,2.852-1.076,4.127-2.002c-1.008,1.214-2.392,2.106-3.853,2.732
			c-1.463,0.654-3.027,0.998-4.586,1.255c-1.565,0.236-3.146,0.328-4.718,0.284C66.551,59.769,64.982,59.607,63.447,59.273z"/>
	</g>
	<g>
		<path fill="#F16374" d="M32.024,53.564c0.663,0.72,1.433,1.309,2.273,1.776c0.824,0.489,1.692,0.893,2.583,1.233
			c1.785,0.669,3.649,1.136,5.55,1.387c0.94,0.189,1.907,0.217,2.861,0.333c0.96,0.069,1.925,0.096,2.89,0.149l2.909,0.019
			c0.973-0.011,1.945-0.056,2.929-0.036c-0.957,0.206-1.925,0.349-2.894,0.525c-0.973,0.123-1.953,0.195-2.935,0.272
			c-0.983,0.04-1.97,0.031-2.957,0.016c-0.984-0.089-1.975-0.111-2.953-0.29c-1.959-0.279-3.903-0.81-5.708-1.661
			C34.789,56.444,33.057,55.256,32.024,53.564z"/>
	</g>
	<g>
		<path fill="#F16374" d="M28.528,80.874c1.75,0.461,3.513,0.846,5.288,1.158c1.772,0.327,3.548,0.628,5.337,0.834
			c3.572,0.439,7.156,0.761,10.752,0.88c1.797,0.041,3.596,0.119,5.395,0.072l2.699-0.028l2.698-0.112
			c3.602-0.135,7.187-0.522,10.791-0.872c-1.771,0.362-3.549,0.718-5.338,1.004c-1.797,0.223-3.592,0.51-5.401,0.636
			c-3.612,0.38-7.251,0.38-10.88,0.3c-3.629-0.146-7.252-0.497-10.83-1.121C35.467,82.995,31.91,82.184,28.528,80.874z"/>
	</g>
</g>
</svg>
