<?xml version="1.0" encoding="utf-8"?>
<!-- Generator: Adobe Illustrator 16.0.0, SVG Export Plug-In . SVG Version: 6.00 Build 0)  -->
<!DOCTYPE svg PUBLIC "-//W3C//DTD SVG 1.1//EN" "http://www.w3.org/Graphics/SVG/1.1/DTD/svg11.dtd">
<svg version="1.1" id="Layer_1" xmlns="http://www.w3.org/2000/svg" xmlns:xlink="http://www.w3.org/1999/xlink" x="0px" y="0px"
	 width="120px" height="160px" viewBox="0 0 120 160" enable-background="new 0 0 120 160" xml:space="preserve">
<g>
	<g>
		<path fill="#DB1F2E" d="M98.775,75.529c-1.292,1.662-3.119,2.828-5.014,3.745c-2.146,1.037-4.414,1.793-6.676,2.541
			c-4.329,1.434-8.662,2.853-13.001,4.258c-2.709,0.877-5.443,1.754-8.274,2.058c-1.97,0.212-3.958,0.142-5.938,0.042
			c-10.039-0.505-20.199-1.811-29.426-5.8c-2.504-1.082-5.23-2.776-5.538-5.486c-0.261-2.299,1.727-4.599,4.039-4.676
			c1.497-0.049,2.893,0.692,4.221,1.387c4.611,2.416,9.438,4.541,14.554,5.5c3.542,0.664,7.162,0.759,10.766,0.822
			c5.644,0.098,11.351,0.116,16.848-1.164c5.464-1.272,10.546-3.784,15.571-6.275c1.543-0.765,3.085-1.553,4.546-2.458
			c-1.222-1.108-2.28-1.663-2.28-1.663s-13.056,5.858-32.01,5.421s-35.197-6.152-35.197-6.152s-7.23,2.031-7.433,10.848
			c-0.17,7.485,6.74,11.626,6.74,11.626s12.572,4.762,34.903,5.277c17.027,0.392,31.188-6.165,31.188-6.165s7.563-3.09,7.746-11.189
			c0.021-0.925-0.094-1.774-0.288-2.564C98.806,75.484,98.792,75.508,98.775,75.529z"/>
		<path fill="#F16374" d="M75.336,78.756c-5.497,1.279-11.204,1.262-16.848,1.164c-3.604-0.063-7.224-0.158-10.766-0.822
			c-5.116-0.959-9.942-3.084-14.554-5.5c-1.328-0.695-2.724-1.437-4.221-1.387c-2.313,0.077-4.3,2.377-4.039,4.676
			c0.308,2.71,3.034,4.404,5.538,5.486c9.227,3.989,19.387,5.295,29.426,5.8c1.979,0.1,3.968,0.17,5.938-0.042
			c2.831-0.304,5.565-1.181,8.274-2.058c4.339-1.405,8.672-2.824,13.001-4.258c2.262-0.748,4.53-1.504,6.676-2.541
			c1.895-0.917,3.722-2.083,5.014-3.745c0.017-0.021,0.03-0.045,0.047-0.067c-0.605-2.458-2.074-4.264-3.369-5.439
			c-1.461,0.905-3.003,1.693-4.546,2.458C85.882,74.973,80.8,77.484,75.336,78.756z"/>
		<path opacity="0.6" fill="#FAB078" d="M90.543,76.246c-1.039,0.718-2.236,1.166-3.431,1.574c-3.149,1.076-6.374,1.927-9.644,2.544
			c-1.065,0.201-2.135,0.377-3.204,0.554c-3.041,0.5-6.082,1.002-9.122,1.503c-0.721,0.118-1.609,0.406-1.682,1.132
			c-0.041,0.41,0.221,0.788,0.513,1.078c0.845,0.838,2.067,1.28,3.253,1.176c0.576-0.051,1.135-0.223,1.687-0.399
			c1.755-0.562,3.492-1.181,5.207-1.855c4.192-1.649,8.281-3.64,12.67-4.659c2.655-0.617,5.502-0.913,7.729-2.487
			c1.004-0.71,2.811-3.489,0.296-3.548C93.299,72.822,91.721,75.432,90.543,76.246z"/>
		<path opacity="0.6" fill="#FAB078" d="M56.652,82.063c-1.093-0.048-2.186-0.096-3.278-0.144c-0.517-0.022-1.043-0.044-1.543,0.087
			c-0.501,0.131-0.981,0.438-1.191,0.911c-0.246,0.554-0.066,1.231,0.327,1.692c0.394,0.46,0.966,0.732,1.547,0.905
			c1.03,0.305,2.12,0.331,3.194,0.337c1.404,0.008,4.268-0.033,4.726-1.815C60.932,82.101,57.753,82.11,56.652,82.063z"/>
		<path opacity="0.6" fill="#FAB078" d="M41.909,80.312c-3.245-1.062-6.51-2.132-9.509-3.762c-0.99-0.538-1.986-1.149-3.105-1.279
			c-0.646-0.075-1.381,0.059-1.763,0.584c-0.436,0.598-0.223,1.485,0.279,2.029s1.22,0.824,1.913,1.083
			c2.15,0.805,4.317,1.567,6.498,2.287c2.868,0.948,5.93,1.85,8.983,1.48c0.988-0.119,2.551-0.469,0.979-1.317
			C44.985,80.769,43.23,80.744,41.909,80.312z"/>
	</g>
	<g>
		<path fill="#F16374" d="M90.891,62.827c-0.575,0.349-1.215,0.573-1.85,0.794c-5.237,1.826-10.516,3.588-15.953,4.677
			c-5.438,1.089-11.065,1.493-16.537,0.588c-0.847-0.14-1.751-0.346-2.321-0.987c-0.695-0.783-0.655-2.044-0.085-2.923
			s1.566-1.408,2.586-1.646c1.02-0.238,2.079-0.22,3.127-0.223c9.022-0.021,18.039-1.674,26.483-4.853
			c1.179-0.444,2.355-0.922,3.441-1.564c0.239-0.142,0.484-0.312,0.735-0.479c-0.898-1.165-1.662-1.711-1.662-1.711
			c-34.152,9.85-56.195-1.45-56.195-1.45c-11.456,5.094-6.694,14.578-6.694,14.578s16.243,5.715,35.197,6.152
			s32.01-5.421,32.01-5.421c0.42-3.012,0.175-5.473-0.363-7.446C92.293,61.667,91.669,62.354,90.891,62.827z"/>
		<path fill="#F16374" d="M86.341,58.255c-8.444,3.179-17.461,4.832-26.483,4.853c-1.048,0.002-2.107-0.016-3.127,0.223
			c-1.02,0.239-2.016,0.768-2.586,1.646s-0.61,2.14,0.085,2.923c0.57,0.641,1.475,0.847,2.321,0.987
			c5.472,0.905,11.099,0.501,16.537-0.588c5.438-1.089,10.716-2.852,15.953-4.677c0.635-0.221,1.274-0.446,1.85-0.794
			c0.778-0.473,1.402-1.16,1.919-1.913c-0.576-2.113-1.486-3.659-2.292-4.703c-0.251,0.167-0.496,0.338-0.735,0.479
			C88.696,57.333,87.52,57.811,86.341,58.255z"/>
		<path opacity="0.6" fill="#FAB078" d="M86.341,58.255c-8.444,3.179-17.461,4.832-26.483,4.853
			c-1.048,0.002-2.107-0.016-3.127,0.223c-1.02,0.239-2.016,0.768-2.586,1.646s-0.61,2.14,0.085,2.923
			c0.57,0.641,1.475,0.847,2.321,0.987c5.472,0.905,11.099,0.501,16.537-0.588c5.438-1.089,10.716-2.852,15.953-4.677
			c0.635-0.221,1.274-0.446,1.85-0.794c0.778-0.473,1.402-1.16,1.919-1.913c-0.576-2.113-1.486-3.659-2.292-4.703
			c-0.251,0.167-0.496,0.338-0.735,0.479C88.696,57.333,87.52,57.811,86.341,58.255z"/>
		<path opacity="0.6" fill="#FAB078" d="M34.679,59.146c3.957,1.266,8.126,1.787,12.062,3.122c0.973,0.33,1.961,0.729,2.68,1.464
			s1.104,1.887,0.673,2.82c-0.57,1.234-2.166,1.527-3.523,1.618c-1.31,0.088-2.626,0.139-3.934,0.032
			c-2.519-0.207-4.948-0.995-7.352-1.777c-1.163-0.379-2.327-0.758-3.491-1.137c-0.892-0.29-1.794-0.585-2.591-1.08
			c-0.797-0.495-1.491-1.217-1.763-2.115c-0.43-1.423,0.441-3.836,1.882-4.474C30.704,57.007,33.333,58.715,34.679,59.146z"/>
		<path opacity="0.6" fill="#FAB078" d="M83.305,62.461c-5.646,1.355-11.524,1.247-17.331,1.218
			c-0.952-0.005-1.905-0.007-2.855,0.063c-1.308,0.098-2.608,0.336-3.854,0.75c-0.742,0.246-1.614,0.838-1.391,1.588
			c0.183,0.613,0.966,0.778,1.605,0.782c1.884,0.013,3.737-0.422,5.597-0.717c3.998-0.632,8.068-0.616,12.1-0.979
			s8.123-1.145,11.604-3.209c0.409-0.243,1.981-1.253,1.798-1.877c-0.233-0.795-1.292-0.076-1.674,0.153
			C87.149,61.285,85.292,61.984,83.305,62.461z"/>
		<path opacity="0.6" fill="#FAB078" d="M29.945,62.589c0.379,0.213,0.8,0.371,1.234,0.378c0.551,0.01,1.091-0.228,1.499-0.597
			c0.12-0.109,0.231-0.23,0.312-0.371c0.83-1.46-1.284-3.246-2.683-2.89C28.48,59.575,28.421,61.733,29.945,62.589z"/>
		<path opacity="0.6" fill="#FAB078" d="M39.438,65.398c1.845,0.248,3.743,0.07,5.552,0.508c0.669,0.162,1.354,0.409,2.028,0.267
			s1.273-0.893,0.96-1.506c-0.246-0.481-0.873-0.595-1.412-0.636c-2.307-0.174-4.689-0.066-6.857-0.876
			c-0.875-0.328-1.706-0.802-2.627-0.956c-1.035-0.172-2.873,0.465-1.824,1.752C36.036,64.908,38.296,65.245,39.438,65.398z"/>
	</g>
	<g>
		<path fill="#D41C5C" d="M75.493,36.872c-14.729,7.119-28.667-0.914-28.667-0.914c-2.887,0.965-5.188,2.155-7.025,3.452
			c1.757,0.781,3.498,1.618,5.258,2.169c8.828,2.766,18.341,1.633,27.536,0.612c1.99-0.221,4.079-0.422,5.93,0.343
			c1.85,0.765,3.321,2.843,2.698,4.745c-0.432,1.317-1.692,2.167-2.923,2.805c-6.611,3.428-14.38,3.598-21.827,3.535
			c-3.247-0.027-6.515-0.086-9.698-0.724c-2.31-0.463-4.548-1.225-6.778-1.985c-1.852-0.631-3.722-1.271-5.377-2.313
			c-0.428-0.27-0.841-0.572-1.23-0.901c-1.023,3.037-0.729,5.354-0.729,5.354S54.703,64.35,88.855,54.5
			C88.823,39.766,75.493,36.872,75.493,36.872z"/>
		<path fill="#F16374" d="M39.996,50.911c2.23,0.76,4.469,1.522,6.778,1.985c3.184,0.638,6.451,0.697,9.698,0.724
			c7.447,0.063,15.216-0.107,21.827-3.535c1.23-0.638,2.491-1.488,2.923-2.805c0.623-1.902-0.849-3.98-2.698-4.745
			c-1.851-0.765-3.939-0.564-5.93-0.343c-9.195,1.021-18.708,2.154-27.536-0.612c-1.76-0.551-3.501-1.388-5.258-2.169
			c-3.734,2.636-5.546,5.718-6.412,8.286c0.39,0.33,0.803,0.632,1.23,0.901C36.274,49.641,38.145,50.28,39.996,50.911z"/>
		<path opacity="0.6" fill="#FAB078" d="M37.253,44.198c-0.52,0.833-0.516,2.015,0.153,2.733c0.456,0.49,1.13,0.704,1.775,0.884
			c3.22,0.898,6.54,1.437,9.878,1.601c1.489,0.074,2.981,0.073,4.47,0.165c3.75,0.231,7.444,1.046,11.193,1.284
			c3.75,0.238,7.688-0.156,10.88-2.138c0.663-0.412,1.362-1.067,1.208-1.832c-0.184-0.915-1.364-1.148-2.296-1.184
			c-1.471-0.056-2.941-0.112-4.413-0.167c-2.853-0.108-5.705-0.217-8.561-0.236c-2.826-0.019-5.652,0.05-8.479,0.053
			c-2.252,0.002-4.517-0.05-6.747-0.39c-1.12-0.171-2.23-0.415-3.309-0.766c-1.064-0.347-2.014-1.02-3.052-1.366
			C38.989,42.517,37.757,43.39,37.253,44.198z"/>
	</g>
	<g>
		<g>
			<path fill="#F16374" d="M102.18,94.969l-7.038,38.733c-0.269,1.477-1.237,2.737-2.607,3.351c-1.016,0.455-2.06,0.889-3.13,1.304
				l6.407-41.227C98,96.471,100.129,95.745,102.18,94.969z"/>
			<path fill="#F16374" d="M89.567,98.828l-5.349,41.312c-1.652,0.496-3.351,0.946-5.102,1.352l4.278-41.344
				C85.499,99.756,87.557,99.318,89.567,98.828z"/>
			<path fill="#F16374" d="M77.263,101.134l-3.207,41.356c-1.652,0.274-3.337,0.51-5.055,0.692l2.136-41.363
				C73.207,101.637,75.251,101.401,77.263,101.134z"/>
			<path fill="#F16374" d="M63.938,143.588c-1.678,0.091-3.383,0.137-5.101,0.137v-41.369c2.077,0,4.135-0.046,6.166-0.131
				L63.938,143.588z"/>
			<path fill="#F16374" d="M52.666,102.225l1.064,41.363c-1.711-0.092-3.396-0.223-5.062-0.405l-2.136-41.363
				C48.551,101.996,50.596,102.133,52.666,102.225z"/>
			<path fill="#F16374" d="M40.406,101.134l3.207,41.356c-1.725-0.287-3.416-0.62-5.062-0.999l-4.278-41.344
				C36.285,100.52,38.329,100.847,40.406,101.134z"/>
			<path fill="#F16374" d="M28.102,98.828l5.349,41.312c-1.789-0.543-3.521-1.137-5.186-1.777v-0.006L21.857,97.13
				C23.882,97.751,25.966,98.319,28.102,98.828z"/>
			<path fill="#DB1F2E" d="M95.812,97.13l-6.407,41.227v0.006c-1.665,0.641-3.396,1.234-5.186,1.777l5.349-41.312
				C91.703,98.319,93.787,97.751,95.812,97.13z"/>
			<path fill="#DB1F2E" d="M83.396,100.147l-4.278,41.344c-1.646,0.379-3.337,0.712-5.062,0.999l3.207-41.356
				C79.34,100.847,81.391,100.52,83.396,100.147z"/>
			<path fill="#DB1F2E" d="M71.137,101.819l-2.136,41.363c-1.666,0.183-3.351,0.313-5.063,0.405l1.065-41.363
				C67.074,102.133,69.118,101.996,71.137,101.819z"/>
			<path fill="#DB1F2E" d="M58.838,102.355v41.369c-1.725,0-3.423-0.046-5.107-0.137l-1.064-41.363
				C54.697,102.31,56.761,102.355,58.838,102.355z"/>
			<path fill="#DB1F2E" d="M46.533,101.819l2.136,41.363c-1.712-0.183-3.403-0.418-5.056-0.692l-3.207-41.356
				C42.418,101.401,44.463,101.637,46.533,101.819z"/>
			<path fill="#DB1F2E" d="M34.273,100.147l4.278,41.344c-1.751-0.405-3.448-0.855-5.102-1.352l-5.349-41.312
				C30.113,99.318,32.17,99.756,34.273,100.147z"/>
			<path fill="#DB1F2E" d="M21.857,97.13l6.407,41.227c-1.071-0.411-2.117-0.847-3.134-1.304c-1.367-0.614-2.335-1.873-2.603-3.348
				l-7.039-38.736C17.54,95.745,19.663,96.471,21.857,97.13z"/>
			<path fill="#F16374" d="M95.812,97.13c-2.024,0.621-4.108,1.189-6.244,1.698c-2.011,0.49-4.068,0.928-6.172,1.319
				c-2.005,0.372-4.056,0.699-6.133,0.986c-0.397,0.053-0.803,0.099-1.203,0.148c0.136,1.242,0.176,2.499,0.149,3.746
				c-0.285,13.67-7.959,26.884-19.497,34.222c-2.521,1.603-5.213,2.903-8.007,3.937c1.653,0.181,3.326,0.311,5.025,0.401
				c1.685,0.091,3.383,0.137,5.107,0.137c1.718,0,3.423-0.046,5.101-0.137c1.712-0.092,3.396-0.223,5.063-0.405
				c1.718-0.183,3.402-0.418,5.055-0.692c1.725-0.287,3.416-0.62,5.062-0.999c1.751-0.405,3.449-0.855,5.102-1.353
				c1.789-0.542,3.521-1.136,5.186-1.776v-0.006c1.07-0.415,2.114-0.849,3.13-1.304c1.37-0.613,2.339-1.874,2.607-3.351
				l7.038-38.733C100.129,95.745,98,96.471,95.812,97.13z"/>
			<path opacity="0.4" fill="#F16374" d="M76.06,101.282c-1.624,0.204-3.263,0.391-4.923,0.537
				c-2.019,0.177-4.063,0.313-6.133,0.405c-2.031,0.085-4.089,0.131-6.166,0.131s-4.141-0.046-6.172-0.131
				c-1.274-0.057-2.536-0.136-3.791-0.225c-1.19,2.852-2.746,5.469-4.158,7.381c-2.606,3.531-5.854,6.585-9.462,9.077
				c-4.292,2.967-9.245,5.205-14.354,6.295l1.626,8.952c0.269,1.475,1.236,2.733,2.604,3.348c1.017,0.457,2.063,0.892,3.134,1.304
				v0.006c1.665,0.641,3.396,1.234,5.186,1.776c1.653,0.497,3.351,0.947,5.102,1.353c1.646,0.379,3.337,0.712,5.062,0.999
				c1.652,0.274,3.344,0.51,5.056,0.692c0.012,0.001,0.023,0.002,0.036,0.004c2.794-1.033,5.486-2.334,8.007-3.937
				c11.538-7.338,19.212-20.552,19.497-34.222C76.235,103.781,76.195,102.524,76.06,101.282z"/>
		</g>
		<g>
			<polygon fill="#FFFFFF" points="22.385,97.29 27.929,136.271 21.323,96.968 			"/>
		</g>
		<g>
			<polygon fill="#FFFFFF" points="28.619,98.953 33.22,138.356 27.578,98.702 			"/>
		</g>
		<g>
			<polygon fill="#FFFFFF" points="34.742,100.233 38.404,139.765 33.711,100.042 			"/>
		</g>
		<g>
			<polygon fill="#FFFFFF" points="40.878,101.196 43.481,140.949 39.852,101.057 			"/>
		</g>
		<g>
			<polygon fill="#FFFFFF" points="47.06,101.865 48.559,141.491 46.036,101.775 			"/>
		</g>
		<g>
			<polygon fill="#FFFFFF" points="53.064,102.241 53.688,141.941 52.041,102.195 			"/>
		</g>
		<g>
			<polygon fill="#FFFFFF" points="59.338,102.355 58.838,142.101 58.313,102.355 			"/>
		</g>
		<g opacity="0.5">
			<polygon fill="#FFFFFF" points="95.291,97.29 89.747,136.271 96.353,96.968 			"/>
		</g>
		<g opacity="0.5">
			<polygon fill="#FFFFFF" points="89.057,98.953 84.456,138.356 90.098,98.702 			"/>
		</g>
		<g opacity="0.5">
			<polygon fill="#FFFFFF" points="82.934,100.233 79.297,139.765 83.965,100.042 			"/>
		</g>
		<g opacity="0.5">
			<polygon fill="#FFFFFF" points="76.798,101.196 74.176,140.949 77.824,101.057 			"/>
		</g>
		<g opacity="0.7">
			<polygon fill="#FFFFFF" points="70.616,101.865 69.088,141.491 71.64,101.775 			"/>
		</g>
		<g opacity="0.7">
			<polygon fill="#FFFFFF" points="64.611,102.241 63.988,141.941 65.635,102.195 			"/>
		</g>
		<path fill="#50231C" d="M101.512,98.645c-0.671-0.208-2.122-0.511-2.67-0.07c-0.447,0.359-0.561,0.979-0.751,1.52
			s-0.612,1.118-1.184,1.07c-0.767-0.063-1.12-0.97-1.889-0.978c-0.491-0.006-1.017-0.001-1.424,0.272
			c-0.348,0.233-0.552,0.625-0.848,0.922c-0.518,0.519-1.294,0.712-2.026,0.67c-0.731-0.041-1.435-0.29-2.121-0.548
			c-0.29-0.109-0.59-0.223-0.9-0.214c-1.081,0.03-1.656,1.433-2.713,1.665c-0.361,0.079-0.737,0.009-1.101-0.061
			c-0.948-0.183-1.897-0.364-2.847-0.547c-0.44-0.084-0.941-0.156-1.301,0.113c-0.233,0.175-0.354,0.459-0.537,0.685
			c-0.707,0.871-2.072,0.671-3.141,0.327s-2.335-0.722-3.227-0.04c-0.573,0.439-0.857,1.25-1.539,1.491
			c-0.668,0.237-1.378-0.193-1.926-0.644c-0.547-0.45-0.999-0.744-1.708-0.717c-1.26,1.189-2.941,2.473-4.551,1.831
			c-0.847-0.337-1.503-1.176-2.412-1.218c-0.84-0.039-1.525,0.616-2.268,1.013c-1.487,0.794-3.484,0.482-4.659-0.729
			c-0.165-0.17-0.327-0.363-0.553-0.435c-0.265-0.083-0.549,0.021-0.805,0.129c-1.006,0.421-2.082,0.919-3.143,0.665
			c-1.184-0.283-2.084-1.459-3.301-1.462c-1.104-0.002-2.069,0.991-3.165,0.851c-0.445-0.057-0.842-0.298-1.225-0.532
			c-0.492-0.303-0.985-0.606-1.478-0.909c-0.312-0.191-0.697-0.389-1.024-0.224c-0.189,0.095-0.306,0.289-0.469,0.424
			c-0.481,0.396-1.216,0.176-1.734-0.171c-0.519-0.346-1.001-0.814-1.619-0.898c-1.009-0.136-1.948,0.811-2.947,0.62
			c-1.162-0.222-1.738-1.852-2.921-1.867c-0.369-0.004-0.72,0.161-1.087,0.193c-1.513,0.132-2.675-1.939-4.145-1.554
			c-0.325,0.085-0.608,0.288-0.931,0.384c-0.582,0.173-1.26-0.052-1.623-0.537c-0.233-0.313-0.408-0.759-0.796-0.799
			c-0.448-0.047-0.721,0.496-1.139,0.661c-1.059,0.418-1.66-1.647-2.797-1.603c-0.269,0.011-0.518,0.146-0.785,0.181l-0.111,0.069
			l-0.446-2.063c0,0,17.202,7.262,42.418,7.262c28.73,0,44.146-7.403,44.146-7.403L101.512,98.645z"/>
		<path fill="#FAB078" d="M102.159,94.67c0.648,0.288,1.246,0.845,1.402,1.538c0.156,0.692-0.164,1.501-0.812,1.792
			c-0.641,0.289-1.381,0.041-2.052-0.166c-0.672-0.207-1.472-0.349-2.02,0.091c-0.447,0.359-0.562,0.979-0.752,1.52
			c-0.19,0.542-0.611,1.119-1.184,1.071c-0.766-0.063-1.119-0.97-1.888-0.979c-0.491-0.005-1.017-0.001-1.425,0.273
			c-0.348,0.233-0.551,0.625-0.847,0.922c-0.518,0.519-1.295,0.711-2.026,0.67c-0.732-0.042-1.435-0.291-2.121-0.549
			c-0.29-0.109-0.59-0.222-0.9-0.213c-1.082,0.03-1.656,1.432-2.713,1.664c-0.361,0.08-0.737,0.01-1.101-0.06
			c-0.949-0.183-1.897-0.365-2.847-0.547c-0.441-0.085-0.942-0.157-1.302,0.113c-0.232,0.175-0.353,0.458-0.536,0.685
			c-0.707,0.871-2.072,0.671-3.141,0.327s-2.336-0.723-3.227-0.04c-0.574,0.438-0.858,1.249-1.539,1.491
			c-0.668,0.236-1.378-0.193-1.926-0.644c-0.548-0.451-1-0.744-1.708-0.718c-1.26,1.19-2.941,2.473-4.551,1.832
			c-0.847-0.337-1.503-1.176-2.412-1.219c-0.841-0.038-1.526,0.616-2.268,1.013c-1.488,0.795-3.485,0.482-4.659-0.728
			c-0.165-0.17-0.327-0.363-0.554-0.435c-0.265-0.083-0.548,0.021-0.804,0.128c-1.006,0.422-2.082,0.919-3.143,0.665
			c-1.184-0.283-2.084-1.459-3.301-1.461c-1.104-0.002-2.069,0.991-3.165,0.851c-0.445-0.058-0.843-0.298-1.225-0.533
			c-0.492-0.303-0.985-0.605-1.478-0.908c-0.313-0.192-0.698-0.389-1.025-0.225c-0.188,0.096-0.305,0.29-0.468,0.425
			c-0.481,0.396-1.216,0.176-1.734-0.171c-0.52-0.347-1.002-0.814-1.62-0.898c-1.008-0.137-1.947,0.81-2.947,0.619
			c-1.161-0.221-1.738-1.852-2.921-1.866c-0.368-0.005-0.719,0.16-1.086,0.192c-1.514,0.133-2.675-1.938-4.145-1.553
			c-0.325,0.085-0.609,0.287-0.932,0.383c-0.581,0.173-1.259-0.052-1.622-0.537c-0.233-0.312-0.409-0.759-0.797-0.799
			c-0.447-0.047-0.72,0.496-1.138,0.662c-1.059,0.418-1.66-1.647-2.797-1.604c-0.27,0.011-0.519,0.147-0.785,0.181
			c-0.493,0.063-1.006-0.277-1.141-0.756c-0.134-0.479,0.252-1.001,0.706-1.203c0,0,18.9,7.227,42.294,7.227
			C86.514,102.195,102.159,94.67,102.159,94.67z"/>
		<g>
			<g>
				<path fill="#FFFFFF" d="M15.43,96.519c-0.219-0.088-0.369-0.313-0.368-0.581c0.018-0.13,0.068-0.262,0.163-0.344
					c0.088-0.089,0.202-0.131,0.314-0.152c-0.123,0.201-0.234,0.348-0.229,0.512C15.286,96.118,15.364,96.297,15.43,96.519z"/>
			</g>
			<g>
				<path fill="#FFFFFF" d="M18.354,97.13c0.177,0.175,0.291,0.357,0.443,0.503c0.137,0.165,0.284,0.273,0.508,0.382
					c-0.115,0.043-0.252,0.046-0.376,0.001c-0.123-0.043-0.223-0.129-0.315-0.213C18.456,97.608,18.341,97.384,18.354,97.13z"/>
			</g>
			<g>
				<path fill="#FFFFFF" d="M21.52,97.901c0.144,0.215,0.268,0.389,0.448,0.503c0.167,0.133,0.377,0.194,0.618,0.298
					c-0.122,0.043-0.254,0.066-0.386,0.048c-0.134-0.012-0.26-0.073-0.378-0.143C21.605,98.438,21.46,98.164,21.52,97.901z"/>
			</g>
			<g>
				<path fill="#FFFFFF" d="M26.047,99.046c0.638,0.264,1.155,0.583,1.805,0.777c-0.342,0.101-0.7-0.005-1.013-0.137
					C26.536,99.525,26.246,99.334,26.047,99.046z"/>
			</g>
			<g>
				<path fill="#FFFFFF" d="M30.989,100.302c0.459,0.5,0.839,0.95,1.491,1.137c-0.165,0.04-0.348,0.046-0.518-0.008
					c-0.17-0.052-0.322-0.147-0.462-0.253C31.248,100.938,31.043,100.645,30.989,100.302z"/>
			</g>
			<g>
				<path fill="#FFFFFF" d="M36.496,101.438c0.441,0.329,0.757,0.619,1.264,0.805c-0.13,0.042-0.275,0.057-0.414,0.023
					c-0.138-0.029-0.265-0.095-0.384-0.167C36.744,101.929,36.555,101.716,36.496,101.438z"/>
			</g>
			<g>
				<path fill="#FFFFFF" d="M41.164,102.243c0.577,0.44,1.078,0.833,1.775,1.021c-0.177,0.04-0.368,0.05-0.55,0.006
					c-0.182-0.04-0.354-0.119-0.515-0.21C41.572,102.852,41.3,102.589,41.164,102.243z"/>
			</g>
			<g>
				<path fill="#FFFFFF" d="M47.56,102.657c0.727,0.497,1.381,0.994,2.237,1.191c-0.218,0.041-0.448,0.036-0.669-0.016
					c-0.22-0.054-0.425-0.149-0.624-0.253C48.128,103.34,47.781,103.047,47.56,102.657z"/>
			</g>
			<g>
				<path fill="#FFFFFF" d="M54.125,103.411c0.352,0.288,0.68,0.57,1.056,0.782c0.364,0.235,0.764,0.372,1.206,0.481
					c-0.223,0.038-0.461,0.048-0.688-0.01c-0.228-0.051-0.444-0.144-0.646-0.258C54.665,104.156,54.317,103.831,54.125,103.411z"/>
			</g>
			<g>
				<path fill="#FFFFFF" d="M61.857,103.581c0.38,0.156,0.712,0.365,1.063,0.537c0.168,0.102,0.344,0.185,0.518,0.269
					c0.176,0.08,0.351,0.167,0.55,0.216c-0.417,0.088-0.827-0.09-1.185-0.264C62.452,104.134,62.116,103.903,61.857,103.581z"/>
			</g>
			<g>
				<path fill="#FFFFFF" d="M69.178,102.948c0.559,0.449,1.037,0.857,1.727,1.046c-0.175,0.04-0.365,0.048-0.545,0.002
					c-0.18-0.043-0.347-0.126-0.504-0.219C69.561,103.563,69.3,103.294,69.178,102.948z"/>
			</g>
			<g>
				<path fill="#FFFFFF" d="M75.442,102.219c0.881,0.291,1.709,0.512,2.635,0.486c-0.213,0.091-0.444,0.158-0.681,0.168
					c-0.235,0.017-0.473-0.007-0.704-0.048C76.237,102.715,75.79,102.537,75.442,102.219z"/>
			</g>
			<g>
				<path fill="#FFFFFF" d="M81.847,101.563c0.515,0.035,1.006,0.138,1.503,0.205c0.246,0.049,0.493,0.077,0.74,0.11
					c0.246,0.028,0.493,0.061,0.747,0.025c-0.476,0.248-1.028,0.164-1.526,0.11C82.807,101.917,82.309,101.797,81.847,101.563z"/>
			</g>
			<g>
				<path fill="#FFFFFF" d="M88.68,100.473c0.425,0.173,0.83,0.336,1.26,0.421c0.424,0.114,0.857,0.13,1.317,0.158
					c-0.215,0.079-0.443,0.14-0.677,0.145c-0.233,0.017-0.467-0.017-0.696-0.06C89.434,101.02,88.992,100.819,88.68,100.473z"/>
			</g>
			<g>
				<path fill="#FFFFFF" d="M95.812,99.35c0.199,0.188,0.34,0.39,0.525,0.531c0.17,0.164,0.357,0.244,0.635,0.267
					c-0.11,0.08-0.256,0.128-0.406,0.106c-0.148-0.02-0.277-0.1-0.392-0.185C95.969,99.873,95.826,99.628,95.812,99.35z"/>
			</g>
			<g>
				<path fill="#FFFFFF" d="M100.57,97.13c0.649,0.437,1.337,0.508,2.115,0.493c-0.174,0.088-0.361,0.156-0.559,0.182
					c-0.196,0.032-0.397,0.014-0.598-0.013C101.144,97.696,100.753,97.49,100.57,97.13z"/>
			</g>
		</g>
	</g>
	<path fill="#881720" d="M69.856,24.979c5.428,5.676,5.637,11.894,5.637,11.894c-14.729,7.119-28.667-0.914-28.667-0.914
		s0.229-15.199,17.812-20.528C64.638,15.528,64.67,19.564,69.856,24.979z"/>
	<linearGradient id="SVGID_1_" gradientUnits="userSpaceOnUse" x1="60.9165" y1="31.2339" x2="82.8729" y2="54.693">
		<stop  offset="0" style="stop-color:#62353A;stop-opacity:0"/>
		<stop  offset="1" style="stop-color:#62353A"/>
	</linearGradient>
	<path opacity="0.8" fill="url(#SVGID_1_)" d="M69.856,24.979c5.428,5.676,5.637,11.894,5.637,11.894
		c-14.729,7.119-28.667-0.914-28.667-0.914s0.229-15.199,17.812-20.528C64.638,15.528,64.67,19.564,69.856,24.979z"/>
	<path fill="#FAB078" d="M96.034,85.772c3.905,2.685,6.146,5.833,6.146,9.196c-2.051,0.776-4.18,1.502-6.368,2.161
		c-2.024,0.621-4.108,1.189-6.244,1.698c-2.011,0.49-4.068,0.928-6.172,1.319c-2.005,0.372-4.056,0.699-6.133,0.986
		c-2.012,0.268-4.056,0.503-6.126,0.686c-2.019,0.177-4.063,0.313-6.133,0.405c-2.031,0.085-4.089,0.131-6.166,0.131
		s-4.141-0.046-6.172-0.131c-2.07-0.092-4.115-0.229-6.133-0.405c-2.07-0.183-4.115-0.418-6.127-0.686
		c-2.077-0.287-4.121-0.614-6.133-0.986c-2.104-0.392-4.16-0.829-6.172-1.319c-2.136-0.509-4.22-1.077-6.244-1.698
		c-2.194-0.659-4.317-1.385-6.368-2.161c0-3.201,2.038-6.212,5.604-8.811c1.906,2.579,4.18,3.944,4.18,3.944
		s12.572,4.762,34.903,5.277c17.027,0.392,31.188-6.165,31.188-6.165S93.872,88.189,96.034,85.772z"/>
	<g>
		<g opacity="0.6">
			<g>
				<path fill="#881720" d="M32.97,62.009c0.123,1.272,0.814,2.445,2.002,2.999c0.501,0.233,1.103,0.141,1.399-0.367
					c0.26-0.443,0.137-1.165-0.366-1.399c-0.521-0.243-0.938-0.695-0.989-1.232c-0.053-0.55-0.432-1.023-1.022-1.023
					C33.48,60.986,32.917,61.456,32.97,62.009L32.97,62.009z"/>
			</g>
			<g>
				<path fill="#881720" d="M46.067,67.083c0.608,0.118,1.257,0.083,1.771-0.304c0.587-0.443,0.892-1.177,0.488-1.866
					c-0.338-0.578-1.273-0.935-1.865-0.489c-0.12,0.079-0.14,0.098-0.058,0.057c0.118-0.06,0.248-0.069,0.389-0.028
					c-0.698-0.136-1.505,0.196-1.678,0.953C44.961,66.08,45.318,66.938,46.067,67.083L46.067,67.083z"/>
			</g>
			<g>
				<path fill="#881720" d="M56.663,65.346c1.755,0,1.759-2.728,0-2.728C54.908,62.618,54.905,65.346,56.663,65.346L56.663,65.346z"
					/>
			</g>
			<g>
				<path fill="#881720" d="M62.583,70.297c1.344,0.853,2.832,1.427,4.403,1.678c1.288,0.206,1.843-1.765,0.544-1.973
					c-1.419-0.226-2.701-0.701-3.915-1.471C62.501,67.823,61.474,69.593,62.583,70.297L62.583,70.297z"/>
			</g>
			<g>
				<path fill="#881720" d="M74.802,63.55c1.755,0,1.758-2.728,0-2.728C73.046,60.822,73.043,63.55,74.802,63.55L74.802,63.55z"/>
			</g>
			<g>
				<path fill="#881720" d="M82.541,64.855c0.414,0.663,0.967,1.082,1.686,1.371c0.513,0.207,1.124-0.225,1.258-0.714
					c0.161-0.584-0.199-1.051-0.714-1.258c-0.187-0.075-0.352-0.252-0.463-0.431C83.611,62.709,81.841,63.734,82.541,64.855
					L82.541,64.855z"/>
			</g>
			<g>
				<path fill="#881720" d="M87.192,61.395c1.756,0,1.759-2.728,0-2.728C85.438,58.667,85.435,61.395,87.192,61.395L87.192,61.395z"
					/>
			</g>
			<g>
				<g>
					<path fill="#881720" d="M42.835,61.754c1.756,0,1.759-2.728,0-2.728C41.08,59.026,41.077,61.754,42.835,61.754L42.835,61.754z"
						/>
				</g>
			</g>
			<g>
				<path fill="#881720" d="M40.77,69.467c0.303,0.234,0.605,0.469,0.909,0.704c0.582,0.45,1.361,0.567,1.929,0
					c0.469-0.47,0.586-1.476,0-1.929c-0.304-0.234-0.606-0.469-0.91-0.704c-0.581-0.45-1.361-0.567-1.928,0
					C40.3,68.008,40.184,69.014,40.77,69.467L40.77,69.467z"/>
			</g>
		</g>
		<g>
			<g>
				<path fill="#DB1F2E" d="M32.129,61.654c0.123,1.273,0.815,2.445,2.003,2.999c0.5,0.233,1.103,0.141,1.399-0.367
					c0.259-0.443,0.136-1.165-0.367-1.399c-0.521-0.243-0.938-0.695-0.989-1.232c-0.053-0.55-0.432-1.022-1.022-1.022
					C32.64,60.631,32.076,61.101,32.129,61.654L32.129,61.654z"/>
			</g>
			<g>
				<path fill="#F1F0F0" d="M45.227,66.729c0.608,0.118,1.257,0.083,1.771-0.304c0.587-0.442,0.892-1.177,0.489-1.866
					c-0.339-0.579-1.274-0.936-1.866-0.489c-0.12,0.079-0.14,0.098-0.058,0.057c0.118-0.06,0.248-0.069,0.389-0.028
					c-0.698-0.135-1.505,0.197-1.678,0.953C44.12,65.725,44.478,66.583,45.227,66.729L45.227,66.729z"/>
			</g>
			<g>
				<path fill="#DB1F2E" d="M55.822,64.99c1.756,0,1.759-2.728,0-2.728C54.067,62.263,54.064,64.99,55.822,64.99L55.822,64.99z"/>
			</g>
			<g>
				<path fill="#F1F0F0" d="M61.742,69.942c1.344,0.853,2.832,1.427,4.403,1.678c1.288,0.206,1.843-1.765,0.544-1.973
					c-1.418-0.226-2.701-0.701-3.915-1.471C61.66,67.468,60.633,69.238,61.742,69.942L61.742,69.942z"/>
			</g>
			<g>
				<path fill="#DB1F2E" d="M73.961,63.194c1.755,0,1.758-2.728,0-2.728C72.206,60.467,72.203,63.194,73.961,63.194L73.961,63.194z"
					/>
			</g>
			<g>
				<path fill="#F1F0F0" d="M81.7,64.5c0.414,0.663,0.968,1.082,1.686,1.371c0.513,0.207,1.124-0.225,1.259-0.714
					c0.16-0.584-0.2-1.051-0.715-1.258c-0.187-0.075-0.352-0.252-0.463-0.431C82.771,62.354,81,63.379,81.7,64.5L81.7,64.5z"/>
			</g>
			<g>
				<path fill="#DB1F2E" d="M86.353,61.04c1.755,0,1.758-2.728,0-2.728C84.597,58.312,84.594,61.04,86.353,61.04L86.353,61.04z"/>
			</g>
			<g>
				<g>
					<path fill="#F1F0F0" d="M41.995,61.398c1.755,0,1.758-2.728,0-2.728C40.239,58.671,40.236,61.398,41.995,61.398L41.995,61.398z
						"/>
				</g>
			</g>
			<g>
				<path fill="#DB1F2E" d="M39.929,69.112c0.303,0.234,0.605,0.469,0.909,0.704c0.582,0.45,1.361,0.567,1.929,0
					c0.47-0.47,0.586-1.476,0-1.929c-0.304-0.235-0.606-0.469-0.909-0.704c-0.582-0.45-1.361-0.567-1.929,0
					C39.459,67.653,39.343,68.659,39.929,69.112L39.929,69.112z"/>
			</g>
		</g>
		<g>
			<path fill="#FAB078" d="M33.178,61.391c0.319,0.444,0.55,0.875,0.832,1.259c0.275,0.395,0.557,0.712,1.041,0.977
				c-0.27,0.069-0.565,0.01-0.823-0.122c-0.262-0.129-0.459-0.344-0.626-0.566c-0.158-0.23-0.28-0.478-0.347-0.742
				C33.185,61.936,33.141,61.667,33.178,61.391z"/>
		</g>
		<g>
			<path fill="#FAB078" d="M40.677,67.321c0.401,0.185,0.708,0.392,1.026,0.584l0.469,0.293c0.161,0.101,0.33,0.181,0.523,0.301
				c-0.418,0.174-0.896,0.052-1.258-0.171C41.08,68.09,40.78,67.757,40.677,67.321z"/>
		</g>
		<g>
			<path fill="#FAB078" d="M54.992,63.869c-0.194-0.356-0.107-0.882,0.296-1.164c0.199-0.126,0.433-0.182,0.643-0.148
				c0.21,0.027,0.398,0.105,0.556,0.242c-0.4,0.108-0.708,0.172-0.917,0.32C55.351,63.251,55.192,63.51,54.992,63.869z"/>
		</g>
		<g>
			<path fill="#FAB078" d="M73.105,61.985c-0.086-0.171-0.085-0.357-0.037-0.541c0.044-0.187,0.178-0.362,0.36-0.473
				c0.186-0.101,0.403-0.138,0.587-0.084c0.185,0.044,0.342,0.137,0.46,0.282c-0.366,0.081-0.62,0.122-0.794,0.233
				C73.498,61.496,73.337,61.697,73.105,61.985z"/>
		</g>
		<g>
			<path fill="#FAB078" d="M85.523,59.829c-0.086-0.171-0.085-0.357-0.037-0.541c0.044-0.187,0.178-0.362,0.36-0.473
				c0.186-0.101,0.403-0.138,0.587-0.084c0.185,0.044,0.341,0.137,0.46,0.282c-0.366,0.081-0.621,0.123-0.794,0.233
				C85.915,59.34,85.754,59.541,85.523,59.829z"/>
		</g>
	</g>
	<g>
		<g opacity="0.6">
			<g>
				<path fill="#881720" d="M26.339,75.828c-0.106,0.967,0.036,1.972,0.414,2.869c0.286,0.678,0.901,1.166,1.678,0.953
					c0.64-0.176,1.24-0.995,0.952-1.678c-0.315-0.75-0.404-1.34-0.316-2.144c0.08-0.733-0.685-1.364-1.364-1.364
					C26.898,74.464,26.419,75.092,26.339,75.828L26.339,75.828z"/>
			</g>
			<g>
				<path fill="#881720" d="M42.44,87.805c1.486-0.42,2.415-1.678,2.564-3.181c0.07-0.712-0.679-1.395-1.364-1.364
					c-0.799,0.036-1.288,0.602-1.363,1.364c0.034-0.349-0.151,0.345-0.017,0.058c-0.039,0.078-0.082,0.152-0.129,0.226
					c0.073-0.083,0.078-0.09,0.016-0.019c-0.048,0.053-0.359,0.285-0.166,0.166c-0.072,0.047-0.148,0.09-0.226,0.127
					c0.125-0.057,0.112-0.059-0.041-0.008c-0.708,0.201-1.148,0.965-0.952,1.678C40.958,87.561,41.729,88.006,42.44,87.805
					L42.44,87.805z"/>
			</g>
			<g>
				<path fill="#881720" d="M52.949,82.179c0.539,0.538,1.078,1.077,1.616,1.616c0.521,0.521,1.408,0.521,1.929,0
					c0.523-0.523,0.522-1.406,0-1.929c-0.538-0.539-1.077-1.078-1.616-1.616c-0.521-0.521-1.407-0.521-1.929,0
					C52.427,80.772,52.427,81.656,52.949,82.179L52.949,82.179z"/>
			</g>
			<g>
				<path fill="#881720" d="M66.016,89.006c0.837-0.959,1.673-1.918,2.51-2.877c0.483-0.556,0.546-1.384,0-1.93
					c-0.494-0.494-1.442-0.557-1.929,0c-0.837,0.959-1.673,1.918-2.509,2.878c-0.484,0.555-0.547,1.383,0,1.929
					C64.581,89.5,65.53,89.563,66.016,89.006L66.016,89.006z"/>
			</g>
			<g>
				<path fill="#881720" d="M82.151,81.211c0.307-0.775,0.613-1.55,0.92-2.325c0.271-0.686-0.297-1.498-0.952-1.678
					c-0.775-0.213-1.406,0.265-1.678,0.953c-0.307,0.775-0.613,1.55-0.92,2.326c-0.271,0.686,0.297,1.498,0.952,1.678
					C81.249,82.377,81.88,81.899,82.151,81.211L82.151,81.211z"/>
			</g>
			<g>
				<path fill="#881720" d="M91.85,81.472c0.416,0.244,0.832,0.489,1.248,0.733c0.635,0.373,1.495,0.145,1.866-0.489
					c0.374-0.64,0.147-1.492-0.489-1.866c-0.416-0.244-0.832-0.489-1.248-0.733c-0.636-0.373-1.495-0.145-1.866,0.489
					C90.986,80.245,91.213,81.098,91.85,81.472L91.85,81.472z"/>
			</g>
			<g>
				<path fill="#881720" d="M96.582,73.492c0-0.06,0-0.12,0-0.18c0-0.713-0.627-1.397-1.363-1.364
					c-0.739,0.033-1.364,0.599-1.364,1.364c0,0.06,0,0.12,0,0.18c0,0.713,0.627,1.396,1.364,1.364
					C95.957,74.823,96.582,74.257,96.582,73.492L96.582,73.492z"/>
			</g>
			<g>
				<path fill="#881720" d="M73.848,81.5c1.755,0,1.758-2.727,0-2.727C72.093,78.773,72.09,81.5,73.848,81.5L73.848,81.5z"/>
			</g>
			<g>
				<path fill="#881720" d="M80.313,88.863c1.756,0,1.759-2.728,0-2.728C78.558,86.136,78.555,88.863,80.313,88.863L80.313,88.863z"
					/>
			</g>
			<g>
				<path fill="#881720" d="M55.351,92.635c1.755,0,1.758-2.728,0-2.728C53.596,89.907,53.593,92.635,55.351,92.635L55.351,92.635z"
					/>
			</g>
			<g>
				<path fill="#881720" d="M39.009,77.55c1.755,0,1.758-2.728,0-2.728C37.253,74.822,37.25,77.55,39.009,77.55L39.009,77.55z"/>
			</g>
			<g>
				<path fill="#881720" d="M35.417,82.903c-0.061,0-0.12,0-0.18,0c-0.714,0-1.397,0.628-1.364,1.364
					c0.033,0.738,0.6,1.363,1.364,1.363c0.06,0,0.119,0,0.18,0c0.713,0,1.396-0.627,1.363-1.363
					C36.747,83.528,36.182,82.903,35.417,82.903L35.417,82.903z"/>
			</g>
			<g>
				<path fill="#881720" d="M23.385,85.092c1.755,0,1.758-2.728,0-2.728C21.629,82.364,21.627,85.092,23.385,85.092L23.385,85.092z"
					/>
			</g>
		</g>
		<g>
			<g>
				<path fill="#FAB078" d="M25.374,75.484c-0.105,0.967,0.036,1.972,0.415,2.869c0.285,0.678,0.9,1.166,1.677,0.953
					c0.64-0.176,1.241-0.995,0.953-1.678c-0.316-0.75-0.405-1.34-0.317-2.144c0.08-0.733-0.685-1.364-1.363-1.364
					C25.934,74.121,25.455,74.749,25.374,75.484L25.374,75.484z"/>
			</g>
			<g>
				<path fill="#F1F0F0" d="M41.476,87.461c1.486-0.42,2.415-1.677,2.564-3.181c0.07-0.712-0.678-1.394-1.364-1.364
					c-0.799,0.037-1.287,0.602-1.363,1.364c0.034-0.349-0.151,0.345-0.017,0.058c-0.038,0.078-0.081,0.153-0.129,0.226
					c0.073-0.083,0.078-0.089,0.016-0.019c-0.047,0.054-0.359,0.286-0.166,0.166c-0.072,0.047-0.147,0.09-0.226,0.127
					c0.126-0.057,0.112-0.059-0.04-0.007c-0.709,0.2-1.148,0.964-0.953,1.678C39.993,87.218,40.765,87.662,41.476,87.461
					L41.476,87.461z"/>
			</g>
			<g>
				<path fill="#FAB078" d="M51.985,81.835c0.538,0.539,1.077,1.077,1.616,1.616c0.521,0.521,1.407,0.521,1.929,0
					c0.522-0.522,0.522-1.406,0-1.929c-0.539-0.539-1.078-1.077-1.616-1.616c-0.521-0.521-1.408-0.521-1.929,0
					C51.463,80.429,51.463,81.313,51.985,81.835L51.985,81.835z"/>
			</g>
			<g>
				<path fill="#F1F0F0" d="M65.052,88.662c0.836-0.959,1.673-1.918,2.509-2.877c0.484-0.555,0.546-1.383,0-1.93
					c-0.494-0.494-1.442-0.557-1.929,0c-0.836,0.96-1.673,1.919-2.509,2.879c-0.484,0.555-0.546,1.383,0,1.928
					C63.617,89.156,64.565,89.22,65.052,88.662L65.052,88.662z"/>
			</g>
			<g>
				<path fill="#F1F0F0" d="M81.188,80.868c0.307-0.775,0.612-1.551,0.919-2.326c0.271-0.685-0.297-1.497-0.952-1.678
					c-0.775-0.213-1.406,0.265-1.678,0.953c-0.307,0.775-0.613,1.551-0.92,2.326c-0.271,0.685,0.297,1.498,0.953,1.677
					C80.284,82.033,80.915,81.556,81.188,80.868L81.188,80.868z"/>
			</g>
			<g>
				<path fill="#F1F0F0" d="M90.885,81.129c0.416,0.244,0.832,0.488,1.248,0.732c0.635,0.373,1.495,0.146,1.866-0.489
					c0.374-0.639,0.147-1.492-0.489-1.866c-0.416-0.245-0.832-0.489-1.248-0.733c-0.636-0.373-1.495-0.145-1.866,0.489
					C90.021,79.901,90.248,80.754,90.885,81.129L90.885,81.129z"/>
			</g>
			<g>
				<path fill="#FAB078" d="M95.617,73.148c0-0.06,0-0.12,0-0.179c0-0.714-0.627-1.397-1.363-1.364
					c-0.739,0.033-1.364,0.6-1.364,1.364c0,0.06,0,0.12,0,0.179c0,0.713,0.628,1.397,1.364,1.364
					C94.993,74.479,95.617,73.913,95.617,73.148L95.617,73.148z"/>
			</g>
			<g>
				<path fill="#FAB078" d="M72.883,81.157c1.756,0,1.759-2.728,0-2.728C71.128,78.429,71.125,81.157,72.883,81.157L72.883,81.157z"
					/>
			</g>
			<g>
				<path fill="#F16374" d="M79.349,88.52c1.755,0,1.758-2.727,0-2.727C77.593,85.793,77.59,88.52,79.349,88.52L79.349,88.52z"/>
			</g>
			<g>
				<path fill="#F16374" d="M54.386,92.291c1.755,0,1.759-2.728,0-2.728C52.631,89.563,52.628,92.291,54.386,92.291L54.386,92.291z"
					/>
			</g>
			<g>
				<path fill="#FAB078" d="M38.044,77.206c1.755,0,1.758-2.728,0-2.728C36.289,74.479,36.286,77.206,38.044,77.206L38.044,77.206z"
					/>
			</g>
			<g>
				<path fill="#FAB078" d="M34.452,82.561c-0.06,0-0.12,0-0.18,0c-0.714,0-1.396,0.627-1.364,1.363
					c0.033,0.738,0.6,1.363,1.364,1.363c0.06,0,0.12,0,0.18,0c0.713,0,1.396-0.627,1.363-1.363
					C35.783,83.185,35.217,82.561,34.452,82.561L34.452,82.561z"/>
			</g>
			<g>
				<path fill="#F1F0F0" d="M22.42,84.748c1.755,0,1.758-2.727,0-2.727C20.665,82.021,20.662,84.748,22.42,84.748L22.42,84.748z"/>
			</g>
		</g>
		<g>
			<path fill="#FFFFFF" d="M26.305,74.95c0.013,0.692-0.005,1.332,0.079,1.953c0.038,0.31,0.113,0.605,0.206,0.902
				c0.107,0.292,0.27,0.56,0.465,0.853c-0.324-0.129-0.605-0.374-0.808-0.678c-0.199-0.306-0.305-0.66-0.358-1.012
				c-0.041-0.354-0.03-0.709,0.045-1.05C26.007,75.578,26.112,75.245,26.305,74.95z"/>
		</g>
		<g>
			<path fill="#FFFFFF" d="M37.408,76.388c-0.16-0.133-0.248-0.319-0.288-0.524c-0.046-0.206,0-0.449,0.135-0.647
				c0.144-0.191,0.354-0.32,0.563-0.346c0.207-0.033,0.406-0.008,0.591,0.081c-0.349,0.212-0.618,0.357-0.745,0.553
				C37.52,75.687,37.472,75.99,37.408,76.388z"/>
		</g>
		<g>
			<path fill="#FFFFFF" d="M33.581,84.561c-0.161-0.133-0.248-0.318-0.288-0.524c-0.046-0.206,0-0.448,0.135-0.647
				c0.144-0.191,0.354-0.32,0.563-0.346c0.207-0.033,0.406-0.009,0.591,0.08c-0.35,0.212-0.618,0.357-0.745,0.553
				C33.691,83.86,33.645,84.163,33.581,84.561z"/>
		</g>
		<g>
			<path fill="#FFFFFF" d="M52.558,80.137c0.674,0.08,1.288,0.408,1.796,0.859c0.492,0.457,0.881,1.136,0.803,1.823
				c-0.315-0.597-0.688-1.039-1.143-1.458C53.565,80.941,53.07,80.571,52.558,80.137z"/>
		</g>
		<g>
			<path fill="#FFFFFF" d="M72,79.793c-0.082-0.401,0.148-0.875,0.607-1.043c0.225-0.071,0.467-0.069,0.663,0.018
				c0.198,0.079,0.362,0.204,0.479,0.377c-0.418-0.001-0.73-0.017-0.977,0.076C72.521,79.297,72.296,79.504,72,79.793z"/>
		</g>
		<g>
			<path fill="#FFFFFF" d="M93.305,73.059c-0.082-0.401,0.149-0.875,0.607-1.043c0.225-0.071,0.467-0.069,0.663,0.018
				c0.198,0.079,0.362,0.204,0.479,0.377c-0.418-0.001-0.73-0.017-0.977,0.076C93.827,72.563,93.601,72.77,93.305,73.059z"/>
		</g>
		<g>
			<path fill="#FFFFFF" d="M78.474,87.274c-0.082-0.401,0.148-0.876,0.607-1.043c0.224-0.071,0.466-0.069,0.662,0.019
				c0.198,0.078,0.362,0.203,0.48,0.377c-0.418-0.001-0.731-0.017-0.977,0.076C78.995,86.778,78.77,86.986,78.474,87.274z"/>
		</g>
		<g>
			<path fill="#FFFFFF" d="M53.511,90.965c-0.082-0.4,0.149-0.875,0.607-1.043c0.225-0.07,0.467-0.07,0.663,0.018
				c0.198,0.079,0.362,0.204,0.479,0.377c-0.417,0-0.73-0.016-0.976,0.076C54.033,90.469,53.807,90.676,53.511,90.965z"/>
		</g>
	</g>
	<g>
		<path fill="#F1F0F0" d="M52.047,33.916c-0.44-1.437-0.416-2.993-0.103-4.477c0.312-1.488,0.926-2.943,1.845-4.189
			c0.912-1.242,2.052-2.34,3.386-3.079c0.628-0.432,1.364-0.667,2.05-0.952c0.715-0.229,1.456-0.372,2.188-0.468
			c-0.569,0.51-1.177,0.882-1.725,1.334c-0.537,0.467-1.109,0.854-1.592,1.345c-1.041,0.887-1.887,1.928-2.681,2.984
			c-0.787,1.069-1.441,2.238-1.987,3.49C52.881,31.16,52.438,32.48,52.047,33.916z"/>
	</g>
	<path fill="#D41C5C" d="M49.747,34.903c0.575,0.367,0.794,1.104,1.292,1.569c0.622,0.58,1.586,0.639,2.407,0.417
		c0.821-0.221,1.557-0.676,2.331-1.026c0.926-0.418,1.917-0.69,2.926-0.802c0.658-0.073,1.33-0.077,1.979,0.056
		c0.788,0.162,1.52,0.521,2.281,0.779c1.915,0.65,4.047,0.647,5.96-0.008c0.936-0.321,1.909-0.799,2.865-0.548
		c0.701,0.184,1.265,0.74,1.972,0.903c0.406,0.094,0.839,0.051,1.238,0.172c0.398,0.122,0.777,0.508,0.669,0.911
		c-0.095,0.352-0.491,0.515-0.838,0.627c-3.254,1.057-6.541,2.121-9.948,2.43c-1.367,0.124-2.742,0.125-4.115,0.125
		c-1.661,0.001-3.335,0.001-4.966-0.314c-2.065-0.4-3.999-1.292-5.908-2.177c-1.078-0.5-2.664-1.096-3.747-1.586
		c0.538-0.189,1.004-0.87,1.426-1.259C48.114,34.675,49.113,34.5,49.747,34.903z"/>
	<path fill="#D41C5C" d="M32.71,53.029c-0.261,0.223-0.528,0.456-0.672,0.768s-0.125,0.725,0.135,0.948
		c0.184,0.158,0.442,0.189,0.684,0.217c1.134,0.129,2.26,0.334,3.367,0.612c3.534,0.888,6.849,2.516,10.384,3.399
		c3.751,0.938,7.656,1.017,11.522,1.091c5.644,0.108,10.958-1.432,16.578-0.908c0.702,0.066,1.409,0.139,2.112,0.082
		c0.6-0.049,1.188-0.192,1.767-0.356c1.739-0.494,3.422-1.187,5.005-2.059c0.403-0.223,0.803-0.458,1.234-0.621
		c0.36-0.137,0.737-0.221,1.113-0.305c0.932-0.208,1.863-0.416,2.795-0.624c0.262-0.059,0.322-0.798,0.098-0.945
		s-0.512-0.145-0.78-0.137c-1.534,0.042-3.067,0.084-4.602,0.127c-0.642,0.018-1.284,0.036-1.92,0.122
		c-1.451,0.196-2.828,0.742-4.223,1.188c-5.453,1.742-11.29,1.973-16.997,1.527c-0.678-0.053-1.356-0.115-2.035-0.08
		c-0.628,0.033-1.249,0.15-1.875,0.219c-1.797,0.2-3.638,0.003-5.352-0.572c-1.135,0.134-2.299-0.52-3.383-0.878
		c-3.527-1.168-7.377-1.108-10.885-2.334C35.537,53.075,34.015,52.846,32.71,53.029z"/>
	<g>
		<g opacity="0.75">
			<g>
				<g>
					<path fill="#881720" d="M44.804,40.877c-0.396,0.931-0.519,1.801-0.305,2.798c0.154,0.721,0.997,1.14,1.678,0.953
						c0.745-0.205,1.107-0.955,0.952-1.678c-0.011-0.05-0.033-0.224-0.02-0.079c-0.012-0.123-0.01-0.25,0.001-0.372
						c0.02-0.23-0.041,0.145,0.018-0.079c0.008-0.027,0.092-0.309,0.031-0.167c0.288-0.678,0.202-1.461-0.489-1.866
						C46.097,40.053,45.094,40.195,44.804,40.877L44.804,40.877z"/>
				</g>
				<g>
					<g>
						<path fill="#881720" d="M51.432,49.893c0.81-0.498,1.475-1.163,1.968-1.976c0.383-0.629,0.139-1.499-0.489-1.866
							c-0.646-0.378-1.482-0.142-1.866,0.489c-0.28,0.461-0.537,0.72-0.988,0.997c-0.627,0.385-0.867,1.22-0.489,1.866
							C49.933,50.03,50.802,50.281,51.432,49.893L51.432,49.893z"/>
					</g>
				</g>
				<g>
					<path fill="#881720" d="M62.065,45.708c0.88,0.39,1.639,0.892,2.315,1.576c1.216,1.229,3.112-0.667,1.896-1.896
						c-0.823-0.833-1.787-1.521-2.858-1.996c-0.662-0.293-1.44-0.193-1.835,0.481C61.25,44.444,61.399,45.413,62.065,45.708
						L62.065,45.708z"/>
				</g>
				<g>
					<g>
						<path fill="#881720" d="M69.673,55.484c1.483-0.907,2.834-2.009,4.008-3.292c0.887-0.97-0.556-2.42-1.446-1.447
							c-1.063,1.162-2.251,2.151-3.594,2.973C67.519,54.404,68.546,56.174,69.673,55.484L69.673,55.484z"/>
					</g>
				</g>
				<g>
					<g>
						<path fill="#881720" d="M77.66,44.143c0.738,0.228,1.343,0.627,1.895,1.229c0.498,0.543,1.424,0.505,1.929,0
							c0.541-0.541,0.499-1.384,0-1.929c-0.84-0.917-1.913-1.565-3.099-1.931c-0.703-0.217-1.486,0.258-1.678,0.953
							C76.507,43.195,76.953,43.924,77.66,44.143L77.66,44.143z"/>
					</g>
				</g>
				<g>
					<path fill="#881720" d="M86.202,52.736c0.133-0.708,0.188-1.411,0.121-2.129c-0.052-0.55-0.433-1.023-1.022-1.023
						c-0.514,0-1.075,0.47-1.023,1.023c0.051,0.531,0.051,1.061-0.048,1.585c-0.102,0.542,0.15,1.103,0.714,1.258
						C85.442,53.587,86.1,53.282,86.202,52.736L86.202,52.736z"/>
				</g>
				<g>
					<path fill="#881720" d="M38.826,49.37c-0.033,0.965,0.235,1.932,0.777,2.733c0.309,0.458,0.9,0.659,1.399,0.367
						c0.453-0.265,0.677-0.94,0.366-1.399c-0.356-0.528-0.52-1.063-0.497-1.701C40.918,48.054,38.872,48.055,38.826,49.37
						L38.826,49.37z"/>
				</g>
				<g>
					<path fill="#881720" d="M57.713,57.337c1.276-0.539,2.299-1.459,3.098-2.577c0.428-0.6,0.105-1.518-0.489-1.866
						c-0.686-0.401-1.437-0.112-1.866,0.489c-0.5,0.7-1.245,1.229-2.118,1.598c-0.679,0.287-0.827,1.289-0.489,1.866
						C56.259,57.551,57.032,57.625,57.713,57.337L57.713,57.337z"/>
				</g>
			</g>
		</g>
		<g>
			<g>
				<g>
					<path fill="#FAB078" d="M44.123,40.147c-0.396,0.931-0.519,1.801-0.305,2.798c0.154,0.72,0.997,1.14,1.678,0.952
						c0.745-0.205,1.107-0.955,0.952-1.677c-0.011-0.05-0.033-0.224-0.02-0.079c-0.012-0.123-0.01-0.25,0.001-0.372
						c0.02-0.23-0.041,0.145,0.018-0.079c0.008-0.027,0.092-0.309,0.031-0.167c0.288-0.677,0.202-1.461-0.489-1.866
						C45.416,39.323,44.413,39.466,44.123,40.147L44.123,40.147z"/>
				</g>
			</g>
			<g>
				<g>
					<path fill="#F1F0F0" d="M50.751,49.164c0.81-0.498,1.475-1.163,1.968-1.976c0.383-0.629,0.139-1.499-0.489-1.866
						c-0.647-0.378-1.482-0.142-1.866,0.489c-0.28,0.461-0.537,0.72-0.988,0.997c-0.627,0.385-0.867,1.22-0.489,1.866
						C49.252,49.301,50.121,49.551,50.751,49.164L50.751,49.164z"/>
				</g>
			</g>
			<g>
				<g>
					<path fill="#FAB078" d="M61.385,44.978c0.88,0.39,1.639,0.892,2.315,1.576c1.216,1.229,3.112-0.667,1.896-1.896
						c-0.823-0.833-1.787-1.521-2.858-1.996c-0.662-0.293-1.441-0.192-1.835,0.481C60.569,43.714,60.719,44.683,61.385,44.978
						L61.385,44.978z"/>
				</g>
			</g>
			<g>
				<g>
					<path fill="#F1F0F0" d="M68.992,54.755c1.483-0.907,2.834-2.009,4.008-3.292c0.887-0.97-0.556-2.421-1.446-1.447
						c-1.063,1.162-2.251,2.151-3.594,2.973C66.838,53.674,67.865,55.444,68.992,54.755L68.992,54.755z"/>
				</g>
			</g>
			<g>
				<path fill="#F1F0F0" d="M76.979,43.413c0.738,0.228,1.343,0.627,1.895,1.229c0.498,0.543,1.424,0.505,1.929,0
					c0.541-0.541,0.499-1.384,0-1.929c-0.84-0.917-1.913-1.565-3.099-1.931c-0.703-0.217-1.486,0.258-1.678,0.953
					C75.826,42.466,76.272,43.195,76.979,43.413L76.979,43.413z"/>
			</g>
			<g>
				<g>
					<path fill="#FAB078" d="M85.521,52.007c0.133-0.708,0.188-1.412,0.121-2.129c-0.052-0.55-0.433-1.023-1.022-1.023
						c-0.514,0-1.075,0.47-1.023,1.023c0.05,0.531,0.05,1.061-0.048,1.585c-0.102,0.542,0.15,1.103,0.714,1.258
						C84.762,52.858,85.419,52.552,85.521,52.007L85.521,52.007z"/>
				</g>
			</g>
			<g>
				<g>
					<path fill="#FAB078" d="M38.146,48.641c-0.033,0.965,0.235,1.932,0.776,2.733c0.31,0.457,0.901,0.659,1.4,0.367
						c0.453-0.266,0.677-0.94,0.366-1.399c-0.356-0.528-0.52-1.063-0.497-1.701C40.237,47.324,38.191,47.326,38.146,48.641
						L38.146,48.641z"/>
				</g>
			</g>
			<g>
				<g>
					<path fill="#FAB078" d="M57.032,56.607c1.276-0.538,2.299-1.458,3.098-2.576c0.428-0.6,0.104-1.518-0.489-1.866
						c-0.686-0.401-1.437-0.112-1.866,0.489c-0.501,0.7-1.245,1.229-2.118,1.598c-0.679,0.287-0.827,1.289-0.489,1.866
						C55.578,56.821,56.352,56.896,57.032,56.607L57.032,56.607z"/>
				</g>
			</g>
		</g>
		<g>
			<path fill="#FFFFFF" d="M44.949,40.023c-0.063,0.574-0.133,1.082-0.159,1.603c-0.021,0.258-0.025,0.517-0.034,0.782
				c-0.013,0.267,0.007,0.533-0.015,0.828c-0.354-0.465-0.483-1.067-0.449-1.643c0.022-0.289,0.076-0.577,0.191-0.844
				C44.592,40.483,44.732,40.225,44.949,40.023z"/>
		</g>
		<g>
			<path fill="#FFFFFF" d="M39.488,48.383c0.211,0.422,0.312,0.821,0.435,1.208c0.115,0.397,0.204,0.744,0.423,1.157
				c-0.485-0.108-0.778-0.594-0.902-1.017C39.324,49.289,39.311,48.824,39.488,48.383z"/>
		</g>
		<g>
			<path fill="#FFFFFF" d="M61.669,42.882c0.424,0.029,0.828,0.148,1.223,0.295c0.396,0.145,0.771,0.347,1.12,0.592
				c0.341,0.255,0.675,0.537,0.916,0.902c0.243,0.358,0.421,0.772,0.434,1.198c-0.418-0.733-0.988-1.236-1.639-1.693
				C63.081,43.714,62.381,43.329,61.669,42.882z"/>
		</g>
		<g>
			<path fill="#FFFFFF" d="M55.673,55.103c0.596-0.375,1.16-0.699,1.688-1.08c0.271-0.181,0.511-0.392,0.763-0.599
				c0.25-0.213,0.463-0.459,0.713-0.715c-0.123,0.704-0.613,1.312-1.187,1.721C57.064,54.83,56.384,55.101,55.673,55.103z"/>
		</g>
		<g>
			<path fill="#FFFFFF" d="M84.207,49.693c0.301,0.322,0.413,0.741,0.425,1.16c-0.007,0.413-0.15,0.883-0.527,1.127
				c0.025-0.435,0.028-0.76,0.027-1.129C84.139,50.486,84.133,50.121,84.207,49.693z"/>
		</g>
	</g>
	<path fill="#F16374" d="M25.603,67.666c-0.023,0.52,0.359,0.988,0.819,1.231c0.46,0.244,0.99,0.309,1.505,0.385
		c7.898,1.163,15.27,5.633,23.247,5.311c1.35-0.055,2.69-0.248,4.039-0.323c4.611-0.258,11.475,1.965,13.659,1.965
		s8.42-1.859,12.49-2.574c3.851-0.676,7.6-1.929,11.082-3.706c0.377-0.192,0.767-0.404,1.002-0.756
		c0.235-0.352,0.256-0.885-0.069-1.157c-0.322-0.27-0.803-0.173-1.209-0.063c-5.722,1.555-11.497,2.915-17.312,4.075
		c-2.262,0.452-4.539,0.875-6.843,0.983c-2.645,0.125-5.334-0.161-7.917,0.425c-1.658-0.188-3.513-0.159-5.181-0.21
		c-5.757-0.176-11.177-2.566-16.729-4.098c-0.879-0.243-1.769-0.465-2.676-0.555c-0.655-0.065-1.321-0.062-1.961-0.22
		c-1.553-0.386-2.774-1.682-4.346-1.985c-1.844-0.356-3.197-0.635-3.593,1.202L25.603,67.666z"/>
	<path fill="#FFE3AF" d="M23.283,90.342c-0.082,0.568,0.291,1.123,0.775,1.431s1.064,0.417,1.628,0.521
		c4.273,0.783,8.548,1.567,12.821,2.352C44.917,95.82,51.373,97,57.89,96.949c0.741-0.006,1.499-0.03,2.194-0.29
		c0.694-0.26,1.326-0.797,1.511-1.515c-5.212-0.739-10.424-1.478-15.636-2.216c-1.817-0.257-3.639-0.516-5.422-0.949
		c-3.567-0.866-6.977-2.183-10.584-2.921C28.435,88.748,23.607,88.108,23.283,90.342z"/>
	<g>
		<path fill="#50231C" d="M25.273,90.103c2.3,0.243,4.517,0.751,6.725,1.29c2.205,0.567,4.38,1.182,6.554,1.96
			c-1.159,0.016-2.306-0.118-3.437-0.296c-1.135-0.173-2.251-0.424-3.361-0.694C29.543,91.787,27.358,91.105,25.273,90.103z"/>
	</g>
	<path fill="#FFE3AF" d="M82.479,90.012c-3.623,0.645-7.208,1.507-10.729,2.579c-0.771,0.235-1.58,0.505-2.112,1.111
		c-0.533,0.605-0.645,1.657-0.018,2.165c0.315,0.257,0.742,0.324,1.147,0.357c2.391,0.196,4.762-0.467,7.055-1.173
		c5.673-1.749,11.25-3.808,16.697-6.166c0.495-0.214,1.002-0.44,1.38-0.825c0.377-0.385,0.601-0.972,0.408-1.476
		c-0.842-2.21-4.66,0.816-5.767,1.349C88.023,89.145,85.201,89.527,82.479,90.012z"/>
	<g>
		<path fill="#50231C" d="M44.828,94.279c6.383,0.214,12.667,0.348,18.948,0.076c3.142-0.084,6.267-0.369,9.396-0.68
			c3.136-0.309,6.228-0.855,9.397-1.35c-2.922,1.289-6.004,2.285-9.156,2.893c-3.148,0.635-6.351,1.013-9.557,1.134
			c-3.207,0.104-6.418,0.04-9.604-0.297C51.069,95.726,47.897,95.202,44.828,94.279z"/>
	</g>
	<path opacity="0.6" fill="#FAB078" d="M49.081,36.138c0.162,0.339,0.264,0.73,0.554,0.97c0.169,0.139,0.383,0.21,0.574,0.316
		c0.192,0.105,0.376,0.271,0.4,0.488c0.033,0.286-0.234,0.535-0.517,0.589c-0.283,0.054-0.57-0.035-0.845-0.124
		c-0.85-0.273-2.334-0.414-2.063-1.624C47.393,35.821,48.523,34.969,49.081,36.138z"/>
	<path opacity="0.6" fill="#FAB078" d="M58.708,35.777c0.176-0.016,0.389-0.014,0.482,0.136c0.076,0.12,0.029,0.286-0.066,0.391
		c-0.097,0.104-0.23,0.164-0.358,0.226c-0.316,0.154-0.617,0.341-0.896,0.558c-0.115,0.09-0.232,0.194-0.276,0.334
		c-0.024,0.082-0.022,0.168-0.037,0.252c-0.179,1.051-2.358,1.051-2.102-0.272C55.708,36.095,57.667,35.87,58.708,35.777z"/>
	<path opacity="0.6" fill="#FAB078" d="M68.179,36.668c-0.411,0.123-0.861,0.273-1.074,0.645c0.535,0.086,1.082-0.01,1.616-0.106
		c0.451-0.082,0.903-0.163,1.355-0.245c0.125-0.022,0.251-0.045,0.371-0.087c0.136-0.047,0.262-0.119,0.373-0.209
		c0.183-0.149,0.326-0.422,0.188-0.613C70.693,35.615,68.602,36.543,68.179,36.668z"/>
	<path fill="#FFE3AF" d="M25.402,94.29c2.151,0.352,4.337,0.498,6.465,0.968c0.267,0.059,0.544,0.129,0.747,0.311
		s0.3,0.512,0.141,0.733c-1.27,0.32-2.604,0.139-3.9-0.044c-1.359-0.192-2.719-0.385-4.078-0.576
		c-0.749-0.106-7.578-1.303-6.337-2.973c0.475-0.641,2.054,0.154,2.557,0.364C22.417,93.664,23.886,94.041,25.402,94.29z"/>
	<path fill="#FFE3AF" d="M50.836,100.82c0.921,0.13,1.84,0.271,2.764,0.38c3.76,0.439,7.586,0.31,11.309-0.383
		c0.318-0.06,0.649-0.128,0.908-0.323c0.26-0.194,0.426-0.554,0.3-0.853c-5.286,0.328-10.608,0.571-15.867-0.06
		c-0.841-0.101-8.227-1.013-7.965-0.058c0.231,0.843,3.134,0.663,3.765,0.725C47.648,100.404,49.245,100.595,50.836,100.82z"/>
	<path fill="#FFE3AF" d="M92.344,94.728c0.966-0.268,1.938-0.537,2.837-0.977c1.266-0.616,2.43-1.674,2.68-3.059
		c0.034-0.188,0.04-0.409-0.098-0.54c-0.091-0.087-0.223-0.113-0.348-0.117c-0.678-0.018-1.233,0.497-1.754,0.932
		c-1.686,1.404-3.772,2.248-5.891,2.82c-2.119,0.572-4.297,0.892-6.437,1.375c-0.396,0.09-0.803,0.191-1.121,0.441
		c-0.317,0.251-0.521,0.692-0.374,1.069c0.202,0.516,0.883,0.619,1.435,0.573c1.404-0.118,2.766-0.773,4.119-1.147
		C89.043,95.642,90.693,95.185,92.344,94.728z"/>
	<path opacity="0.5" fill="#FFFFFF" d="M57.073,20.686c-1.395,0.761-2.792,1.599-3.792,2.833c-0.959,1.184-1.487,2.654-1.924,4.114
		c-0.375,1.255-0.697,2.561-0.559,3.863c0.139,1.302,0.822,2.615,2.001,3.187c1.536,0.745,3.351,0.063,4.917-0.618
		c0.929-0.404,1.857-0.808,2.786-1.212c0.769-0.334,1.559-0.683,2.145-1.282c1.138-1.164,1.247-2.989,1.007-4.6
		c-0.24-1.61-0.759-3.207-0.621-4.828c0.066-0.773,0.282-1.541,0.214-2.313c-0.138-1.565-0.989-1.713-2.162-1.159
		C59.73,19.309,58.388,19.967,57.073,20.686z"/>
	<g>
		<g>
			<path fill="#FFFFFF" d="M98.964,43.608c1.935,0,1.935-3,0-3S97.029,43.608,98.964,43.608L98.964,43.608z"/>
		</g>
	</g>
</g>
</svg>
