<?xml version="1.0" encoding="utf-8"?>
<!-- Generator: Adobe Illustrator 16.0.0, SVG Export Plug-In . SVG Version: 6.00 Build 0)  -->
<!DOCTYPE svg PUBLIC "-//W3C//DTD SVG 1.1//EN" "http://www.w3.org/Graphics/SVG/1.1/DTD/svg11.dtd">
<svg version="1.1" id="Layer_1" xmlns="http://www.w3.org/2000/svg" xmlns:xlink="http://www.w3.org/1999/xlink" x="0px" y="0px"
	 width="120px" height="160px" viewBox="0 0 120 160" enable-background="new 0 0 120 160" xml:space="preserve">
<g>
	<path fill="#FAB078" d="M17.705,93.855c0.937,0.03,1.794,0.5,2.636,0.914c2.934,1.439,6.147,2.31,9.407,2.548
		c1.771,0.129,3.557,0.074,5.316,0.313c2.367,0.322,4.627,1.167,6.941,1.762c4.751,1.219,9.712,1.374,14.614,1.2
		c4.664-0.166,9.311-0.623,13.956-1.08c3.047-0.3,6.094-0.6,9.141-0.899c1.818-0.179,3.645-0.359,5.414-0.809
		c1.515-0.385,2.973-0.964,4.463-1.433c3.464-1.089,7.088-1.579,10.706-1.886c0.733-0.063,1.501-0.094,2.19,0.127
		c-0.226-3.162-2.405-6.121-6.102-8.661c-2.162,2.417-4.67,3.442-4.67,3.442s-14.16,6.557-31.188,6.165
		c-22.331-0.517-34.904-5.277-34.904-5.277s-2.273-1.365-4.18-3.944c-3.397,2.477-5.386,5.328-5.568,8.359
		c0.014-0.02,0.021-0.036,0.036-0.056C16.324,94.109,17.044,93.834,17.705,93.855z"/>
	<path fill="#A25D42" d="M22.209,97.311c2.025,0.62,4.108,1.188,6.244,1.697c2.012,0.49,4.069,0.928,6.172,1.32
		c2.012,0.371,4.056,0.698,6.133,0.985c2.012,0.269,4.056,0.503,6.126,0.687c2.018,0.176,4.063,0.313,6.133,0.404
		c2.031,0.085,4.095,0.131,6.172,0.131s4.134-0.046,6.165-0.131c2.07-0.092,4.115-0.229,6.133-0.404
		c2.07-0.184,4.115-0.418,6.127-0.687c2.076-0.287,4.127-0.614,6.133-0.985c2.104-0.393,4.16-0.83,6.172-1.32
		c2.136-0.51,4.22-1.077,6.244-1.697c2.188-0.66,4.317-1.385,6.368-2.162c0-0.18-0.032-0.357-0.044-0.535
		c-0.689-0.221-1.457-0.189-2.19-0.127c-3.618,0.307-7.242,0.797-10.706,1.886c-1.49,0.469-2.948,1.048-4.463,1.433
		c-1.77,0.449-3.596,0.63-5.414,0.809c-3.047,0.3-6.094,0.6-9.141,0.899c-4.645,0.457-9.292,0.914-13.956,1.08
		c-4.901,0.174-9.863,0.019-14.614-1.2c-2.314-0.595-4.574-1.439-6.941-1.762c-1.76-0.239-3.545-0.185-5.316-0.313
		c-3.26-0.238-6.473-1.108-9.407-2.548c-0.842-0.414-1.699-0.884-2.636-0.914c-0.661-0.021-1.381,0.254-1.791,0.786
		c-0.015,0.02-0.022,0.036-0.036,0.056c-0.009,0.15-0.036,0.299-0.036,0.451C17.893,95.926,20.015,96.65,22.209,97.311z"/>
	<path fill="#FFE3AF" d="M93.525,68.54c0,0,6.088,3.148,5.938,9.666c-0.184,8.099-7.746,11.189-7.746,11.189
		s-14.16,6.557-31.188,6.165c-22.331-0.517-34.904-5.277-34.904-5.277s-6.91-4.141-6.74-11.626
		c0.203-8.817,7.433-10.848,7.433-10.848s16.244,5.715,35.198,6.152C80.469,74.398,93.525,68.54,93.525,68.54z"/>
	<path fill="#FFD692" d="M71.002,85.734c2.334-0.398,4.675-0.783,7.037-0.949c2.094-0.146,4.201-0.122,6.283-0.383
		c3.943-0.494,7.667-1.998,11.204-3.75c0.458-0.227,1.269-0.809,2.036-1.154c0.331-0.965,0.547-1.967,0.596-2.985
		c-2.829-0.33-5.641,0.617-8.279,1.676c-3.1,1.245-6.127,2.664-9.244,3.865c-2.291,0.881-4.637,1.646-7.055,2.09
		c-3.232,0.591-6.541,0.599-9.828,0.604c-5.122,0.01-10.244,0.018-15.366,0.026c-2.829,0.005-5.68,0.007-8.452-0.55
		c-2.854-0.574-4.765-1.859-7.101-3.419c-2.141-1.43-5.851-1.528-8.38-2.052c-1.085-0.225-2.397-0.382-3.137,0.431
		c-0.81,0.891-0.34,2.332,0.418,3.265c1.244,1.534,3.083,2.477,4.925,3.227c0.72,0.293,1.454,0.563,2.187,0.836
		c2.261,0.093,4.498,0.724,6.729,1.187C47.229,90.116,59.269,87.739,71.002,85.734z"/>
	<path fill="#FBB685" d="M63.455,91.28c7.851,0.015,15.75-1.829,23.396-3.581C89,87.208,91.152,86.573,93,85.386
		c2.141-1.378,3.745-3.505,4.563-5.888c-0.768,0.345-1.578,0.927-2.036,1.154c-3.537,1.752-7.261,3.256-11.204,3.75
		c-2.082,0.261-4.189,0.236-6.283,0.383c-2.362,0.166-4.703,0.551-7.037,0.949c-11.733,2.005-23.773,4.382-35.427,1.964
		c-2.231-0.463-4.468-1.094-6.729-1.187c7.47,2.782,15.596,4.527,23.527,4.663C56.066,91.238,59.761,91.273,63.455,91.28z"/>
	<path fill="#F38373" d="M20.644,72.521c-0.813,1.102-1.057,2.752-0.185,3.807c0.969,1.171,2.793,1.116,4.237,0.642
		s2.838-1.269,4.357-1.241c2.697,0.05,4.584,2.559,6.833,4.049c2.455,1.625,5.66,2.061,8.459,1.149
		c1.775-0.578,3.37-1.656,5.181-2.111c3.576-0.897,7.234,0.757,10.615,2.228c3.38,1.472,7.281,2.797,10.651,1.302
		c2.515-1.116,4.199-3.61,6.686-4.791c3.512-1.669,7.66-0.36,11.533-0.704c0.576-0.051,1.18-0.152,1.631-0.513
		c0.383-0.308,0.609-0.765,0.897-1.164c0.627-0.866,1.595-1.479,2.646-1.673c1.918-0.355,4.331,0.486,5.573-1.017
		c0.881-1.065,0.463-2.788-0.574-3.702s-2.488-1.184-3.867-1.25c-5.752-0.275-11.216,2.328-16.891,3.299
		c-2.98,0.51-6.016,0.568-9.038,0.625c-3.392,0.063-6.819,0.124-10.137-0.586c-2.239-0.479-4.39-1.303-6.609-1.871
		c-2.016-0.516-4.081-0.818-6.147-1.066c-5.28-0.632-10.902-1.233-16.22-0.795c-1.651,0.136-2.811,0.712-4.169,1.602
		C24.317,69.912,21.944,70.758,20.644,72.521z"/>
	<path fill="#FBB685" d="M19.729,71.606c-0.813,1.102-1.058,2.752-0.185,3.807c0.969,1.171,2.793,1.116,4.237,0.641
		c1.444-0.474,2.838-1.269,4.357-1.24c2.697,0.05,4.584,2.559,6.833,4.048c2.455,1.625,5.66,2.061,8.459,1.149
		c1.776-0.578,3.37-1.656,5.181-2.111c3.576-0.897,7.234,0.757,10.614,2.229c3.381,1.471,7.281,2.796,10.651,1.301
		c2.515-1.116,4.2-3.609,6.686-4.791c3.512-1.669,7.661-0.36,11.534-0.704c0.576-0.051,1.178-0.152,1.63-0.514
		c0.384-0.308,0.61-0.765,0.897-1.164c0.627-0.867,1.596-1.479,2.646-1.673c1.918-0.355,4.331,0.486,5.574-1.018
		c0.879-1.065,0.461-2.788-0.574-3.701c-1.037-0.914-2.488-1.184-3.868-1.25c-5.751-0.276-11.216,2.328-16.891,3.299
		c-2.979,0.51-6.016,0.568-9.038,0.625c-3.392,0.063-6.818,0.124-10.136-0.586c-2.239-0.479-4.39-1.303-6.609-1.871
		c-2.016-0.516-4.081-0.819-6.147-1.066c-5.28-0.632-10.902-1.233-16.22-0.795c-1.651,0.136-2.811,0.712-4.17,1.602
		C23.402,68.998,21.03,69.843,19.729,71.606z"/>
	<path fill="#50231C" d="M77.106,68.347c-1.665,0.185-3.346,0.19-5.022,0.196c-10.631,0.034-21.333,0.062-31.795-1.833
		c-2.363-0.473-4.713-0.951-6.949-1.88c-1.337-0.556-3.977-1.536-4.178-3.246c-0.156-1.326,1.245-2.283,2.333-2.659
		c1.798-0.622,3.298,0.143,4.963,0.797c2.181,0.856,4.373,1.695,6.631,2.327c10.085,2.822,20.809,1.405,31.182-0.033
		c2.685-0.372,5.369-0.744,8.055-1.116c2.049-0.284,4.133-0.579,6.006-1.457c1.061-0.498,2.053-1.182,3.195-1.44
		c0.119-0.027,0.242-0.044,0.365-0.058c-1.254-2.25-2.685-3.265-2.685-3.265c-34.152,9.85-56.195-1.45-56.195-1.45
		c-9.25,4.113-7.927,11.088-7.075,13.622c0.198,0.589,0.652,1.052,1.243,1.244c3.594,1.165,17.952,5.486,34.334,5.864
		c15.311,0.354,26.773-3.402,30.613-4.858c0.883-0.334,1.492-1.159,1.559-2.1c0.121-1.75,0.012-3.291-0.237-4.642
		c-0.574,0.44-1.247,0.76-1.907,1.069C86.915,65.592,82.184,67.785,77.106,68.347z"/>
	<path fill="#754535" d="M91.527,58.002c-1.143,0.258-2.135,0.942-3.195,1.44c-1.873,0.878-3.957,1.173-6.006,1.457
		c-2.686,0.372-5.37,0.744-8.055,1.116c-10.373,1.438-21.097,2.855-31.182,0.033c-2.258-0.632-4.45-1.47-6.631-2.327
		c-1.665-0.654-3.165-1.418-4.963-0.797c-1.088,0.376-2.489,1.333-2.333,2.659c0.201,1.71,2.841,2.69,4.178,3.246
		c2.236,0.929,4.586,1.408,6.949,1.88c10.462,1.895,21.165,1.867,31.795,1.833c1.677-0.005,3.357-0.011,5.022-0.196
		c5.077-0.563,9.809-2.755,14.437-4.917c0.66-0.309,1.333-0.628,1.907-1.069c-0.335-1.81-0.921-3.274-1.558-4.417
		C91.77,57.958,91.646,57.975,91.527,58.002z"/>
	<g>
		<path fill="#50231C" d="M45.18,94.459c6.383,0.215,12.667,0.348,18.949,0.076c3.142-0.084,6.267-0.369,9.395-0.68
			c3.137-0.308,6.229-0.855,9.398-1.35c-2.922,1.289-6.004,2.285-9.156,2.893c-3.148,0.635-6.351,1.013-9.557,1.135
			c-3.207,0.104-6.418,0.039-9.604-0.298C51.422,95.905,48.25,95.381,45.18,94.459z"/>
	</g>
	<g>
		<path fill="#50231C" d="M25.625,90.282c2.3,0.243,4.517,0.751,6.726,1.29c2.204,0.567,4.379,1.182,6.553,1.96
			c-1.159,0.016-2.305-0.117-3.437-0.296c-1.134-0.173-2.25-0.424-3.361-0.694C29.895,91.967,27.711,91.285,25.625,90.282z"/>
	</g>
	<path fill="#FFFFFF" d="M23.85,80.536c1.225,0.833,2.512,1.52,3.839,2.123c1.307,0.633,2.675,1.132,4.03,1.635
		c2.74,0.946,5.558,1.66,8.414,2.201l2.144,0.41l2.169,0.301c1.438,0.276,2.909,0.306,4.364,0.527l4.411,0.373
		c1.478,0.082,2.961,0.155,4.461,0.32c-1.471,0.278-2.958,0.469-4.451,0.662c-1.495,0.084-2.999,0.201-4.504,0.203
		c-3.01-0.031-6.038-0.236-9.007-0.838c-2.962-0.601-5.897-1.438-8.632-2.728c-1.363-0.651-2.688-1.372-3.92-2.229
		C25.946,82.639,24.764,81.693,23.85,80.536z"/>
	<path fill="#FFFFFF" d="M68.295,86.982c1.334-0.253,2.664-0.492,3.986-0.78c1.325-0.259,2.646-0.534,3.96-0.842
		c2.628-0.605,5.245-1.245,7.813-2.032c2.576-0.757,5.119-1.635,7.562-2.732l0.925-0.398l0.888-0.466
		c0.583-0.325,1.21-0.588,1.754-0.978c0.56-0.363,1.154-0.691,1.694-1.088c0.518-0.426,1.046-0.845,1.586-1.263
		c-1.751,2.101-4.103,3.619-6.512,4.887c-2.42,1.287-5.005,2.207-7.61,2.997c-2.613,0.774-5.268,1.396-7.952,1.825
		C73.709,86.553,71.01,86.896,68.295,86.982z"/>
	<path fill="#FFD692" d="M24.998,70.175c3.009,0.978,5.843,1.865,8.751,2.669c1.456,0.376,2.9,0.809,4.378,1.167
		c1.473,0.394,2.962,0.74,4.481,1.253c-1.562,0.318-3.152,0.401-4.726,0.288c-1.58-0.081-3.142-0.374-4.67-0.782
		c-1.525-0.425-3.005-1.018-4.405-1.76C27.415,72.263,26.071,71.37,24.998,70.175z"/>
	<linearGradient id="SVGID_1_" gradientUnits="userSpaceOnUse" x1="65.0801" y1="34.2793" x2="74.2449" y2="28.3269">
		<stop  offset="0" style="stop-color:#98D5C5"/>
		<stop  offset="0.4637" style="stop-color:#FFFFFF"/>
		<stop  offset="1" style="stop-color:#98D5C5"/>
	</linearGradient>
	<path fill="url(#SVGID_1_)" d="M66.546,34.259c0.3,1.31,0.775,2.601,1.589,3.671c0.395,0.521,0.867,0.946,1.371,1.331
		c2.069-0.465,4.195-1.173,6.34-2.209c0,0-0.209-6.218-5.637-11.894c-0.861-0.899-1.568-1.755-2.169-2.566
		c-0.271,0.965-0.681,1.888-1.011,2.837C66.049,28.25,65.88,31.348,66.546,34.259z"/>
	<linearGradient id="SVGID_2_" gradientUnits="userSpaceOnUse" x1="51.606" y1="26.4658" x2="72.4297" y2="28.9072">
		<stop  offset="0" style="stop-color:#98D5C5"/>
		<stop  offset="0.4637" style="stop-color:#FFFFFF"/>
		<stop  offset="1" style="stop-color:#98D5C5"/>
	</linearGradient>
	<path fill="url(#SVGID_2_)" d="M69.506,39.261c-0.504-0.385-0.977-0.811-1.371-1.331c-0.813-1.07-1.289-2.361-1.589-3.671
		c-0.666-2.912-0.497-6.009,0.483-8.83c0.33-0.949,0.74-1.872,1.011-2.837c-3.016-4.075-3.05-6.901-3.05-6.983
		c-0.762,0.231-1.48,0.487-2.179,0.753c-0.239,0.362-0.49,0.717-0.718,1.086c-3.785,6.152-5.669,13.764-3.751,20.728
		c0.146,0.531,0.321,1.057,0.532,1.566C62.053,40.135,65.68,40.122,69.506,39.261z"/>
	<linearGradient id="SVGID_3_" gradientUnits="userSpaceOnUse" x1="46.625" y1="22.1504" x2="64.3895" y2="30.8768">
		<stop  offset="0" style="stop-color:#98D5C5"/>
		<stop  offset="0.4637" style="stop-color:#FFFFFF"/>
		<stop  offset="1" style="stop-color:#98D5C5"/>
	</linearGradient>
	<path fill="url(#SVGID_3_)" d="M62.094,17.449c0.228-0.37,0.479-0.724,0.718-1.086C47.4,22.234,47.179,36.138,47.179,36.138
		s4.78,2.75,11.695,3.604c-0.21-0.509-0.385-1.035-0.532-1.566C56.424,31.212,58.309,23.601,62.094,17.449z"/>
	<path fill="#F16374" d="M86.836,49.715c-0.975-0.662-1.517-1.814-1.748-2.969c-0.18-0.894-0.172-1.906,0.401-2.615
		c0.125-0.125,0.265-0.232,0.398-0.347c-3.958-5.404-10.042-6.732-10.042-6.732c-14.729,7.119-28.667-0.914-28.667-0.914
		c-3.887,1.299-6.715,3.004-8.774,4.834c22.155,12.26,41.857-0.19,44.054,7.491c2.788,9.748-28.667,7.02-49.264,1.537
		c-0.346,1.928-0.183,3.23-0.183,3.23s22.043,11.299,56.195,1.45c-0.003-1.61-0.173-3.072-0.46-4.412
		C88.068,50.265,87.4,50.099,86.836,49.715z"/>
	<path fill="#F38373" d="M82.459,48.463c-2.197-7.682-21.899,4.769-44.054-7.491c-2.109,1.874-3.398,3.874-4.194,5.707
		c0.756-0.124,1.934,0.43,2.375,0.626c1.235,0.548,2.578,0.799,3.911,1.017c4.098,0.669,8.234,1.062,12.368,1.455
		c2.037,0.193,4.075,0.387,6.119,0.452c5.387,0.171,10.756-0.549,16.118-1.096c0.535-0.054,1.09-0.105,1.599,0.07
		c0.509,0.175,0.959,0.642,0.934,1.179c-0.021,0.453-0.358,0.826-0.713,1.109c-1.207,0.964-2.771,1.349-4.296,1.596
		c-7.327,1.19-14.799-0.194-22.093-1.575c-1.707-0.323-3.414-0.646-5.121-0.969c-3.021-0.572-6.041-1.143-9.061-1.715
		c-0.555-0.105-2.12-0.208-2.639-0.861c-0.24,0.728-0.405,1.413-0.517,2.032C53.792,55.483,85.247,58.211,82.459,48.463z"/>
	<path fill="#FBB685" d="M45.412,50.543c1.707,0.323,3.414,0.646,5.121,0.969c7.293,1.381,14.766,2.765,22.093,1.575
		c1.524-0.248,3.089-0.632,4.296-1.596c0.354-0.283,0.692-0.656,0.713-1.109c0.025-0.537-0.425-1.004-0.934-1.179
		c-0.509-0.175-1.063-0.124-1.599-0.07C69.74,49.68,64.371,50.4,58.984,50.229c-2.044-0.065-4.083-0.259-6.119-0.452
		c-4.133-0.393-8.27-0.786-12.368-1.455c-1.333-0.218-2.676-0.469-3.911-1.017c-0.441-0.196-1.619-0.75-2.375-0.626
		c-0.191,0.44-0.362,0.873-0.499,1.289c0.519,0.653,2.084,0.756,2.639,0.861C39.371,49.4,42.392,49.972,45.412,50.543z"/>
	<path fill="#F38373" d="M86.891,48.547c-0.313-0.202-0.475-0.576-0.549-0.942c-0.158-0.77,0.025-1.692,0.492-2.36
		c-0.297-0.516-0.613-1.005-0.946-1.461c-0.134,0.115-0.273,0.222-0.398,0.347c-0.573,0.709-0.581,1.722-0.401,2.615
		c0.231,1.155,0.773,2.308,1.748,2.969c0.564,0.384,1.232,0.55,1.912,0.553c-0.098-0.456-0.227-0.878-0.352-1.305
		c-0.141-0.053-0.283-0.103-0.428-0.137C87.604,48.742,87.205,48.75,86.891,48.547z"/>
	<path fill="#FBB685" d="M86.342,47.605c0.074,0.366,0.235,0.74,0.549,0.942c0.314,0.203,0.714,0.195,1.078,0.279
		c0.145,0.034,0.287,0.084,0.428,0.137c-0.404-1.382-0.932-2.626-1.563-3.718C86.367,45.913,86.184,46.835,86.342,47.605z"/>
	<path fill="#F38373" d="M41.237,55.899c2.133,0.396,4.316,0.387,6.483,0.473c6.801,0.269,13.536,1.479,20.334,1.83
		c1.734,0.09,3.49,0.122,5.188-0.25c2.527-0.554,4.809-1.978,7.352-2.457c2.857-0.538,5.945,0.136,8.622-1
		c-1.386,1.298-3.476,1.356-5.359,1.603c-3.595,0.47-7.002,1.876-10.563,2.553c-7.026,1.336-14.232-0.211-21.366-0.725
		c-3.256-0.234-6.54-0.253-9.753-0.829c-1.226-0.219-2.438-0.52-3.624-0.898c-0.458-0.146-3.155-0.828-3.214-1.322
		c-0.106-0.882,1.911-0.137,2.105-0.065C38.676,55.27,39.94,55.659,41.237,55.899z"/>
	<path fill="#A25D42" d="M45.753,65.115c2.545,0.339,5.114,0.457,7.679,0.574c3.758,0.172,7.516,0.345,11.273,0.517
		c2.672,0.123,5.35,0.245,8.021,0.092c3.875-0.222,7.691-1.02,11.49-1.815c1.598-0.334,3.202-0.671,4.733-1.233
		c1.559-0.572,3.131-1.478,3.814-2.991c-3.134,0.306-5.932,2.061-8.983,2.84c-1.781,0.455-3.629,0.572-5.464,0.687
		c-5.309,0.333-10.616,0.665-15.924,0.998c-6.914,0.433-14.019,0.844-20.612-1.28c-1.955-0.629-3.843-1.48-5.842-1.967
		c-0.492-0.12-2.542-0.735-2.912-0.329c-0.526,0.578,0.335,1.059,0.701,1.231c1.647,0.777,3.985,1.024,5.767,1.459
		C41.56,64.402,43.645,64.834,45.753,65.115z"/>
	<g>
		<g>
			<g>
				<g>
					<g>
						<path fill="#50231C" d="M30.269,63.45c0.791,0,0.792-1.229,0-1.229C29.478,62.22,29.477,63.45,30.269,63.45L30.269,63.45z"/>
					</g>
				</g>
				<g>
					<g>
						<path fill="#50231C" d="M39.057,61.479c0.791,0,0.792-1.229,0-1.229C38.266,60.25,38.265,61.479,39.057,61.479L39.057,61.479z
							"/>
					</g>
				</g>
				<g>
					<g>
						<path fill="#50231C" d="M44.966,67.692c0.791,0,0.792-1.229,0-1.229C44.175,66.463,44.174,67.692,44.966,67.692L44.966,67.692
							z"/>
					</g>
				</g>
				<g>
					<g>
						<path fill="#50231C" d="M57.542,69.813c0.791,0,0.792-1.229,0-1.229C56.751,68.584,56.75,69.813,57.542,69.813L57.542,69.813z
							"/>
					</g>
				</g>
				<g>
					<g>
						<path fill="#50231C" d="M75.715,64.662c0.14,0,0.279,0,0.42,0c2.19,0,2.193-3.405,0-3.405c-0.141,0-0.28,0-0.42,0
							C73.523,61.257,73.52,64.662,75.715,64.662L75.715,64.662z"/>
					</g>
				</g>
				<g>
					<g>
						<path fill="#50231C" d="M89.822,63.45c1.809,0,1.813-2.812,0-2.812C88.014,60.638,88.01,63.45,89.822,63.45L89.822,63.45z"/>
					</g>
				</g>
				<g>
					<g>
						<path fill="#50231C" d="M81.18,70.116c0.79,0,0.791-1.229,0-1.229S80.387,70.116,81.18,70.116L81.18,70.116z"/>
					</g>
				</g>
				<g>
					<g>
						<path fill="#50231C" d="M65.278,62.835c0-0.051,0-0.101,0-0.151c0-0.791-1.229-0.792-1.229,0c0,0.05,0,0.101,0,0.151
							C64.049,63.626,65.278,63.627,65.278,62.835L65.278,62.835z"/>
					</g>
				</g>
				<g>
					<g>
						<path fill="#50231C" d="M49.4,61.556c0-0.051,0-0.101,0-0.152c0-0.791-1.229-0.792-1.229,0c0,0.051,0,0.101,0,0.152
							C48.171,62.346,49.4,62.348,49.4,61.556L49.4,61.556z"/>
					</g>
				</g>
				<g>
					<g>
						<path fill="#50231C" d="M53.213,69.489c0-0.122,0-0.244,0-0.365c0-1.907-2.964-1.91-2.964,0c0,0.122,0,0.244,0,0.365
							C50.249,71.396,53.213,71.399,53.213,69.489L53.213,69.489z"/>
					</g>
				</g>
				<g>
					<g>
						<path fill="#50231C" d="M90.914,67.088c0-0.108,0-0.217,0-0.325c0-1.696-2.635-1.699-2.635,0c0,0.108,0,0.217,0,0.325
							C88.279,68.784,90.914,68.787,90.914,67.088L90.914,67.088z"/>
					</g>
				</g>
				<g>
					<g>
						<path fill="#50231C" d="M42.321,64.808c0-0.098,0-0.195,0-0.292c0-1.522-2.365-1.524-2.365,0c0,0.097,0,0.194,0,0.292
							C39.956,66.329,42.321,66.332,42.321,64.808L42.321,64.808z"/>
					</g>
				</g>
				<g>
					<g>
						<path fill="#50231C" d="M31.477,66.084c0-0.05,0-0.101,0-0.151c0-0.791-1.229-0.792-1.229,0c0,0.051,0,0.101,0,0.151
							C30.248,66.875,31.477,66.876,31.477,66.084L31.477,66.084z"/>
					</g>
				</g>
				<g>
					<g>
						<path fill="#50231C" d="M34.538,57.945c0-0.097,0-0.195,0-0.292c0-1.525-2.371-1.528-2.371,0c0,0.097,0,0.195,0,0.292
							C32.167,59.471,34.538,59.473,34.538,57.945L34.538,57.945z"/>
					</g>
				</g>
				<g>
					<g>
						<path fill="#50231C" d="M83.014,59.915c0-0.076,0-0.152,0-0.229c0-1.193-1.855-1.195-1.855,0c0,0.077,0,0.153,0,0.229
							C81.158,61.108,83.014,61.11,83.014,59.915L83.014,59.915z"/>
					</g>
				</g>
				<g>
					<g>
						<path fill="#50231C" d="M78.016,69.344c0-0.097,0-0.193,0-0.29c0-1.515-2.354-1.517-2.354,0c0,0.097,0,0.193,0,0.29
							C75.662,70.858,78.016,70.861,78.016,69.344L78.016,69.344z"/>
					</g>
				</g>
				<g>
					<g>
						<path fill="#50231C" d="M69.904,67.221c0-0.097,0-0.194,0-0.292c0-1.519-2.361-1.521-2.361,0c0,0.097,0,0.194,0,0.292
							C67.543,68.74,69.904,68.743,69.904,67.221L69.904,67.221z"/>
					</g>
				</g>
				<g>
					<g>
						<path fill="#50231C" d="M54.268,65.79c2.243,0,2.246-3.485,0-3.485C52.025,62.305,52.021,65.79,54.268,65.79L54.268,65.79z"/>
					</g>
				</g>
				<g>
					<g>
						<path fill="#50231C" d="M34.97,68.933c2.014,0,2.017-3.129,0-3.129C32.956,65.803,32.953,68.933,34.97,68.933L34.97,68.933z"
							/>
					</g>
				</g>
				<g>
					<g>
						<path fill="#50231C" d="M67.543,71.48c0.79,0,0.791-1.229,0-1.229S66.75,71.48,67.543,71.48L67.543,71.48z"/>
					</g>
				</g>
			</g>
		</g>
		<g>
			<g>
				<g>
					<path fill="#F1F0F0" d="M29.889,63.07c0.791,0,0.792-1.229,0-1.229C29.098,61.841,29.097,63.07,29.889,63.07L29.889,63.07z"/>
				</g>
			</g>
			<g>
				<g>
					<path fill="#F1F0F0" d="M38.677,61.1c0.791,0,0.792-1.229,0-1.229C37.886,59.871,37.885,61.1,38.677,61.1L38.677,61.1z"/>
				</g>
			</g>
			<g>
				<g>
					<path fill="#F1F0F0" d="M44.586,67.313c0.791,0,0.792-1.229,0-1.229C43.795,66.083,43.794,67.313,44.586,67.313L44.586,67.313z
						"/>
				</g>
			</g>
			<g>
				<g>
					<path fill="#F1F0F0" d="M57.163,69.434c0.791,0,0.792-1.229,0-1.229C56.372,68.205,56.37,69.434,57.163,69.434L57.163,69.434z"
						/>
				</g>
			</g>
			<g>
				<g>
					<path fill="#F1F0F0" d="M75.335,64.282c0.14,0,0.28,0,0.42,0c2.19,0,2.194-3.405,0-3.405c-0.14,0-0.28,0-0.42,0
						C73.145,60.877,73.141,64.282,75.335,64.282L75.335,64.282z"/>
				</g>
			</g>
			<g>
				<g>
					<path fill="#F1F0F0" d="M89.442,63.07c1.81,0,1.812-2.812,0-2.812C87.634,60.258,87.631,63.07,89.442,63.07L89.442,63.07z"/>
				</g>
			</g>
			<g>
				<g>
					<path fill="#F1F0F0" d="M80.799,69.737c0.791,0,0.793-1.229,0-1.229C80.009,68.507,80.008,69.737,80.799,69.737L80.799,69.737z
						"/>
				</g>
			</g>
			<g>
				<g>
					<path fill="#F1F0F0" d="M64.898,62.455c0-0.05,0-0.101,0-0.151c0-0.791-1.229-0.792-1.229,0c0,0.05,0,0.101,0,0.151
						C63.67,63.246,64.898,63.248,64.898,62.455L64.898,62.455z"/>
				</g>
			</g>
			<g>
				<g>
					<path fill="#F16374" d="M49.021,61.176c0-0.051,0-0.101,0-0.151c0-0.791-1.229-0.792-1.229,0c0,0.05,0,0.101,0,0.151
						C47.792,61.967,49.021,61.968,49.021,61.176L49.021,61.176z"/>
				</g>
			</g>
			<g>
				<g>
					<path fill="#F16374" d="M52.833,69.109c0-0.122,0-0.243,0-0.365c0-1.907-2.963-1.91-2.963,0c0,0.122,0,0.244,0,0.365
						C49.87,71.016,52.833,71.02,52.833,69.109L52.833,69.109z"/>
				</g>
			</g>
			<g>
				<g>
					<path fill="#F16374" d="M90.535,66.708c0-0.108,0-0.217,0-0.325c0-1.696-2.637-1.699-2.637,0c0,0.108,0,0.216,0,0.325
						C87.898,68.405,90.535,68.407,90.535,66.708L90.535,66.708z"/>
				</g>
			</g>
			<g>
				<g>
					<path fill="#F16374" d="M41.941,64.428c0-0.097,0-0.194,0-0.292c0-1.522-2.365-1.524-2.365,0c0,0.097,0,0.194,0,0.292
						C39.576,65.949,41.941,65.952,41.941,64.428L41.941,64.428z"/>
				</g>
			</g>
			<g>
				<g>
					<path fill="#F16374" d="M31.097,65.705c0-0.051,0-0.101,0-0.152c0-0.791-1.229-0.792-1.229,0c0,0.051,0,0.101,0,0.152
						C29.868,66.495,31.097,66.497,31.097,65.705L31.097,65.705z"/>
				</g>
			</g>
			<g>
				<g>
					<path fill="#F16374" d="M34.158,57.566c0-0.098,0-0.195,0-0.292c0-1.525-2.371-1.528-2.371,0c0,0.098,0,0.195,0,0.292
						C31.787,59.091,34.158,59.094,34.158,57.566L34.158,57.566z"/>
				</g>
			</g>
			<g>
				<g>
					<path fill="#F16374" d="M82.633,59.535c0-0.076,0-0.152,0-0.229c0-1.193-1.854-1.195-1.854,0c0,0.076,0,0.152,0,0.229
						C80.778,60.729,82.633,60.73,82.633,59.535L82.633,59.535z"/>
				</g>
			</g>
			<g>
				<g>
					<path fill="#F16374" d="M77.637,68.964c0-0.097,0-0.193,0-0.29c0-1.514-2.354-1.517-2.354,0c0,0.097,0,0.193,0,0.29
						C75.283,70.479,77.637,70.481,77.637,68.964L77.637,68.964z"/>
				</g>
			</g>
			<g>
				<g>
					<path fill="#F16374" d="M69.524,66.841c0-0.097,0-0.194,0-0.291c0-1.519-2.361-1.522-2.361,0c0,0.097,0,0.194,0,0.291
						C67.163,68.36,69.524,68.363,69.524,66.841L69.524,66.841z"/>
				</g>
			</g>
			<g>
				<g>
					<path fill="#F1F0F0" d="M53.888,65.41c2.242,0,2.246-3.485,0-3.485C51.646,61.925,51.642,65.41,53.888,65.41L53.888,65.41z"/>
				</g>
			</g>
			<g>
				<g>
					<path fill="#F1F0F0" d="M34.59,68.553c2.014,0,2.017-3.129,0-3.129C32.576,65.424,32.573,68.553,34.59,68.553L34.59,68.553z"/>
				</g>
			</g>
			<g>
				<g>
					<path fill="#F1F0F0" d="M67.162,71.1c0.791,0,0.793-1.229,0-1.229C66.372,69.871,66.371,71.1,67.162,71.1L67.162,71.1z"/>
				</g>
			</g>
		</g>
		<path fill="#F1F0F0" d="M32.102,57.605c-0.06-0.324,0.081-0.673,0.349-0.901c0.142-0.098,0.304-0.181,0.474-0.192
			c0.168-0.024,0.334,0.012,0.485,0.067c-0.315,0.076-0.597,0.137-0.804,0.32C32.382,57.06,32.246,57.318,32.102,57.605z"/>
		<path fill="#F1F0F0" d="M39.986,64.415c-0.06-0.324,0.081-0.674,0.349-0.901c0.143-0.099,0.304-0.181,0.474-0.192
			c0.168-0.024,0.334,0.013,0.485,0.067c-0.315,0.076-0.597,0.137-0.803,0.32C40.266,63.869,40.13,64.127,39.986,64.415z"/>
		<path fill="#F1F0F0" d="M47.947,61.238c-0.033-0.176,0.044-0.367,0.19-0.491c0.078-0.054,0.166-0.099,0.258-0.104
			c0.092-0.013,0.182,0.007,0.264,0.037c-0.172,0.041-0.325,0.074-0.438,0.174C48.1,60.941,48.025,61.082,47.947,61.238z"/>
		<path fill="#F1F0F0" d="M50.156,69.206c-0.076-0.411,0.103-0.855,0.443-1.144c0.181-0.125,0.386-0.229,0.603-0.244
			c0.214-0.03,0.424,0.016,0.615,0.085c-0.4,0.096-0.758,0.174-1.02,0.407C50.512,68.513,50.339,68.841,50.156,69.206z"/>
		<path fill="#A25D42" d="M33.427,67.313c-0.076-0.411,0.103-0.856,0.443-1.145c0.181-0.125,0.386-0.229,0.602-0.244
			c0.214-0.031,0.424,0.016,0.616,0.085c-0.401,0.097-0.758,0.174-1.02,0.407C33.783,66.619,33.61,66.948,33.427,67.313z"/>
		<path fill="#A25D42" d="M52.708,63.777c-0.076-0.411,0.103-0.856,0.443-1.145c0.181-0.125,0.386-0.229,0.602-0.244
			c0.214-0.031,0.424,0.016,0.616,0.085c-0.401,0.097-0.758,0.174-1.021,0.407C53.064,63.084,52.891,63.413,52.708,63.777z"/>
		<path fill="#A25D42" d="M88.485,61.887c-0.067-0.362,0.091-0.753,0.39-1.006c0.159-0.11,0.34-0.202,0.529-0.215
			c0.188-0.027,0.373,0.014,0.542,0.075c-0.353,0.085-0.667,0.153-0.897,0.358C88.798,61.277,88.646,61.566,88.485,61.887z"/>
		<path fill="#A25D42" d="M74.11,62.777c-0.081-0.439,0.11-0.914,0.474-1.222c0.193-0.134,0.412-0.246,0.644-0.261
			c0.228-0.033,0.452,0.017,0.657,0.091c-0.428,0.103-0.811,0.186-1.09,0.435C74.49,62.037,74.306,62.387,74.11,62.777z"/>
		<path fill="#F1F0F0" d="M67.421,66.859c-0.062-0.335,0.084-0.697,0.36-0.932c0.148-0.102,0.314-0.187,0.49-0.199
			c0.175-0.025,0.346,0.013,0.502,0.069c-0.326,0.079-0.617,0.142-0.83,0.331C67.711,66.295,67.57,66.563,67.421,66.859z"/>
		<path fill="#F1F0F0" d="M75.559,69.077c-0.062-0.335,0.084-0.697,0.361-0.932c0.146-0.102,0.314-0.187,0.49-0.199
			c0.174-0.025,0.346,0.013,0.501,0.069c-0.326,0.079-0.617,0.142-0.831,0.331C75.849,68.512,75.707,68.78,75.559,69.077z"/>
		<path fill="#F1F0F0" d="M88.194,66.988c-0.075-0.41,0.103-0.854,0.442-1.141c0.181-0.125,0.385-0.229,0.602-0.244
			c0.213-0.03,0.422,0.016,0.613,0.085c-0.399,0.096-0.756,0.174-1.018,0.406C88.549,66.297,88.377,66.625,88.194,66.988z"/>
		<path fill="#F1F0F0" d="M81.034,59.648c-0.051-0.276,0.069-0.574,0.298-0.768c0.121-0.084,0.259-0.154,0.403-0.164
			c0.144-0.02,0.284,0.011,0.413,0.058c-0.269,0.064-0.509,0.117-0.684,0.272C81.273,59.184,81.156,59.404,81.034,59.648z"/>
	</g>
	<path fill="#FBB685" d="M66.961,38.987c-1.547,0.227-3.109,0.417-4.671,0.333c-1.431-0.077-2.839-0.384-4.239-0.689
		c-3.51-0.766-7.02-1.531-10.529-2.297c-0.111,0.573,0.5,1,1.023,1.261c1.898,0.945,3.807,1.895,5.829,2.536
		c4.184,1.325,8.666,1.238,12.928,0.354c0.789-0.164,5.466-1.025,5.252-1.865C72.238,37.383,67.813,38.863,66.961,38.987z"/>
	<path fill="#F38373" d="M72.546,74.54c-4.719,0.601-9.49,0.607-14.247,0.613c-2.379,0.002-4.765,0.005-7.13-0.259
		c-1.664-0.186-3.311-0.502-4.949-0.847c-4.685-0.983-9.322-2.192-13.891-3.621c-1.095-0.342-3.087-0.796-3.57-1.837
		c3.501,1.024,7.837,2.056,11.484,2.129c1.652,0.033,3.309-0.132,4.954,0.013c1.319,0.116,2.612,0.43,3.915,0.668
		c2.19,0.4,4.413,0.586,6.632,0.771c6.145,0.514,12.323,1.028,18.471,0.533c4.588-0.37,9.132-1.303,13.494-2.773
		c0.523-0.176,1.133-0.352,1.599-0.057c1.597,1.013-1.534,1.516-1.855,1.589c-1.632,0.37-3.259,0.762-4.888,1.142
		C79.251,73.377,75.923,74.11,72.546,74.54z"/>
	<path fill="#FFD692" d="M60.442,78.567c1.187,0.362,2.241,0.75,3.333,1.046c0.538,0.167,1.086,0.285,1.643,0.409
		c0.56,0.132,1.126,0.196,1.744,0.335c-0.559,0.273-1.182,0.434-1.806,0.442c-0.626,0.031-1.253-0.058-1.854-0.225
		c-0.597-0.179-1.175-0.42-1.695-0.757C61.287,79.486,60.803,79.085,60.442,78.567z"/>
	<path fill="#FFD692" d="M84.048,74.379c1.009-0.058,1.923-0.057,2.84-0.138c0.458-0.023,0.91-0.088,1.37-0.15
		c0.465-0.056,0.915-0.167,1.427-0.234c-0.35,0.366-0.78,0.664-1.255,0.845c-0.47,0.2-0.975,0.309-1.479,0.35
		c-0.507,0.031-1.015,0.009-1.507-0.101C84.952,74.844,84.469,74.673,84.048,74.379z"/>
	
		<ellipse transform="matrix(0.8914 -0.4531 0.4531 0.8914 -14.6191 24.9782)" fill="#FBB685" cx="44.82" cy="42.999" rx="6.918" ry="4.315"/>
	
		<ellipse transform="matrix(0.8914 -0.4531 0.4531 0.8914 -15.0908 24.5949)" fill="#FBB685" cx="43.785" cy="43.792" rx="4.176" ry="2.605"/>
	<path fill="#FBB685" d="M51.979,37.657c-0.189,0.085-0.356,0.248-0.338,0.455s0.186,0.386,0.387,0.439
		c0.261,0.069,0.561-0.075,0.671-0.32c0.06-0.131,0.082-0.309-0.019-0.413C52.543,37.675,52.147,37.581,51.979,37.657z"/>
	<path fill="#FBB685" d="M54.228,39.086c2.492,0.765,5.089,1.188,7.694,1.255c0.212,0.005,0.503-0.071,0.482-0.281
		c-0.017-0.159-0.207-0.226-0.363-0.258c-1.687-0.347-3.379-0.694-5.095-0.85c-0.853-0.077-1.731-0.111-2.519-0.45
		c-0.111-0.048-0.229-0.103-0.349-0.085c-0.12,0.018-0.231,0.148-0.179,0.257c0.058,0.123,0.281,0.203,0.202,0.313L54.228,39.086z"
		/>
	<path opacity="0.25" fill="#299C9D" d="M69.766,27.271c1.576,2.524,3.34,4.958,4.505,7.696c0.182,0.426,0.35,0.902,0.205,1.342
		c-0.249,0.755-1.214,0.941-2.006,1c0.118-4.131-4.038-7.43-4.032-11.563C69.368,25.707,69.305,26.532,69.766,27.271z"/>
	<g>
		<g>
			<path fill="#DB1F2E" d="M102.532,95.148l-7.038,38.734c-0.269,1.477-1.238,2.736-2.607,3.35c-1.016,0.455-2.06,0.889-3.13,1.303
				l6.407-41.225C98.352,96.65,100.481,95.926,102.532,95.148z"/>
			<path fill="#DB1F2E" d="M89.92,99.008l-5.35,41.311c-1.652,0.497-3.35,0.947-5.1,1.353l4.277-41.343
				C85.852,99.936,87.908,99.498,89.92,99.008z"/>
			<path fill="#DB1F2E" d="M77.615,101.313l-3.207,41.356c-1.652,0.274-3.338,0.51-5.055,0.692L71.488,102
				C73.559,101.816,75.604,101.582,77.615,101.313z"/>
			<path fill="#DB1F2E" d="M64.291,143.768c-1.678,0.092-3.383,0.137-5.101,0.137v-41.369c2.077,0,4.134-0.046,6.165-0.131
				L64.291,143.768z"/>
			<path fill="#DB1F2E" d="M53.018,102.404l1.064,41.363c-1.711-0.092-3.396-0.223-5.062-0.405L46.885,102
				C48.903,102.176,50.948,102.313,53.018,102.404z"/>
			<path fill="#DB1F2E" d="M40.759,101.313l3.207,41.356c-1.725-0.287-3.416-0.62-5.062-0.999l-4.278-41.343
				C36.638,100.699,38.682,101.026,40.759,101.313z"/>
			<path fill="#DB1F2E" d="M28.454,99.008l5.349,41.311c-1.79-0.541-3.52-1.136-5.186-1.775v-0.008l-6.408-41.225
				C24.234,97.931,26.318,98.498,28.454,99.008z"/>
			<path fill="#881720" d="M96.164,97.311l-6.407,41.225v0.008c-1.665,0.64-3.396,1.234-5.187,1.775l5.35-41.311
				C92.056,98.498,94.14,97.931,96.164,97.311z"/>
			<path fill="#881720" d="M83.748,100.328l-4.277,41.343c-1.646,0.379-3.338,0.712-5.063,0.999l3.207-41.356
				C79.691,101.026,81.742,100.699,83.748,100.328z"/>
			<path fill="#881720" d="M71.488,102l-2.135,41.362c-1.666,0.183-3.352,0.313-5.063,0.405l1.064-41.363
				C67.426,102.313,69.471,102.176,71.488,102z"/>
			<path fill="#881720" d="M59.19,102.535v41.369c-1.725,0-3.423-0.045-5.108-0.137l-1.064-41.363
				C55.049,102.489,57.113,102.535,59.19,102.535z"/>
			<path fill="#881720" d="M46.885,102l2.136,41.362c-1.711-0.183-3.403-0.418-5.055-0.692l-3.207-41.356
				C42.771,101.582,44.814,101.816,46.885,102z"/>
			<path fill="#881720" d="M34.626,100.328l4.278,41.343c-1.75-0.405-3.449-0.855-5.101-1.353l-5.349-41.311
				C30.465,99.498,32.522,99.936,34.626,100.328z"/>
			<path fill="#881720" d="M22.209,97.311l6.408,41.225c-1.072-0.41-2.117-0.846-3.134-1.303c-1.368-0.614-2.335-1.873-2.603-3.348
				l-7.039-38.736C17.893,95.926,20.015,96.65,22.209,97.311z"/>
			<path fill="#881720" d="M96.164,97.311c-2.025,0.619-4.108,1.188-6.244,1.697c-2.012,0.49-4.068,0.928-6.172,1.32
				c-2.006,0.371-4.057,0.698-6.133,0.985c-0.398,0.054-0.803,0.099-1.203,0.148c0.135,1.242,0.176,2.499,0.15,3.745
				c-0.287,13.671-7.961,26.885-19.498,34.223c-2.521,1.603-5.213,2.904-8.007,3.936c1.654,0.182,3.327,0.312,5.025,0.402
				c1.685,0.092,3.383,0.137,5.108,0.137c1.718,0,3.423-0.045,5.101-0.137c1.711-0.092,3.396-0.223,5.063-0.405
				c1.717-0.183,3.402-0.418,5.055-0.692c1.725-0.287,3.416-0.62,5.063-0.999c1.75-0.405,3.447-0.855,5.1-1.353
				c1.79-0.541,3.521-1.136,5.187-1.775v-0.008c1.07-0.414,2.114-0.848,3.13-1.303c1.369-0.613,2.339-1.873,2.607-3.35l7.038-38.734
				C100.481,95.926,98.352,96.65,96.164,97.311z"/>
			<path opacity="0.5" fill="#881720" d="M76.412,101.462c-1.624,0.204-3.263,0.391-4.924,0.538
				c-2.018,0.176-4.063,0.313-6.133,0.404c-2.031,0.085-4.088,0.131-6.165,0.131s-4.141-0.046-6.172-0.131
				c-1.274-0.057-2.536-0.135-3.791-0.225c-1.19,2.852-2.746,5.469-4.158,7.381c-2.606,3.531-5.855,6.585-9.462,9.077
				c-4.293,2.967-9.246,5.205-14.354,6.294l1.626,8.953c0.269,1.475,1.236,2.733,2.604,3.348c1.017,0.457,2.062,0.893,3.133,1.303
				v0.008c1.666,0.64,3.396,1.234,5.186,1.775c1.652,0.497,3.351,0.947,5.101,1.353c1.646,0.379,3.337,0.712,5.062,0.999
				c1.652,0.274,3.344,0.51,5.055,0.692c0.012,0.001,0.024,0.003,0.036,0.003c2.794-1.031,5.487-2.333,8.007-3.936
				c11.537-7.338,19.211-20.552,19.498-34.223C76.588,103.961,76.547,102.704,76.412,101.462z"/>
		</g>
		<g>
			<polygon fill="#FFFFFF" points="22.737,97.471 28.281,136.451 21.675,97.147 			"/>
		</g>
		<g>
			<polygon fill="#FFFFFF" points="28.972,99.133 33.572,138.535 27.931,98.882 			"/>
		</g>
		<g>
			<polygon fill="#FFFFFF" points="35.095,100.413 38.756,139.944 34.063,100.221 			"/>
		</g>
		<g>
			<polygon fill="#FFFFFF" points="41.23,101.376 43.833,141.129 40.204,101.236 			"/>
		</g>
		<g>
			<polygon fill="#FFFFFF" points="47.412,102.045 48.912,141.671 46.389,101.955 			"/>
		</g>
		<g>
			<polygon fill="#FFFFFF" points="53.417,102.42 54.041,142.121 52.393,102.375 			"/>
		</g>
		<g>
			<polygon fill="#FFFFFF" points="59.69,102.535 59.19,142.28 58.666,102.535 			"/>
		</g>
		<g opacity="0.5">
			<polygon fill="#FFFFFF" points="95.643,97.471 90.1,136.451 96.705,97.147 			"/>
		</g>
		<g opacity="0.5">
			<polygon fill="#FFFFFF" points="89.408,99.133 84.809,138.535 90.449,98.882 			"/>
		</g>
		<g opacity="0.5">
			<polygon fill="#FFFFFF" points="83.286,100.413 79.648,139.944 84.316,100.221 			"/>
		</g>
		<g opacity="0.5">
			<polygon fill="#FFFFFF" points="77.15,101.376 74.527,141.129 78.176,101.236 			"/>
		</g>
		<g opacity="0.7">
			<polygon fill="#FFFFFF" points="70.969,102.045 69.44,141.671 71.992,101.955 			"/>
		</g>
		<g opacity="0.7">
			<polygon fill="#FFFFFF" points="64.964,102.42 64.34,142.121 65.987,102.375 			"/>
		</g>
		<path fill="#881720" d="M101.864,98.824c-0.671-0.207-2.122-0.511-2.67-0.07c-0.447,0.359-0.562,0.979-0.751,1.52
			c-0.191,0.541-0.612,1.118-1.184,1.07c-0.768-0.063-1.12-0.97-1.889-0.978c-0.492-0.005-1.017-0.001-1.424,0.272
			c-0.348,0.233-0.552,0.625-0.848,0.922c-0.518,0.52-1.295,0.712-2.026,0.67c-0.731-0.041-1.435-0.29-2.121-0.549
			c-0.29-0.108-0.59-0.222-0.9-0.213c-1.081,0.031-1.655,1.432-2.713,1.664c-0.361,0.08-0.737,0.01-1.101-0.06
			c-0.949-0.183-1.898-0.364-2.847-0.546c-0.44-0.086-0.942-0.157-1.302,0.112c-0.232,0.175-0.353,0.459-0.536,0.685
			c-0.707,0.871-2.073,0.672-3.141,0.328c-1.067-0.345-2.335-0.723-3.227-0.041c-0.573,0.439-0.858,1.25-1.539,1.491
			c-0.669,0.237-1.378-0.193-1.926-0.644s-0.999-0.744-1.708-0.717c-1.26,1.189-2.941,2.473-4.551,1.832
			c-0.847-0.338-1.503-1.177-2.412-1.219c-0.84-0.039-1.526,0.616-2.268,1.012c-1.488,0.795-3.485,0.483-4.66-0.727
			c-0.165-0.171-0.327-0.363-0.553-0.436c-0.265-0.083-0.548,0.021-0.804,0.129c-1.006,0.421-2.083,0.919-3.143,0.664
			c-1.183-0.283-2.083-1.458-3.3-1.461c-1.105-0.002-2.069,0.992-3.165,0.852c-0.445-0.059-0.842-0.299-1.225-0.533
			c-0.493-0.303-0.985-0.605-1.478-0.908c-0.312-0.192-0.698-0.389-1.025-0.225c-0.189,0.095-0.305,0.289-0.468,0.424
			c-0.481,0.396-1.216,0.176-1.735-0.17c-0.519-0.348-1.001-0.815-1.619-0.898c-1.009-0.137-1.948,0.809-2.947,0.619
			c-1.162-0.221-1.738-1.852-2.921-1.867c-0.369-0.004-0.719,0.161-1.086,0.193c-1.513,0.133-2.675-1.939-4.145-1.554
			c-0.325,0.085-0.609,0.288-0.931,0.384c-0.582,0.173-1.259-0.052-1.623-0.537c-0.233-0.313-0.409-0.76-0.796-0.799
			c-0.448-0.047-0.72,0.496-1.139,0.661c-1.058,0.418-1.66-1.647-2.796-1.603c-0.269,0.01-0.519,0.146-0.785,0.181l-0.111,0.069
			l-0.447-2.063c0,0,17.202,7.262,42.418,7.262c28.73,0,44.147-7.403,44.147-7.403L101.864,98.824z"/>
		<path fill="#FFE3AF" d="M102.512,94.85c0.648,0.288,1.246,0.846,1.402,1.538s-0.164,1.501-0.813,1.792
			c-0.641,0.289-1.38,0.041-2.051-0.166c-0.672-0.207-1.473-0.35-2.02,0.092c-0.447,0.359-0.561,0.978-0.752,1.52
			c-0.19,0.541-0.611,1.117-1.184,1.07c-0.766-0.064-1.119-0.971-1.889-0.979c-0.49-0.005-1.016,0-1.424,0.273
			c-0.348,0.233-0.551,0.625-0.848,0.922c-0.518,0.519-1.294,0.711-2.025,0.67c-0.732-0.041-1.436-0.291-2.121-0.549
			c-0.291-0.109-0.59-0.223-0.9-0.213c-1.082,0.03-1.656,1.432-2.713,1.664c-0.361,0.08-0.737,0.01-1.102-0.061
			c-0.948-0.182-1.896-0.363-2.846-0.546c-0.441-0.085-0.942-0.157-1.302,0.112c-0.232,0.176-0.353,0.459-0.536,0.686
			c-0.707,0.871-2.072,0.671-3.141,0.327c-1.068-0.345-2.336-0.722-3.227-0.04c-0.574,0.439-0.858,1.25-1.539,1.49
			c-0.668,0.238-1.379-0.192-1.926-0.643c-0.548-0.451-1-0.744-1.709-0.718c-1.259,1.19-2.941,2.473-4.551,1.832
			c-0.846-0.337-1.502-1.177-2.412-1.218c-0.84-0.039-1.526,0.615-2.268,1.012c-1.488,0.795-3.485,0.482-4.659-0.728
			c-0.165-0.171-0.327-0.363-0.553-0.435c-0.265-0.084-0.548,0.021-0.804,0.128c-1.006,0.421-2.082,0.919-3.143,0.665
			c-1.183-0.283-2.084-1.459-3.3-1.461c-1.105-0.002-2.069,0.991-3.166,0.851c-0.445-0.058-0.842-0.298-1.224-0.532
			c-0.493-0.303-0.985-0.606-1.478-0.909c-0.312-0.192-0.697-0.389-1.025-0.224c-0.189,0.094-0.305,0.289-0.468,0.424
			c-0.481,0.396-1.216,0.176-1.735-0.171c-0.519-0.347-1.001-0.815-1.619-0.898c-1.008-0.136-1.947,0.81-2.947,0.62
			c-1.162-0.222-1.738-1.852-2.921-1.867c-0.368-0.004-0.719,0.16-1.086,0.193c-1.514,0.132-2.675-1.939-4.145-1.555
			c-0.326,0.086-0.609,0.289-0.932,0.385c-0.582,0.172-1.259-0.053-1.623-0.537c-0.233-0.313-0.409-0.76-0.796-0.8
			c-0.447-0.046-0.72,0.497-1.138,0.661c-1.059,0.418-1.66-1.646-2.797-1.602c-0.269,0.01-0.518,0.146-0.785,0.18
			c-0.493,0.063-1.006-0.277-1.14-0.756c-0.134-0.479,0.251-1.001,0.706-1.203c0,0,18.9,7.227,42.294,7.227
			C86.866,102.375,102.512,94.85,102.512,94.85z"/>
		<g>
			<g>
				<path fill="#FFFFFF" d="M15.782,96.698c-0.219-0.088-0.369-0.313-0.369-0.581c0.018-0.129,0.069-0.262,0.163-0.344
					c0.088-0.089,0.203-0.131,0.315-0.152c-0.123,0.201-0.234,0.348-0.229,0.512C15.639,96.298,15.716,96.477,15.782,96.698z"/>
			</g>
			<g>
				<path fill="#FFFFFF" d="M18.706,97.311c0.177,0.174,0.292,0.356,0.444,0.502c0.137,0.165,0.284,0.273,0.508,0.383
					c-0.116,0.043-0.252,0.045-0.376,0c-0.124-0.043-0.223-0.129-0.315-0.213C18.808,97.789,18.693,97.563,18.706,97.311z"/>
			</g>
			<g>
				<path fill="#FFFFFF" d="M21.872,98.08c0.144,0.216,0.268,0.39,0.449,0.504c0.167,0.133,0.377,0.194,0.618,0.298
					c-0.122,0.043-0.253,0.067-0.386,0.048c-0.133-0.012-0.259-0.073-0.377-0.143C21.958,98.618,21.812,98.344,21.872,98.08z"/>
			</g>
			<g>
				<path fill="#FFFFFF" d="M26.399,99.226c0.638,0.264,1.156,0.583,1.805,0.777c-0.342,0.101-0.7-0.005-1.012-0.138
					C26.889,99.705,26.598,99.514,26.399,99.226z"/>
			</g>
			<g>
				<path fill="#FFFFFF" d="M31.342,100.48c0.459,0.5,0.838,0.951,1.491,1.139c-0.165,0.039-0.347,0.045-0.517-0.009
					c-0.17-0.052-0.322-0.147-0.462-0.253C31.6,101.117,31.396,100.824,31.342,100.48z"/>
			</g>
			<g>
				<path fill="#FFFFFF" d="M36.848,101.619c0.443,0.328,0.757,0.617,1.265,0.805c-0.13,0.041-0.276,0.055-0.414,0.022
					c-0.139-0.029-0.266-0.095-0.385-0.167C37.097,102.108,36.907,101.895,36.848,101.619z"/>
			</g>
			<g>
				<path fill="#FFFFFF" d="M41.517,102.424c0.577,0.439,1.078,0.832,1.775,1.021c-0.177,0.04-0.368,0.05-0.55,0.007
					c-0.182-0.041-0.354-0.12-0.515-0.211C41.924,103.031,41.652,102.769,41.517,102.424z"/>
			</g>
			<g>
				<path fill="#FFFFFF" d="M47.912,102.836c0.727,0.498,1.38,0.995,2.237,1.192c-0.217,0.041-0.448,0.036-0.668-0.017
					c-0.22-0.053-0.425-0.148-0.624-0.252C48.48,103.52,48.133,103.227,47.912,102.836z"/>
			</g>
			<g>
				<path fill="#FFFFFF" d="M54.478,103.59c0.351,0.289,0.68,0.572,1.056,0.783c0.364,0.235,0.763,0.372,1.206,0.482
					c-0.223,0.037-0.461,0.047-0.688-0.01c-0.227-0.051-0.444-0.145-0.646-0.258C55.017,104.336,54.67,104.01,54.478,103.59z"/>
			</g>
			<g>
				<path fill="#FFFFFF" d="M62.21,103.761c0.38,0.155,0.712,0.365,1.063,0.538c0.168,0.102,0.344,0.184,0.518,0.268
					c0.176,0.08,0.351,0.167,0.549,0.215c-0.416,0.089-0.826-0.09-1.184-0.263C62.805,104.313,62.469,104.083,62.21,103.761z"/>
			</g>
			<g>
				<path fill="#FFFFFF" d="M69.529,103.129c0.56,0.448,1.038,0.855,1.727,1.045c-0.174,0.041-0.364,0.048-0.544,0.002
					c-0.18-0.043-0.347-0.125-0.505-0.219C69.913,103.742,69.652,103.474,69.529,103.129z"/>
			</g>
			<g>
				<path fill="#FFFFFF" d="M75.795,102.398c0.881,0.291,1.709,0.512,2.635,0.486c-0.213,0.091-0.444,0.158-0.681,0.168
					c-0.235,0.017-0.473-0.008-0.704-0.049C76.59,102.895,76.143,102.717,75.795,102.398z"/>
			</g>
			<g>
				<path fill="#FFFFFF" d="M82.199,101.742c0.514,0.035,1.006,0.139,1.503,0.205c0.245,0.049,0.493,0.077,0.739,0.111
					c0.247,0.027,0.494,0.06,0.748,0.024c-0.477,0.248-1.028,0.165-1.527,0.11C83.159,102.096,82.66,101.977,82.199,101.742z"/>
			</g>
			<g>
				<path fill="#FFFFFF" d="M89.031,100.652c0.426,0.174,0.83,0.336,1.261,0.42c0.424,0.115,0.856,0.131,1.317,0.159
					c-0.215,0.079-0.444,0.14-0.678,0.146c-0.232,0.016-0.467-0.018-0.695-0.061C89.787,101.199,89.345,101,89.031,100.652z"/>
			</g>
			<g>
				<path fill="#FFFFFF" d="M96.164,99.529c0.199,0.188,0.34,0.389,0.525,0.531c0.17,0.164,0.357,0.244,0.635,0.268
					c-0.11,0.078-0.256,0.127-0.406,0.105c-0.148-0.02-0.277-0.1-0.392-0.184C96.321,100.053,96.18,99.808,96.164,99.529z"/>
			</g>
			<g>
				<path fill="#FFFFFF" d="M100.922,97.311c0.65,0.436,1.338,0.507,2.116,0.492c-0.175,0.088-0.361,0.156-0.559,0.182
					c-0.196,0.032-0.397,0.014-0.598-0.013C101.496,97.877,101.105,97.67,100.922,97.311z"/>
			</g>
		</g>
	</g>
	<path opacity="0.25" fill="#299C9D" d="M68.064,24.327c-0.042-0.017-0.086-0.034-0.131-0.031c-0.081,0.004-0.148,0.076-0.168,0.155
		c-0.021,0.079-0.002,0.164,0.029,0.24c0.063,0.155,0.174,0.285,0.282,0.413c0.026,0.031,0.054,0.062,0.088,0.083
		s0.075,0.03,0.114,0.039c0.064,0.015,0.127,0.029,0.191,0.044c0.05,0.011,0.104,0.022,0.15,0.004
		c0.061-0.023,0.094-0.087,0.109-0.149c0.041-0.165-0.018-0.349-0.146-0.459c-0.089-0.076-0.091-0.18-0.186-0.244
		C68.326,24.374,68.15,24.361,68.064,24.327z"/>
	<g>
		<path fill="#F1F0F0" d="M36.101,77.516c1.525,0.352,2.958,0.611,4.408,0.617c0.722,0.025,1.442-0.034,2.164-0.146
			c0.732-0.09,1.438-0.303,2.217-0.471c-0.574,0.532-1.261,0.979-2.023,1.227c-0.753,0.285-1.567,0.398-2.371,0.389
			c-0.805-0.02-1.606-0.149-2.355-0.423C37.394,78.44,36.679,78.062,36.101,77.516z"/>
	</g>
	<g>
		<path fill="#F1F0F0" d="M70.393,79.687c1.338-1.314,2.637-2.63,4.285-3.644c0.831-0.484,1.752-0.84,2.697-0.999
			c0.943-0.174,1.899-0.164,2.83-0.048c-1.852,0.343-3.614,0.75-5.146,1.693c-0.777,0.448-1.511,1.001-2.277,1.526
			C72.023,78.75,71.229,79.256,70.393,79.687z"/>
	</g>
	<g>
		<path fill="#F1F0F0" d="M95.15,71.872c0.432-0.222,0.83-0.451,1.199-0.681c0.361-0.24,0.691-0.497,0.898-0.807
			c0.223-0.299,0.317-0.657,0.295-1.069c-0.004-0.412-0.117-0.852-0.219-1.333c0.178,0.164,0.33,0.354,0.488,0.548
			c0.107,0.222,0.27,0.43,0.31,0.695c0.167,0.498,0.071,1.13-0.258,1.586c-0.329,0.455-0.791,0.743-1.263,0.905
			C96.131,71.885,95.635,71.935,95.15,71.872z"/>
	</g>
	<g>
		<path fill="#F1F0F0" d="M49.721,74.701c4.796,0.068,9.541,0.424,14.328,0.406c-1.182,0.214-2.384,0.293-3.583,0.341
			c-1.2,0.053-2.399,0.024-3.597-0.014C54.475,75.327,52.084,75.116,49.721,74.701z"/>
	</g>
	<g>
		<path fill="#F1F0F0" d="M20.732,75.153c-0.309-0.439-0.594-0.961-0.591-1.554c-0.029-0.584,0.187-1.17,0.521-1.64
			c0.34-0.471,0.787-0.835,1.268-1.113s0.993-0.497,1.535-0.596c-0.463,0.291-0.908,0.586-1.318,0.913
			c-0.402,0.333-0.796,0.675-1.08,1.088c-0.296,0.404-0.479,0.865-0.542,1.358C20.442,74.113,20.605,74.62,20.732,75.153z"/>
	</g>
</g>
</svg>
