<?xml version="1.0" encoding="utf-8"?>
<!-- Generator: Adobe Illustrator 16.0.0, SVG Export Plug-In . SVG Version: 6.00 Build 0)  -->
<!DOCTYPE svg PUBLIC "-//W3C//DTD SVG 1.1//EN" "http://www.w3.org/Graphics/SVG/1.1/DTD/svg11.dtd">
<svg version="1.1" id="Layer_1" xmlns="http://www.w3.org/2000/svg" xmlns:xlink="http://www.w3.org/1999/xlink" x="0px" y="0px"
	 width="120px" height="160px" viewBox="0 0 120 160" enable-background="new 0 0 120 160" xml:space="preserve">
<g>
	<path fill="#F1F0F0" d="M93.525,71.36c0,0,6.088,3.148,5.938,9.666c-0.184,8.1-7.746,11.189-7.746,11.189
		s-14.16,6.557-31.188,6.165c-22.331-0.516-34.904-5.277-34.904-5.277s-6.91-4.141-6.74-11.626
		c0.203-8.817,7.433-10.848,7.433-10.848s16.244,5.715,35.198,6.152C80.469,77.218,93.525,71.36,93.525,71.36z"/>
	<path fill="#FFE3AF" d="M88.607,78.003c-2.077,0.767-4.277,1.137-6.461,1.503c-9.902,1.66-19.873,3.324-29.912,3.141
		c-2.23-0.04-4.466-0.173-6.654-0.602c-4.473-0.874-8.605-2.947-12.708-4.932c-2.458-1.189-5.435-2.343-7.788-0.956
		c-1.833,1.081-2.593,3.515-2.082,5.581c0.511,2.066,2.09,3.748,3.936,4.807c1.846,1.061,3.951,1.571,6.042,1.969
		c4.931,0.938,9.949,1.313,14.955,1.682c12.156,0.896,24.647,1.742,36.296-1.852c2.516-0.775,5.004-1.773,7.094-3.376
		s3.76-3.873,4.213-6.467c0.115-0.659,0.146-1.363-0.131-1.973C94.283,74.039,90.211,77.411,88.607,78.003z"/>
	<path fill="#FAB078" d="M85.115,84.336c1.133-0.604,2.266-1.207,3.398-1.811c0.003-0.301,0.203-0.559,0.316-0.838
		c0.113-0.278,0.095-0.676-0.184-0.79c-0.146-0.06-0.313-0.017-0.465,0.028c-1.062,0.311-2.117,0.645-3.135,1.077
		c-0.768,0.325-1.515,0.707-2.313,0.948c-1.382,0.42-2.985,0.461-4.013,1.477c-0.136,0.135-0.267,0.313-0.235,0.502
		c0.026,0.164,0.168,0.285,0.308,0.375C80.414,86.352,83.607,85.14,85.115,84.336z"/>
	<path fill="#FAB078" d="M57.829,88.124c0.833,0.041,1.71,0.073,2.452-0.309s1.26-1.332,0.877-2.073
		c-9.706,0.381-19.474-0.865-28.772-3.671c-0.686-0.207-5.876-1.684-3.904,0.521c0.613,0.686,2.385,1.1,3.239,1.43
		c1.155,0.446,2.33,0.84,3.518,1.188c4.697,1.373,9.574,2.022,14.441,2.42C52.392,87.85,55.111,87.99,57.829,88.124z"/>
	<g>
		<path fill="#299C9D" d="M89.019,68.81c-10.527,0.534-21.056,1.067-31.583,1.601c-2.142,0.109-4.31,0.216-6.412-0.205
			c-1.221-0.244-2.406-0.666-3.517-1.229c-0.79-0.399-1.573-0.902-2.016-1.668c-0.442-0.767-0.432-1.855,0.233-2.438
			c0.584-0.512,1.448-0.495,2.223-0.444c8.556,0.567,17.206,1.891,25.643,0.368c1.395-0.251,2.771-0.58,4.149-0.907
			c2.853-0.679,5.705-1.358,8.558-2.037c1.449-0.345,2.902-0.69,4.311-1.176c0.329-0.114,0.664-0.248,1.003-0.378
			c-1.177-1.914-2.402-2.795-2.402-2.795c-34.152,9.85-56.195-1.45-56.195-1.45c-11.456,5.094-6.695,14.578-6.695,14.578
			s16.244,5.715,35.198,6.152c18.953,0.438,32.01-5.421,32.01-5.421c0.192-1.379,0.234-2.632,0.185-3.788
			c-0.409,0.298-0.853,0.548-1.329,0.724C91.313,68.69,90.156,68.752,89.019,68.81z"/>
		<path fill="#92B4A2" d="M90.607,60.674c-1.408,0.486-2.861,0.832-4.311,1.176c-2.853,0.679-5.705,1.358-8.558,2.037
			c-1.378,0.328-2.755,0.656-4.149,0.907c-8.438,1.523-17.087,0.199-25.643-0.368c-0.775-0.051-1.639-0.068-2.223,0.444
			c-0.666,0.583-0.675,1.672-0.233,2.438c0.442,0.767,1.226,1.269,2.016,1.668c1.111,0.563,2.295,0.984,3.517,1.229
			c2.103,0.421,4.271,0.314,6.412,0.205c10.528-0.534,21.056-1.067,31.583-1.601c1.138-0.058,2.295-0.12,3.362-0.514
			c0.477-0.176,0.92-0.425,1.329-0.724c-0.142-3.259-1.097-5.646-2.1-7.277C91.271,60.426,90.937,60.56,90.607,60.674z"/>
		<path fill="#FAB078" d="M80.386,64.714c-1.812,0.25-3.55,0.869-5.335,1.269c-6.455,1.445-13.164-0.032-19.779-0.063
			c-0.977-0.004-2.035,0.051-2.79,0.672c-0.234,0.193-0.438,0.523-0.284,0.784c0.099,0.168,0.307,0.232,0.498,0.276
			c2.655,0.604,5.424-0.164,8.143-0.009c1.018,0.058,2.025,0.245,3.039,0.356c7.217,0.795,14.334-2.243,21.595-2.311
			c1.765-0.017,3.661,0.109,5.149-0.838c0.879-0.56,1.297-1.813,0.035-2.025c-0.975-0.165-1.454,0.61-2.18,1.032
			C86.248,65.153,82.859,64.374,80.386,64.714z"/>
	</g>
	<g>
		<path fill="#F1F0F0" d="M75.846,39.872c-14.729,7.119-28.667-0.914-28.667-0.914c-2.537,0.848-4.617,1.87-6.333,2.985
			c1.679,0.769,3.35,1.56,5.028,2.31c1.311,0.585,2.627,1.173,4.005,1.575c8.478,2.474,17.573-2.377,26.283-0.92
			c1.941,0.325,3.928,1.029,5.193,2.536c1.266,1.508,1.522,3.979,0.138,5.377c-0.638,0.644-1.515,0.982-2.37,1.278
			c-5.488,1.899-11.261,2.807-16.998,3.705c-1.276,0.2-2.556,0.4-3.846,0.439c-1.158,0.035-2.315-0.06-3.466-0.178
			c-4.419-0.454-8.803-1.253-13.097-2.388c-2.15-0.568-4.319-1.24-6.137-2.521c-0.758-0.534-1.442-1.197-2-1.944
			c-0.827,2.779-0.566,4.839-0.566,4.839S55.056,67.35,89.208,57.5C89.176,42.766,75.846,39.872,75.846,39.872z"/>
		<path fill="#FFE3AF" d="M35.579,53.156c1.818,1.28,3.987,1.952,6.137,2.521c4.294,1.135,8.678,1.935,13.097,2.388
			c1.151,0.118,2.309,0.213,3.466,0.178c1.291-0.039,2.57-0.239,3.846-0.439c5.737-0.898,11.51-1.805,16.998-3.705
			c0.855-0.296,1.732-0.635,2.37-1.278c1.385-1.398,1.128-3.869-0.138-5.377c-1.266-1.507-3.252-2.211-5.193-2.536
			c-8.71-1.457-17.806,3.394-26.283,0.92c-1.378-0.402-2.694-0.99-4.005-1.575c-1.678-0.75-3.349-1.541-5.028-2.31
			c-4.475,2.909-6.43,6.457-7.267,9.269C34.136,51.958,34.82,52.622,35.579,53.156z"/>
		<path fill="#FAB078" d="M38.842,50.865c1.252,0.234,2.504,0.467,3.756,0.701c2.647,0.494,5.297,0.988,7.975,1.262
			c5.923,0.606,11.923,0.127,17.769-1.006c1.601-0.31,3.322-0.747,4.333-2.025c0.299-0.378,0.527-0.87,0.396-1.333
			c-0.205-0.728-1.115-0.951-1.87-1.004c-4.866-0.341-9.652,1.123-14.468,1.905c-0.748,0.122-1.5,0.227-2.257,0.239
			c-0.748,0.012-1.493-0.067-2.237-0.146c-1.267-0.134-2.538-0.27-3.779-0.561c-2.189-0.513-4.251-1.503-6.457-1.938
			c-1.132-0.224-2.343-0.29-3.407,0.155c-0.856,0.359-1.894,1.346-1.902,2.358C36.684,50.548,37.966,50.702,38.842,50.865z"/>
	</g>
	<path fill="#F16374" d="M70.209,27.979c5.428,5.676,5.637,11.894,5.637,11.894c-14.729,7.119-28.667-0.914-28.667-0.914
		S47.408,23.759,64.99,18.43C64.99,18.528,65.022,22.564,70.209,27.979z"/>
	<path fill="#F16374" d="M51.255,29.245c0.369-0.774,0.774-1.539,1.327-2.194c0.817-0.969,1.917-1.654,3.04-2.243
		c0.827-0.436,1.723-0.837,2.656-0.784c0.934,0.054,1.896,0.71,1.984,1.641c0.067,0.708-0.358,1.354-0.605,2.02
		c-0.301,0.81-0.343,1.691-0.331,2.555c0.006,0.48,0.03,0.968,0.179,1.424c0.321,0.988,1.181,1.704,2.073,2.235
		c0.893,0.532,1.867,0.943,2.664,1.609c0.496,0.414,0.932,0.963,0.992,1.606c0.077,0.822-0.494,1.596-1.211,2.006
		c-0.718,0.41-1.559,0.528-2.379,0.632c-1.451,0.184-2.921,0.347-4.372,0.166c-0.469-0.058-0.933-0.152-1.395-0.248
		c-1.497-0.309-2.99-0.634-4.479-0.976c-1.063-0.244-2.019-0.276-2.127-1.514C49.036,34.512,50.129,31.603,51.255,29.245z"/>
	<path fill="#FAB078" d="M96.387,88.772c3.905,2.685,6.146,5.833,6.146,9.196c-2.051,0.776-4.181,1.502-6.368,2.161
		c-2.024,0.621-4.108,1.189-6.244,1.698c-2.012,0.49-4.068,0.928-6.172,1.319c-2.006,0.372-4.057,0.699-6.133,0.986
		c-2.012,0.268-4.057,0.503-6.127,0.686c-2.018,0.177-4.063,0.313-6.133,0.405c-2.031,0.085-4.088,0.131-6.165,0.131
		s-4.141-0.046-6.172-0.131c-2.07-0.092-4.115-0.229-6.133-0.405c-2.071-0.183-4.115-0.418-6.126-0.686
		c-2.077-0.287-4.121-0.614-6.133-0.986c-2.104-0.392-4.161-0.829-6.172-1.319c-2.136-0.509-4.219-1.077-6.244-1.698
		c-2.194-0.659-4.317-1.385-6.368-2.161c0-3.201,2.038-6.212,5.604-8.811c1.907,2.579,4.18,3.944,4.18,3.944
		s12.573,4.762,34.904,5.277c17.027,0.392,31.188-6.165,31.188-6.165S94.225,91.189,96.387,88.772z"/>
	<g>
		<path fill="#FFE3AF" d="M29.093,66.427c1.327,0.58,2.671,1.1,4.039,1.554c1.359,0.474,2.728,0.917,4.118,1.286
			c2.772,0.759,5.569,1.413,8.396,1.916c1.417,0.225,2.829,0.499,4.258,0.652l2.138,0.279c0.716,0.06,1.431,0.132,2.147,0.21
			c2.865,0.291,5.745,0.38,8.641,0.518c-1.441,0.125-2.889,0.229-4.339,0.29c-1.449-0.009-2.903,0.048-4.354-0.041
			c-2.908-0.065-5.796-0.462-8.667-0.924c-2.86-0.534-5.695-1.225-8.447-2.168C34.276,69.055,31.565,67.952,29.093,66.427z"/>
	</g>
	<g>
		<path fill="#FFE3AF" d="M45.158,63.861c1.757,0.227,3.51,0.447,5.273,0.578c1.757,0.172,3.518,0.298,5.279,0.376
			c3.522,0.157,7.044,0.201,10.559,0.048c3.515-0.151,7.006-0.562,10.475-1.139c1.717-0.364,3.453-0.677,5.131-1.213
			c1.729-0.387,3.342-1.101,5.032-1.652c-3.151,1.626-6.536,2.809-10.009,3.619c-3.48,0.765-7.027,1.208-10.584,1.384
			c-3.559,0.129-7.121,0.059-10.659-0.283C52.121,65.24,48.597,64.732,45.158,63.861z"/>
	</g>
	<g>
		<path fill="#FFE3AF" d="M88.852,69.712c-1.021,0.63-2.123,1.105-3.244,1.509c-1.12,0.41-2.274,0.719-3.441,0.969
			c-2.332,0.48-4.75,0.675-7.122,0.348c1.174-0.252,2.331-0.424,3.482-0.649c1.149-0.215,2.296-0.428,3.437-0.677
			C84.254,70.75,86.516,70.204,88.852,69.712z"/>
	</g>
	<g>
		<path opacity="0.4" fill="#881720" d="M71.074,28.945c-0.273-0.323-0.559-0.646-0.865-0.967c-5.187-5.415-5.219-9.451-5.219-9.549
			c-4.191,1.271-7.387,3.104-9.837,5.156L52,26.799c-0.588,0.736-1.113,1.476-1.566,2.21l7.938,0.972l3.95,7.57l3.605-7.739
			L71.074,28.945z"/>
		<polygon fill="#D41C5C" points="53.04,13.36 60.685,17.162 68.15,13.02 66.896,21.466 73.143,27.287 64.723,28.704 61.117,36.443 
			57.168,28.874 48.693,27.836 54.671,21.74 		"/>
		<linearGradient id="SVGID_1_" gradientUnits="userSpaceOnUse" x1="60.4722" y1="22.6694" x2="70.315" y2="33.4279">
			<stop  offset="0" style="stop-color:#62353A;stop-opacity:0"/>
			<stop  offset="1" style="stop-color:#62353A"/>
		</linearGradient>
		<polygon opacity="0.8" fill="url(#SVGID_1_)" points="53.04,13.36 60.685,17.162 68.15,13.02 66.896,21.466 73.143,27.287 
			64.723,28.704 61.117,36.443 57.168,28.874 48.693,27.836 54.671,21.74 		"/>
	</g>
	<g>
		<g>
			<path fill="#F16374" d="M102.532,97.969l-7.038,38.733c-0.269,1.477-1.238,2.737-2.607,3.351c-1.016,0.455-2.06,0.889-3.13,1.304
				l6.407-41.227C98.352,99.471,100.481,98.745,102.532,97.969z"/>
			<path fill="#F16374" d="M89.92,101.828l-5.35,41.312c-1.652,0.496-3.35,0.946-5.1,1.352l4.277-41.344
				C85.852,102.756,87.908,102.318,89.92,101.828z"/>
			<path fill="#F16374" d="M77.615,104.134l-3.207,41.356c-1.652,0.274-3.338,0.51-5.055,0.692l2.135-41.363
				C73.559,104.637,75.604,104.401,77.615,104.134z"/>
			<path fill="#F16374" d="M64.291,146.588c-1.678,0.091-3.383,0.137-5.101,0.137v-41.369c2.077,0,4.134-0.046,6.165-0.131
				L64.291,146.588z"/>
			<path fill="#F16374" d="M53.018,105.225l1.064,41.363c-1.711-0.092-3.396-0.223-5.062-0.405l-2.136-41.363
				C48.903,104.996,50.948,105.133,53.018,105.225z"/>
			<path fill="#F16374" d="M40.759,104.134l3.207,41.356c-1.725-0.287-3.416-0.62-5.062-0.999l-4.278-41.344
				C36.638,103.52,38.682,103.847,40.759,104.134z"/>
			<path fill="#F16374" d="M28.454,101.828l5.349,41.312c-1.79-0.543-3.52-1.137-5.186-1.777v-0.006l-6.408-41.227
				C24.234,100.751,26.318,101.319,28.454,101.828z"/>
			<path fill="#DB1F2E" d="M96.164,100.13l-6.407,41.227v0.006c-1.665,0.641-3.396,1.234-5.187,1.777l5.35-41.312
				C92.056,101.319,94.14,100.751,96.164,100.13z"/>
			<path fill="#DB1F2E" d="M83.748,103.147l-4.277,41.344c-1.646,0.379-3.338,0.712-5.063,0.999l3.207-41.356
				C79.691,103.847,81.742,103.52,83.748,103.147z"/>
			<path fill="#DB1F2E" d="M71.488,104.819l-2.135,41.363c-1.666,0.183-3.352,0.313-5.063,0.405l1.064-41.363
				C67.426,105.133,69.471,104.996,71.488,104.819z"/>
			<path fill="#DB1F2E" d="M59.19,105.355v41.369c-1.725,0-3.423-0.046-5.108-0.137l-1.064-41.363
				C55.049,105.31,57.113,105.355,59.19,105.355z"/>
			<path fill="#DB1F2E" d="M46.885,104.819l2.136,41.363c-1.711-0.183-3.403-0.418-5.055-0.692l-3.207-41.356
				C42.771,104.401,44.814,104.637,46.885,104.819z"/>
			<path fill="#DB1F2E" d="M34.626,103.147l4.278,41.344c-1.75-0.405-3.449-0.855-5.101-1.352l-5.349-41.312
				C30.465,102.318,32.522,102.756,34.626,103.147z"/>
			<path fill="#DB1F2E" d="M22.209,100.13l6.408,41.227c-1.072-0.411-2.117-0.847-3.134-1.304c-1.368-0.614-2.335-1.873-2.603-3.348
				l-7.039-38.736C17.893,98.745,20.015,99.471,22.209,100.13z"/>
			<path fill="#F16374" d="M96.164,100.13c-2.024,0.621-4.108,1.189-6.244,1.698c-2.012,0.49-4.068,0.928-6.172,1.319
				c-2.006,0.372-4.057,0.699-6.133,0.986c-0.398,0.053-0.803,0.099-1.203,0.148c0.135,1.242,0.176,2.499,0.15,3.746
				c-0.287,13.67-7.961,26.884-19.498,34.222c-2.521,1.603-5.213,2.903-8.007,3.937c1.654,0.181,3.327,0.311,5.025,0.401
				c1.685,0.091,3.383,0.137,5.108,0.137c1.718,0,3.423-0.046,5.101-0.137c1.711-0.092,3.396-0.223,5.063-0.405
				c1.717-0.183,3.402-0.418,5.055-0.692c1.725-0.287,3.416-0.62,5.063-0.999c1.75-0.405,3.447-0.855,5.1-1.353
				c1.79-0.542,3.521-1.136,5.187-1.776v-0.006c1.07-0.415,2.114-0.849,3.13-1.304c1.369-0.613,2.339-1.874,2.607-3.351
				l7.038-38.733C100.481,98.745,98.352,99.471,96.164,100.13z"/>
			<path opacity="0.4" fill="#F16374" d="M76.412,104.282c-1.624,0.204-3.263,0.391-4.924,0.537
				c-2.018,0.177-4.063,0.313-6.133,0.405c-2.031,0.085-4.088,0.131-6.165,0.131s-4.141-0.046-6.172-0.131
				c-1.274-0.057-2.536-0.136-3.791-0.225c-1.19,2.852-2.746,5.469-4.158,7.381c-2.606,3.531-5.855,6.585-9.462,9.077
				c-4.293,2.967-9.246,5.205-14.354,6.295l1.626,8.952c0.269,1.475,1.236,2.733,2.604,3.348c1.017,0.457,2.062,0.892,3.134,1.304
				v0.006c1.666,0.641,3.396,1.234,5.186,1.776c1.652,0.497,3.351,0.947,5.101,1.353c1.646,0.379,3.337,0.712,5.062,0.999
				c1.652,0.274,3.344,0.51,5.055,0.692c0.012,0.001,0.024,0.002,0.036,0.004c2.794-1.033,5.487-2.334,8.007-3.937
				c11.537-7.338,19.211-20.552,19.498-34.222C76.588,106.781,76.547,105.524,76.412,104.282z"/>
		</g>
		<g>
			<polygon fill="#FFFFFF" points="22.737,100.29 28.281,139.271 21.675,99.968 			"/>
		</g>
		<g>
			<polygon fill="#FFFFFF" points="28.972,101.953 33.572,141.356 27.931,101.702 			"/>
		</g>
		<g>
			<polygon fill="#FFFFFF" points="35.095,103.233 38.756,142.765 34.063,103.042 			"/>
		</g>
		<g>
			<polygon fill="#FFFFFF" points="41.23,104.196 43.833,143.949 40.204,104.057 			"/>
		</g>
		<g>
			<polygon fill="#FFFFFF" points="47.412,104.865 48.912,144.491 46.389,104.775 			"/>
		</g>
		<g>
			<polygon fill="#FFFFFF" points="53.417,105.241 54.041,144.941 52.393,105.195 			"/>
		</g>
		<g>
			<polygon fill="#FFFFFF" points="59.69,105.355 59.19,145.101 58.666,105.355 			"/>
		</g>
		<g opacity="0.5">
			<polygon fill="#FFFFFF" points="95.643,100.29 90.1,139.271 96.705,99.968 			"/>
		</g>
		<g opacity="0.5">
			<polygon fill="#FFFFFF" points="89.408,101.953 84.809,141.356 90.449,101.702 			"/>
		</g>
		<g opacity="0.5">
			<polygon fill="#FFFFFF" points="83.286,103.233 79.648,142.765 84.316,103.042 			"/>
		</g>
		<g opacity="0.5">
			<polygon fill="#FFFFFF" points="77.15,104.196 74.527,143.949 78.176,104.057 			"/>
		</g>
		<g opacity="0.7">
			<polygon fill="#FFFFFF" points="70.969,104.865 69.44,144.491 71.992,104.775 			"/>
		</g>
		<g opacity="0.7">
			<polygon fill="#FFFFFF" points="64.964,105.241 64.34,144.941 65.987,105.195 			"/>
		</g>
		<path fill="#50231C" d="M101.864,101.645c-0.671-0.208-2.122-0.511-2.67-0.07c-0.447,0.359-0.562,0.979-0.751,1.52
			c-0.191,0.541-0.612,1.118-1.184,1.07c-0.768-0.063-1.12-0.97-1.889-0.978c-0.492-0.006-1.017-0.001-1.424,0.272
			c-0.348,0.233-0.552,0.625-0.848,0.922c-0.518,0.519-1.295,0.712-2.026,0.67c-0.731-0.041-1.435-0.29-2.121-0.548
			c-0.29-0.109-0.59-0.223-0.9-0.214c-1.081,0.03-1.655,1.433-2.713,1.665c-0.361,0.079-0.737,0.009-1.101-0.061
			c-0.949-0.183-1.898-0.364-2.847-0.547c-0.44-0.084-0.942-0.156-1.302,0.113c-0.232,0.175-0.353,0.459-0.536,0.685
			c-0.707,0.871-2.073,0.671-3.141,0.327s-2.335-0.722-3.227-0.04c-0.573,0.439-0.858,1.25-1.539,1.491
			c-0.669,0.237-1.378-0.193-1.926-0.644s-0.999-0.744-1.708-0.717c-1.26,1.189-2.941,2.473-4.551,1.831
			c-0.847-0.337-1.503-1.176-2.412-1.218c-0.84-0.039-1.526,0.616-2.268,1.013c-1.488,0.794-3.485,0.482-4.66-0.729
			c-0.165-0.17-0.327-0.363-0.553-0.435c-0.265-0.083-0.548,0.021-0.804,0.129c-1.006,0.421-2.083,0.919-3.143,0.665
			c-1.183-0.283-2.083-1.459-3.3-1.462c-1.105-0.002-2.069,0.991-3.165,0.851c-0.445-0.057-0.842-0.298-1.225-0.532
			c-0.493-0.303-0.985-0.606-1.478-0.909c-0.312-0.191-0.698-0.389-1.025-0.224c-0.189,0.095-0.305,0.289-0.468,0.424
			c-0.481,0.396-1.216,0.176-1.735-0.171c-0.519-0.346-1.001-0.814-1.619-0.898c-1.009-0.136-1.948,0.811-2.947,0.62
			c-1.162-0.222-1.738-1.852-2.921-1.867c-0.369-0.004-0.719,0.161-1.086,0.193c-1.513,0.132-2.675-1.939-4.145-1.554
			c-0.325,0.085-0.609,0.288-0.931,0.384c-0.582,0.173-1.259-0.052-1.623-0.537c-0.233-0.313-0.409-0.759-0.796-0.799
			c-0.448-0.047-0.72,0.496-1.139,0.661c-1.058,0.418-1.66-1.647-2.796-1.603c-0.269,0.011-0.519,0.146-0.785,0.181l-0.111,0.069
			l-0.447-2.063c0,0,17.202,7.262,42.418,7.262c28.73,0,44.147-7.403,44.147-7.403L101.864,101.645z"/>
		<path fill="#FAB078" d="M102.512,97.67c0.648,0.288,1.246,0.845,1.402,1.538c0.156,0.692-0.164,1.501-0.813,1.792
			c-0.641,0.289-1.38,0.041-2.051-0.166c-0.672-0.207-1.473-0.349-2.02,0.091c-0.447,0.359-0.561,0.979-0.752,1.52
			c-0.19,0.542-0.611,1.119-1.184,1.071c-0.766-0.063-1.119-0.97-1.889-0.979c-0.49-0.005-1.016-0.001-1.424,0.273
			c-0.348,0.233-0.551,0.625-0.848,0.922c-0.518,0.519-1.294,0.711-2.025,0.67c-0.732-0.042-1.436-0.291-2.121-0.549
			c-0.291-0.109-0.59-0.222-0.9-0.213c-1.082,0.03-1.656,1.432-2.713,1.664c-0.361,0.08-0.737,0.01-1.102-0.06
			c-0.948-0.183-1.896-0.365-2.846-0.547c-0.441-0.085-0.942-0.157-1.302,0.113c-0.232,0.175-0.353,0.458-0.536,0.685
			c-0.707,0.871-2.072,0.671-3.141,0.327s-2.336-0.723-3.227-0.04c-0.574,0.438-0.858,1.249-1.539,1.491
			c-0.668,0.236-1.379-0.193-1.926-0.644c-0.548-0.451-1-0.744-1.709-0.718c-1.259,1.19-2.941,2.473-4.551,1.832
			c-0.846-0.337-1.502-1.176-2.412-1.219c-0.84-0.038-1.526,0.616-2.268,1.013c-1.488,0.795-3.485,0.482-4.659-0.728
			c-0.165-0.17-0.327-0.363-0.553-0.435c-0.265-0.083-0.548,0.021-0.804,0.128c-1.006,0.422-2.082,0.919-3.143,0.665
			c-1.183-0.283-2.084-1.459-3.3-1.461c-1.105-0.002-2.069,0.991-3.166,0.851c-0.445-0.058-0.842-0.298-1.224-0.533
			c-0.493-0.303-0.985-0.605-1.478-0.908c-0.312-0.192-0.697-0.389-1.025-0.225c-0.189,0.096-0.305,0.29-0.468,0.425
			c-0.481,0.396-1.216,0.176-1.735-0.171c-0.519-0.347-1.001-0.814-1.619-0.898c-1.008-0.137-1.947,0.81-2.947,0.619
			c-1.162-0.221-1.738-1.852-2.921-1.866c-0.368-0.005-0.719,0.16-1.086,0.192c-1.514,0.133-2.675-1.938-4.145-1.553
			c-0.326,0.085-0.609,0.287-0.932,0.383c-0.582,0.173-1.259-0.052-1.623-0.537c-0.233-0.312-0.409-0.759-0.796-0.799
			c-0.447-0.047-0.72,0.496-1.138,0.662c-1.059,0.418-1.66-1.647-2.797-1.604c-0.269,0.011-0.518,0.147-0.785,0.181
			c-0.493,0.063-1.006-0.277-1.14-0.756c-0.134-0.479,0.251-1.001,0.706-1.203c0,0,18.9,7.227,42.294,7.227
			C86.866,105.195,102.512,97.67,102.512,97.67z"/>
		<g>
			<g>
				<path fill="#FFFFFF" d="M15.782,99.519c-0.219-0.088-0.369-0.313-0.369-0.581c0.018-0.13,0.069-0.262,0.163-0.344
					c0.088-0.089,0.203-0.131,0.315-0.152c-0.123,0.201-0.234,0.348-0.229,0.512C15.639,99.118,15.716,99.297,15.782,99.519z"/>
			</g>
			<g>
				<path fill="#FFFFFF" d="M18.706,100.13c0.177,0.175,0.292,0.357,0.444,0.503c0.137,0.165,0.284,0.273,0.508,0.382
					c-0.116,0.043-0.252,0.046-0.376,0.001c-0.124-0.043-0.223-0.129-0.315-0.213C18.808,100.608,18.693,100.384,18.706,100.13z"/>
			</g>
			<g>
				<path fill="#FFFFFF" d="M21.872,100.901c0.144,0.215,0.268,0.389,0.449,0.503c0.167,0.133,0.377,0.194,0.618,0.298
					c-0.122,0.043-0.254,0.066-0.386,0.048c-0.133-0.012-0.259-0.073-0.377-0.143C21.958,101.438,21.812,101.164,21.872,100.901z"/>
			</g>
			<g>
				<path fill="#FFFFFF" d="M26.399,102.046c0.638,0.264,1.156,0.583,1.805,0.777c-0.342,0.101-0.7-0.005-1.012-0.137
					C26.889,102.525,26.598,102.334,26.399,102.046z"/>
			</g>
			<g>
				<path fill="#FFFFFF" d="M31.342,103.302c0.459,0.5,0.838,0.95,1.491,1.137c-0.165,0.04-0.347,0.046-0.517-0.008
					c-0.17-0.052-0.322-0.147-0.462-0.253C31.6,103.938,31.396,103.645,31.342,103.302z"/>
			</g>
			<g>
				<path fill="#FFFFFF" d="M36.848,104.438c0.443,0.329,0.757,0.619,1.265,0.805c-0.13,0.042-0.276,0.057-0.414,0.023
					c-0.139-0.029-0.266-0.095-0.385-0.167C37.097,104.929,36.907,104.716,36.848,104.438z"/>
			</g>
			<g>
				<path fill="#FFFFFF" d="M41.517,105.243c0.577,0.44,1.078,0.833,1.775,1.021c-0.177,0.04-0.368,0.05-0.55,0.006
					c-0.182-0.04-0.354-0.119-0.515-0.21C41.924,105.852,41.652,105.589,41.517,105.243z"/>
			</g>
			<g>
				<path fill="#FFFFFF" d="M47.912,105.657c0.727,0.497,1.38,0.994,2.237,1.191c-0.217,0.041-0.448,0.036-0.668-0.016
					c-0.22-0.054-0.425-0.149-0.624-0.253C48.48,106.34,48.133,106.047,47.912,105.657z"/>
			</g>
			<g>
				<path fill="#FFFFFF" d="M54.478,106.411c0.351,0.288,0.68,0.57,1.056,0.782c0.364,0.235,0.763,0.372,1.206,0.481
					c-0.223,0.038-0.461,0.048-0.688-0.01c-0.227-0.051-0.444-0.144-0.646-0.258C55.017,107.156,54.67,106.831,54.478,106.411z"/>
			</g>
			<g>
				<path fill="#FFFFFF" d="M62.21,106.581c0.38,0.156,0.712,0.365,1.063,0.537c0.168,0.102,0.344,0.185,0.518,0.269
					c0.176,0.08,0.351,0.167,0.549,0.216c-0.416,0.088-0.826-0.09-1.184-0.264C62.805,107.134,62.469,106.903,62.21,106.581z"/>
			</g>
			<g>
				<path fill="#FFFFFF" d="M69.529,105.948c0.56,0.449,1.038,0.857,1.727,1.046c-0.174,0.04-0.364,0.048-0.544,0.002
					c-0.18-0.043-0.347-0.126-0.505-0.219C69.913,106.563,69.652,106.294,69.529,105.948z"/>
			</g>
			<g>
				<path fill="#FFFFFF" d="M75.795,105.219c0.881,0.291,1.709,0.512,2.635,0.486c-0.213,0.091-0.444,0.158-0.681,0.168
					c-0.235,0.017-0.473-0.007-0.704-0.048C76.59,105.715,76.143,105.537,75.795,105.219z"/>
			</g>
			<g>
				<path fill="#FFFFFF" d="M82.199,104.563c0.514,0.035,1.006,0.138,1.503,0.205c0.245,0.05,0.493,0.077,0.739,0.11
					c0.247,0.028,0.494,0.061,0.748,0.025c-0.477,0.248-1.028,0.164-1.527,0.11C83.159,104.917,82.66,104.797,82.199,104.563z"/>
			</g>
			<g>
				<path fill="#FFFFFF" d="M89.031,103.473c0.426,0.173,0.83,0.336,1.261,0.421c0.424,0.114,0.856,0.13,1.317,0.158
					c-0.215,0.079-0.444,0.14-0.678,0.145c-0.232,0.017-0.467-0.017-0.695-0.06C89.787,104.02,89.345,103.819,89.031,103.473z"/>
			</g>
			<g>
				<path fill="#FFFFFF" d="M96.164,102.35c0.199,0.188,0.34,0.39,0.525,0.53c0.17,0.165,0.357,0.245,0.635,0.268
					c-0.11,0.08-0.256,0.128-0.406,0.106c-0.148-0.02-0.277-0.1-0.392-0.185C96.321,102.873,96.18,102.628,96.164,102.35z"/>
			</g>
			<g>
				<path fill="#FFFFFF" d="M100.922,100.13c0.65,0.437,1.338,0.508,2.116,0.493c-0.175,0.088-0.361,0.156-0.559,0.182
					c-0.196,0.032-0.397,0.014-0.598-0.013C101.496,100.696,101.105,100.49,100.922,100.13z"/>
			</g>
		</g>
	</g>
	<path fill="#FFE3AF" d="M51.198,39.801c0.592,0.186,1.185,0.372,1.777,0.559c0.521,0.164,1.044,0.328,1.574,0.46
		c0.943,0.236,1.909,0.371,2.859,0.575c0.625,0.134,1.243,0.298,1.869,0.429c1.722,0.36,3.492,0.471,5.25,0.4
		c0.15-0.006,0.308-0.011,0.439,0.059c0.133,0.07,0.221,0.246,0.144,0.374c-0.034,0.056-0.091,0.093-0.148,0.124
		c-0.741,0.408-1.647,0.261-2.487,0.169c-1.035-0.113-2.079-0.125-3.12-0.136c-0.604-0.007-1.209-0.014-1.814-0.02
		c-0.334-0.004-0.672-0.008-0.995-0.09c-0.53-0.134-0.987-0.467-1.503-0.647c-0.606-0.211-1.262-0.204-1.901-0.267
		c-1.199-0.12-2.355-0.496-3.5-0.871c-0.396-0.129-0.792-0.259-1.175-0.422c-0.431-0.185-0.921-0.456-1.061-0.939
		c-0.125-0.436,0.04-0.752,0.49-0.758c0.486-0.006,1.035,0.28,1.488,0.426C49.987,39.421,50.592,39.611,51.198,39.801z"/>
	<path fill="#FFE3AF" d="M67.986,41.98c-0.098,0.294,0.176,0.607,0.479,0.67c0.304,0.063,0.614-0.048,0.905-0.158
		c0.793-0.298,1.586-0.597,2.379-0.896c0.918-0.345,1.84-0.692,2.799-0.9c0.512-0.111,1.035-0.183,1.526-0.367
		c0.237-0.088,0.489-0.233,0.546-0.479c0.079-0.341-0.295-0.646-0.646-0.646s-0.665,0.199-0.969,0.373
		c-1.25,0.716-2.648,1.11-4.046,1.421C70.184,41.172,68.318,40.995,67.986,41.98z"/>
	<g>
		<path fill="#F1F0F0" d="M33.013,56.05c-0.845,1.316,0.524,3.356,1.753,3.41c0.372,0.016,0.735-0.096,1.103-0.156
			c3.319-0.541,5.984,3.07,9.335,3.347c1.624,0.134,3.202-0.538,4.824-0.686c4.169-0.379,8.135,2.698,12.277,2.092
			c0.977-0.143,1.91-0.487,2.865-0.74c2.035-0.538,4.18-0.654,6.261-0.338c2.47,0.375,5.023,1.342,7.385,0.525
			c2.706-0.936,4.587-4.064,7.448-3.983c0.699,0.02,1.402,0.242,2.089,0.104c0.872-0.176,1.575-0.988,1.622-1.876
			c-0.269-0.525-0.795-0.911-1.377-1.007c-5.785,1.548-11.879,2.27-17.81,3.097c-1.216,0.169-2.432,0.339-3.647,0.508
			c-2.711,0.378-5.477,0.756-8.173,0.279c-4.517-0.799-9.208-1.532-13.749-2.179c-0.89-0.127-1.785-0.255-2.639-0.532
			c-0.874-0.283-1.69-0.716-2.534-1.08C37.626,55.792,35.644,55.893,33.013,56.05z"/>
		<path fill="#FAB078" d="M42.301,60.132c2.907,0.771,5.969,1.12,8.932,0.604c-0.22-0.642-1.031-0.807-1.704-0.897
			c-3.823-0.51-7.475-1.857-11.172-2.956c-1.391-0.413-3.059-0.938-4.511-0.584c-0.137,1.262,2.612,1.804,3.52,2.163
			C38.981,59.101,40.62,59.688,42.301,60.132z"/>
		<path fill="#FAB078" d="M59.841,63.462c0.412,0.109,0.915,0.136,1.201-0.18c0.041-0.045,0.077-0.111,0.046-0.163
			c-0.022-0.038-0.07-0.051-0.112-0.06c-0.756-0.169-1.543-0.325-2.173-0.776c-0.3-0.215-1.529-0.945-1.042-0.005
			C58.079,62.892,59.223,63.298,59.841,63.462z"/>
		<path fill="#FAB078" d="M77.041,63.148c0.207-0.016,0.413-0.053,0.613-0.11c0.52-0.148,1.002-0.437,1.367-0.837
			c0.05-0.054,0.1-0.117,0.103-0.191c0.007-0.176-0.251-0.239-0.405-0.155s-0.255,0.244-0.408,0.331
			c-0.107,0.062-0.232,0.082-0.354,0.101c-0.253,0.04-0.505,0.08-0.758,0.12c-0.343,0.054-1.981-0.06-2.01,0.025
			C74.93,63.196,76.76,63.171,77.041,63.148z"/>
		<path fill="#FAB078" d="M87.953,58.976c0.081,0.016,0.163,0.031,0.246,0.028c0.262-0.009,0.477-0.198,0.668-0.377
			c0.074-0.069,0.151-0.145,0.17-0.244c0.018-0.099-0.061-0.219-0.16-0.202c-0.051,0.009-0.089,0.048-0.127,0.082
			c-0.265,0.226-0.65,0.206-0.969,0.14c-0.135-0.027-0.664-0.331-0.74-0.289C86.363,58.489,87.854,58.957,87.953,58.976z"/>
	</g>
	<path fill="#FFE3AF" d="M48.583,76.361c0.784,0.141,1.585,0.148,2.381,0.182c4.291,0.186,8.505,1.18,12.781,1.581
		c4.276,0.401,8.79,0.155,12.534-1.95c-0.291-0.62-1.094-0.764-1.775-0.822c-4.57-0.392-9.157-0.576-13.744-0.55
		c-3.142,0.018-6.301,0.133-9.411-0.316c-1.367-0.197-5.194-1.462-6.361-0.45C43.555,75.278,47.752,76.211,48.583,76.361z"/>
	<path fill="#FAB078" d="M27.097,70.628c-0.24,0.417-0.05,0.976,0.305,1.3c0.355,0.324,0.835,0.469,1.299,0.598
		c2.84,0.789,5.74,1.342,8.636,1.895c5.008,0.956,10.016,1.911,15.024,2.866c3.3,0.63,6.765,1.251,9.965,0.23
		c0.344-0.109,0.725-0.283,0.821-0.631c0.158-0.571-0.545-0.975-1.116-1.133c-2.556-0.711-5.191-1.087-7.818-1.46
		c-4.897-0.696-9.794-1.391-14.691-2.086c-2.448-0.347-4.897-0.694-7.346-1.041C31.22,71.031,27.666,69.639,27.097,70.628z"/>
	<path fill="#FAB078" d="M72.729,77.161c1.513-0.042,2.976-0.517,4.425-0.952c3.619-1.086,7.307-1.943,11.033-2.563
		c0.955-0.159,1.93-0.308,2.791-0.75c0.859-0.442,1.602-1.24,1.701-2.202c-0.958,0.142-1.859,0.528-2.761,0.885
		c-5.908,2.338-12.271,3.522-18.626,3.465c-0.736-0.007-3.334,0.115-2.775,1.459C68.859,77.326,71.941,77.183,72.729,77.161z"/>
	<g>
		<g opacity="0.4">
			<g>
				<g>
					<path fill="#299C9D" d="M44.637,47.143c0.877,0,0.879-1.364,0-1.364C43.759,45.779,43.758,47.143,44.637,47.143L44.637,47.143z
						"/>
				</g>
				<g>
					<g>
						<path fill="#299C9D" d="M44.362,53.691c1.998,0,2.001-3.105,0-3.105C42.364,50.586,42.361,53.691,44.362,53.691L44.362,53.691
							z"/>
					</g>
				</g>
				<g>
					<g>
						<path fill="#299C9D" d="M57.016,60.431c1.241,0,1.243-1.928,0-1.928C55.775,58.503,55.773,60.431,57.016,60.431L57.016,60.431
							z"/>
					</g>
				</g>
				<g>
					<g>
						<path fill="#299C9D" d="M62.549,49.764c0.878,0,0.879-1.364,0-1.364C61.672,48.4,61.67,49.764,62.549,49.764L62.549,49.764z"
							/>
					</g>
				</g>
				<g>
					<g>
						<path fill="#299C9D" d="M78.576,48.059c1.672,0,1.674-2.599,0-2.599C76.903,45.46,76.9,48.059,78.576,48.059L78.576,48.059z"
							/>
					</g>
				</g>
				<g>
					<g>
						<g>
							<path fill="#299C9D" d="M74.49,52.526c0.861,0.167,1.123-1.171,0.26-1.339C73.889,51.021,73.627,52.359,74.49,52.526
								L74.49,52.526z"/>
						</g>
					</g>
				</g>
				<g>
					<g>
						<g>
							<path fill="#299C9D" d="M44.637,58.083c1.244,0,1.246-1.933,0-1.933C43.394,56.149,43.391,58.083,44.637,58.083
								L44.637,58.083z"/>
						</g>
					</g>
				</g>
				<g>
					<g>
						<g>
							<path fill="#299C9D" d="M62.267,55.531c1.254,0,1.256-1.949,0-1.949C61.012,53.582,61.01,55.531,62.267,55.531L62.267,55.531
								z"/>
						</g>
					</g>
				</g>
				<g>
					<g>
						<g>
							<path fill="#299C9D" d="M50.064,49.189c1.214,0,1.216-1.887,0-1.887C48.85,47.302,48.848,49.189,50.064,49.189L50.064,49.189
								z"/>
						</g>
					</g>
				</g>
				<g>
					<g>
						<g>
							<path fill="#299C9D" d="M67.486,46.985c1.613,0,1.617-2.508,0-2.508C65.873,44.478,65.87,46.985,67.486,46.985L67.486,46.985
								z"/>
						</g>
					</g>
				</g>
				<g>
					<g>
						<g>
							<path fill="#299C9D" d="M58.213,47.852c1.115,0,1.117-1.733,0-1.733C57.098,46.119,57.096,47.852,58.213,47.852
								L58.213,47.852z"/>
						</g>
					</g>
				</g>
				<g>
					<g>
						<g>
							<path fill="#299C9D" d="M47.848,43.134c1.439,0,1.441-2.236,0-2.236C46.409,40.898,46.407,43.134,47.848,43.134
								L47.848,43.134z"/>
						</g>
					</g>
				</g>
				<g>
					<g>
						<g>
							<path fill="#299C9D" d="M85.96,56.421c1.358,0,1.36-2.112,0-2.112C84.602,54.309,84.6,56.421,85.96,56.421L85.96,56.421z"/>
						</g>
					</g>
				</g>
				<g>
					<g>
						<g>
							<path fill="#299C9D" d="M39.465,47.825c0.877,0,0.879-1.364,0-1.364C38.587,46.461,38.586,47.825,39.465,47.825
								L39.465,47.825z"/>
						</g>
					</g>
				</g>
				<g>
					<path fill="#299C9D" d="M81.287,53.763c1.227,0,1.229-1.906,0-1.906C80.061,51.857,80.059,53.763,81.287,53.763L81.287,53.763z
						"/>
				</g>
				<g>
					<path fill="#299C9D" d="M83.701,48.507c0.877,0,0.879-1.364,0-1.364C82.823,47.143,82.822,48.507,83.701,48.507L83.701,48.507z
						"/>
				</g>
				<g>
					<path fill="#299C9D" d="M67.967,58.503c1.148,0,1.15-1.784,0-1.784C66.818,56.719,66.816,58.503,67.967,58.503L67.967,58.503z"
						/>
				</g>
				<g>
					<path fill="#299C9D" d="M54.85,54.087c1.841,0,1.844-2.862,0-2.862C53.008,51.225,53.005,54.087,54.85,54.087L54.85,54.087z"/>
				</g>
				<g>
					<path fill="#299C9D" d="M38.27,54.557c1.33,0,1.332-2.066,0-2.066C36.94,52.49,36.938,54.557,38.27,54.557L38.27,54.557z"/>
				</g>
				<g>
					<path fill="#299C9D" d="M68.422,52.715c1.316,0,1.319-2.046,0-2.046C67.106,50.669,67.104,52.715,68.422,52.715L68.422,52.715z
						"/>
				</g>
				<g>
					<path fill="#299C9D" d="M53.468,45.16c0.877,0,0.879-1.364,0-1.364C52.59,43.796,52.589,45.16,53.468,45.16L53.468,45.16z"/>
				</g>
				<g>
					<path fill="#299C9D" d="M50.669,56.832c0.877,0,0.879-1.364,0-1.364C49.791,55.468,49.79,56.832,50.669,56.832L50.669,56.832z"
						/>
				</g>
				<g>
					<g>
						<path fill="#299C9D" d="M76.996,59.446c1.756,0,1.759-2.728,0-2.728C75.242,56.719,75.238,59.446,76.996,59.446L76.996,59.446
							z"/>
					</g>
				</g>
				<g>
					<g>
						<path fill="#299C9D" d="M74.236,44.684c1.145,0,1.146-1.778,0-1.778C73.092,42.906,73.091,44.684,74.236,44.684L74.236,44.684
							z"/>
					</g>
				</g>
			</g>
		</g>
		<g>
			<g>
				<path fill="#DB1F2E" d="M44.402,46.807c0.877,0,0.879-1.364,0-1.364C43.525,45.443,43.523,46.807,44.402,46.807L44.402,46.807z"
					/>
			</g>
			<g>
				<path fill="#F16374" d="M44.127,53.354c1.998,0,2.001-3.105,0-3.105C42.129,50.25,42.126,53.354,44.127,53.354L44.127,53.354z"
					/>
			</g>
			<g>
				<path fill="#F16374" d="M56.781,60.095c1.241,0,1.243-1.928,0-1.928C55.541,58.167,55.539,60.095,56.781,60.095L56.781,60.095z"
					/>
			</g>
			<g>
				<g>
					<path fill="#F16374" d="M62.314,49.427c0.877,0,0.879-1.364,0-1.364C61.438,48.063,61.436,49.427,62.314,49.427L62.314,49.427z
						"/>
				</g>
			</g>
			<g>
				<path fill="#F16374" d="M78.341,47.723c1.672,0,1.675-2.599,0-2.599C76.669,45.124,76.666,47.723,78.341,47.723L78.341,47.723z"
					/>
			</g>
			<g>
				<g>
					<g>
						<path fill="#299C9D" d="M74.256,52.189c0.861,0.167,1.123-1.171,0.26-1.338C73.654,50.684,73.393,52.022,74.256,52.189
							L74.256,52.189z"/>
					</g>
				</g>
			</g>
			<g>
				<g>
					<g>
						<path fill="#299C9D" d="M44.402,57.746c1.244,0,1.246-1.933,0-1.933C43.159,55.813,43.156,57.746,44.402,57.746L44.402,57.746
							z"/>
					</g>
				</g>
			</g>
			<g>
				<g>
					<g>
						<path fill="#299C9D" d="M62.031,55.194c1.254,0,1.257-1.949,0-1.949C60.777,53.245,60.775,55.194,62.031,55.194L62.031,55.194
							z"/>
					</g>
				</g>
			</g>
			<g>
				<g>
					<g>
						<path fill="#299C9D" d="M49.829,48.853c1.214,0,1.216-1.887,0-1.887C48.615,46.965,48.613,48.853,49.829,48.853L49.829,48.853
							z"/>
					</g>
				</g>
			</g>
			<g>
				<g>
					<g>
						<path fill="#299C9D" d="M67.252,46.649c1.613,0,1.616-2.508,0-2.508C65.639,44.141,65.636,46.649,67.252,46.649L67.252,46.649
							z"/>
					</g>
				</g>
			</g>
			<g>
				<g>
					<g>
						<path fill="#299C9D" d="M57.979,47.516c1.116,0,1.117-1.733,0-1.733C56.863,45.782,56.862,47.516,57.979,47.516L57.979,47.516
							z"/>
					</g>
				</g>
			</g>
			<g>
				<g>
					<g>
						<path fill="#299C9D" d="M47.613,42.798c1.439,0,1.441-2.236,0-2.236C46.174,40.562,46.172,42.798,47.613,42.798L47.613,42.798
							z"/>
					</g>
				</g>
			</g>
			<g>
				<g>
					<g>
						<path fill="#299C9D" d="M85.725,56.084c1.359,0,1.361-2.111,0-2.111C84.367,53.973,84.364,56.084,85.725,56.084L85.725,56.084
							z"/>
					</g>
				</g>
			</g>
			<g>
				<g>
					<g>
						<path fill="#299C9D" d="M39.23,47.488c0.878,0,0.879-1.364,0-1.364C38.353,46.125,38.351,47.488,39.23,47.488L39.23,47.488z"
							/>
					</g>
				</g>
			</g>
			<g>
				<path fill="#DB1F2E" d="M81.053,53.426c1.227,0,1.229-1.906,0-1.906C79.826,51.521,79.824,53.426,81.053,53.426L81.053,53.426z"
					/>
			</g>
			<g>
				<path fill="#DB1F2E" d="M83.467,48.17c0.877,0,0.879-1.364,0-1.364C82.589,46.807,82.588,48.17,83.467,48.17L83.467,48.17z"/>
			</g>
			<g>
				<path fill="#DB1F2E" d="M67.732,58.167c1.148,0,1.15-1.785,0-1.785C66.584,56.382,66.582,58.167,67.732,58.167L67.732,58.167z"
					/>
			</g>
			<g>
				<path fill="#DB1F2E" d="M54.615,53.75c1.841,0,1.844-2.862,0-2.862C52.773,50.889,52.771,53.75,54.615,53.75L54.615,53.75z"/>
			</g>
			<g>
				<path fill="#DB1F2E" d="M38.035,54.22c1.33,0,1.332-2.066,0-2.066C36.705,52.154,36.703,54.22,38.035,54.22L38.035,54.22z"/>
			</g>
			<g>
				<path fill="#DB1F2E" d="M68.188,52.378c1.316,0,1.318-2.045,0-2.045C66.871,50.333,66.869,52.378,68.188,52.378L68.188,52.378z"
					/>
			</g>
			<g>
				<path fill="#DB1F2E" d="M53.233,44.823c0.877,0,0.879-1.364,0-1.364C52.355,43.459,52.354,44.823,53.233,44.823L53.233,44.823z"
					/>
			</g>
			<g>
				<path fill="#DB1F2E" d="M50.434,56.495c0.877,0,0.879-1.364,0-1.364C49.556,55.131,49.555,56.495,50.434,56.495L50.434,56.495z"
					/>
			</g>
			<g>
				<path fill="#F16374" d="M76.762,59.109c1.756,0,1.758-2.728,0-2.728C75.007,56.382,75.004,59.109,76.762,59.109L76.762,59.109z"
					/>
			</g>
			<g>
				<path fill="#F16374" d="M74.002,44.348c1.145,0,1.146-1.778,0-1.778C72.857,42.569,72.855,44.348,74.002,44.348L74.002,44.348z"
					/>
			</g>
		</g>
		<g>
			<path fill="#FFE3AF" d="M46.854,41.89c-0.078-0.289,0.035-0.634,0.31-0.832c0.144-0.081,0.306-0.133,0.462-0.119
				c0.157,0.005,0.299,0.063,0.427,0.137c-0.296,0.034-0.56,0.048-0.75,0.19C47.097,41.385,46.98,41.624,46.854,41.89z"/>
		</g>
		<g>
			<path fill="#FFE3AF" d="M49.151,48.105c-0.081-0.253,0.017-0.559,0.26-0.736c0.128-0.072,0.272-0.118,0.41-0.103
				c0.138,0.007,0.262,0.062,0.372,0.131c-0.26,0.042-0.484,0.058-0.643,0.179C49.376,47.675,49.275,47.875,49.151,48.105z"/>
		</g>
		<g>
			<path fill="#FFE3AF" d="M43.979,46.312c-0.088-0.172-0.024-0.393,0.149-0.523c0.093-0.049,0.197-0.082,0.293-0.065
				c0.097,0.01,0.18,0.058,0.25,0.12C44.293,45.946,44.201,45.992,43.979,46.312z"/>
		</g>
		<g>
			<path fill="#FFE3AF" d="M52.775,44.25c-0.088-0.172-0.023-0.393,0.15-0.524c0.093-0.049,0.197-0.082,0.293-0.065
				c0.097,0.01,0.18,0.058,0.25,0.12C53.09,43.885,52.999,43.93,52.775,44.25z"/>
		</g>
		<g>
			<path fill="#FFE3AF" d="M61.857,48.853c-0.089-0.172-0.023-0.393,0.149-0.524c0.093-0.049,0.196-0.082,0.293-0.065
				c0.097,0.01,0.181,0.058,0.249,0.12C62.172,48.486,62.08,48.532,61.857,48.853z"/>
		</g>
		<g>
			<path fill="#FFE3AF" d="M73.959,51.603c-0.088-0.172-0.023-0.393,0.149-0.523c0.093-0.049,0.197-0.082,0.294-0.066
				c0.096,0.01,0.18,0.058,0.248,0.12C74.273,51.237,74.182,51.283,73.959,51.603z"/>
		</g>
		<g>
			<path fill="#FFE3AF" d="M83.12,47.639c-0.089-0.172-0.024-0.393,0.149-0.524c0.094-0.049,0.197-0.082,0.293-0.065
				c0.098,0.01,0.181,0.058,0.25,0.12C83.435,47.273,83.344,47.319,83.12,47.639z"/>
		</g>
		<g>
			<path fill="#FFE3AF" d="M67.205,57.274c-0.088-0.172-0.023-0.393,0.15-0.524c0.093-0.049,0.197-0.082,0.293-0.065
				c0.096,0.01,0.18,0.058,0.249,0.12C67.52,56.909,67.428,56.954,67.205,57.274z"/>
		</g>
		<g>
			<path fill="#FFE3AF" d="M49.95,55.918c-0.088-0.172-0.024-0.393,0.149-0.523c0.093-0.049,0.197-0.082,0.293-0.066
				c0.097,0.01,0.18,0.058,0.25,0.12C50.264,55.552,50.173,55.598,49.95,55.918z"/>
		</g>
		<g>
			<path fill="#FFE3AF" d="M38.773,46.911c-0.088-0.172-0.024-0.393,0.149-0.523c0.093-0.049,0.197-0.082,0.293-0.066
				c0.096,0.01,0.18,0.058,0.249,0.12C39.087,46.545,38.996,46.59,38.773,46.911z"/>
		</g>
		<g>
			<path fill="#FFE3AF" d="M37.354,53.354c-0.081-0.253,0.017-0.559,0.261-0.736c0.128-0.071,0.272-0.117,0.41-0.103
				c0.138,0.007,0.263,0.062,0.372,0.131c-0.26,0.042-0.484,0.058-0.643,0.179C37.579,52.924,37.478,53.125,37.354,53.354z"/>
		</g>
		<g>
			<path fill="#FFE3AF" d="M43.704,56.984c-0.082-0.253,0.017-0.559,0.26-0.736c0.128-0.071,0.272-0.117,0.41-0.103
				c0.138,0.007,0.262,0.062,0.372,0.131c-0.26,0.042-0.484,0.058-0.643,0.179C43.928,56.554,43.827,56.755,43.704,56.984z"/>
		</g>
		<g>
			<path fill="#FFE3AF" d="M56.085,59.25c-0.082-0.253,0.017-0.559,0.26-0.736c0.128-0.071,0.272-0.117,0.41-0.103
				c0.138,0.007,0.262,0.062,0.372,0.131c-0.26,0.042-0.485,0.058-0.644,0.179C56.31,58.82,56.208,59.021,56.085,59.25z"/>
		</g>
		<g>
			<path fill="#FFE3AF" d="M61.369,54.329c-0.081-0.253,0.017-0.559,0.26-0.736c0.129-0.072,0.273-0.117,0.41-0.103
				c0.139,0.007,0.264,0.062,0.373,0.132c-0.261,0.042-0.484,0.058-0.644,0.179C61.594,53.898,61.492,54.1,61.369,54.329z"/>
		</g>
		<g>
			<path fill="#FFE3AF" d="M67.551,51.546c-0.08-0.252,0.018-0.559,0.262-0.736c0.127-0.072,0.271-0.117,0.409-0.103
				c0.138,0.007,0.263,0.062,0.372,0.131c-0.26,0.043-0.484,0.058-0.643,0.179C67.775,51.116,67.675,51.317,67.551,51.546z"/>
		</g>
		<g>
			<path fill="#FFE3AF" d="M85.027,55.195c-0.08-0.253,0.018-0.559,0.262-0.736c0.127-0.071,0.271-0.117,0.409-0.103
				c0.138,0.007,0.263,0.062,0.372,0.131c-0.26,0.042-0.484,0.058-0.643,0.179C85.252,54.765,85.151,54.966,85.027,55.195z"/>
		</g>
		<g>
			<path fill="#FFE3AF" d="M80.367,52.578c-0.082-0.253,0.016-0.559,0.26-0.736c0.128-0.071,0.272-0.117,0.41-0.103
				c0.138,0.007,0.262,0.062,0.372,0.131c-0.261,0.042-0.484,0.058-0.644,0.179C80.592,52.147,80.49,52.348,80.367,52.578z"/>
		</g>
		<g>
			<path fill="#FFE3AF" d="M73.378,43.653c-0.081-0.253,0.017-0.559,0.261-0.736c0.127-0.071,0.271-0.117,0.41-0.103
				c0.137,0.007,0.262,0.061,0.371,0.131c-0.26,0.042-0.484,0.058-0.643,0.179C73.603,43.223,73.502,43.423,73.378,43.653z"/>
		</g>
		<g>
			<path fill="#FFE3AF" d="M57.376,46.799c-0.083-0.231,0.006-0.515,0.231-0.68c0.119-0.065,0.252-0.107,0.379-0.093
				c0.127,0.008,0.241,0.061,0.339,0.128c-0.239,0.048-0.439,0.063-0.58,0.172C57.59,46.413,57.498,46.591,57.376,46.799z"/>
		</g>
		<g>
			<path fill="#FFE3AF" d="M43.001,51.95c-0.066-0.421,0.101-0.903,0.49-1.176c0.2-0.118,0.428-0.191,0.651-0.18
				c0.224,0.001,0.433,0.069,0.626,0.157c-0.424,0.002-0.835,0.014-1.139,0.231c-0.161,0.092-0.28,0.243-0.383,0.409
				C43.15,51.559,43.063,51.747,43.001,51.95z"/>
		</g>
		<g>
			<path fill="#FFE3AF" d="M53.589,52.496c-0.071-0.364,0.073-0.788,0.413-1.028c0.175-0.102,0.376-0.167,0.57-0.154
				c0.195,0.003,0.376,0.066,0.541,0.148c-0.369,0.016-0.717,0.029-0.973,0.213c-0.137,0.077-0.238,0.204-0.328,0.344
				C53.728,52.162,53.648,52.321,53.589,52.496z"/>
		</g>
		<g>
			<path fill="#FFE3AF" d="M66.275,45.642c-0.071-0.364,0.072-0.788,0.413-1.028c0.175-0.102,0.376-0.166,0.57-0.154
				c0.194,0.003,0.376,0.066,0.541,0.148c-0.369,0.016-0.718,0.029-0.973,0.213c-0.137,0.077-0.237,0.204-0.327,0.344
				C66.414,45.308,66.334,45.467,66.275,45.642z"/>
		</g>
		<g>
			<path fill="#FFE3AF" d="M75.779,58.015c-0.071-0.365,0.072-0.788,0.413-1.029c0.176-0.102,0.376-0.166,0.57-0.154
				c0.194,0.002,0.376,0.066,0.542,0.148c-0.369,0.016-0.718,0.029-0.973,0.213c-0.137,0.077-0.238,0.204-0.328,0.344
				C75.918,57.68,75.839,57.84,75.779,58.015z"/>
		</g>
		<g>
			<path fill="#FFE3AF" d="M77.395,46.593c-0.071-0.364,0.072-0.788,0.414-1.028c0.175-0.102,0.375-0.166,0.569-0.154
				c0.194,0.002,0.376,0.066,0.542,0.148c-0.369,0.016-0.718,0.029-0.973,0.213c-0.137,0.077-0.238,0.204-0.328,0.344
				C77.533,46.259,77.454,46.418,77.395,46.593z"/>
		</g>
	</g>
	<path fill="#92B4A2" d="M37.947,62.439c-1.359-0.657-2.815-1.114-4.307-1.352c-0.686-0.109-1.403-0.169-2.06,0.055
		c-0.656,0.224-1.237,0.797-1.273,1.49c-0.011,0.22,0.031,0.439,0.089,0.651c0.417,1.521,1.648,2.725,3.068,3.41
		s3.018,0.908,4.593,0.985c0.792,0.039,1.588,0.042,2.377-0.039c0.481-0.049,0.968-0.134,1.396-0.358
		c1.276-0.668,1.086-2.423-0.038-3.16c-0.408-0.268-0.938-0.357-1.39-0.521C39.548,63.289,38.763,62.834,37.947,62.439z"/>
	<path fill="#92B4A2" d="M30.351,61.017c-0.564-0.021-1.157,0.012-1.641,0.303c-0.483,0.291-0.811,0.91-0.604,1.435
		c0.085,0.215,0.246,0.39,0.409,0.553c1.085,1.088,2.589,1.939,4.104,1.68c0.332-0.057,0.67-0.177,0.887-0.434
		c0.293-0.348,0.291-0.85,0.26-1.303C33.63,61.258,32.066,61.081,30.351,61.017z"/>
	<path fill="#92B4A2" d="M33.021,62.235c-0.366-0.014-0.751,0.008-1.065,0.196c-0.314,0.189-0.526,0.591-0.392,0.932
		c0.055,0.139,0.159,0.252,0.265,0.359c0.705,0.706,1.681,1.259,2.664,1.09c0.215-0.037,0.435-0.115,0.576-0.282
		c0.19-0.226,0.189-0.551,0.169-0.846C35.15,62.391,34.135,62.276,33.021,62.235z"/>
	<path fill="#92B4A2" d="M50.234,33.497c-0.905,0.439-1.328,1.472-1.673,2.417c-0.059,0.161-0.119,0.33-0.097,0.5
		c0.021,0.171,0.122,0.32,0.188,0.479c0.116,0.282,0.126,0.606,0.285,0.866c0.119,0.195,0.309,0.333,0.494,0.466
		c0.563,0.406,1.21,0.833,1.893,0.711c0.578-0.103,1.012-0.574,1.377-1.034c0.629-0.793,1.223-1.782,0.961-2.76
		C53.265,33.658,51.618,32.825,50.234,33.497z"/>
	<path fill="#FAB078" d="M67.348,85.729c-0.4,0.133-0.819,0.34-0.992,0.726c-0.154,0.345-0.066,0.765,0.152,1.075
		c0.217,0.309,0.547,0.522,0.889,0.684c1.07,0.507,2.309,0.564,3.477,0.378s2.285-0.604,3.395-1.021
		c0.502-0.188,1.018-0.385,1.409-0.752c0.392-0.366,0.629-0.951,0.437-1.451c-0.158-0.408-0.57-0.677-0.998-0.771
		s-0.874-0.039-1.307,0.032c-0.621,0.102-1.237,0.238-1.853,0.374C70.51,85.322,68.815,85.729,67.348,85.729z"/>
	<path fill="#FFE3AF" d="M26.395,91.757c-1.055-0.397-2.135-0.885-3.257-0.78c-1.122,0.104-2.259,1.085-2.048,2.192
		c0.184,0.963,1.22,1.486,2.158,1.773c0.646,0.197,1.303,0.353,1.961,0.505c8.122,1.886,16.304,3.512,24.53,4.874
		c0.794,0.132,1.894,0.064,2.044-0.727c0.098-0.52-0.331-0.982-0.758-1.293c-1.385-1.008-3.089-1.452-4.749-1.878
		c-1.562-0.398-3.124-0.799-4.685-1.198c-0.974-0.249-1.947-0.498-2.922-0.741c-2.248-0.559-4.547-1.249-6.85-1.529
		C29.94,92.727,28.185,92.43,26.395,91.757z"/>
	<g>
		<path fill="#50231C" d="M25.625,93.103c2.3,0.243,4.517,0.751,6.726,1.29c2.204,0.567,4.379,1.182,6.553,1.96
			c-1.159,0.016-2.305-0.118-3.437-0.296c-1.134-0.173-2.25-0.424-3.361-0.694C29.895,94.787,27.711,94.105,25.625,93.103z"/>
	</g>
	<path fill="#FFE3AF" d="M78.082,95.307c-4.024,0.152-8.029,0.805-11.895,1.938c-0.521,0.153-1.106,0.374-1.297,0.883
		c-0.177,0.47,0.081,1.016,0.482,1.315c0.402,0.3,0.914,0.403,1.411,0.47c2.283,0.303,4.601-0.027,6.864-0.456
		c4.771-0.903,9.459-2.248,13.982-4.012c2.664-1.038,5.32-2.254,7.424-4.19c0.229-0.211,0.459-0.442,0.559-0.738
		c0.101-0.295,0.029-0.672-0.24-0.831c-0.344-0.202-0.77,0.034-1.105,0.247c-1.359,0.861-2.875,1.443-4.378,2.02
		c-2.018,0.772-4.147,1.421-6.021,2.488C82.143,95.424,80.024,95.232,78.082,95.307z"/>
	<g>
		<path fill="#50231C" d="M45.18,97.279c6.383,0.214,12.667,0.348,18.949,0.076c3.142-0.084,6.267-0.369,9.395-0.68
			c3.137-0.309,6.229-0.855,9.398-1.35c-2.922,1.289-6.004,2.285-9.156,2.893c-3.148,0.635-6.351,1.013-9.557,1.134
			c-3.207,0.104-6.418,0.04-9.604-0.297C51.422,98.726,48.25,98.202,45.18,97.279z"/>
	</g>
	<g>
		<g opacity="0.4">
			<g>
				<g>
					<g>
						<g>
							<path fill="#299C9D" d="M28.215,76.04c0,0.557,0,1.113,0,1.67c0,0.877,1.364,0.879,1.364,0c0-0.557,0-1.113,0-1.67
								C29.579,75.162,28.215,75.161,28.215,76.04L28.215,76.04z"/>
						</g>
					</g>
					<g>
						<path fill="#299C9D" d="M30.577,89.24c0.579,1.09,1.508,2.007,2.616,2.554c0.66,0.326,1.476,0.178,1.866-0.489
							c0.352-0.602,0.174-1.539-0.489-1.865c-0.207-0.103-0.399-0.219-0.595-0.34c-0.038-0.027-0.075-0.053-0.113-0.079
							c0.076,0.062,0.078,0.063,0.006,0.003c-0.087-0.074-0.173-0.15-0.255-0.229c-0.065-0.063-0.129-0.13-0.191-0.196
							c0.003,0.003-0.221-0.266-0.156-0.179c0.075,0.1-0.114-0.173-0.13-0.198c-0.074-0.115-0.14-0.236-0.204-0.357
							c-0.346-0.649-1.249-0.85-1.866-0.488C30.409,87.76,30.23,88.588,30.577,89.24L30.577,89.24z"/>
					</g>
					<g>
						<path fill="#299C9D" d="M44.574,91.883c0.556-0.5,1.113-1.001,1.669-1.502c0.654-0.588-0.313-1.551-0.964-0.965
							c-0.557,0.502-1.113,1.002-1.67,1.503C42.955,91.508,43.922,92.469,44.574,91.883L44.574,91.883z"/>
					</g>
					<g>
						<path fill="#299C9D" d="M57.277,82.964c0.277,0.168,0.555,0.336,0.833,0.504c0.753,0.456,1.439-0.724,0.688-1.178
							c-0.278-0.168-0.555-0.336-0.833-0.504C57.213,81.33,56.526,82.51,57.277,82.964L57.277,82.964z"/>
					</g>
					<g>
						<path fill="#299C9D" d="M76.516,94.041c0.842-0.4,1.526-1.031,2.031-1.813c0.479-0.738-0.701-1.424-1.178-0.688
							c-0.385,0.595-0.904,1.02-1.542,1.322C75.035,93.24,75.726,94.416,76.516,94.041L76.516,94.041z"/>
					</g>
					<g>
						<g>
							<path fill="#299C9D" d="M92.723,82.587c0.351-0.821,0.623-1.628,0.75-2.514c0.102-0.703-0.172-1.5-0.952-1.678
								c-0.646-0.147-1.569,0.197-1.678,0.953c-0.089,0.618-0.266,1.371-0.476,1.863c-0.289,0.676-0.202,1.461,0.489,1.865
								C91.43,83.412,92.432,83.268,92.723,82.587L92.723,82.587z"/>
						</g>
					</g>
					<g>
						<g>
							<path fill="#299C9D" d="M47.967,78.174c-0.391-0.22-0.782-0.44-1.172-0.661c-0.642-0.362-1.49-0.153-1.866,0.489
								c-0.369,0.63-0.154,1.503,0.489,1.866c0.391,0.22,0.782,0.44,1.173,0.661c0.641,0.362,1.49,0.153,1.866-0.489
								C48.825,79.41,48.61,78.538,47.967,78.174L47.967,78.174z"/>
						</g>
					</g>
					<g>
						<g>
							<path fill="#299C9D" d="M54.749,96.557c0.533,0.131,0.877,0.263,1.344,0.53c0.639,0.365,1.492,0.15,1.866-0.489
								c0.37-0.634,0.152-1.5-0.489-1.866c-0.624-0.356-1.298-0.634-1.996-0.806c-0.691-0.17-1.511,0.221-1.678,0.953
								C53.636,95.583,54.007,96.374,54.749,96.557L54.749,96.557z"/>
						</g>
					</g>
					<g>
						<path fill="#299C9D" d="M68.499,84.709c0.776-0.186,1.362-0.66,1.808-1.307c0.418-0.607,0.113-1.514-0.49-1.866
							c-0.676-0.396-1.447-0.12-1.865,0.489c0.137-0.2-0.176,0.15,0.006-0.009c-0.04,0.022-0.08,0.045-0.119,0.067
							c0.112-0.052,0.092-0.054-0.064-0.005c-0.717,0.171-1.143,0.985-0.952,1.678C67.022,84.488,67.779,84.881,68.499,84.709
							L68.499,84.709z"/>
					</g>
				</g>
				<g>
					<polygon fill="#299C9D" points="36.742,81.592 38.445,82.439 40.107,81.517 39.828,83.398 41.22,84.694 39.344,85.01 
						38.541,86.734 37.661,85.048 35.773,84.816 37.105,83.459 					"/>
				</g>
				<g>
					<polygon fill="#299C9D" points="23.669,80.284 24.657,80.775 25.623,80.24 25.46,81.332 26.268,82.084 25.18,82.268 
						24.713,83.269 24.203,82.289 23.107,82.155 23.88,81.367 					"/>
				</g>
				<g>
					<polygon fill="#299C9D" points="90.6,89.579 91.053,90.586 92.139,90.783 91.322,91.525 91.47,92.619 90.512,92.071 
						89.517,92.551 89.742,91.469 88.979,90.672 90.076,90.551 					"/>
				</g>
				<g>
					<polygon fill="#299C9D" points="82.795,79.292 83.739,80.742 85.469,80.785 84.383,82.131 84.875,83.789 83.26,83.172 
						81.834,84.154 81.922,82.426 80.549,81.374 82.219,80.924 					"/>
				</g>
				<g>
					<polygon fill="#299C9D" points="65.298,87.968 65.794,90.105 67.836,90.908 65.956,92.041 65.823,94.23 64.166,92.793 
						62.041,93.344 62.896,91.322 61.717,89.473 63.902,89.662 					"/>
				</g>
			</g>
		</g>
		<g>
			<g>
				<g>
					<path fill="#FAB078" d="M27.916,75.628c0,0.556,0,1.113,0,1.669c0,0.877,1.364,0.879,1.364,0c0-0.557,0-1.113,0-1.669
						C29.28,74.75,27.916,74.75,27.916,75.628L27.916,75.628z"/>
				</g>
				<g>
					<path fill="#F16374" d="M30.279,88.829c0.579,1.09,1.508,2.007,2.616,2.554c0.66,0.326,1.476,0.178,1.866-0.489
						c0.352-0.603,0.174-1.538-0.489-1.866c-0.207-0.102-0.399-0.219-0.595-0.34c-0.038-0.025-0.075-0.052-0.112-0.078
						c0.076,0.061,0.078,0.063,0.006,0.002c-0.088-0.072-0.173-0.148-0.255-0.229c-0.066-0.063-0.129-0.129-0.191-0.197
						c0.003,0.004-0.221-0.265-0.156-0.178c0.075,0.1-0.114-0.172-0.13-0.198c-0.073-0.116-0.14-0.235-0.204-0.356
						c-0.345-0.65-1.249-0.851-1.866-0.49C30.11,87.348,29.932,88.176,30.279,88.829L30.279,88.829z"/>
				</g>
				<g>
					<path fill="#F16374" d="M44.275,91.473c0.557-0.502,1.113-1.002,1.67-1.503c0.654-0.589-0.313-1.551-0.964-0.965
						c-0.557,0.501-1.113,1.002-1.67,1.503C42.657,91.096,43.624,92.059,44.275,91.473L44.275,91.473z"/>
				</g>
				<g>
					<path fill="#F16374" d="M56.979,82.553c0.278,0.168,0.555,0.336,0.833,0.504c0.752,0.455,1.439-0.723,0.688-1.178
						c-0.278-0.168-0.556-0.336-0.833-0.504C56.914,80.919,56.228,82.098,56.979,82.553L56.979,82.553z"/>
				</g>
				<g>
					<path fill="#F16374" d="M76.217,93.63c0.843-0.4,1.526-1.031,2.031-1.813c0.479-0.739-0.701-1.423-1.177-0.688
						c-0.386,0.596-0.905,1.021-1.543,1.323C74.736,92.829,75.428,94.005,76.217,93.63L76.217,93.63z"/>
				</g>
				<g>
					<path fill="#FAB078" d="M92.424,82.176c0.351-0.82,0.623-1.628,0.75-2.515c0.102-0.703-0.172-1.5-0.952-1.677
						c-0.646-0.147-1.569,0.197-1.678,0.953c-0.089,0.618-0.265,1.371-0.476,1.862c-0.289,0.678-0.201,1.462,0.49,1.866
						C91.132,83,92.133,82.857,92.424,82.176L92.424,82.176z"/>
				</g>
				<g>
					<path fill="#FAB078" d="M47.668,77.763c-0.391-0.22-0.782-0.441-1.173-0.661c-0.641-0.362-1.49-0.153-1.866,0.489
						c-0.369,0.63-0.154,1.503,0.489,1.866c0.391,0.221,0.782,0.441,1.172,0.661c0.642,0.362,1.49,0.153,1.866-0.489
						C48.526,78.999,48.312,78.126,47.668,77.763L47.668,77.763z"/>
				</g>
				<g>
					<g>
						<path fill="#FAB078" d="M54.45,96.145c0.534,0.132,0.877,0.264,1.344,0.531c0.639,0.365,1.492,0.15,1.866-0.49
							c0.371-0.633,0.152-1.498-0.489-1.865c-0.624-0.357-1.298-0.634-1.996-0.806c-0.691-0.17-1.511,0.222-1.677,0.952
							C53.337,95.172,53.709,95.963,54.45,96.145L54.45,96.145z"/>
					</g>
				</g>
				<g>
					<path fill="#F16374" d="M68.2,84.298c0.776-0.185,1.362-0.661,1.808-1.308c0.418-0.607,0.113-1.514-0.49-1.865
						c-0.676-0.396-1.446-0.119-1.865,0.488c0.138-0.199-0.176,0.152,0.006-0.008c-0.039,0.022-0.08,0.045-0.119,0.067
						c0.113-0.052,0.092-0.054-0.064-0.005c-0.717,0.171-1.143,0.984-0.952,1.678C66.724,84.078,67.481,84.47,68.2,84.298
						L68.2,84.298z"/>
				</g>
			</g>
			<g>
				<polygon fill="#D41C5C" points="36.443,81.182 38.146,82.027 39.809,81.105 39.53,82.986 40.921,84.283 39.045,84.599 
					38.243,86.322 37.363,84.637 35.475,84.405 36.807,83.048 				"/>
				<linearGradient id="SVGID_2_" gradientUnits="userSpaceOnUse" x1="38.0991" y1="83.2549" x2="40.2916" y2="85.6513">
					<stop  offset="0" style="stop-color:#62353A;stop-opacity:0"/>
					<stop  offset="1" style="stop-color:#62353A"/>
				</linearGradient>
				<polygon opacity="0.8" fill="url(#SVGID_2_)" points="36.443,81.182 38.146,82.027 39.809,81.105 39.53,82.986 40.921,84.283 
					39.045,84.599 38.243,86.322 37.363,84.637 35.475,84.405 36.807,83.048 				"/>
			</g>
			<g>
				<polygon fill="#D41C5C" points="23.371,79.873 24.359,80.364 25.324,79.829 25.162,80.92 25.97,81.674 24.881,81.856 
					24.415,82.857 23.904,81.879 22.808,81.744 23.582,80.956 				"/>
				<linearGradient id="SVGID_3_" gradientUnits="userSpaceOnUse" x1="24.332" y1="81.0771" x2="25.605" y2="82.4686">
					<stop  offset="0" style="stop-color:#62353A;stop-opacity:0"/>
					<stop  offset="1" style="stop-color:#62353A"/>
				</linearGradient>
				<polygon opacity="0.8" fill="url(#SVGID_3_)" points="23.371,79.873 24.359,80.364 25.324,79.829 25.162,80.92 25.97,81.674 
					24.881,81.856 24.415,82.857 23.904,81.879 22.808,81.744 23.582,80.956 				"/>
			</g>
			<g>
				<polygon fill="#D41C5C" points="90.301,89.168 90.754,90.175 91.841,90.372 91.023,91.114 91.172,92.208 90.213,91.66 
					89.219,92.139 89.443,91.059 88.68,90.26 89.777,90.14 				"/>
				
					<linearGradient id="SVGID_4_" gradientUnits="userSpaceOnUse" x1="64.6445" y1="-13.5908" x2="65.9171" y2="-12.1999" gradientTransform="matrix(0.7737 0.6336 -0.6336 0.7737 31.6548 60.2656)">
					<stop  offset="0" style="stop-color:#62353A;stop-opacity:0"/>
					<stop  offset="1" style="stop-color:#62353A"/>
				</linearGradient>
				<polygon opacity="0.8" fill="url(#SVGID_4_)" points="90.301,89.168 90.754,90.175 91.841,90.372 91.023,91.114 91.172,92.208 
					90.213,91.66 89.219,92.139 89.443,91.059 88.68,90.26 89.777,90.14 				"/>
			</g>
			<g>
				<polygon fill="#D41C5C" points="82.496,78.881 83.44,80.33 85.17,80.374 84.084,81.72 84.576,83.378 82.961,82.761 
					81.536,83.742 81.623,82.015 80.25,80.963 81.92,80.512 				"/>
				
					<linearGradient id="SVGID_5_" gradientUnits="userSpaceOnUse" x1="69.6211" y1="-1.4595" x2="71.6152" y2="0.7202" gradientTransform="matrix(0.862 0.5069 -0.5069 0.862 22.084 47.2393)">
					<stop  offset="0" style="stop-color:#62353A;stop-opacity:0"/>
					<stop  offset="1" style="stop-color:#62353A"/>
				</linearGradient>
				<polygon opacity="0.8" fill="url(#SVGID_5_)" points="82.496,78.881 83.44,80.33 85.17,80.374 84.084,81.72 84.576,83.378 
					82.961,82.761 81.536,83.742 81.623,82.015 80.25,80.963 81.92,80.512 				"/>
			</g>
			<g>
				<polygon fill="#D41C5C" points="64.999,87.557 65.495,89.693 67.537,90.497 65.658,91.629 65.525,93.819 63.867,92.382 
					61.743,92.933 62.598,90.912 61.418,89.062 63.604,89.25 				"/>
				
					<linearGradient id="SVGID_6_" gradientUnits="userSpaceOnUse" x1="27.7705" y1="-29.2412" x2="30.3004" y2="-26.476" gradientTransform="matrix(0.6362 0.7715 -0.7715 0.6362 24.1421 87.7305)">
					<stop  offset="0" style="stop-color:#62353A;stop-opacity:0"/>
					<stop  offset="1" style="stop-color:#62353A"/>
				</linearGradient>
				<polygon opacity="0.8" fill="url(#SVGID_6_)" points="64.999,87.557 65.495,89.693 67.537,90.497 65.658,91.629 65.525,93.819 
					63.867,92.382 61.743,92.933 62.598,90.912 61.418,89.062 63.604,89.25 				"/>
			</g>
		</g>
		<g>
			<path fill="#FFFFFF" d="M28.385,75.602c0.103,0.261,0.11,0.521,0.125,0.782c-0.014,0.261-0.021,0.521-0.125,0.782
				c-0.104-0.26-0.111-0.521-0.125-0.782C28.275,76.123,28.282,75.862,28.385,75.602z"/>
		</g>
		<g>
			<path fill="#FFFFFF" d="M31.513,87.451c0.313,0.57,0.666,1.025,1.105,1.397c0.436,0.378,0.951,0.646,1.533,0.948
				c-0.326,0.04-0.657,0.008-0.976-0.092c-0.326-0.082-0.617-0.268-0.883-0.477c-0.257-0.223-0.471-0.498-0.605-0.808
				C31.551,88.115,31.469,87.782,31.513,87.451z"/>
		</g>
		<g>
			<path fill="#FFFFFF" d="M45.635,77.532c0.433,0.007,0.796,0.147,1.143,0.318c0.338,0.188,0.659,0.407,0.91,0.76
				c-0.433-0.006-0.796-0.146-1.143-0.318C46.208,78.104,45.887,77.884,45.635,77.532z"/>
		</g>
		<g>
			<path fill="#FFFFFF" d="M43.726,90.814c0.17-0.313,0.408-0.557,0.64-0.806c0.252-0.228,0.5-0.462,0.815-0.627
				c-0.169,0.313-0.407,0.556-0.64,0.806C44.288,90.415,44.041,90.648,43.726,90.814z"/>
		</g>
		<g>
			<path fill="#FFFFFF" d="M57.265,81.684c0.222-0.004,0.4,0.079,0.582,0.154c0.168,0.102,0.34,0.196,0.469,0.378
				c-0.222,0.004-0.4-0.079-0.582-0.155C57.565,81.959,57.394,81.863,57.265,81.684z"/>
		</g>
		<g>
			<path fill="#FFFFFF" d="M54.353,94.114c0.555-0.161,1.133-0.106,1.675,0.071c0.525,0.185,1.082,0.564,1.237,1.141
				c-0.472-0.324-0.911-0.499-1.402-0.669C55.379,94.48,54.878,94.342,54.353,94.114z"/>
		</g>
		<g>
			<path fill="#FFFFFF" d="M67.039,82.839c0.34-0.267,0.655-0.437,0.947-0.632c0.301-0.191,0.543-0.369,0.836-0.692
				c0.098,0.441-0.208,0.888-0.564,1.112C67.891,82.849,67.461,82.953,67.039,82.839z"/>
		</g>
		<g>
			<path fill="#FFFFFF" d="M75.664,92.852c0.732-0.402,1.39-0.785,1.905-1.441c-0.052,0.202-0.136,0.404-0.269,0.574
				c-0.129,0.17-0.289,0.316-0.459,0.445C76.486,92.661,76.09,92.839,75.664,92.852z"/>
		</g>
		<g>
			<path fill="#FFFFFF" d="M91.382,78.881c0.222,0.467,0.233,0.986,0.122,1.481c-0.12,0.481-0.436,1.001-0.945,1.157
				c0.238-0.455,0.354-0.84,0.461-1.279C91.135,79.809,91.215,79.365,91.382,78.881z"/>
		</g>
	</g>
	<path opacity="0.5" fill="#FFE3AF" d="M92.961,97.158c-0.201,0.065-0.462,0.206-0.396,0.408c0.019,0.057,0.063,0.102,0.108,0.142
		c0.573,0.498,1.455,0.44,2.158,0.155c0.703-0.286,1.318-0.761,2.021-1.046c0.445-0.181,0.919-0.282,1.364-0.462
		c0.643-0.259,1.218-0.681,1.659-1.216c0.166-0.201,0.32-0.469,0.222-0.71C99.277,92.41,93.806,96.883,92.961,97.158z"/>
	<path opacity="0.5" fill="#FFE3AF" d="M85.747,98.562c-0.249,0.023-0.509,0.045-0.723,0.174c-0.214,0.128-0.366,0.4-0.271,0.632
		c3.01,0.712,6.291,0.198,8.939-1.398c0.244-0.147,0.49-0.31,0.65-0.547c0.16-0.236,0.215-0.566,0.061-0.807
		C94.178,96.26,86.509,98.489,85.747,98.562z"/>
	<path opacity="0.5" fill="#FFE3AF" d="M61.648,103.324c1.143,1.053,2.94,0.555,4.455,0.211c4.635-1.054,9.794-0.069,13.966-2.349
		c-1.104-0.52-2.653,0.077-3.794,0.227c-1.666,0.217-3.332,0.436-4.998,0.653c-1.625,0.212-3.25,0.425-4.875,0.637
		C65.74,102.79,62.074,103.717,61.648,103.324z"/>
</g>
</svg>
